ISO-10303-21;
HEADER;
/* Generated by software containing ST-Developer
 * from STEP Tools, Inc. (www.steptools.com) 
 */

FILE_DESCRIPTION(
/* description */ (''),
/* implementation_level */ '2;1');

FILE_NAME(
/* name */ 'basepcb.dwg.stp',
/* time_stamp */ '2026-04-12T15:30:18+07:00',
/* author */ ('Fork'),
/* organization */ (''),
/* preprocessor_version */ 'ST-DEVELOPER v20.1',
/* originating_system */ 'Autodesk Inventor 2026',
/* authorisation */ '');

FILE_SCHEMA (('AUTOMOTIVE_DESIGN { 1 0 10303 214 3 1 1 }'));
ENDSEC;

DATA;
#10=MECHANICAL_DESIGN_GEOMETRIC_PRESENTATION_REPRESENTATION('',(#13),#1634);
#11=SHAPE_REPRESENTATION_RELATIONSHIP('SRR','None',#1641,#12);
#12=ADVANCED_BREP_SHAPE_REPRESENTATION('',(#14),#1633);
#13=STYLED_ITEM('',(#1650),#14);
#14=MANIFOLD_SOLID_BREP('Solid1',#989);
#15=FACE_BOUND('',#123,.T.);
#16=FACE_BOUND('',#124,.T.);
#17=FACE_BOUND('',#125,.T.);
#18=FACE_BOUND('',#128,.T.);
#19=FACE_BOUND('',#129,.T.);
#20=FACE_BOUND('',#159,.T.);
#21=FACE_BOUND('',#160,.T.);
#22=FACE_BOUND('',#161,.T.);
#23=CYLINDRICAL_SURFACE('',#1017,5.);
#24=CYLINDRICAL_SURFACE('',#1020,5.);
#25=CYLINDRICAL_SURFACE('',#1055,3.5);
#26=CYLINDRICAL_SURFACE('',#1056,2.1);
#27=CYLINDRICAL_SURFACE('',#1058,3.5);
#28=CYLINDRICAL_SURFACE('',#1059,2.1);
#29=CYLINDRICAL_SURFACE('',#1066,5.);
#30=CYLINDRICAL_SURFACE('',#1067,5.);
#31=CYLINDRICAL_SURFACE('',#1068,5.);
#32=CYLINDRICAL_SURFACE('',#1070,5.);
#33=CYLINDRICAL_SURFACE('',#1082,1.75);
#34=CYLINDRICAL_SURFACE('',#1083,1.75);
#35=CIRCLE('',#1014,5.);
#36=CIRCLE('',#1015,5.);
#37=CIRCLE('',#1018,5.);
#38=CIRCLE('',#1021,5.);
#39=CIRCLE('',#1028,5.);
#40=CIRCLE('',#1029,3.5);
#41=CIRCLE('',#1032,5.);
#42=CIRCLE('',#1033,5.);
#43=CIRCLE('',#1034,1.75);
#44=CIRCLE('',#1035,1.75);
#45=CIRCLE('',#1037,3.5);
#46=CIRCLE('',#1038,5.);
#47=CIRCLE('',#1040,5.);
#48=CIRCLE('',#1041,5.);
#49=CIRCLE('',#1042,3.5);
#50=CIRCLE('',#1043,5.);
#51=CIRCLE('',#1044,5.);
#52=CIRCLE('',#1045,3.5);
#53=CIRCLE('',#1046,2.1);
#54=CIRCLE('',#1047,2.1);
#55=CIRCLE('',#1057,2.1);
#56=CIRCLE('',#1060,2.1);
#57=CIRCLE('',#1079,1.75);
#58=CIRCLE('',#1080,1.75);
#59=FACE_OUTER_BOUND('',#109,.T.);
#60=FACE_OUTER_BOUND('',#110,.T.);
#61=FACE_OUTER_BOUND('',#111,.T.);
#62=FACE_OUTER_BOUND('',#112,.T.);
#63=FACE_OUTER_BOUND('',#113,.T.);
#64=FACE_OUTER_BOUND('',#114,.T.);
#65=FACE_OUTER_BOUND('',#115,.T.);
#66=FACE_OUTER_BOUND('',#116,.T.);
#67=FACE_OUTER_BOUND('',#117,.T.);
#68=FACE_OUTER_BOUND('',#118,.T.);
#69=FACE_OUTER_BOUND('',#119,.T.);
#70=FACE_OUTER_BOUND('',#120,.T.);
#71=FACE_OUTER_BOUND('',#121,.T.);
#72=FACE_OUTER_BOUND('',#122,.T.);
#73=FACE_OUTER_BOUND('',#126,.T.);
#74=FACE_OUTER_BOUND('',#127,.T.);
#75=FACE_OUTER_BOUND('',#130,.T.);
#76=FACE_OUTER_BOUND('',#131,.T.);
#77=FACE_OUTER_BOUND('',#132,.T.);
#78=FACE_OUTER_BOUND('',#133,.T.);
#79=FACE_OUTER_BOUND('',#134,.T.);
#80=FACE_OUTER_BOUND('',#135,.T.);
#81=FACE_OUTER_BOUND('',#136,.T.);
#82=FACE_OUTER_BOUND('',#137,.T.);
#83=FACE_OUTER_BOUND('',#138,.T.);
#84=FACE_OUTER_BOUND('',#139,.T.);
#85=FACE_OUTER_BOUND('',#140,.T.);
#86=FACE_OUTER_BOUND('',#141,.T.);
#87=FACE_OUTER_BOUND('',#142,.T.);
#88=FACE_OUTER_BOUND('',#143,.T.);
#89=FACE_OUTER_BOUND('',#144,.T.);
#90=FACE_OUTER_BOUND('',#145,.T.);
#91=FACE_OUTER_BOUND('',#146,.T.);
#92=FACE_OUTER_BOUND('',#147,.T.);
#93=FACE_OUTER_BOUND('',#148,.T.);
#94=FACE_OUTER_BOUND('',#149,.T.);
#95=FACE_OUTER_BOUND('',#150,.T.);
#96=FACE_OUTER_BOUND('',#151,.T.);
#97=FACE_OUTER_BOUND('',#152,.T.);
#98=FACE_OUTER_BOUND('',#153,.T.);
#99=FACE_OUTER_BOUND('',#154,.T.);
#100=FACE_OUTER_BOUND('',#155,.T.);
#101=FACE_OUTER_BOUND('',#156,.T.);
#102=FACE_OUTER_BOUND('',#157,.T.);
#103=FACE_OUTER_BOUND('',#158,.T.);
#104=FACE_OUTER_BOUND('',#162,.T.);
#105=FACE_OUTER_BOUND('',#163,.T.);
#106=FACE_OUTER_BOUND('',#164,.T.);
#107=FACE_OUTER_BOUND('',#165,.T.);
#108=FACE_OUTER_BOUND('',#166,.T.);
#109=EDGE_LOOP('',(#625,#626,#627,#628,#629,#630,#631,#632,#633,#634,#635,
#636));
#110=EDGE_LOOP('',(#637,#638,#639,#640,#641,#642));
#111=EDGE_LOOP('',(#643,#644,#645,#646));
#112=EDGE_LOOP('',(#647,#648,#649,#650));
#113=EDGE_LOOP('',(#651,#652,#653,#654));
#114=EDGE_LOOP('',(#655,#656,#657,#658));
#115=EDGE_LOOP('',(#659,#660,#661,#662,#663,#664,#665,#666));
#116=EDGE_LOOP('',(#667,#668,#669,#670));
#117=EDGE_LOOP('',(#671,#672,#673,#674));
#118=EDGE_LOOP('',(#675,#676,#677,#678));
#119=EDGE_LOOP('',(#679,#680,#681,#682));
#120=EDGE_LOOP('',(#683,#684,#685,#686,#687,#688,#689,#690,#691,#692,#693));
#121=EDGE_LOOP('',(#694,#695,#696,#697));
#122=EDGE_LOOP('',(#698,#699,#700,#701,#702,#703));
#123=EDGE_LOOP('',(#704));
#124=EDGE_LOOP('',(#705));
#125=EDGE_LOOP('',(#706,#707,#708,#709));
#126=EDGE_LOOP('',(#710,#711,#712,#713,#714,#715,#716,#717,#718,#719,#720));
#127=EDGE_LOOP('',(#721,#722,#723,#724,#725,#726,#727,#728,#729,#730,#731,
#732,#733,#734,#735,#736,#737,#738,#739,#740,#741,#742,#743,#744));
#128=EDGE_LOOP('',(#745));
#129=EDGE_LOOP('',(#746));
#130=EDGE_LOOP('',(#747,#748,#749,#750));
#131=EDGE_LOOP('',(#751,#752,#753,#754,#755,#756));
#132=EDGE_LOOP('',(#757,#758,#759,#760,#761,#762,#763,#764));
#133=EDGE_LOOP('',(#765,#766,#767,#768));
#134=EDGE_LOOP('',(#769,#770,#771,#772));
#135=EDGE_LOOP('',(#773,#774,#775,#776,#777,#778,#779,#780));
#136=EDGE_LOOP('',(#781,#782,#783,#784));
#137=EDGE_LOOP('',(#785,#786,#787,#788));
#138=EDGE_LOOP('',(#789,#790,#791,#792));
#139=EDGE_LOOP('',(#793,#794,#795,#796));
#140=EDGE_LOOP('',(#797,#798,#799,#800));
#141=EDGE_LOOP('',(#801,#802,#803,#804));
#142=EDGE_LOOP('',(#805,#806,#807,#808));
#143=EDGE_LOOP('',(#809,#810,#811,#812));
#144=EDGE_LOOP('',(#813));
#145=EDGE_LOOP('',(#814));
#146=EDGE_LOOP('',(#815,#816,#817,#818));
#147=EDGE_LOOP('',(#819,#820,#821,#822));
#148=EDGE_LOOP('',(#823,#824,#825,#826));
#149=EDGE_LOOP('',(#827,#828,#829,#830));
#150=EDGE_LOOP('',(#831,#832,#833,#834));
#151=EDGE_LOOP('',(#835,#836,#837,#838));
#152=EDGE_LOOP('',(#839,#840,#841,#842));
#153=EDGE_LOOP('',(#843,#844,#845,#846));
#154=EDGE_LOOP('',(#847,#848,#849,#850));
#155=EDGE_LOOP('',(#851,#852,#853,#854));
#156=EDGE_LOOP('',(#855,#856,#857,#858));
#157=EDGE_LOOP('',(#859,#860,#861,#862));
#158=EDGE_LOOP('',(#863,#864,#865,#866));
#159=EDGE_LOOP('',(#867,#868,#869,#870));
#160=EDGE_LOOP('',(#871));
#161=EDGE_LOOP('',(#872));
#162=EDGE_LOOP('',(#873,#874,#875,#876,#877,#878,#879,#880,#881,#882,#883,
#884));
#163=EDGE_LOOP('',(#885,#886,#887,#888));
#164=EDGE_LOOP('',(#889,#890,#891,#892));
#165=EDGE_LOOP('',(#893,#894,#895,#896));
#166=EDGE_LOOP('',(#897,#898,#899,#900));
#167=LINE('',#1354,#281);
#168=LINE('',#1356,#282);
#169=LINE('',#1358,#283);
#170=LINE('',#1360,#284);
#171=LINE('',#1362,#285);
#172=LINE('',#1364,#286);
#173=LINE('',#1366,#287);
#174=LINE('',#1368,#288);
#175=LINE('',#1370,#289);
#176=LINE('',#1372,#290);
#177=LINE('',#1374,#291);
#178=LINE('',#1375,#292);
#179=LINE('',#1381,#293);
#180=LINE('',#1383,#294);
#181=LINE('',#1385,#295);
#182=LINE('',#1388,#296);
#183=LINE('',#1391,#297);
#184=LINE('',#1393,#298);
#185=LINE('',#1394,#299);
#186=LINE('',#1397,#300);
#187=LINE('',#1400,#301);
#188=LINE('',#1403,#302);
#189=LINE('',#1404,#303);
#190=LINE('',#1407,#304);
#191=LINE('',#1411,#305);
#192=LINE('',#1413,#306);
#193=LINE('',#1414,#307);
#194=LINE('',#1415,#308);
#195=LINE('',#1419,#309);
#196=LINE('',#1421,#310);
#197=LINE('',#1423,#311);
#198=LINE('',#1424,#312);
#199=LINE('',#1427,#313);
#200=LINE('',#1429,#314);
#201=LINE('',#1430,#315);
#202=LINE('',#1434,#316);
#203=LINE('',#1436,#317);
#204=LINE('',#1438,#318);
#205=LINE('',#1439,#319);
#206=LINE('',#1442,#320);
#207=LINE('',#1444,#321);
#208=LINE('',#1445,#322);
#209=LINE('',#1448,#323);
#210=LINE('',#1449,#324);
#211=LINE('',#1451,#325);
#212=LINE('',#1453,#326);
#213=LINE('',#1457,#327);
#214=LINE('',#1460,#328);
#215=LINE('',#1463,#329);
#216=LINE('',#1464,#330);
#217=LINE('',#1467,#331);
#218=LINE('',#1471,#332);
#219=LINE('',#1479,#333);
#220=LINE('',#1481,#334);
#221=LINE('',#1483,#335);
#222=LINE('',#1484,#336);
#223=LINE('',#1487,#337);
#224=LINE('',#1491,#338);
#225=LINE('',#1495,#339);
#226=LINE('',#1496,#340);
#227=LINE('',#1498,#341);
#228=LINE('',#1499,#342);
#229=LINE('',#1502,#343);
#230=LINE('',#1503,#344);
#231=LINE('',#1507,#345);
#232=LINE('',#1510,#346);
#233=LINE('',#1511,#347);
#234=LINE('',#1513,#348);
#235=LINE('',#1517,#349);
#236=LINE('',#1521,#350);
#237=LINE('',#1525,#351);
#238=LINE('',#1528,#352);
#239=LINE('',#1534,#353);
#240=LINE('',#1536,#354);
#241=LINE('',#1538,#355);
#242=LINE('',#1542,#356);
#243=LINE('',#1543,#357);
#244=LINE('',#1546,#358);
#245=LINE('',#1548,#359);
#246=LINE('',#1550,#360);
#247=LINE('',#1552,#361);
#248=LINE('',#1554,#362);
#249=LINE('',#1555,#363);
#250=LINE('',#1557,#364);
#251=LINE('',#1559,#365);
#252=LINE('',#1560,#366);
#253=LINE('',#1563,#367);
#254=LINE('',#1566,#368);
#255=LINE('',#1569,#369);
#256=LINE('',#1572,#370);
#257=LINE('',#1575,#371);
#258=LINE('',#1579,#372);
#259=LINE('',#1581,#373);
#260=LINE('',#1583,#374);
#261=LINE('',#1585,#375);
#262=LINE('',#1590,#376);
#263=LINE('',#1591,#377);
#264=LINE('',#1592,#378);
#265=LINE('',#1595,#379);
#266=LINE('',#1596,#380);
#267=LINE('',#1599,#381);
#268=LINE('',#1600,#382);
#269=LINE('',#1602,#383);
#270=LINE('',#1606,#384);
#271=LINE('',#1607,#385);
#272=LINE('',#1608,#386);
#273=LINE('',#1611,#387);
#274=LINE('',#1612,#388);
#275=LINE('',#1615,#389);
#276=LINE('',#1616,#390);
#277=LINE('',#1618,#391);
#278=LINE('',#1625,#392);
#279=LINE('',#1627,#393);
#280=LINE('',#1629,#394);
#281=VECTOR('',#1090,10.);
#282=VECTOR('',#1091,10.);
#283=VECTOR('',#1092,10.);
#284=VECTOR('',#1093,10.);
#285=VECTOR('',#1094,10.);
#286=VECTOR('',#1095,10.);
#287=VECTOR('',#1096,10.);
#288=VECTOR('',#1097,10.);
#289=VECTOR('',#1098,10.);
#290=VECTOR('',#1099,10.);
#291=VECTOR('',#1100,10.);
#292=VECTOR('',#1101,10.);
#293=VECTOR('',#1106,10.);
#294=VECTOR('',#1107,10.);
#295=VECTOR('',#1108,10.);
#296=VECTOR('',#1111,10.);
#297=VECTOR('',#1114,10.);
#298=VECTOR('',#1115,10.);
#299=VECTOR('',#1116,10.);
#300=VECTOR('',#1119,10.);
#301=VECTOR('',#1122,10.);
#302=VECTOR('',#1125,10.);
#303=VECTOR('',#1126,10.);
#304=VECTOR('',#1129,10.);
#305=VECTOR('',#1134,10.);
#306=VECTOR('',#1135,10.);
#307=VECTOR('',#1136,10.);
#308=VECTOR('',#1137,10.);
#309=VECTOR('',#1140,10.);
#310=VECTOR('',#1141,10.);
#311=VECTOR('',#1142,10.);
#312=VECTOR('',#1143,10.);
#313=VECTOR('',#1146,10.);
#314=VECTOR('',#1147,10.);
#315=VECTOR('',#1148,10.);
#316=VECTOR('',#1151,10.);
#317=VECTOR('',#1152,10.);
#318=VECTOR('',#1153,10.);
#319=VECTOR('',#1154,10.);
#320=VECTOR('',#1157,10.);
#321=VECTOR('',#1158,10.);
#322=VECTOR('',#1159,10.);
#323=VECTOR('',#1162,10.);
#324=VECTOR('',#1163,10.);
#325=VECTOR('',#1164,10.);
#326=VECTOR('',#1165,10.);
#327=VECTOR('',#1168,10.);
#328=VECTOR('',#1171,10.);
#329=VECTOR('',#1174,10.);
#330=VECTOR('',#1175,10.);
#331=VECTOR('',#1178,10.);
#332=VECTOR('',#1181,10.);
#333=VECTOR('',#1188,10.);
#334=VECTOR('',#1189,10.);
#335=VECTOR('',#1190,10.);
#336=VECTOR('',#1191,10.);
#337=VECTOR('',#1194,10.);
#338=VECTOR('',#1197,10.);
#339=VECTOR('',#1200,10.);
#340=VECTOR('',#1201,10.);
#341=VECTOR('',#1202,10.);
#342=VECTOR('',#1203,10.);
#343=VECTOR('',#1206,10.);
#344=VECTOR('',#1207,10.);
#345=VECTOR('',#1210,10.);
#346=VECTOR('',#1213,10.);
#347=VECTOR('',#1214,10.);
#348=VECTOR('',#1215,10.);
#349=VECTOR('',#1218,10.);
#350=VECTOR('',#1221,10.);
#351=VECTOR('',#1224,10.);
#352=VECTOR('',#1227,10.);
#353=VECTOR('',#1234,10.);
#354=VECTOR('',#1237,10.);
#355=VECTOR('',#1240,10.);
#356=VECTOR('',#1245,10.);
#357=VECTOR('',#1246,10.);
#358=VECTOR('',#1249,10.);
#359=VECTOR('',#1250,10.);
#360=VECTOR('',#1251,10.);
#361=VECTOR('',#1252,10.);
#362=VECTOR('',#1253,10.);
#363=VECTOR('',#1254,10.);
#364=VECTOR('',#1257,10.);
#365=VECTOR('',#1260,10.);
#366=VECTOR('',#1261,10.);
#367=VECTOR('',#1264,2.1);
#368=VECTOR('',#1269,10.);
#369=VECTOR('',#1272,2.1);
#370=VECTOR('',#1277,10.);
#371=VECTOR('',#1282,10.);
#372=VECTOR('',#1289,10.);
#373=VECTOR('',#1292,10.);
#374=VECTOR('',#1295,10.);
#375=VECTOR('',#1298,10.);
#376=VECTOR('',#1303,10.);
#377=VECTOR('',#1304,10.);
#378=VECTOR('',#1305,10.);
#379=VECTOR('',#1308,10.);
#380=VECTOR('',#1309,10.);
#381=VECTOR('',#1312,10.);
#382=VECTOR('',#1313,10.);
#383=VECTOR('',#1316,10.);
#384=VECTOR('',#1319,10.);
#385=VECTOR('',#1320,10.);
#386=VECTOR('',#1321,10.);
#387=VECTOR('',#1324,10.);
#388=VECTOR('',#1325,10.);
#389=VECTOR('',#1328,10.);
#390=VECTOR('',#1329,10.);
#391=VECTOR('',#1332,10.);
#392=VECTOR('',#1341,1.75);
#393=VECTOR('',#1344,1.75);
#394=VECTOR('',#1347,10.);
#395=VERTEX_POINT('',#1352);
#396=VERTEX_POINT('',#1353);
#397=VERTEX_POINT('',#1355);
#398=VERTEX_POINT('',#1357);
#399=VERTEX_POINT('',#1359);
#400=VERTEX_POINT('',#1361);
#401=VERTEX_POINT('',#1363);
#402=VERTEX_POINT('',#1365);
#403=VERTEX_POINT('',#1367);
#404=VERTEX_POINT('',#1369);
#405=VERTEX_POINT('',#1371);
#406=VERTEX_POINT('',#1373);
#407=VERTEX_POINT('',#1377);
#408=VERTEX_POINT('',#1378);
#409=VERTEX_POINT('',#1380);
#410=VERTEX_POINT('',#1382);
#411=VERTEX_POINT('',#1384);
#412=VERTEX_POINT('',#1386);
#413=VERTEX_POINT('',#1390);
#414=VERTEX_POINT('',#1392);
#415=VERTEX_POINT('',#1396);
#416=VERTEX_POINT('',#1398);
#417=VERTEX_POINT('',#1402);
#418=VERTEX_POINT('',#1406);
#419=VERTEX_POINT('',#1410);
#420=VERTEX_POINT('',#1412);
#421=VERTEX_POINT('',#1417);
#422=VERTEX_POINT('',#1418);
#423=VERTEX_POINT('',#1420);
#424=VERTEX_POINT('',#1422);
#425=VERTEX_POINT('',#1426);
#426=VERTEX_POINT('',#1428);
#427=VERTEX_POINT('',#1432);
#428=VERTEX_POINT('',#1433);
#429=VERTEX_POINT('',#1435);
#430=VERTEX_POINT('',#1437);
#431=VERTEX_POINT('',#1441);
#432=VERTEX_POINT('',#1443);
#433=VERTEX_POINT('',#1447);
#434=VERTEX_POINT('',#1450);
#435=VERTEX_POINT('',#1452);
#436=VERTEX_POINT('',#1454);
#437=VERTEX_POINT('',#1456);
#438=VERTEX_POINT('',#1458);
#439=VERTEX_POINT('',#1462);
#440=VERTEX_POINT('',#1466);
#441=VERTEX_POINT('',#1468);
#442=VERTEX_POINT('',#1470);
#443=VERTEX_POINT('',#1473);
#444=VERTEX_POINT('',#1475);
#445=VERTEX_POINT('',#1477);
#446=VERTEX_POINT('',#1478);
#447=VERTEX_POINT('',#1480);
#448=VERTEX_POINT('',#1482);
#449=VERTEX_POINT('',#1486);
#450=VERTEX_POINT('',#1488);
#451=VERTEX_POINT('',#1490);
#452=VERTEX_POINT('',#1492);
#453=VERTEX_POINT('',#1494);
#454=VERTEX_POINT('',#1497);
#455=VERTEX_POINT('',#1501);
#456=VERTEX_POINT('',#1504);
#457=VERTEX_POINT('',#1506);
#458=VERTEX_POINT('',#1508);
#459=VERTEX_POINT('',#1512);
#460=VERTEX_POINT('',#1514);
#461=VERTEX_POINT('',#1516);
#462=VERTEX_POINT('',#1518);
#463=VERTEX_POINT('',#1520);
#464=VERTEX_POINT('',#1522);
#465=VERTEX_POINT('',#1524);
#466=VERTEX_POINT('',#1526);
#467=VERTEX_POINT('',#1529);
#468=VERTEX_POINT('',#1531);
#469=VERTEX_POINT('',#1541);
#470=VERTEX_POINT('',#1545);
#471=VERTEX_POINT('',#1547);
#472=VERTEX_POINT('',#1549);
#473=VERTEX_POINT('',#1551);
#474=VERTEX_POINT('',#1553);
#475=VERTEX_POINT('',#1562);
#476=VERTEX_POINT('',#1568);
#477=VERTEX_POINT('',#1588);
#478=VERTEX_POINT('',#1589);
#479=VERTEX_POINT('',#1594);
#480=VERTEX_POINT('',#1598);
#481=VERTEX_POINT('',#1604);
#482=VERTEX_POINT('',#1605);
#483=VERTEX_POINT('',#1610);
#484=VERTEX_POINT('',#1614);
#485=VERTEX_POINT('',#1619);
#486=VERTEX_POINT('',#1621);
#487=EDGE_CURVE('',#395,#396,#167,.T.);
#488=EDGE_CURVE('',#396,#397,#168,.T.);
#489=EDGE_CURVE('',#397,#398,#169,.T.);
#490=EDGE_CURVE('',#398,#399,#170,.T.);
#491=EDGE_CURVE('',#399,#400,#171,.T.);
#492=EDGE_CURVE('',#400,#401,#172,.T.);
#493=EDGE_CURVE('',#401,#402,#173,.T.);
#494=EDGE_CURVE('',#402,#403,#174,.T.);
#495=EDGE_CURVE('',#403,#404,#175,.T.);
#496=EDGE_CURVE('',#404,#405,#176,.T.);
#497=EDGE_CURVE('',#405,#406,#177,.T.);
#498=EDGE_CURVE('',#406,#395,#178,.T.);
#499=EDGE_CURVE('',#407,#408,#35,.T.);
#500=EDGE_CURVE('',#409,#407,#179,.T.);
#501=EDGE_CURVE('',#409,#410,#180,.T.);
#502=EDGE_CURVE('',#411,#410,#181,.T.);
#503=EDGE_CURVE('',#412,#411,#36,.T.);
#504=EDGE_CURVE('',#408,#412,#182,.T.);
#505=EDGE_CURVE('',#410,#413,#183,.T.);
#506=EDGE_CURVE('',#414,#409,#184,.T.);
#507=EDGE_CURVE('',#414,#413,#185,.T.);
#508=EDGE_CURVE('',#408,#415,#186,.T.);
#509=EDGE_CURVE('',#415,#416,#37,.T.);
#510=EDGE_CURVE('',#416,#407,#187,.T.);
#511=EDGE_CURVE('',#417,#412,#188,.T.);
#512=EDGE_CURVE('',#417,#415,#189,.T.);
#513=EDGE_CURVE('',#411,#418,#190,.T.);
#514=EDGE_CURVE('',#418,#417,#38,.T.);
#515=EDGE_CURVE('',#413,#419,#191,.T.);
#516=EDGE_CURVE('',#420,#419,#192,.T.);
#517=EDGE_CURVE('',#397,#420,#193,.T.);
#518=EDGE_CURVE('',#418,#396,#194,.T.);
#519=EDGE_CURVE('',#421,#422,#195,.T.);
#520=EDGE_CURVE('',#423,#421,#196,.T.);
#521=EDGE_CURVE('',#423,#424,#197,.T.);
#522=EDGE_CURVE('',#422,#424,#198,.T.);
#523=EDGE_CURVE('',#422,#425,#199,.T.);
#524=EDGE_CURVE('',#424,#426,#200,.T.);
#525=EDGE_CURVE('',#425,#426,#201,.T.);
#526=EDGE_CURVE('',#427,#428,#202,.T.);
#527=EDGE_CURVE('',#429,#427,#203,.T.);
#528=EDGE_CURVE('',#429,#430,#204,.T.);
#529=EDGE_CURVE('',#430,#428,#205,.T.);
#530=EDGE_CURVE('',#428,#431,#206,.T.);
#531=EDGE_CURVE('',#432,#430,#207,.T.);
#532=EDGE_CURVE('',#431,#432,#208,.T.);
#533=EDGE_CURVE('',#433,#431,#209,.T.);
#534=EDGE_CURVE('',#404,#433,#210,.T.);
#535=EDGE_CURVE('',#403,#434,#211,.T.);
#536=EDGE_CURVE('',#435,#434,#212,.T.);
#537=EDGE_CURVE('',#435,#436,#39,.T.);
#538=EDGE_CURVE('',#437,#436,#213,.T.);
#539=EDGE_CURVE('',#437,#438,#40,.T.);
#540=EDGE_CURVE('',#427,#438,#214,.T.);
#541=EDGE_CURVE('',#432,#439,#215,.T.);
#542=EDGE_CURVE('',#439,#433,#216,.T.);
#543=EDGE_CURVE('',#414,#440,#217,.T.);
#544=EDGE_CURVE('',#441,#440,#41,.T.);
#545=EDGE_CURVE('',#441,#442,#218,.T.);
#546=EDGE_CURVE('',#419,#442,#42,.T.);
#547=EDGE_CURVE('',#443,#443,#43,.T.);
#548=EDGE_CURVE('',#444,#444,#44,.T.);
#549=EDGE_CURVE('',#445,#446,#219,.T.);
#550=EDGE_CURVE('',#446,#447,#220,.T.);
#551=EDGE_CURVE('',#447,#448,#221,.T.);
#552=EDGE_CURVE('',#448,#445,#222,.T.);
#553=EDGE_CURVE('',#449,#425,#223,.T.);
#554=EDGE_CURVE('',#449,#450,#45,.T.);
#555=EDGE_CURVE('',#451,#450,#224,.T.);
#556=EDGE_CURVE('',#451,#452,#46,.T.);
#557=EDGE_CURVE('',#453,#452,#225,.T.);
#558=EDGE_CURVE('',#453,#400,#226,.T.);
#559=EDGE_CURVE('',#454,#399,#227,.T.);
#560=EDGE_CURVE('',#421,#454,#228,.T.);
#561=EDGE_CURVE('',#455,#423,#229,.T.);
#562=EDGE_CURVE('',#398,#455,#230,.T.);
#563=EDGE_CURVE('',#456,#420,#47,.T.);
#564=EDGE_CURVE('',#457,#456,#231,.T.);
#565=EDGE_CURVE('',#458,#457,#48,.T.);
#566=EDGE_CURVE('',#458,#406,#232,.T.);
#567=EDGE_CURVE('',#405,#439,#233,.T.);
#568=EDGE_CURVE('',#459,#429,#234,.T.);
#569=EDGE_CURVE('',#460,#459,#49,.T.);
#570=EDGE_CURVE('',#461,#460,#235,.T.);
#571=EDGE_CURVE('',#462,#461,#50,.T.);
#572=EDGE_CURVE('',#463,#462,#236,.T.);
#573=EDGE_CURVE('',#464,#463,#51,.T.);
#574=EDGE_CURVE('',#465,#464,#237,.T.);
#575=EDGE_CURVE('',#466,#465,#52,.T.);
#576=EDGE_CURVE('',#426,#466,#238,.T.);
#577=EDGE_CURVE('',#467,#467,#53,.T.);
#578=EDGE_CURVE('',#468,#468,#54,.T.);
#579=EDGE_CURVE('',#466,#449,#239,.T.);
#580=EDGE_CURVE('',#416,#395,#240,.T.);
#581=EDGE_CURVE('',#440,#458,#241,.T.);
#582=EDGE_CURVE('',#469,#402,#242,.T.);
#583=EDGE_CURVE('',#434,#469,#243,.T.);
#584=EDGE_CURVE('',#401,#470,#244,.T.);
#585=EDGE_CURVE('',#471,#470,#245,.T.);
#586=EDGE_CURVE('',#471,#472,#246,.T.);
#587=EDGE_CURVE('',#472,#473,#247,.T.);
#588=EDGE_CURVE('',#473,#474,#248,.T.);
#589=EDGE_CURVE('',#469,#474,#249,.T.);
#590=EDGE_CURVE('',#470,#453,#250,.T.);
#591=EDGE_CURVE('',#438,#459,#251,.T.);
#592=EDGE_CURVE('',#460,#437,#252,.T.);
#593=EDGE_CURVE('',#468,#475,#253,.T.);
#594=EDGE_CURVE('',#475,#475,#55,.T.);
#595=EDGE_CURVE('',#450,#465,#254,.T.);
#596=EDGE_CURVE('',#467,#476,#255,.T.);
#597=EDGE_CURVE('',#476,#476,#56,.T.);
#598=EDGE_CURVE('',#461,#436,#256,.T.);
#599=EDGE_CURVE('',#451,#464,#257,.T.);
#600=EDGE_CURVE('',#435,#462,#258,.T.);
#601=EDGE_CURVE('',#463,#452,#259,.T.);
#602=EDGE_CURVE('',#457,#441,#260,.T.);
#603=EDGE_CURVE('',#442,#456,#261,.T.);
#604=EDGE_CURVE('',#477,#478,#262,.T.);
#605=EDGE_CURVE('',#477,#448,#263,.T.);
#606=EDGE_CURVE('',#478,#447,#264,.T.);
#607=EDGE_CURVE('',#479,#477,#265,.T.);
#608=EDGE_CURVE('',#479,#445,#266,.T.);
#609=EDGE_CURVE('',#480,#479,#267,.T.);
#610=EDGE_CURVE('',#480,#446,#268,.T.);
#611=EDGE_CURVE('',#478,#480,#269,.T.);
#612=EDGE_CURVE('',#481,#482,#270,.T.);
#613=EDGE_CURVE('',#474,#481,#271,.T.);
#614=EDGE_CURVE('',#482,#473,#272,.T.);
#615=EDGE_CURVE('',#482,#483,#273,.T.);
#616=EDGE_CURVE('',#483,#472,#274,.T.);
#617=EDGE_CURVE('',#483,#484,#275,.T.);
#618=EDGE_CURVE('',#484,#471,#276,.T.);
#619=EDGE_CURVE('',#481,#484,#277,.T.);
#620=EDGE_CURVE('',#485,#485,#57,.T.);
#621=EDGE_CURVE('',#486,#486,#58,.T.);
#622=EDGE_CURVE('',#485,#443,#278,.T.);
#623=EDGE_CURVE('',#486,#444,#279,.T.);
#624=EDGE_CURVE('',#455,#454,#280,.T.);
#625=ORIENTED_EDGE('',*,*,#487,.T.);
#626=ORIENTED_EDGE('',*,*,#488,.T.);
#627=ORIENTED_EDGE('',*,*,#489,.T.);
#628=ORIENTED_EDGE('',*,*,#490,.T.);
#629=ORIENTED_EDGE('',*,*,#491,.T.);
#630=ORIENTED_EDGE('',*,*,#492,.T.);
#631=ORIENTED_EDGE('',*,*,#493,.T.);
#632=ORIENTED_EDGE('',*,*,#494,.T.);
#633=ORIENTED_EDGE('',*,*,#495,.T.);
#634=ORIENTED_EDGE('',*,*,#496,.T.);
#635=ORIENTED_EDGE('',*,*,#497,.T.);
#636=ORIENTED_EDGE('',*,*,#498,.T.);
#637=ORIENTED_EDGE('',*,*,#499,.F.);
#638=ORIENTED_EDGE('',*,*,#500,.F.);
#639=ORIENTED_EDGE('',*,*,#501,.T.);
#640=ORIENTED_EDGE('',*,*,#502,.F.);
#641=ORIENTED_EDGE('',*,*,#503,.F.);
#642=ORIENTED_EDGE('',*,*,#504,.F.);
#643=ORIENTED_EDGE('',*,*,#505,.F.);
#644=ORIENTED_EDGE('',*,*,#501,.F.);
#645=ORIENTED_EDGE('',*,*,#506,.F.);
#646=ORIENTED_EDGE('',*,*,#507,.T.);
#647=ORIENTED_EDGE('',*,*,#499,.T.);
#648=ORIENTED_EDGE('',*,*,#508,.T.);
#649=ORIENTED_EDGE('',*,*,#509,.T.);
#650=ORIENTED_EDGE('',*,*,#510,.T.);
#651=ORIENTED_EDGE('',*,*,#504,.T.);
#652=ORIENTED_EDGE('',*,*,#511,.F.);
#653=ORIENTED_EDGE('',*,*,#512,.T.);
#654=ORIENTED_EDGE('',*,*,#508,.F.);
#655=ORIENTED_EDGE('',*,*,#503,.T.);
#656=ORIENTED_EDGE('',*,*,#513,.T.);
#657=ORIENTED_EDGE('',*,*,#514,.T.);
#658=ORIENTED_EDGE('',*,*,#511,.T.);
#659=ORIENTED_EDGE('',*,*,#502,.T.);
#660=ORIENTED_EDGE('',*,*,#505,.T.);
#661=ORIENTED_EDGE('',*,*,#515,.T.);
#662=ORIENTED_EDGE('',*,*,#516,.F.);
#663=ORIENTED_EDGE('',*,*,#517,.F.);
#664=ORIENTED_EDGE('',*,*,#488,.F.);
#665=ORIENTED_EDGE('',*,*,#518,.F.);
#666=ORIENTED_EDGE('',*,*,#513,.F.);
#667=ORIENTED_EDGE('',*,*,#519,.F.);
#668=ORIENTED_EDGE('',*,*,#520,.F.);
#669=ORIENTED_EDGE('',*,*,#521,.T.);
#670=ORIENTED_EDGE('',*,*,#522,.F.);
#671=ORIENTED_EDGE('',*,*,#523,.F.);
#672=ORIENTED_EDGE('',*,*,#522,.T.);
#673=ORIENTED_EDGE('',*,*,#524,.T.);
#674=ORIENTED_EDGE('',*,*,#525,.F.);
#675=ORIENTED_EDGE('',*,*,#526,.F.);
#676=ORIENTED_EDGE('',*,*,#527,.F.);
#677=ORIENTED_EDGE('',*,*,#528,.T.);
#678=ORIENTED_EDGE('',*,*,#529,.T.);
#679=ORIENTED_EDGE('',*,*,#530,.F.);
#680=ORIENTED_EDGE('',*,*,#529,.F.);
#681=ORIENTED_EDGE('',*,*,#531,.F.);
#682=ORIENTED_EDGE('',*,*,#532,.F.);
#683=ORIENTED_EDGE('',*,*,#526,.T.);
#684=ORIENTED_EDGE('',*,*,#530,.T.);
#685=ORIENTED_EDGE('',*,*,#533,.F.);
#686=ORIENTED_EDGE('',*,*,#534,.F.);
#687=ORIENTED_EDGE('',*,*,#495,.F.);
#688=ORIENTED_EDGE('',*,*,#535,.T.);
#689=ORIENTED_EDGE('',*,*,#536,.F.);
#690=ORIENTED_EDGE('',*,*,#537,.T.);
#691=ORIENTED_EDGE('',*,*,#538,.F.);
#692=ORIENTED_EDGE('',*,*,#539,.T.);
#693=ORIENTED_EDGE('',*,*,#540,.F.);
#694=ORIENTED_EDGE('',*,*,#532,.T.);
#695=ORIENTED_EDGE('',*,*,#541,.T.);
#696=ORIENTED_EDGE('',*,*,#542,.T.);
#697=ORIENTED_EDGE('',*,*,#533,.T.);
#698=ORIENTED_EDGE('',*,*,#543,.T.);
#699=ORIENTED_EDGE('',*,*,#544,.F.);
#700=ORIENTED_EDGE('',*,*,#545,.T.);
#701=ORIENTED_EDGE('',*,*,#546,.F.);
#702=ORIENTED_EDGE('',*,*,#515,.F.);
#703=ORIENTED_EDGE('',*,*,#507,.F.);
#704=ORIENTED_EDGE('',*,*,#547,.T.);
#705=ORIENTED_EDGE('',*,*,#548,.T.);
#706=ORIENTED_EDGE('',*,*,#549,.T.);
#707=ORIENTED_EDGE('',*,*,#550,.T.);
#708=ORIENTED_EDGE('',*,*,#551,.T.);
#709=ORIENTED_EDGE('',*,*,#552,.T.);
#710=ORIENTED_EDGE('',*,*,#519,.T.);
#711=ORIENTED_EDGE('',*,*,#523,.T.);
#712=ORIENTED_EDGE('',*,*,#553,.F.);
#713=ORIENTED_EDGE('',*,*,#554,.T.);
#714=ORIENTED_EDGE('',*,*,#555,.F.);
#715=ORIENTED_EDGE('',*,*,#556,.T.);
#716=ORIENTED_EDGE('',*,*,#557,.F.);
#717=ORIENTED_EDGE('',*,*,#558,.T.);
#718=ORIENTED_EDGE('',*,*,#491,.F.);
#719=ORIENTED_EDGE('',*,*,#559,.F.);
#720=ORIENTED_EDGE('',*,*,#560,.F.);
#721=ORIENTED_EDGE('',*,*,#561,.F.);
#722=ORIENTED_EDGE('',*,*,#562,.F.);
#723=ORIENTED_EDGE('',*,*,#489,.F.);
#724=ORIENTED_EDGE('',*,*,#517,.T.);
#725=ORIENTED_EDGE('',*,*,#563,.F.);
#726=ORIENTED_EDGE('',*,*,#564,.F.);
#727=ORIENTED_EDGE('',*,*,#565,.F.);
#728=ORIENTED_EDGE('',*,*,#566,.T.);
#729=ORIENTED_EDGE('',*,*,#497,.F.);
#730=ORIENTED_EDGE('',*,*,#567,.T.);
#731=ORIENTED_EDGE('',*,*,#541,.F.);
#732=ORIENTED_EDGE('',*,*,#531,.T.);
#733=ORIENTED_EDGE('',*,*,#528,.F.);
#734=ORIENTED_EDGE('',*,*,#568,.F.);
#735=ORIENTED_EDGE('',*,*,#569,.F.);
#736=ORIENTED_EDGE('',*,*,#570,.F.);
#737=ORIENTED_EDGE('',*,*,#571,.F.);
#738=ORIENTED_EDGE('',*,*,#572,.F.);
#739=ORIENTED_EDGE('',*,*,#573,.F.);
#740=ORIENTED_EDGE('',*,*,#574,.F.);
#741=ORIENTED_EDGE('',*,*,#575,.F.);
#742=ORIENTED_EDGE('',*,*,#576,.F.);
#743=ORIENTED_EDGE('',*,*,#524,.F.);
#744=ORIENTED_EDGE('',*,*,#521,.F.);
#745=ORIENTED_EDGE('',*,*,#577,.F.);
#746=ORIENTED_EDGE('',*,*,#578,.F.);
#747=ORIENTED_EDGE('',*,*,#525,.T.);
#748=ORIENTED_EDGE('',*,*,#576,.T.);
#749=ORIENTED_EDGE('',*,*,#579,.T.);
#750=ORIENTED_EDGE('',*,*,#553,.T.);
#751=ORIENTED_EDGE('',*,*,#580,.F.);
#752=ORIENTED_EDGE('',*,*,#509,.F.);
#753=ORIENTED_EDGE('',*,*,#512,.F.);
#754=ORIENTED_EDGE('',*,*,#514,.F.);
#755=ORIENTED_EDGE('',*,*,#518,.T.);
#756=ORIENTED_EDGE('',*,*,#487,.F.);
#757=ORIENTED_EDGE('',*,*,#500,.T.);
#758=ORIENTED_EDGE('',*,*,#510,.F.);
#759=ORIENTED_EDGE('',*,*,#580,.T.);
#760=ORIENTED_EDGE('',*,*,#498,.F.);
#761=ORIENTED_EDGE('',*,*,#566,.F.);
#762=ORIENTED_EDGE('',*,*,#581,.F.);
#763=ORIENTED_EDGE('',*,*,#543,.F.);
#764=ORIENTED_EDGE('',*,*,#506,.T.);
#765=ORIENTED_EDGE('',*,*,#534,.T.);
#766=ORIENTED_EDGE('',*,*,#542,.F.);
#767=ORIENTED_EDGE('',*,*,#567,.F.);
#768=ORIENTED_EDGE('',*,*,#496,.F.);
#769=ORIENTED_EDGE('',*,*,#582,.F.);
#770=ORIENTED_EDGE('',*,*,#583,.F.);
#771=ORIENTED_EDGE('',*,*,#535,.F.);
#772=ORIENTED_EDGE('',*,*,#494,.F.);
#773=ORIENTED_EDGE('',*,*,#584,.T.);
#774=ORIENTED_EDGE('',*,*,#585,.F.);
#775=ORIENTED_EDGE('',*,*,#586,.T.);
#776=ORIENTED_EDGE('',*,*,#587,.T.);
#777=ORIENTED_EDGE('',*,*,#588,.T.);
#778=ORIENTED_EDGE('',*,*,#589,.F.);
#779=ORIENTED_EDGE('',*,*,#582,.T.);
#780=ORIENTED_EDGE('',*,*,#493,.F.);
#781=ORIENTED_EDGE('',*,*,#558,.F.);
#782=ORIENTED_EDGE('',*,*,#590,.F.);
#783=ORIENTED_EDGE('',*,*,#584,.F.);
#784=ORIENTED_EDGE('',*,*,#492,.F.);
#785=ORIENTED_EDGE('',*,*,#569,.T.);
#786=ORIENTED_EDGE('',*,*,#591,.F.);
#787=ORIENTED_EDGE('',*,*,#539,.F.);
#788=ORIENTED_EDGE('',*,*,#592,.F.);
#789=ORIENTED_EDGE('',*,*,#578,.T.);
#790=ORIENTED_EDGE('',*,*,#593,.T.);
#791=ORIENTED_EDGE('',*,*,#594,.F.);
#792=ORIENTED_EDGE('',*,*,#593,.F.);
#793=ORIENTED_EDGE('',*,*,#579,.F.);
#794=ORIENTED_EDGE('',*,*,#575,.T.);
#795=ORIENTED_EDGE('',*,*,#595,.F.);
#796=ORIENTED_EDGE('',*,*,#554,.F.);
#797=ORIENTED_EDGE('',*,*,#577,.T.);
#798=ORIENTED_EDGE('',*,*,#596,.T.);
#799=ORIENTED_EDGE('',*,*,#597,.F.);
#800=ORIENTED_EDGE('',*,*,#596,.F.);
#801=ORIENTED_EDGE('',*,*,#592,.T.);
#802=ORIENTED_EDGE('',*,*,#538,.T.);
#803=ORIENTED_EDGE('',*,*,#598,.F.);
#804=ORIENTED_EDGE('',*,*,#570,.T.);
#805=ORIENTED_EDGE('',*,*,#527,.T.);
#806=ORIENTED_EDGE('',*,*,#540,.T.);
#807=ORIENTED_EDGE('',*,*,#591,.T.);
#808=ORIENTED_EDGE('',*,*,#568,.T.);
#809=ORIENTED_EDGE('',*,*,#595,.T.);
#810=ORIENTED_EDGE('',*,*,#574,.T.);
#811=ORIENTED_EDGE('',*,*,#599,.F.);
#812=ORIENTED_EDGE('',*,*,#555,.T.);
#813=ORIENTED_EDGE('',*,*,#594,.T.);
#814=ORIENTED_EDGE('',*,*,#597,.T.);
#815=ORIENTED_EDGE('',*,*,#537,.F.);
#816=ORIENTED_EDGE('',*,*,#600,.T.);
#817=ORIENTED_EDGE('',*,*,#571,.T.);
#818=ORIENTED_EDGE('',*,*,#598,.T.);
#819=ORIENTED_EDGE('',*,*,#556,.F.);
#820=ORIENTED_EDGE('',*,*,#599,.T.);
#821=ORIENTED_EDGE('',*,*,#573,.T.);
#822=ORIENTED_EDGE('',*,*,#601,.T.);
#823=ORIENTED_EDGE('',*,*,#602,.T.);
#824=ORIENTED_EDGE('',*,*,#544,.T.);
#825=ORIENTED_EDGE('',*,*,#581,.T.);
#826=ORIENTED_EDGE('',*,*,#565,.T.);
#827=ORIENTED_EDGE('',*,*,#602,.F.);
#828=ORIENTED_EDGE('',*,*,#564,.T.);
#829=ORIENTED_EDGE('',*,*,#603,.F.);
#830=ORIENTED_EDGE('',*,*,#545,.F.);
#831=ORIENTED_EDGE('',*,*,#516,.T.);
#832=ORIENTED_EDGE('',*,*,#546,.T.);
#833=ORIENTED_EDGE('',*,*,#603,.T.);
#834=ORIENTED_EDGE('',*,*,#563,.T.);
#835=ORIENTED_EDGE('',*,*,#604,.F.);
#836=ORIENTED_EDGE('',*,*,#605,.T.);
#837=ORIENTED_EDGE('',*,*,#551,.F.);
#838=ORIENTED_EDGE('',*,*,#606,.F.);
#839=ORIENTED_EDGE('',*,*,#607,.F.);
#840=ORIENTED_EDGE('',*,*,#608,.T.);
#841=ORIENTED_EDGE('',*,*,#552,.F.);
#842=ORIENTED_EDGE('',*,*,#605,.F.);
#843=ORIENTED_EDGE('',*,*,#609,.F.);
#844=ORIENTED_EDGE('',*,*,#610,.T.);
#845=ORIENTED_EDGE('',*,*,#549,.F.);
#846=ORIENTED_EDGE('',*,*,#608,.F.);
#847=ORIENTED_EDGE('',*,*,#611,.F.);
#848=ORIENTED_EDGE('',*,*,#606,.T.);
#849=ORIENTED_EDGE('',*,*,#550,.F.);
#850=ORIENTED_EDGE('',*,*,#610,.F.);
#851=ORIENTED_EDGE('',*,*,#612,.F.);
#852=ORIENTED_EDGE('',*,*,#613,.F.);
#853=ORIENTED_EDGE('',*,*,#588,.F.);
#854=ORIENTED_EDGE('',*,*,#614,.F.);
#855=ORIENTED_EDGE('',*,*,#615,.F.);
#856=ORIENTED_EDGE('',*,*,#614,.T.);
#857=ORIENTED_EDGE('',*,*,#587,.F.);
#858=ORIENTED_EDGE('',*,*,#616,.F.);
#859=ORIENTED_EDGE('',*,*,#617,.F.);
#860=ORIENTED_EDGE('',*,*,#616,.T.);
#861=ORIENTED_EDGE('',*,*,#586,.F.);
#862=ORIENTED_EDGE('',*,*,#618,.F.);
#863=ORIENTED_EDGE('',*,*,#612,.T.);
#864=ORIENTED_EDGE('',*,*,#615,.T.);
#865=ORIENTED_EDGE('',*,*,#617,.T.);
#866=ORIENTED_EDGE('',*,*,#619,.F.);
#867=ORIENTED_EDGE('',*,*,#604,.T.);
#868=ORIENTED_EDGE('',*,*,#611,.T.);
#869=ORIENTED_EDGE('',*,*,#609,.T.);
#870=ORIENTED_EDGE('',*,*,#607,.T.);
#871=ORIENTED_EDGE('',*,*,#620,.T.);
#872=ORIENTED_EDGE('',*,*,#621,.T.);
#873=ORIENTED_EDGE('',*,*,#600,.F.);
#874=ORIENTED_EDGE('',*,*,#536,.T.);
#875=ORIENTED_EDGE('',*,*,#583,.T.);
#876=ORIENTED_EDGE('',*,*,#589,.T.);
#877=ORIENTED_EDGE('',*,*,#613,.T.);
#878=ORIENTED_EDGE('',*,*,#619,.T.);
#879=ORIENTED_EDGE('',*,*,#618,.T.);
#880=ORIENTED_EDGE('',*,*,#585,.T.);
#881=ORIENTED_EDGE('',*,*,#590,.T.);
#882=ORIENTED_EDGE('',*,*,#557,.T.);
#883=ORIENTED_EDGE('',*,*,#601,.F.);
#884=ORIENTED_EDGE('',*,*,#572,.T.);
#885=ORIENTED_EDGE('',*,*,#620,.F.);
#886=ORIENTED_EDGE('',*,*,#622,.T.);
#887=ORIENTED_EDGE('',*,*,#547,.F.);
#888=ORIENTED_EDGE('',*,*,#622,.F.);
#889=ORIENTED_EDGE('',*,*,#621,.F.);
#890=ORIENTED_EDGE('',*,*,#623,.T.);
#891=ORIENTED_EDGE('',*,*,#548,.F.);
#892=ORIENTED_EDGE('',*,*,#623,.F.);
#893=ORIENTED_EDGE('',*,*,#562,.T.);
#894=ORIENTED_EDGE('',*,*,#624,.T.);
#895=ORIENTED_EDGE('',*,*,#559,.T.);
#896=ORIENTED_EDGE('',*,*,#490,.F.);
#897=ORIENTED_EDGE('',*,*,#520,.T.);
#898=ORIENTED_EDGE('',*,*,#560,.T.);
#899=ORIENTED_EDGE('',*,*,#624,.F.);
#900=ORIENTED_EDGE('',*,*,#561,.T.);
#901=PLANE('',#1012);
#902=PLANE('',#1013);
#903=PLANE('',#1016);
#904=PLANE('',#1019);
#905=PLANE('',#1022);
#906=PLANE('',#1023);
#907=PLANE('',#1024);
#908=PLANE('',#1025);
#909=PLANE('',#1026);
#910=PLANE('',#1027);
#911=PLANE('',#1030);
#912=PLANE('',#1031);
#913=PLANE('',#1036);
#914=PLANE('',#1039);
#915=PLANE('',#1048);
#916=PLANE('',#1049);
#917=PLANE('',#1050);
#918=PLANE('',#1051);
#919=PLANE('',#1052);
#920=PLANE('',#1053);
#921=PLANE('',#1054);
#922=PLANE('',#1061);
#923=PLANE('',#1062);
#924=PLANE('',#1063);
#925=PLANE('',#1064);
#926=PLANE('',#1065);
#927=PLANE('',#1069);
#928=PLANE('',#1071);
#929=PLANE('',#1072);
#930=PLANE('',#1073);
#931=PLANE('',#1074);
#932=PLANE('',#1075);
#933=PLANE('',#1076);
#934=PLANE('',#1077);
#935=PLANE('',#1078);
#936=PLANE('',#1081);
#937=PLANE('',#1084);
#938=PLANE('',#1085);
#939=ADVANCED_FACE('',(#59),#901,.T.);
#940=ADVANCED_FACE('',(#60),#902,.F.);
#941=ADVANCED_FACE('',(#61),#903,.F.);
#942=ADVANCED_FACE('',(#62),#23,.T.);
#943=ADVANCED_FACE('',(#63),#904,.T.);
#944=ADVANCED_FACE('',(#64),#24,.T.);
#945=ADVANCED_FACE('',(#65),#905,.T.);
#946=ADVANCED_FACE('',(#66),#906,.T.);
#947=ADVANCED_FACE('',(#67),#907,.T.);
#948=ADVANCED_FACE('',(#68),#908,.T.);
#949=ADVANCED_FACE('',(#69),#909,.T.);
#950=ADVANCED_FACE('',(#70),#910,.F.);
#951=ADVANCED_FACE('',(#71),#911,.F.);
#952=ADVANCED_FACE('',(#72,#15,#16,#17),#912,.T.);
#953=ADVANCED_FACE('',(#73),#913,.F.);
#954=ADVANCED_FACE('',(#74,#18,#19),#914,.T.);
#955=ADVANCED_FACE('',(#75),#915,.F.);
#956=ADVANCED_FACE('',(#76),#916,.F.);
#957=ADVANCED_FACE('',(#77),#917,.T.);
#958=ADVANCED_FACE('',(#78),#918,.T.);
#959=ADVANCED_FACE('',(#79),#919,.T.);
#960=ADVANCED_FACE('',(#80),#920,.T.);
#961=ADVANCED_FACE('',(#81),#921,.T.);
#962=ADVANCED_FACE('',(#82),#25,.T.);
#963=ADVANCED_FACE('',(#83),#26,.F.);
#964=ADVANCED_FACE('',(#84),#27,.T.);
#965=ADVANCED_FACE('',(#85),#28,.F.);
#966=ADVANCED_FACE('',(#86),#922,.F.);
#967=ADVANCED_FACE('',(#87),#923,.F.);
#968=ADVANCED_FACE('',(#88),#924,.F.);
#969=ADVANCED_FACE('',(#89),#925,.F.);
#970=ADVANCED_FACE('',(#90),#926,.F.);
#971=ADVANCED_FACE('',(#91),#29,.F.);
#972=ADVANCED_FACE('',(#92),#30,.F.);
#973=ADVANCED_FACE('',(#93),#31,.T.);
#974=ADVANCED_FACE('',(#94),#927,.T.);
#975=ADVANCED_FACE('',(#95),#32,.T.);
#976=ADVANCED_FACE('',(#96),#928,.F.);
#977=ADVANCED_FACE('',(#97),#929,.F.);
#978=ADVANCED_FACE('',(#98),#930,.F.);
#979=ADVANCED_FACE('',(#99),#931,.F.);
#980=ADVANCED_FACE('',(#100),#932,.T.);
#981=ADVANCED_FACE('',(#101),#933,.T.);
#982=ADVANCED_FACE('',(#102),#934,.T.);
#983=ADVANCED_FACE('',(#103,#20,#21,#22),#935,.F.);
#984=ADVANCED_FACE('',(#104),#936,.F.);
#985=ADVANCED_FACE('',(#105),#33,.F.);
#986=ADVANCED_FACE('',(#106),#34,.F.);
#987=ADVANCED_FACE('',(#107),#937,.T.);
#988=ADVANCED_FACE('',(#108),#938,.F.);
#989=CLOSED_SHELL('',(#939,#940,#941,#942,#943,#944,#945,#946,#947,#948,
#949,#950,#951,#952,#953,#954,#955,#956,#957,#958,#959,#960,#961,#962,#963,
#964,#965,#966,#967,#968,#969,#970,#971,#972,#973,#974,#975,#976,#977,#978,
#979,#980,#981,#982,#983,#984,#985,#986,#987,#988));
#990=DERIVED_UNIT_ELEMENT(#993,1.);
#991=DERIVED_UNIT_ELEMENT(#1636,-3.);
#992=DIMENSIONAL_EXPONENTS(0.,1.,0.,0.,0.,0.,0.);
#993=(
CONVERSION_BASED_UNIT('gram',#995)
MASS_UNIT()
NAMED_UNIT(#992)
);
#994=(
MASS_UNIT()
NAMED_UNIT(*)
SI_UNIT(.KILO.,.GRAM.)
);
#995=MASS_MEASURE_WITH_UNIT(MASS_MEASURE(0.001),#994);
#996=DERIVED_UNIT((#990,#991));
#997=MEASURE_REPRESENTATION_ITEM('density measure',
POSITIVE_RATIO_MEASURE(1.),#996);
#998=PROPERTY_DEFINITION_REPRESENTATION(#1003,#1000);
#999=PROPERTY_DEFINITION_REPRESENTATION(#1004,#1001);
#1000=REPRESENTATION('material name',(#1002),#1633);
#1001=REPRESENTATION('density',(#997),#1633);
#1002=DESCRIPTIVE_REPRESENTATION_ITEM('Generic','Generic');
#1003=PROPERTY_DEFINITION('material property','material name',#1643);
#1004=PROPERTY_DEFINITION('material property','density of part',#1643);
#1005=DATE_TIME_ROLE('creation_date');
#1006=APPLIED_DATE_AND_TIME_ASSIGNMENT(#1007,#1005,(#1643));
#1007=DATE_AND_TIME(#1008,#1009);
#1008=CALENDAR_DATE(2026,10,4);
#1009=LOCAL_TIME(0,0,0.,#1010);
#1010=COORDINATED_UNIVERSAL_TIME_OFFSET(0,0,.BEHIND.);
#1011=AXIS2_PLACEMENT_3D('',#1350,#1086,#1087);
#1012=AXIS2_PLACEMENT_3D('',#1351,#1088,#1089);
#1013=AXIS2_PLACEMENT_3D('',#1376,#1102,#1103);
#1014=AXIS2_PLACEMENT_3D('',#1379,#1104,#1105);
#1015=AXIS2_PLACEMENT_3D('',#1387,#1109,#1110);
#1016=AXIS2_PLACEMENT_3D('',#1389,#1112,#1113);
#1017=AXIS2_PLACEMENT_3D('',#1395,#1117,#1118);
#1018=AXIS2_PLACEMENT_3D('',#1399,#1120,#1121);
#1019=AXIS2_PLACEMENT_3D('',#1401,#1123,#1124);
#1020=AXIS2_PLACEMENT_3D('',#1405,#1127,#1128);
#1021=AXIS2_PLACEMENT_3D('',#1408,#1130,#1131);
#1022=AXIS2_PLACEMENT_3D('',#1409,#1132,#1133);
#1023=AXIS2_PLACEMENT_3D('',#1416,#1138,#1139);
#1024=AXIS2_PLACEMENT_3D('',#1425,#1144,#1145);
#1025=AXIS2_PLACEMENT_3D('',#1431,#1149,#1150);
#1026=AXIS2_PLACEMENT_3D('',#1440,#1155,#1156);
#1027=AXIS2_PLACEMENT_3D('',#1446,#1160,#1161);
#1028=AXIS2_PLACEMENT_3D('',#1455,#1166,#1167);
#1029=AXIS2_PLACEMENT_3D('',#1459,#1169,#1170);
#1030=AXIS2_PLACEMENT_3D('',#1461,#1172,#1173);
#1031=AXIS2_PLACEMENT_3D('',#1465,#1176,#1177);
#1032=AXIS2_PLACEMENT_3D('',#1469,#1179,#1180);
#1033=AXIS2_PLACEMENT_3D('',#1472,#1182,#1183);
#1034=AXIS2_PLACEMENT_3D('',#1474,#1184,#1185);
#1035=AXIS2_PLACEMENT_3D('',#1476,#1186,#1187);
#1036=AXIS2_PLACEMENT_3D('',#1485,#1192,#1193);
#1037=AXIS2_PLACEMENT_3D('',#1489,#1195,#1196);
#1038=AXIS2_PLACEMENT_3D('',#1493,#1198,#1199);
#1039=AXIS2_PLACEMENT_3D('',#1500,#1204,#1205);
#1040=AXIS2_PLACEMENT_3D('',#1505,#1208,#1209);
#1041=AXIS2_PLACEMENT_3D('',#1509,#1211,#1212);
#1042=AXIS2_PLACEMENT_3D('',#1515,#1216,#1217);
#1043=AXIS2_PLACEMENT_3D('',#1519,#1219,#1220);
#1044=AXIS2_PLACEMENT_3D('',#1523,#1222,#1223);
#1045=AXIS2_PLACEMENT_3D('',#1527,#1225,#1226);
#1046=AXIS2_PLACEMENT_3D('',#1530,#1228,#1229);
#1047=AXIS2_PLACEMENT_3D('',#1532,#1230,#1231);
#1048=AXIS2_PLACEMENT_3D('',#1533,#1232,#1233);
#1049=AXIS2_PLACEMENT_3D('',#1535,#1235,#1236);
#1050=AXIS2_PLACEMENT_3D('',#1537,#1238,#1239);
#1051=AXIS2_PLACEMENT_3D('',#1539,#1241,#1242);
#1052=AXIS2_PLACEMENT_3D('',#1540,#1243,#1244);
#1053=AXIS2_PLACEMENT_3D('',#1544,#1247,#1248);
#1054=AXIS2_PLACEMENT_3D('',#1556,#1255,#1256);
#1055=AXIS2_PLACEMENT_3D('',#1558,#1258,#1259);
#1056=AXIS2_PLACEMENT_3D('',#1561,#1262,#1263);
#1057=AXIS2_PLACEMENT_3D('',#1564,#1265,#1266);
#1058=AXIS2_PLACEMENT_3D('',#1565,#1267,#1268);
#1059=AXIS2_PLACEMENT_3D('',#1567,#1270,#1271);
#1060=AXIS2_PLACEMENT_3D('',#1570,#1273,#1274);
#1061=AXIS2_PLACEMENT_3D('',#1571,#1275,#1276);
#1062=AXIS2_PLACEMENT_3D('',#1573,#1278,#1279);
#1063=AXIS2_PLACEMENT_3D('',#1574,#1280,#1281);
#1064=AXIS2_PLACEMENT_3D('',#1576,#1283,#1284);
#1065=AXIS2_PLACEMENT_3D('',#1577,#1285,#1286);
#1066=AXIS2_PLACEMENT_3D('',#1578,#1287,#1288);
#1067=AXIS2_PLACEMENT_3D('',#1580,#1290,#1291);
#1068=AXIS2_PLACEMENT_3D('',#1582,#1293,#1294);
#1069=AXIS2_PLACEMENT_3D('',#1584,#1296,#1297);
#1070=AXIS2_PLACEMENT_3D('',#1586,#1299,#1300);
#1071=AXIS2_PLACEMENT_3D('',#1587,#1301,#1302);
#1072=AXIS2_PLACEMENT_3D('',#1593,#1306,#1307);
#1073=AXIS2_PLACEMENT_3D('',#1597,#1310,#1311);
#1074=AXIS2_PLACEMENT_3D('',#1601,#1314,#1315);
#1075=AXIS2_PLACEMENT_3D('',#1603,#1317,#1318);
#1076=AXIS2_PLACEMENT_3D('',#1609,#1322,#1323);
#1077=AXIS2_PLACEMENT_3D('',#1613,#1326,#1327);
#1078=AXIS2_PLACEMENT_3D('',#1617,#1330,#1331);
#1079=AXIS2_PLACEMENT_3D('',#1620,#1333,#1334);
#1080=AXIS2_PLACEMENT_3D('',#1622,#1335,#1336);
#1081=AXIS2_PLACEMENT_3D('',#1623,#1337,#1338);
#1082=AXIS2_PLACEMENT_3D('',#1624,#1339,#1340);
#1083=AXIS2_PLACEMENT_3D('',#1626,#1342,#1343);
#1084=AXIS2_PLACEMENT_3D('',#1628,#1345,#1346);
#1085=AXIS2_PLACEMENT_3D('',#1630,#1348,#1349);
#1086=DIRECTION('axis',(0.,0.,1.));
#1087=DIRECTION('refdir',(1.,0.,0.));
#1088=DIRECTION('center_axis',(0.,0.,-1.));
#1089=DIRECTION('ref_axis',(-1.,0.,0.));
#1090=DIRECTION('',(-1.,0.,2.16628882853689E-16));
#1091=DIRECTION('',(0.,1.,0.));
#1092=DIRECTION('',(1.,0.,-2.16628882853689E-16));
#1093=DIRECTION('',(0.,-1.,0.));
#1094=DIRECTION('',(1.,0.,-2.16628882853689E-16));
#1095=DIRECTION('',(0.,1.,0.));
#1096=DIRECTION('',(1.,0.,-2.16628882853689E-16));
#1097=DIRECTION('',(0.,-1.,0.));
#1098=DIRECTION('',(1.,0.,-2.16628882853689E-16));
#1099=DIRECTION('',(0.,1.,0.));
#1100=DIRECTION('',(1.,0.,-2.16628882853689E-16));
#1101=DIRECTION('',(6.57909940518611E-16,-1.,-1.42522295432884E-31));
#1102=DIRECTION('center_axis',(-3.83582732923431E-32,-1.,-2.65603594407932E-16));
#1103=DIRECTION('ref_axis',(1.8764332810566E-16,-2.65603594407932E-16,1.));
#1104=DIRECTION('center_axis',(-3.83582732923431E-32,-1.,-2.65603594407932E-16));
#1105=DIRECTION('ref_axis',(0.707106781186547,0.,0.707106781186547));
#1106=DIRECTION('',(1.8764332810566E-16,-2.65603594407932E-16,1.));
#1107=DIRECTION('',(-1.,0.,1.44419255235793E-16));
#1108=DIRECTION('',(-1.2509555207044E-16,2.65603594407932E-16,-1.));
#1109=DIRECTION('center_axis',(-3.83582732923431E-32,-1.,-2.65603594407932E-16));
#1110=DIRECTION('ref_axis',(-0.707106781186547,0.,0.707106781186547));
#1111=DIRECTION('',(-1.,-1.91791366461716E-32,2.16628882853689E-16));
#1112=DIRECTION('center_axis',(-1.44419255235793E-16,0.,-1.));
#1113=DIRECTION('ref_axis',(0.,-1.,0.));
#1114=DIRECTION('',(0.,1.,0.));
#1115=DIRECTION('',(0.,-1.,0.));
#1116=DIRECTION('',(-1.,0.,1.44419255235793E-16));
#1117=DIRECTION('center_axis',(0.,1.,0.));
#1118=DIRECTION('ref_axis',(0.707106781186547,0.,0.707106781186547));
#1119=DIRECTION('',(0.,-1.,0.));
#1120=DIRECTION('center_axis',(0.,1.,0.));
#1121=DIRECTION('ref_axis',(0.707106781186547,0.,0.707106781186547));
#1122=DIRECTION('',(0.,1.,0.));
#1123=DIRECTION('center_axis',(2.16628882853689E-16,0.,1.));
#1124=DIRECTION('ref_axis',(1.,0.,-2.16628882853689E-16));
#1125=DIRECTION('',(0.,1.,0.));
#1126=DIRECTION('',(1.,0.,-2.16628882853689E-16));
#1127=DIRECTION('center_axis',(0.,1.,0.));
#1128=DIRECTION('ref_axis',(-0.707106781186547,0.,0.707106781186547));
#1129=DIRECTION('',(0.,-1.,0.));
#1130=DIRECTION('center_axis',(0.,1.,0.));
#1131=DIRECTION('ref_axis',(-0.707106781186547,0.,0.707106781186547));
#1132=DIRECTION('center_axis',(-1.,0.,1.2509555207044E-16));
#1133=DIRECTION('ref_axis',(1.2509555207044E-16,0.,1.));
#1134=DIRECTION('',(0.,0.,1.));
#1135=DIRECTION('',(0.,-1.,0.));
#1136=DIRECTION('',(0.,0.,1.));
#1137=DIRECTION('',(0.,0.,-1.));
#1138=DIRECTION('center_axis',(1.,0.,0.));
#1139=DIRECTION('ref_axis',(0.,1.,0.));
#1140=DIRECTION('',(0.,0.,1.));
#1141=DIRECTION('',(0.,-1.,0.));
#1142=DIRECTION('',(0.,0.,1.));
#1143=DIRECTION('',(0.,1.,0.));
#1144=DIRECTION('center_axis',(0.,0.,1.));
#1145=DIRECTION('ref_axis',(1.,0.,0.));
#1146=DIRECTION('',(-1.,0.,0.));
#1147=DIRECTION('',(-1.,0.,2.16628882853689E-16));
#1148=DIRECTION('',(0.,1.,0.));
#1149=DIRECTION('center_axis',(0.,0.,1.));
#1150=DIRECTION('ref_axis',(1.,0.,0.));
#1151=DIRECTION('',(-1.,0.,0.));
#1152=DIRECTION('',(0.,-1.,0.));
#1153=DIRECTION('',(-1.,0.,2.16628882853689E-16));
#1154=DIRECTION('',(0.,-1.,0.));
#1155=DIRECTION('center_axis',(-1.,0.,0.));
#1156=DIRECTION('ref_axis',(0.,-1.,0.));
#1157=DIRECTION('',(0.,0.,-1.));
#1158=DIRECTION('',(0.,0.,1.));
#1159=DIRECTION('',(0.,1.,0.));
#1160=DIRECTION('center_axis',(0.,-1.,0.));
#1161=DIRECTION('ref_axis',(0.,0.,-1.));
#1162=DIRECTION('',(1.,0.,1.97135755013551E-16));
#1163=DIRECTION('',(-2.22044604925031E-16,0.,1.));
#1164=DIRECTION('',(-4.22514025560977E-17,0.,1.));
#1165=DIRECTION('',(-1.,0.,-3.35913633091799E-16));
#1166=DIRECTION('center_axis',(0.,1.,0.));
#1167=DIRECTION('ref_axis',(0.707106781186547,0.,0.707106781186547));
#1168=DIRECTION('',(-2.22044604925031E-16,0.,1.));
#1169=DIRECTION('center_axis',(0.,-1.,0.));
#1170=DIRECTION('ref_axis',(1.,0.,2.22044604925031E-16));
#1171=DIRECTION('',(-2.22044604925031E-16,0.,1.));
#1172=DIRECTION('center_axis',(1.97135755013551E-16,0.,-1.));
#1173=DIRECTION('ref_axis',(1.,0.,1.97135755013551E-16));
#1174=DIRECTION('',(-1.,0.,-1.33560664618709E-16));
#1175=DIRECTION('',(0.,-1.,0.));
#1176=DIRECTION('center_axis',(1.08314441426845E-16,-1.,0.));
#1177=DIRECTION('ref_axis',(1.,1.08314441426845E-16,-1.08314441426845E-16));
#1178=DIRECTION('',(0.,0.,1.));
#1179=DIRECTION('center_axis',(-1.08314441426845E-16,1.,0.));
#1180=DIRECTION('ref_axis',(0.707106781186547,0.,0.707106781186547));
#1181=DIRECTION('',(-1.,-1.08314441426845E-16,2.16628882853689E-16));
#1182=DIRECTION('center_axis',(-1.08314441426845E-16,1.,0.));
#1183=DIRECTION('ref_axis',(-0.70710678118655,0.,0.707106781186545));
#1184=DIRECTION('center_axis',(-1.08314441426845E-16,1.,0.));
#1185=DIRECTION('ref_axis',(1.,0.,2.22044604925031E-16));
#1186=DIRECTION('center_axis',(-1.08314441426845E-16,1.,0.));
#1187=DIRECTION('ref_axis',(1.,0.,2.22044604925031E-16));
#1188=DIRECTION('',(-8.88178419700125E-16,-9.62025494171965E-32,-1.));
#1189=DIRECTION('',(-1.,-1.08314441426845E-16,2.08166817117218E-17));
#1190=DIRECTION('',(3.33066907387547E-16,3.60759560314487E-32,1.));
#1191=DIRECTION('',(1.,1.08314441426845E-16,2.22044604925031E-16));
#1192=DIRECTION('center_axis',(0.,-1.,0.));
#1193=DIRECTION('ref_axis',(0.,0.,-1.));
#1194=DIRECTION('',(2.22044604925031E-16,0.,-1.));
#1195=DIRECTION('center_axis',(0.,-1.,0.));
#1196=DIRECTION('ref_axis',(1.,0.,2.22044604925031E-16));
#1197=DIRECTION('',(2.22044604925031E-16,0.,-1.));
#1198=DIRECTION('center_axis',(0.,1.,0.));
#1199=DIRECTION('ref_axis',(-0.707106781186547,0.,0.707106781186547));
#1200=DIRECTION('',(-1.,0.,-3.35913633091799E-16));
#1201=DIRECTION('',(4.22514025571569E-17,0.,-1.));
#1202=DIRECTION('',(0.,0.,-1.));
#1203=DIRECTION('',(1.,0.,1.97135755013551E-16));
#1204=DIRECTION('center_axis',(0.,1.,0.));
#1205=DIRECTION('ref_axis',(0.,0.,1.));
#1206=DIRECTION('',(-1.,0.,-1.33560664618709E-16));
#1207=DIRECTION('',(1.26882631385732E-15,0.,1.));
#1208=DIRECTION('center_axis',(0.,-1.,0.));
#1209=DIRECTION('ref_axis',(-1.,0.,1.26882631385732E-15));
#1210=DIRECTION('',(-1.,0.,3.52451753849255E-17));
#1211=DIRECTION('center_axis',(0.,-1.,0.));
#1212=DIRECTION('ref_axis',(3.80647894157196E-16,0.,1.));
#1213=DIRECTION('',(0.,0.,-1.));
#1214=DIRECTION('',(0.,0.,1.));
#1215=DIRECTION('',(4.50470880713678E-17,0.,-1.));
#1216=DIRECTION('center_axis',(0.,-1.,0.));
#1217=DIRECTION('ref_axis',(1.,0.,2.22044604925031E-16));
#1218=DIRECTION('',(4.50470880713678E-17,0.,-1.));
#1219=DIRECTION('center_axis',(0.,1.,0.));
#1220=DIRECTION('ref_axis',(0.707106781186547,0.,0.707106781186547));
#1221=DIRECTION('',(1.,0.,5.53078136810962E-16));
#1222=DIRECTION('center_axis',(0.,1.,0.));
#1223=DIRECTION('ref_axis',(-0.707106781186547,0.,0.707106781186547));
#1224=DIRECTION('',(-3.07821768457108E-16,0.,1.));
#1225=DIRECTION('center_axis',(0.,-1.,0.));
#1226=DIRECTION('ref_axis',(1.,0.,2.22044604925031E-16));
#1227=DIRECTION('',(-3.07821768457108E-16,0.,1.));
#1228=DIRECTION('center_axis',(0.,1.,0.));
#1229=DIRECTION('ref_axis',(-1.,0.,-2.22044604925031E-16));
#1230=DIRECTION('center_axis',(0.,1.,0.));
#1231=DIRECTION('ref_axis',(-1.,0.,-2.22044604925031E-16));
#1232=DIRECTION('center_axis',(-1.,0.,-2.22044604925031E-16));
#1233=DIRECTION('ref_axis',(2.22044604925031E-16,0.,-1.));
#1234=DIRECTION('',(0.,-1.,0.));
#1235=DIRECTION('center_axis',(0.,1.,0.));
#1236=DIRECTION('ref_axis',(0.,0.,1.));
#1237=DIRECTION('',(0.,0.,-1.));
#1238=DIRECTION('center_axis',(1.,0.,-1.8764332810566E-16));
#1239=DIRECTION('ref_axis',(-1.8764332810566E-16,0.,-1.));
#1240=DIRECTION('',(0.,1.,0.));
#1241=DIRECTION('center_axis',(-1.,0.,0.));
#1242=DIRECTION('ref_axis',(0.,0.,1.));
#1243=DIRECTION('center_axis',(1.,0.,4.22514025560977E-17));
#1244=DIRECTION('ref_axis',(4.22514025560977E-17,0.,-1.));
#1245=DIRECTION('',(4.22514025560977E-17,0.,-1.));
#1246=DIRECTION('',(0.,1.,0.));
#1247=DIRECTION('center_axis',(0.,1.,0.));
#1248=DIRECTION('ref_axis',(0.,0.,1.));
#1249=DIRECTION('',(-4.22514025571569E-17,0.,1.));
#1250=DIRECTION('',(-1.,0.,-3.35913633091799E-16));
#1251=DIRECTION('',(-9.97591703286373E-17,0.,-1.));
#1252=DIRECTION('',(1.,0.,7.50875475591887E-18));
#1253=DIRECTION('',(2.07027095413193E-16,0.,1.));
#1254=DIRECTION('',(-1.,0.,-3.35913633091799E-16));
#1255=DIRECTION('center_axis',(-1.,0.,-4.22514025571569E-17));
#1256=DIRECTION('ref_axis',(-4.22514025571569E-17,0.,1.));
#1257=DIRECTION('',(0.,-1.,0.));
#1258=DIRECTION('center_axis',(0.,1.,0.));
#1259=DIRECTION('ref_axis',(-1.,0.,-7.88598494689829E-16));
#1260=DIRECTION('',(0.,1.,0.));
#1261=DIRECTION('',(0.,-1.,0.));
#1262=DIRECTION('center_axis',(0.,1.,0.));
#1263=DIRECTION('ref_axis',(-1.,0.,-2.22044604925031E-16));
#1264=DIRECTION('',(0.,-1.,0.));
#1265=DIRECTION('center_axis',(0.,1.,0.));
#1266=DIRECTION('ref_axis',(-1.,0.,-2.22044604925031E-16));
#1267=DIRECTION('center_axis',(0.,1.,0.));
#1268=DIRECTION('ref_axis',(1.,0.,2.22044604925031E-16));
#1269=DIRECTION('',(0.,1.,0.));
#1270=DIRECTION('center_axis',(0.,1.,0.));
#1271=DIRECTION('ref_axis',(-1.,0.,-2.22044604925031E-16));
#1272=DIRECTION('',(0.,-1.,0.));
#1273=DIRECTION('center_axis',(0.,1.,0.));
#1274=DIRECTION('ref_axis',(-1.,0.,-2.22044604925031E-16));
#1275=DIRECTION('center_axis',(1.,0.,2.22044604925031E-16));
#1276=DIRECTION('ref_axis',(-2.22044604925031E-16,0.,1.));
#1277=DIRECTION('',(0.,-1.,0.));
#1278=DIRECTION('center_axis',(1.,0.,2.22044604925031E-16));
#1279=DIRECTION('ref_axis',(-2.22044604925031E-16,0.,1.));
#1280=DIRECTION('center_axis',(-1.,0.,-2.22044604925031E-16));
#1281=DIRECTION('ref_axis',(2.22044604925031E-16,0.,-1.));
#1282=DIRECTION('',(0.,1.,0.));
#1283=DIRECTION('center_axis',(0.,-1.,0.));
#1284=DIRECTION('ref_axis',(0.,0.,-1.));
#1285=DIRECTION('center_axis',(0.,-1.,0.));
#1286=DIRECTION('ref_axis',(0.,0.,-1.));
#1287=DIRECTION('center_axis',(0.,1.,0.));
#1288=DIRECTION('ref_axis',(0.707106781186547,0.,0.707106781186547));
#1289=DIRECTION('',(0.,1.,0.));
#1290=DIRECTION('center_axis',(0.,-1.,0.));
#1291=DIRECTION('ref_axis',(-0.707106781186547,0.,0.707106781186547));
#1292=DIRECTION('',(0.,-1.,0.));
#1293=DIRECTION('center_axis',(0.,-1.,0.));
#1294=DIRECTION('ref_axis',(0.707106781186547,0.,0.707106781186547));
#1295=DIRECTION('',(0.,-1.,0.));
#1296=DIRECTION('center_axis',(2.16628882853689E-16,0.,1.));
#1297=DIRECTION('ref_axis',(1.,0.,-2.16628882853689E-16));
#1298=DIRECTION('',(0.,1.,0.));
#1299=DIRECTION('center_axis',(0.,1.,0.));
#1300=DIRECTION('ref_axis',(-0.70710678118655,0.,0.707106781186545));
#1301=DIRECTION('center_axis',(-1.,0.,3.33066907387547E-16));
#1302=DIRECTION('ref_axis',(-3.33066907387547E-16,0.,-1.));
#1303=DIRECTION('',(-3.33066907387547E-16,0.,-1.));
#1304=DIRECTION('',(0.,-1.,0.));
#1305=DIRECTION('',(0.,-1.,0.));
#1306=DIRECTION('center_axis',(-2.22044604925031E-16,0.,1.));
#1307=DIRECTION('ref_axis',(-1.,0.,-2.22044604925031E-16));
#1308=DIRECTION('',(-1.,0.,-2.22044604925031E-16));
#1309=DIRECTION('',(0.,-1.,0.));
#1310=DIRECTION('center_axis',(1.,0.,-8.88178419700125E-16));
#1311=DIRECTION('ref_axis',(8.88178419700125E-16,0.,1.));
#1312=DIRECTION('',(8.88178419700125E-16,0.,1.));
#1313=DIRECTION('',(0.,-1.,0.));
#1314=DIRECTION('center_axis',(-2.08166817117218E-17,0.,-1.));
#1315=DIRECTION('ref_axis',(1.,0.,-2.08166817117218E-17));
#1316=DIRECTION('',(1.,0.,-2.08166817117218E-17));
#1317=DIRECTION('center_axis',(-1.,0.,2.07027095413193E-16));
#1318=DIRECTION('ref_axis',(2.07027095413193E-16,0.,1.));
#1319=DIRECTION('',(-2.07027095413193E-16,0.,-1.));
#1320=DIRECTION('',(0.,-1.,0.));
#1321=DIRECTION('',(0.,1.,0.));
#1322=DIRECTION('center_axis',(-7.50875475591887E-18,0.,1.));
#1323=DIRECTION('ref_axis',(1.,0.,7.50875475591887E-18));
#1324=DIRECTION('',(-1.,0.,-7.50875475591887E-18));
#1325=DIRECTION('',(0.,1.,0.));
#1326=DIRECTION('center_axis',(1.,0.,-9.97591703286373E-17));
#1327=DIRECTION('ref_axis',(-9.97591703286373E-17,0.,-1.));
#1328=DIRECTION('',(9.97591703286373E-17,0.,1.));
#1329=DIRECTION('',(0.,1.,0.));
#1330=DIRECTION('center_axis',(0.,-1.,0.));
#1331=DIRECTION('ref_axis',(0.,0.,-1.));
#1332=DIRECTION('',(-1.,0.,-3.35913633091799E-16));
#1333=DIRECTION('center_axis',(0.,-1.,0.));
#1334=DIRECTION('ref_axis',(1.,0.,2.22044604925031E-16));
#1335=DIRECTION('center_axis',(0.,-1.,0.));
#1336=DIRECTION('ref_axis',(1.,0.,2.22044604925031E-16));
#1337=DIRECTION('center_axis',(-3.35913633091799E-16,0.,1.));
#1338=DIRECTION('ref_axis',(-1.,0.,-3.35913633091799E-16));
#1339=DIRECTION('center_axis',(0.,-1.,0.));
#1340=DIRECTION('ref_axis',(1.,0.,2.22044604925031E-16));
#1341=DIRECTION('',(0.,-1.,0.));
#1342=DIRECTION('center_axis',(0.,-1.,0.));
#1343=DIRECTION('ref_axis',(1.,0.,2.22044604925031E-16));
#1344=DIRECTION('',(0.,-1.,0.));
#1345=DIRECTION('center_axis',(1.,0.,0.));
#1346=DIRECTION('ref_axis',(0.,0.,-1.));
#1347=DIRECTION('',(0.,-1.,0.));
#1348=DIRECTION('center_axis',(1.97135755013551E-16,0.,-1.));
#1349=DIRECTION('ref_axis',(1.,0.,1.97135755013551E-16));
#1350=CARTESIAN_POINT('',(0.,0.,0.));
#1351=CARTESIAN_POINT('Origin',(8.88178419700125E-15,13.5,66.25));
#1352=CARTESIAN_POINT('',(41.,0.,66.25));
#1353=CARTESIAN_POINT('',(-41.,0.,66.25));
#1354=CARTESIAN_POINT('',(41.,0.,66.25));
#1355=CARTESIAN_POINT('',(-41.,27.,66.25));
#1356=CARTESIAN_POINT('',(-41.,0.,66.25));
#1357=CARTESIAN_POINT('',(-20.,27.,66.25));
#1358=CARTESIAN_POINT('',(-41.,27.,66.25));
#1359=CARTESIAN_POINT('',(-20.,18.,66.25));
#1360=CARTESIAN_POINT('',(-20.,27.,66.25));
#1361=CARTESIAN_POINT('',(-12.3500000000029,18.,66.25));
#1362=CARTESIAN_POINT('',(-20.,18.,66.25));
#1363=CARTESIAN_POINT('',(-12.3500000000029,20.,66.25));
#1364=CARTESIAN_POINT('',(-12.3500000000029,18.,66.25));
#1365=CARTESIAN_POINT('',(12.3500000000757,20.,66.25));
#1366=CARTESIAN_POINT('',(-12.3500000000029,20.,66.25));
#1367=CARTESIAN_POINT('',(12.3500000000757,18.,66.25));
#1368=CARTESIAN_POINT('',(12.3500000000757,20.,66.25));
#1369=CARTESIAN_POINT('',(20.,18.,66.25));
#1370=CARTESIAN_POINT('',(12.3500000000757,18.,66.25));
#1371=CARTESIAN_POINT('',(20.,27.,66.25));
#1372=CARTESIAN_POINT('',(20.,18.,66.25));
#1373=CARTESIAN_POINT('',(41.,27.,66.25));
#1374=CARTESIAN_POINT('',(20.,27.,66.25));
#1375=CARTESIAN_POINT('',(41.,27.,66.25));
#1376=CARTESIAN_POINT('Origin',(41.,7.00000000000001,71.1));
#1377=CARTESIAN_POINT('',(41.,7.00000000000001,87.));
#1378=CARTESIAN_POINT('',(36.,7.00000000000001,92.));
#1379=CARTESIAN_POINT('Origin',(36.,7.00000000000001,87.));
#1380=CARTESIAN_POINT('',(41.,7.00000000000001,71.1));
#1381=CARTESIAN_POINT('',(41.,7.00000000000001,81.55));
#1382=CARTESIAN_POINT('',(-41.,7.00000000000001,71.1));
#1383=CARTESIAN_POINT('',(41.,7.00000000000001,71.1));
#1384=CARTESIAN_POINT('',(-41.,7.00000000000001,87.));
#1385=CARTESIAN_POINT('',(-41.,7.00000000000003,0.0500000000000094));
#1386=CARTESIAN_POINT('',(-36.,7.00000000000001,92.));
#1387=CARTESIAN_POINT('Origin',(-36.,7.00000000000001,87.));
#1388=CARTESIAN_POINT('',(2.26377182582105E-15,7.00000000000001,92.));
#1389=CARTESIAN_POINT('Origin',(41.,14.,71.1));
#1390=CARTESIAN_POINT('',(-41.,14.,71.1));
#1391=CARTESIAN_POINT('',(-41.,7.00000000000001,71.1));
#1392=CARTESIAN_POINT('',(41.,14.,71.1));
#1393=CARTESIAN_POINT('',(41.,7.00000000000001,71.1));
#1394=CARTESIAN_POINT('',(41.,14.,71.1));
#1395=CARTESIAN_POINT('Origin',(36.,0.,87.));
#1396=CARTESIAN_POINT('',(36.,0.,92.));
#1397=CARTESIAN_POINT('',(36.,0.,92.));
#1398=CARTESIAN_POINT('',(41.,0.,87.));
#1399=CARTESIAN_POINT('Origin',(36.,0.,87.));
#1400=CARTESIAN_POINT('',(41.,0.,87.));
#1401=CARTESIAN_POINT('Origin',(-41.,0.,92.));
#1402=CARTESIAN_POINT('',(-36.,0.,92.));
#1403=CARTESIAN_POINT('',(-36.,0.,92.));
#1404=CARTESIAN_POINT('',(-41.,0.,92.));
#1405=CARTESIAN_POINT('Origin',(-36.,0.,87.));
#1406=CARTESIAN_POINT('',(-41.,0.,87.));
#1407=CARTESIAN_POINT('',(-41.,0.,87.));
#1408=CARTESIAN_POINT('Origin',(-36.,0.,87.));
#1409=CARTESIAN_POINT('Origin',(-41.,0.,-71.));
#1410=CARTESIAN_POINT('',(-41.,14.,87.));
#1411=CARTESIAN_POINT('',(-41.,14.,71.1000000000175));
#1412=CARTESIAN_POINT('',(-41.,27.,87.));
#1413=CARTESIAN_POINT('',(-41.,9.5,87.));
#1414=CARTESIAN_POINT('',(-41.,27.,-71.));
#1415=CARTESIAN_POINT('',(-41.,0.,69.25));
#1416=CARTESIAN_POINT('Origin',(-36.,14.,69.25));
#1417=CARTESIAN_POINT('',(-36.,18.,73.1000000000757));
#1418=CARTESIAN_POINT('',(-36.,18.,74.25));
#1419=CARTESIAN_POINT('',(-36.,18.,75.4000000000204));
#1420=CARTESIAN_POINT('',(-36.,27.,73.1000000000757));
#1421=CARTESIAN_POINT('',(-36.,19.,73.1000000000757));
#1422=CARTESIAN_POINT('',(-36.,27.,74.25));
#1423=CARTESIAN_POINT('',(-36.,27.,69.25));
#1424=CARTESIAN_POINT('',(-36.,27.,74.25));
#1425=CARTESIAN_POINT('Origin',(-38.5,13.5,74.25));
#1426=CARTESIAN_POINT('',(-38.9999999999709,18.,74.25));
#1427=CARTESIAN_POINT('',(-19.25,18.,74.25));
#1428=CARTESIAN_POINT('',(-38.9999999999709,27.,74.25));
#1429=CARTESIAN_POINT('',(-41.,27.,74.25));
#1430=CARTESIAN_POINT('',(-38.9999999999709,18.75,74.25));
#1431=CARTESIAN_POINT('Origin',(-38.5,13.5,74.25));
#1432=CARTESIAN_POINT('',(38.9999999999709,18.,74.25));
#1433=CARTESIAN_POINT('',(36.,18.,74.25));
#1434=CARTESIAN_POINT('',(-19.25,18.,74.25));
#1435=CARTESIAN_POINT('',(38.9999999999709,27.,74.25));
#1436=CARTESIAN_POINT('',(38.9999999999709,18.75,74.25));
#1437=CARTESIAN_POINT('',(36.,27.,74.25));
#1438=CARTESIAN_POINT('',(36.,27.,74.25));
#1439=CARTESIAN_POINT('',(36.,0.,74.25));
#1440=CARTESIAN_POINT('Origin',(36.,27.,69.25));
#1441=CARTESIAN_POINT('',(36.,18.,73.1000000000757));
#1442=CARTESIAN_POINT('',(36.,18.,75.4000000000204));
#1443=CARTESIAN_POINT('',(36.,27.,73.1000000000757));
#1444=CARTESIAN_POINT('',(36.,27.,69.25));
#1445=CARTESIAN_POINT('',(36.,25.5,73.1000000000757));
#1446=CARTESIAN_POINT('Origin',(-1.33226762955019E-14,18.,81.5500000000408));
#1447=CARTESIAN_POINT('',(20.,18.,73.1000000000757));
#1448=CARTESIAN_POINT('',(38.9999999999709,18.,73.1000000000757));
#1449=CARTESIAN_POINT('',(20.,18.,73.1000000000757));
#1450=CARTESIAN_POINT('',(12.3500000000757,18.,90.0000000000058));
#1451=CARTESIAN_POINT('',(12.3500000000757,18.,85.7750000000233));
#1452=CARTESIAN_POINT('',(33.9999999999709,18.,90.0000000000059));
#1453=CARTESIAN_POINT('',(-38.9999999999709,18.,90.0000000000058));
#1454=CARTESIAN_POINT('',(38.9999999999709,18.,85.0000000000059));
#1455=CARTESIAN_POINT('Origin',(33.9999999999709,18.,85.0000000000059));
#1456=CARTESIAN_POINT('',(38.9999999999709,18.,83.999489742824));
#1457=CARTESIAN_POINT('',(38.9999999999709,18.,90.0000000000059));
#1458=CARTESIAN_POINT('',(38.9999999999709,18.,79.1005102572576));
#1459=CARTESIAN_POINT('Origin',(36.4999999999709,18.,81.5500000000408));
#1460=CARTESIAN_POINT('',(38.9999999999709,18.,90.0000000000059));
#1461=CARTESIAN_POINT('Origin',(20.,24.,73.1000000000757));
#1462=CARTESIAN_POINT('',(20.,27.,73.1000000000757));
#1463=CARTESIAN_POINT('',(10.,27.,73.1000000000757));
#1464=CARTESIAN_POINT('',(20.,24.,73.1000000000757));
#1465=CARTESIAN_POINT('Origin',(-41.,14.,71.1000000000175));
#1466=CARTESIAN_POINT('',(41.,14.,87.));
#1467=CARTESIAN_POINT('',(41.,14.,71.1000000000174));
#1468=CARTESIAN_POINT('',(36.,14.,92.));
#1469=CARTESIAN_POINT('Origin',(36.,14.,87.));
#1470=CARTESIAN_POINT('',(-36.,14.,92.));
#1471=CARTESIAN_POINT('',(-20.5,14.,92.));
#1472=CARTESIAN_POINT('Origin',(-36.,14.,87.));
#1473=CARTESIAN_POINT('',(-9.65,14.,87.0000000000058));
#1474=CARTESIAN_POINT('Origin',(-7.9,14.,87.0000000000058));
#1475=CARTESIAN_POINT('',(6.15,14.,87.0000000000059));
#1476=CARTESIAN_POINT('Origin',(7.9,14.,87.0000000000059));
#1477=CARTESIAN_POINT('',(7.99999999999999,14.,85.0000000000059));
#1478=CARTESIAN_POINT('',(7.99999999999998,14.,73.0000000000059));
#1479=CARTESIAN_POINT('',(7.99999999999998,14.,72.0500000000116));
#1480=CARTESIAN_POINT('',(-8.00000000000001,14.,73.0000000000059));
#1481=CARTESIAN_POINT('',(-24.5,14.,73.0000000000059));
#1482=CARTESIAN_POINT('',(-8.00000000000001,14.,85.0000000000058));
#1483=CARTESIAN_POINT('',(-8.00000000000001,14.,78.0500000000116));
#1484=CARTESIAN_POINT('',(-16.5,14.,85.0000000000059));
#1485=CARTESIAN_POINT('Origin',(-1.33226762955019E-14,18.,81.5500000000408));
#1486=CARTESIAN_POINT('',(-38.9999999999709,18.,79.1005102572576));
#1487=CARTESIAN_POINT('',(-38.9999999999709,18.,73.1000000000756));
#1488=CARTESIAN_POINT('',(-38.9999999999709,18.,83.9994897428239));
#1489=CARTESIAN_POINT('Origin',(-36.4999999999709,18.,81.5500000000407));
#1490=CARTESIAN_POINT('',(-38.9999999999709,18.,85.0000000000058));
#1491=CARTESIAN_POINT('',(-38.9999999999709,18.,73.1000000000756));
#1492=CARTESIAN_POINT('',(-33.9999999999709,18.,90.0000000000058));
#1493=CARTESIAN_POINT('Origin',(-33.9999999999709,18.,85.0000000000058));
#1494=CARTESIAN_POINT('',(-12.3500000000029,18.,90.0000000000058));
#1495=CARTESIAN_POINT('',(-38.9999999999709,18.,90.0000000000058));
#1496=CARTESIAN_POINT('',(-12.3500000000029,18.,75.3250000000291));
#1497=CARTESIAN_POINT('',(-20.,18.,73.1000000000757));
#1498=CARTESIAN_POINT('',(-20.,18.,70.6000000000175));
#1499=CARTESIAN_POINT('',(38.9999999999709,18.,73.1000000000757));
#1500=CARTESIAN_POINT('Origin',(-8.88178419700125E-15,27.,0.0500000000087208));
#1501=CARTESIAN_POINT('',(-20.,27.,73.1000000000757));
#1502=CARTESIAN_POINT('',(-19.4999999999854,27.,73.1000000000757));
#1503=CARTESIAN_POINT('',(-20.,27.,77.3250000000422));
#1504=CARTESIAN_POINT('',(-36.,27.,92.));
#1505=CARTESIAN_POINT('Origin',(-36.,27.,87.));
#1506=CARTESIAN_POINT('',(36.,27.,92.));
#1507=CARTESIAN_POINT('',(-18.,27.,92.));
#1508=CARTESIAN_POINT('',(41.,27.,87.));
#1509=CARTESIAN_POINT('Origin',(36.,27.,87.));
#1510=CARTESIAN_POINT('',(41.,27.,69.25));
#1511=CARTESIAN_POINT('',(20.,27.,69.1000000000175));
#1512=CARTESIAN_POINT('',(38.9999999999709,27.,79.1005102572576));
#1513=CARTESIAN_POINT('',(38.9999999999709,27.,77.3250000000422));
#1514=CARTESIAN_POINT('',(38.9999999999709,27.,83.999489742824));
#1515=CARTESIAN_POINT('Origin',(36.4999999999709,27.,81.5500000000408));
#1516=CARTESIAN_POINT('',(38.9999999999709,27.,85.0000000000059));
#1517=CARTESIAN_POINT('',(38.9999999999709,27.,77.3250000000422));
#1518=CARTESIAN_POINT('',(33.9999999999709,27.,90.0000000000058));
#1519=CARTESIAN_POINT('Origin',(33.9999999999709,27.,85.0000000000059));
#1520=CARTESIAN_POINT('',(-33.9999999999709,27.,90.0000000000058));
#1521=CARTESIAN_POINT('',(19.4999999999854,27.,90.0000000000058));
#1522=CARTESIAN_POINT('',(-38.9999999999709,27.,85.0000000000058));
#1523=CARTESIAN_POINT('Origin',(-33.9999999999709,27.,85.0000000000058));
#1524=CARTESIAN_POINT('',(-38.9999999999709,27.,83.9994897428239));
#1525=CARTESIAN_POINT('',(-38.9999999999709,27.,85.7750000000073));
#1526=CARTESIAN_POINT('',(-38.9999999999709,27.,79.1005102572576));
#1527=CARTESIAN_POINT('Origin',(-36.4999999999709,27.,81.5500000000407));
#1528=CARTESIAN_POINT('',(-38.9999999999709,27.,85.7750000000073));
#1529=CARTESIAN_POINT('',(-34.3999999999709,27.,81.5500000000407));
#1530=CARTESIAN_POINT('Origin',(-36.4999999999709,27.,81.5500000000407));
#1531=CARTESIAN_POINT('',(38.5999999999709,27.,81.5500000000408));
#1532=CARTESIAN_POINT('Origin',(36.4999999999709,27.,81.5500000000408));
#1533=CARTESIAN_POINT('Origin',(-38.9999999999709,24.,90.0000000000058));
#1534=CARTESIAN_POINT('',(-38.9999999999709,18.,79.1005102572576));
#1535=CARTESIAN_POINT('Origin',(0.,0.,0.));
#1536=CARTESIAN_POINT('',(41.,0.,69.25));
#1537=CARTESIAN_POINT('Origin',(41.,0.,92.));
#1538=CARTESIAN_POINT('',(41.,24.,87.));
#1539=CARTESIAN_POINT('Origin',(20.,2.,69.1000000000175));
#1540=CARTESIAN_POINT('Origin',(12.3500000000757,18.,90.0000000000058));
#1541=CARTESIAN_POINT('',(12.3500000000757,20.,90.0000000000058));
#1542=CARTESIAN_POINT('',(12.3500000000757,20.,91.9999999999942));
#1543=CARTESIAN_POINT('',(12.3500000000757,21.,90.0000000000058));
#1544=CARTESIAN_POINT('Origin',(3.63686858406709E-11,20.,79.5500000000117));
#1545=CARTESIAN_POINT('',(-12.3500000000029,20.,90.0000000000058));
#1546=CARTESIAN_POINT('',(-12.3500000000029,20.,67.2999999999884));
#1547=CARTESIAN_POINT('',(-10.35,20.,90.0000000000058));
#1548=CARTESIAN_POINT('',(19.5000000000036,20.,90.0000000000059));
#1549=CARTESIAN_POINT('',(-10.35,20.,69.3000000000059));
#1550=CARTESIAN_POINT('',(-10.35,20.,90.0000000000058));
#1551=CARTESIAN_POINT('',(10.35,20.,69.3000000000059));
#1552=CARTESIAN_POINT('',(-10.35,20.,69.3000000000059));
#1553=CARTESIAN_POINT('',(10.35,20.,90.0000000000058));
#1554=CARTESIAN_POINT('',(10.35,20.,69.3000000000058));
#1555=CARTESIAN_POINT('',(19.5000000000036,20.,90.0000000000059));
#1556=CARTESIAN_POINT('Origin',(-12.3500000000029,18.,69.1000000000175));
#1557=CARTESIAN_POINT('',(-12.3500000000029,21.,90.0000000000058));
#1558=CARTESIAN_POINT('Origin',(36.4999999999709,18.,81.5500000000408));
#1559=CARTESIAN_POINT('',(38.9999999999709,18.,79.1005102572576));
#1560=CARTESIAN_POINT('',(38.9999999999709,18.,83.999489742824));
#1561=CARTESIAN_POINT('Origin',(36.4999999999709,18.,81.5500000000408));
#1562=CARTESIAN_POINT('',(38.5999999999709,18.,81.5500000000408));
#1563=CARTESIAN_POINT('',(38.5999999999709,18.,81.5500000000408));
#1564=CARTESIAN_POINT('Origin',(36.4999999999709,18.,81.5500000000408));
#1565=CARTESIAN_POINT('Origin',(-36.4999999999709,18.,81.5500000000407));
#1566=CARTESIAN_POINT('',(-38.9999999999709,18.,83.9994897428239));
#1567=CARTESIAN_POINT('Origin',(-36.4999999999709,18.,81.5500000000407));
#1568=CARTESIAN_POINT('',(-34.3999999999709,18.,81.5500000000407));
#1569=CARTESIAN_POINT('',(-34.3999999999709,18.,81.5500000000407));
#1570=CARTESIAN_POINT('Origin',(-36.4999999999709,18.,81.5500000000407));
#1571=CARTESIAN_POINT('Origin',(38.9999999999709,24.,73.1000000000757));
#1572=CARTESIAN_POINT('',(38.9999999999709,24.,85.0000000000059));
#1573=CARTESIAN_POINT('Origin',(38.9999999999709,24.,73.1000000000757));
#1574=CARTESIAN_POINT('Origin',(-38.9999999999709,24.,90.0000000000058));
#1575=CARTESIAN_POINT('',(-38.9999999999709,24.,85.0000000000058));
#1576=CARTESIAN_POINT('Origin',(-1.33226762955019E-14,18.,81.5500000000408));
#1577=CARTESIAN_POINT('Origin',(-1.33226762955019E-14,18.,81.5500000000408));
#1578=CARTESIAN_POINT('Origin',(33.9999999999709,24.,85.0000000000059));
#1579=CARTESIAN_POINT('',(33.9999999999709,24.,90.0000000000059));
#1580=CARTESIAN_POINT('Origin',(-33.9999999999709,24.,85.0000000000058));
#1581=CARTESIAN_POINT('',(-33.9999999999709,24.,90.0000000000058));
#1582=CARTESIAN_POINT('Origin',(36.,9.5,87.));
#1583=CARTESIAN_POINT('',(36.,9.5,92.));
#1584=CARTESIAN_POINT('Origin',(2.26377182581916E-15,19.,92.));
#1585=CARTESIAN_POINT('',(-36.,9.5,92.));
#1586=CARTESIAN_POINT('Origin',(-36.,9.5,87.));
#1587=CARTESIAN_POINT('Origin',(-8.00000000000001,18.,85.0000000000058));
#1588=CARTESIAN_POINT('',(-8.00000000000001,18.,85.0000000000058));
#1589=CARTESIAN_POINT('',(-8.00000000000001,18.,73.0000000000059));
#1590=CARTESIAN_POINT('',(-8.00000000000001,18.,83.2750000000233));
#1591=CARTESIAN_POINT('',(-8.00000000000001,18.,85.0000000000058));
#1592=CARTESIAN_POINT('',(-8.00000000000001,18.,73.0000000000059));
#1593=CARTESIAN_POINT('Origin',(7.99999999999999,18.,85.0000000000059));
#1594=CARTESIAN_POINT('',(7.99999999999999,18.,85.0000000000059));
#1595=CARTESIAN_POINT('',(3.99999999999999,18.,85.0000000000059));
#1596=CARTESIAN_POINT('',(7.99999999999999,18.,85.0000000000059));
#1597=CARTESIAN_POINT('Origin',(7.99999999999998,18.,73.0000000000059));
#1598=CARTESIAN_POINT('',(7.99999999999998,18.,73.0000000000059));
#1599=CARTESIAN_POINT('',(7.99999999999998,18.,77.2750000000233));
#1600=CARTESIAN_POINT('',(7.99999999999998,18.,73.0000000000059));
#1601=CARTESIAN_POINT('Origin',(-8.00000000000001,18.,73.0000000000059));
#1602=CARTESIAN_POINT('',(-4.00000000000001,18.,73.0000000000059));
#1603=CARTESIAN_POINT('Origin',(10.35,18.,69.3000000000059));
#1604=CARTESIAN_POINT('',(10.35,18.,90.0000000000058));
#1605=CARTESIAN_POINT('',(10.35,18.,69.3000000000059));
#1606=CARTESIAN_POINT('',(10.35,18.,75.4250000000233));
#1607=CARTESIAN_POINT('',(10.35,21.,90.0000000000059));
#1608=CARTESIAN_POINT('',(10.35,18.,69.3000000000059));
#1609=CARTESIAN_POINT('Origin',(-10.35,18.,69.3000000000059));
#1610=CARTESIAN_POINT('',(-10.35,18.,69.3000000000059));
#1611=CARTESIAN_POINT('',(-5.17500000000001,18.,69.3000000000059));
#1612=CARTESIAN_POINT('',(-10.35,18.,69.3000000000059));
#1613=CARTESIAN_POINT('Origin',(-10.35,18.,90.0000000000058));
#1614=CARTESIAN_POINT('',(-10.35,18.,90.0000000000058));
#1615=CARTESIAN_POINT('',(-10.35,18.,85.7750000000233));
#1616=CARTESIAN_POINT('',(-10.35,21.,90.0000000000058));
#1617=CARTESIAN_POINT('Origin',(-1.33226762955019E-14,18.,81.5500000000408));
#1618=CARTESIAN_POINT('',(-38.9999999999709,18.,90.0000000000058));
#1619=CARTESIAN_POINT('',(-9.65,18.,87.0000000000058));
#1620=CARTESIAN_POINT('Origin',(-7.9,18.,87.0000000000058));
#1621=CARTESIAN_POINT('',(6.15,18.,87.0000000000059));
#1622=CARTESIAN_POINT('Origin',(7.9,18.,87.0000000000059));
#1623=CARTESIAN_POINT('Origin',(38.9999999999709,24.,90.0000000000059));
#1624=CARTESIAN_POINT('Origin',(-7.9,18.,87.0000000000058));
#1625=CARTESIAN_POINT('',(-9.65,18.,87.0000000000058));
#1626=CARTESIAN_POINT('Origin',(7.9,18.,87.0000000000059));
#1627=CARTESIAN_POINT('',(6.15,18.,87.0000000000059));
#1628=CARTESIAN_POINT('Origin',(-20.,2.,71.1000000000175));
#1629=CARTESIAN_POINT('',(-20.,24.,73.1000000000757));
#1630=CARTESIAN_POINT('Origin',(-38.9999999999709,24.,73.1000000000757));
#1631=UNCERTAINTY_MEASURE_WITH_UNIT(LENGTH_MEASURE(0.01),#1635,
'DISTANCE_ACCURACY_VALUE',
'Maximum model space distance between geometric entities at asserted c
onnectivities');
#1632=UNCERTAINTY_MEASURE_WITH_UNIT(LENGTH_MEASURE(0.01),#1635,
'DISTANCE_ACCURACY_VALUE',
'Maximum model space distance between geometric entities at asserted c
onnectivities');
#1633=(
GEOMETRIC_REPRESENTATION_CONTEXT(3)
GLOBAL_UNCERTAINTY_ASSIGNED_CONTEXT((#1631))
GLOBAL_UNIT_ASSIGNED_CONTEXT((#1635,#1637,#1638))
REPRESENTATION_CONTEXT('','3D')
);
#1634=(
GEOMETRIC_REPRESENTATION_CONTEXT(3)
GLOBAL_UNCERTAINTY_ASSIGNED_CONTEXT((#1632))
GLOBAL_UNIT_ASSIGNED_CONTEXT((#1635,#1637,#1638))
REPRESENTATION_CONTEXT('','3D')
);
#1635=(
LENGTH_UNIT()
NAMED_UNIT(*)
SI_UNIT(.MILLI.,.METRE.)
);
#1636=(
LENGTH_UNIT()
NAMED_UNIT(*)
SI_UNIT(.CENTI.,.METRE.)
);
#1637=(
NAMED_UNIT(*)
PLANE_ANGLE_UNIT()
SI_UNIT($,.RADIAN.)
);
#1638=(
NAMED_UNIT(*)
SI_UNIT($,.STERADIAN.)
SOLID_ANGLE_UNIT()
);
#1639=SHAPE_DEFINITION_REPRESENTATION(#1640,#1641);
#1640=PRODUCT_DEFINITION_SHAPE('',$,#1643);
#1641=SHAPE_REPRESENTATION('',(#1011),#1633);
#1642=PRODUCT_DEFINITION_CONTEXT('part definition',#1647,'design');
#1643=PRODUCT_DEFINITION('basepcb','basepcb',#1644,#1642);
#1644=PRODUCT_DEFINITION_FORMATION('',$,#1649);
#1645=PRODUCT_RELATED_PRODUCT_CATEGORY('basepcb','basepcb',(#1649));
#1646=APPLICATION_PROTOCOL_DEFINITION('international standard',
'automotive_design',2009,#1647);
#1647=APPLICATION_CONTEXT(
'Core Data for Automotive Mechanical Design Process');
#1648=PRODUCT_CONTEXT('part definition',#1647,'mechanical');
#1649=PRODUCT('basepcb','basepcb',$,(#1648));
#1650=PRESENTATION_STYLE_ASSIGNMENT((#1651));
#1651=SURFACE_STYLE_USAGE(.BOTH.,#1654);
#1652=SURFACE_STYLE_RENDERING_WITH_PROPERTIES($,#1658,(#1653));
#1653=SURFACE_STYLE_TRANSPARENT(0.);
#1654=SURFACE_SIDE_STYLE('',(#1655,#1652));
#1655=SURFACE_STYLE_FILL_AREA(#1656);
#1656=FILL_AREA_STYLE('',(#1657));
#1657=FILL_AREA_STYLE_COLOUR('',#1658);
#1658=COLOUR_RGB('',0.749019607843137,0.749019607843137,0.749019607843137);
ENDSEC;
END-ISO-10303-21;
