ISO-10303-21;
HEADER;
/* Generated by software containing ST-Developer
 * from STEP Tools, Inc. (www.steptools.com) 
 */

FILE_DESCRIPTION(
/* description */ (''),
/* implementation_level */ '2;1');

FILE_NAME(
/* name */ 'ca.stp',
/* time_stamp */ '2026-04-12T18:40:20+07:00',
/* author */ ('Fork'),
/* organization */ (''),
/* preprocessor_version */ 'ST-DEVELOPER v20.1',
/* originating_system */ 'Autodesk Inventor 2026',
/* authorisation */ '');

FILE_SCHEMA (('AUTOMOTIVE_DESIGN { 1 0 10303 214 3 1 1 }'));
ENDSEC;

DATA;
#10=MECHANICAL_DESIGN_GEOMETRIC_PRESENTATION_REPRESENTATION('',(#13),#1644);
#11=SHAPE_REPRESENTATION_RELATIONSHIP('SRR','None',#1651,#12);
#12=ADVANCED_BREP_SHAPE_REPRESENTATION('',(#14),#1643);
#13=STYLED_ITEM('',(#1660),#14);
#14=MANIFOLD_SOLID_BREP('Solid2',#995);
#15=FACE_BOUND('',#130,.T.);
#16=FACE_BOUND('',#131,.T.);
#17=FACE_BOUND('',#132,.T.);
#18=FACE_BOUND('',#147,.T.);
#19=FACE_BOUND('',#148,.T.);
#20=FACE_BOUND('',#149,.T.);
#21=FACE_BOUND('',#169,.T.);
#22=FACE_BOUND('',#170,.T.);
#23=FACE_BOUND('',#171,.T.);
#24=PLANE('',#1021);
#25=PLANE('',#1022);
#26=PLANE('',#1023);
#27=PLANE('',#1024);
#28=PLANE('',#1025);
#29=PLANE('',#1026);
#30=PLANE('',#1027);
#31=PLANE('',#1031);
#32=PLANE('',#1035);
#33=PLANE('',#1036);
#34=PLANE('',#1037);
#35=PLANE('',#1038);
#36=PLANE('',#1039);
#37=PLANE('',#1043);
#38=PLANE('',#1048);
#39=PLANE('',#1051);
#40=PLANE('',#1052);
#41=PLANE('',#1053);
#42=PLANE('',#1056);
#43=PLANE('',#1057);
#44=PLANE('',#1058);
#45=PLANE('',#1059);
#46=PLANE('',#1060);
#47=PLANE('',#1061);
#48=PLANE('',#1062);
#49=PLANE('',#1068);
#50=PLANE('',#1074);
#51=PLANE('',#1075);
#52=PLANE('',#1076);
#53=PLANE('',#1077);
#54=PLANE('',#1080);
#55=PLANE('',#1081);
#56=PLANE('',#1082);
#57=PLANE('',#1083);
#58=PLANE('',#1084);
#59=PLANE('',#1085);
#60=PLANE('',#1086);
#61=PLANE('',#1087);
#62=PLANE('',#1088);
#63=FACE_OUTER_BOUND('',#114,.T.);
#64=FACE_OUTER_BOUND('',#115,.T.);
#65=FACE_OUTER_BOUND('',#116,.T.);
#66=FACE_OUTER_BOUND('',#117,.T.);
#67=FACE_OUTER_BOUND('',#118,.T.);
#68=FACE_OUTER_BOUND('',#119,.T.);
#69=FACE_OUTER_BOUND('',#120,.T.);
#70=FACE_OUTER_BOUND('',#121,.T.);
#71=FACE_OUTER_BOUND('',#122,.T.);
#72=FACE_OUTER_BOUND('',#123,.T.);
#73=FACE_OUTER_BOUND('',#124,.T.);
#74=FACE_OUTER_BOUND('',#125,.T.);
#75=FACE_OUTER_BOUND('',#126,.T.);
#76=FACE_OUTER_BOUND('',#127,.T.);
#77=FACE_OUTER_BOUND('',#128,.T.);
#78=FACE_OUTER_BOUND('',#129,.T.);
#79=FACE_OUTER_BOUND('',#133,.T.);
#80=FACE_OUTER_BOUND('',#134,.T.);
#81=FACE_OUTER_BOUND('',#135,.T.);
#82=FACE_OUTER_BOUND('',#136,.T.);
#83=FACE_OUTER_BOUND('',#137,.T.);
#84=FACE_OUTER_BOUND('',#138,.T.);
#85=FACE_OUTER_BOUND('',#139,.T.);
#86=FACE_OUTER_BOUND('',#140,.T.);
#87=FACE_OUTER_BOUND('',#141,.T.);
#88=FACE_OUTER_BOUND('',#142,.T.);
#89=FACE_OUTER_BOUND('',#143,.T.);
#90=FACE_OUTER_BOUND('',#144,.T.);
#91=FACE_OUTER_BOUND('',#145,.T.);
#92=FACE_OUTER_BOUND('',#146,.T.);
#93=FACE_OUTER_BOUND('',#150,.T.);
#94=FACE_OUTER_BOUND('',#151,.T.);
#95=FACE_OUTER_BOUND('',#152,.T.);
#96=FACE_OUTER_BOUND('',#153,.T.);
#97=FACE_OUTER_BOUND('',#154,.T.);
#98=FACE_OUTER_BOUND('',#155,.T.);
#99=FACE_OUTER_BOUND('',#156,.T.);
#100=FACE_OUTER_BOUND('',#157,.T.);
#101=FACE_OUTER_BOUND('',#158,.T.);
#102=FACE_OUTER_BOUND('',#159,.T.);
#103=FACE_OUTER_BOUND('',#160,.T.);
#104=FACE_OUTER_BOUND('',#161,.T.);
#105=FACE_OUTER_BOUND('',#162,.T.);
#106=FACE_OUTER_BOUND('',#163,.T.);
#107=FACE_OUTER_BOUND('',#164,.T.);
#108=FACE_OUTER_BOUND('',#165,.T.);
#109=FACE_OUTER_BOUND('',#166,.T.);
#110=FACE_OUTER_BOUND('',#167,.T.);
#111=FACE_OUTER_BOUND('',#168,.T.);
#112=FACE_OUTER_BOUND('',#172,.T.);
#113=FACE_OUTER_BOUND('',#173,.T.);
#114=EDGE_LOOP('',(#656,#657,#658,#659));
#115=EDGE_LOOP('',(#660,#661,#662,#663,#664,#665,#666,#667));
#116=EDGE_LOOP('',(#668,#669,#670,#671));
#117=EDGE_LOOP('',(#672,#673,#674,#675,#676,#677,#678,#679,#680,#681,#682,
#683));
#118=EDGE_LOOP('',(#684,#685,#686,#687));
#119=EDGE_LOOP('',(#688,#689,#690,#691));
#120=EDGE_LOOP('',(#692,#693,#694,#695));
#121=EDGE_LOOP('',(#696,#697,#698,#699));
#122=EDGE_LOOP('',(#700,#701,#702,#703));
#123=EDGE_LOOP('',(#704,#705,#706,#707));
#124=EDGE_LOOP('',(#708,#709,#710,#711));
#125=EDGE_LOOP('',(#712,#713,#714,#715));
#126=EDGE_LOOP('',(#716,#717,#718,#719));
#127=EDGE_LOOP('',(#720,#721,#722,#723));
#128=EDGE_LOOP('',(#724,#725,#726,#727));
#129=EDGE_LOOP('',(#728,#729,#730,#731,#732,#733));
#130=EDGE_LOOP('',(#734));
#131=EDGE_LOOP('',(#735));
#132=EDGE_LOOP('',(#736,#737,#738,#739));
#133=EDGE_LOOP('',(#740,#741,#742,#743,#744,#745));
#134=EDGE_LOOP('',(#746,#747,#748,#749));
#135=EDGE_LOOP('',(#750,#751,#752,#753));
#136=EDGE_LOOP('',(#754,#755,#756,#757));
#137=EDGE_LOOP('',(#758,#759,#760,#761));
#138=EDGE_LOOP('',(#762,#763,#764,#765));
#139=EDGE_LOOP('',(#766,#767,#768,#769,#770,#771,#772,#773,#774,#775,#776));
#140=EDGE_LOOP('',(#777,#778,#779,#780));
#141=EDGE_LOOP('',(#781,#782,#783,#784,#785,#786,#787,#788,#789,#790,#791));
#142=EDGE_LOOP('',(#792,#793,#794,#795,#796,#797));
#143=EDGE_LOOP('',(#798,#799,#800,#801,#802,#803,#804,#805));
#144=EDGE_LOOP('',(#806,#807,#808,#809));
#145=EDGE_LOOP('',(#810,#811,#812,#813));
#146=EDGE_LOOP('',(#814,#815,#816,#817,#818,#819,#820,#821,#822,#823,#824,
#825,#826,#827,#828,#829,#830,#831,#832,#833,#834,#835,#836,#837,#838,#839,
#840,#841));
#147=EDGE_LOOP('',(#842,#843,#844,#845));
#148=EDGE_LOOP('',(#846));
#149=EDGE_LOOP('',(#847));
#150=EDGE_LOOP('',(#848,#849,#850,#851));
#151=EDGE_LOOP('',(#852,#853,#854,#855));
#152=EDGE_LOOP('',(#856,#857,#858,#859));
#153=EDGE_LOOP('',(#860,#861,#862,#863));
#154=EDGE_LOOP('',(#864,#865,#866,#867));
#155=EDGE_LOOP('',(#868,#869,#870,#871));
#156=EDGE_LOOP('',(#872));
#157=EDGE_LOOP('',(#873));
#158=EDGE_LOOP('',(#874,#875,#876,#877));
#159=EDGE_LOOP('',(#878,#879,#880,#881));
#160=EDGE_LOOP('',(#882,#883,#884,#885));
#161=EDGE_LOOP('',(#886,#887,#888,#889));
#162=EDGE_LOOP('',(#890,#891,#892,#893));
#163=EDGE_LOOP('',(#894,#895,#896,#897));
#164=EDGE_LOOP('',(#898,#899,#900,#901));
#165=EDGE_LOOP('',(#902,#903,#904,#905));
#166=EDGE_LOOP('',(#906,#907,#908,#909));
#167=EDGE_LOOP('',(#910,#911,#912,#913));
#168=EDGE_LOOP('',(#914,#915,#916,#917));
#169=EDGE_LOOP('',(#918,#919,#920,#921));
#170=EDGE_LOOP('',(#922));
#171=EDGE_LOOP('',(#923));
#172=EDGE_LOOP('',(#924,#925,#926,#927));
#173=EDGE_LOOP('',(#928,#929,#930,#931));
#174=LINE('',#1365,#288);
#175=LINE('',#1368,#289);
#176=LINE('',#1371,#290);
#177=LINE('',#1373,#291);
#178=LINE('',#1375,#292);
#179=LINE('',#1377,#293);
#180=LINE('',#1379,#294);
#181=LINE('',#1381,#295);
#182=LINE('',#1382,#296);
#183=LINE('',#1386,#297);
#184=LINE('',#1388,#298);
#185=LINE('',#1390,#299);
#186=LINE('',#1391,#300);
#187=LINE('',#1393,#301);
#188=LINE('',#1395,#302);
#189=LINE('',#1397,#303);
#190=LINE('',#1399,#304);
#191=LINE('',#1401,#305);
#192=LINE('',#1403,#306);
#193=LINE('',#1405,#307);
#194=LINE('',#1407,#308);
#195=LINE('',#1409,#309);
#196=LINE('',#1410,#310);
#197=LINE('',#1413,#311);
#198=LINE('',#1415,#312);
#199=LINE('',#1416,#313);
#200=LINE('',#1419,#314);
#201=LINE('',#1421,#315);
#202=LINE('',#1422,#316);
#203=LINE('',#1425,#317);
#204=LINE('',#1427,#318);
#205=LINE('',#1428,#319);
#206=LINE('',#1431,#320);
#207=LINE('',#1433,#321);
#208=LINE('',#1434,#322);
#209=LINE('',#1439,#323);
#210=LINE('',#1443,#324);
#211=LINE('',#1445,#325);
#212=LINE('',#1446,#326);
#213=LINE('',#1451,#327);
#214=LINE('',#1456,#328);
#215=LINE('',#1458,#329);
#216=LINE('',#1460,#330);
#217=LINE('',#1461,#331);
#218=LINE('',#1465,#332);
#219=LINE('',#1467,#333);
#220=LINE('',#1469,#334);
#221=LINE('',#1470,#335);
#222=LINE('',#1473,#336);
#223=LINE('',#1475,#337);
#224=LINE('',#1476,#338);
#225=LINE('',#1479,#339);
#226=LINE('',#1481,#340);
#227=LINE('',#1482,#341);
#228=LINE('',#1485,#342);
#229=LINE('',#1488,#343);
#230=LINE('',#1495,#344);
#231=LINE('',#1497,#345);
#232=LINE('',#1499,#346);
#233=LINE('',#1500,#347);
#234=LINE('',#1505,#348);
#235=LINE('',#1508,#349);
#236=LINE('',#1511,#350);
#237=LINE('',#1514,#351);
#238=LINE('',#1517,#352);
#239=LINE('',#1518,#353);
#240=LINE('',#1524,#354);
#241=LINE('',#1526,#355);
#242=LINE('',#1528,#356);
#243=LINE('',#1529,#357);
#244=LINE('',#1532,#358);
#245=LINE('',#1534,#359);
#246=LINE('',#1535,#360);
#247=LINE('',#1538,#361);
#248=LINE('',#1539,#362);
#249=LINE('',#1540,#363);
#250=LINE('',#1544,#364);
#251=LINE('',#1547,#365);
#252=LINE('',#1550,#366);
#253=LINE('',#1551,#367);
#254=LINE('',#1553,#368);
#255=LINE('',#1555,#369);
#256=LINE('',#1558,#370);
#257=LINE('',#1559,#371);
#258=LINE('',#1561,#372);
#259=LINE('',#1563,#373);
#260=LINE('',#1566,#374);
#261=LINE('',#1569,#375);
#262=LINE('',#1573,#376);
#263=LINE('',#1575,#377);
#264=LINE('',#1577,#378);
#265=LINE('',#1579,#379);
#266=LINE('',#1580,#380);
#267=LINE('',#1587,#381);
#268=LINE('',#1588,#382);
#269=LINE('',#1592,#383);
#270=LINE('',#1596,#384);
#271=LINE('',#1598,#385);
#272=LINE('',#1604,#386);
#273=LINE('',#1609,#387);
#274=LINE('',#1610,#388);
#275=LINE('',#1611,#389);
#276=LINE('',#1614,#390);
#277=LINE('',#1615,#391);
#278=LINE('',#1618,#392);
#279=LINE('',#1619,#393);
#280=LINE('',#1621,#394);
#281=LINE('',#1624,#395);
#282=LINE('',#1625,#396);
#283=LINE('',#1628,#397);
#284=LINE('',#1629,#398);
#285=LINE('',#1631,#399);
#286=LINE('',#1638,#400);
#287=LINE('',#1640,#401);
#288=VECTOR('',#1099,10.);
#289=VECTOR('',#1102,10.);
#290=VECTOR('',#1105,10.);
#291=VECTOR('',#1106,10.);
#292=VECTOR('',#1107,10.);
#293=VECTOR('',#1108,10.);
#294=VECTOR('',#1109,10.);
#295=VECTOR('',#1110,10.);
#296=VECTOR('',#1111,10.);
#297=VECTOR('',#1114,10.);
#298=VECTOR('',#1115,10.);
#299=VECTOR('',#1116,10.);
#300=VECTOR('',#1117,10.);
#301=VECTOR('',#1120,10.);
#302=VECTOR('',#1121,10.);
#303=VECTOR('',#1122,10.);
#304=VECTOR('',#1123,10.);
#305=VECTOR('',#1124,10.);
#306=VECTOR('',#1125,10.);
#307=VECTOR('',#1126,10.);
#308=VECTOR('',#1127,10.);
#309=VECTOR('',#1128,10.);
#310=VECTOR('',#1129,10.);
#311=VECTOR('',#1132,10.);
#312=VECTOR('',#1133,10.);
#313=VECTOR('',#1134,10.);
#314=VECTOR('',#1137,10.);
#315=VECTOR('',#1138,10.);
#316=VECTOR('',#1139,10.);
#317=VECTOR('',#1142,10.);
#318=VECTOR('',#1143,10.);
#319=VECTOR('',#1144,10.);
#320=VECTOR('',#1147,10.);
#321=VECTOR('',#1148,10.);
#322=VECTOR('',#1149,10.);
#323=VECTOR('',#1154,10.);
#324=VECTOR('',#1159,10.);
#325=VECTOR('',#1160,10.);
#326=VECTOR('',#1161,10.);
#327=VECTOR('',#1166,10.);
#328=VECTOR('',#1171,10.);
#329=VECTOR('',#1172,10.);
#330=VECTOR('',#1173,10.);
#331=VECTOR('',#1174,10.);
#332=VECTOR('',#1177,10.);
#333=VECTOR('',#1178,10.);
#334=VECTOR('',#1179,10.);
#335=VECTOR('',#1180,10.);
#336=VECTOR('',#1183,10.);
#337=VECTOR('',#1184,10.);
#338=VECTOR('',#1185,10.);
#339=VECTOR('',#1188,10.);
#340=VECTOR('',#1189,10.);
#341=VECTOR('',#1190,10.);
#342=VECTOR('',#1193,10.);
#343=VECTOR('',#1196,10.);
#344=VECTOR('',#1201,10.);
#345=VECTOR('',#1202,10.);
#346=VECTOR('',#1203,10.);
#347=VECTOR('',#1204,10.);
#348=VECTOR('',#1209,10.);
#349=VECTOR('',#1212,10.);
#350=VECTOR('',#1215,10.);
#351=VECTOR('',#1218,10.);
#352=VECTOR('',#1221,10.);
#353=VECTOR('',#1222,10.);
#354=VECTOR('',#1229,10.);
#355=VECTOR('',#1230,10.);
#356=VECTOR('',#1231,10.);
#357=VECTOR('',#1232,10.);
#358=VECTOR('',#1235,10.);
#359=VECTOR('',#1236,10.);
#360=VECTOR('',#1237,10.);
#361=VECTOR('',#1240,10.);
#362=VECTOR('',#1241,10.);
#363=VECTOR('',#1242,10.);
#364=VECTOR('',#1245,10.);
#365=VECTOR('',#1248,10.);
#366=VECTOR('',#1251,10.);
#367=VECTOR('',#1252,10.);
#368=VECTOR('',#1255,10.);
#369=VECTOR('',#1258,10.);
#370=VECTOR('',#1261,10.);
#371=VECTOR('',#1262,10.);
#372=VECTOR('',#1265,10.);
#373=VECTOR('',#1268,10.);
#374=VECTOR('',#1271,10.);
#375=VECTOR('',#1274,10.);
#376=VECTOR('',#1277,10.);
#377=VECTOR('',#1280,10.);
#378=VECTOR('',#1281,10.);
#379=VECTOR('',#1282,10.);
#380=VECTOR('',#1283,10.);
#381=VECTOR('',#1292,10.);
#382=VECTOR('',#1293,10.);
#383=VECTOR('',#1298,2.1);
#384=VECTOR('',#1303,2.1);
#385=VECTOR('',#1306,10.);
#386=VECTOR('',#1317,10.);
#387=VECTOR('',#1322,10.);
#388=VECTOR('',#1323,10.);
#389=VECTOR('',#1324,10.);
#390=VECTOR('',#1327,10.);
#391=VECTOR('',#1328,10.);
#392=VECTOR('',#1331,10.);
#393=VECTOR('',#1332,10.);
#394=VECTOR('',#1335,10.);
#395=VECTOR('',#1338,10.);
#396=VECTOR('',#1339,10.);
#397=VECTOR('',#1342,10.);
#398=VECTOR('',#1343,10.);
#399=VECTOR('',#1346,10.);
#400=VECTOR('',#1355,1.75);
#401=VECTOR('',#1358,1.75);
#402=CIRCLE('',#1019,5.);
#403=CIRCLE('',#1020,5.);
#404=CIRCLE('',#1029,3.5);
#405=CIRCLE('',#1030,3.5);
#406=CIRCLE('',#1033,5.);
#407=CIRCLE('',#1034,5.);
#408=CIRCLE('',#1040,5.);
#409=CIRCLE('',#1041,1.75);
#410=CIRCLE('',#1042,1.75);
#411=CIRCLE('',#1044,5.);
#412=CIRCLE('',#1045,5.);
#413=CIRCLE('',#1047,5.);
#414=CIRCLE('',#1050,5.);
#415=CIRCLE('',#1054,5.);
#416=CIRCLE('',#1055,3.5);
#417=CIRCLE('',#1063,5.);
#418=CIRCLE('',#1064,3.5);
#419=CIRCLE('',#1065,5.);
#420=CIRCLE('',#1066,2.1);
#421=CIRCLE('',#1067,2.1);
#422=CIRCLE('',#1071,2.1);
#423=CIRCLE('',#1073,2.1);
#424=CIRCLE('',#1089,1.75);
#425=CIRCLE('',#1090,1.75);
#426=VERTEX_POINT('',#1361);
#427=VERTEX_POINT('',#1362);
#428=VERTEX_POINT('',#1364);
#429=VERTEX_POINT('',#1366);
#430=VERTEX_POINT('',#1370);
#431=VERTEX_POINT('',#1372);
#432=VERTEX_POINT('',#1374);
#433=VERTEX_POINT('',#1376);
#434=VERTEX_POINT('',#1378);
#435=VERTEX_POINT('',#1380);
#436=VERTEX_POINT('',#1384);
#437=VERTEX_POINT('',#1385);
#438=VERTEX_POINT('',#1387);
#439=VERTEX_POINT('',#1389);
#440=VERTEX_POINT('',#1394);
#441=VERTEX_POINT('',#1396);
#442=VERTEX_POINT('',#1398);
#443=VERTEX_POINT('',#1400);
#444=VERTEX_POINT('',#1402);
#445=VERTEX_POINT('',#1404);
#446=VERTEX_POINT('',#1406);
#447=VERTEX_POINT('',#1408);
#448=VERTEX_POINT('',#1412);
#449=VERTEX_POINT('',#1414);
#450=VERTEX_POINT('',#1418);
#451=VERTEX_POINT('',#1420);
#452=VERTEX_POINT('',#1424);
#453=VERTEX_POINT('',#1426);
#454=VERTEX_POINT('',#1430);
#455=VERTEX_POINT('',#1432);
#456=VERTEX_POINT('',#1436);
#457=VERTEX_POINT('',#1438);
#458=VERTEX_POINT('',#1442);
#459=VERTEX_POINT('',#1444);
#460=VERTEX_POINT('',#1448);
#461=VERTEX_POINT('',#1450);
#462=VERTEX_POINT('',#1454);
#463=VERTEX_POINT('',#1455);
#464=VERTEX_POINT('',#1457);
#465=VERTEX_POINT('',#1459);
#466=VERTEX_POINT('',#1463);
#467=VERTEX_POINT('',#1464);
#468=VERTEX_POINT('',#1466);
#469=VERTEX_POINT('',#1468);
#470=VERTEX_POINT('',#1472);
#471=VERTEX_POINT('',#1474);
#472=VERTEX_POINT('',#1478);
#473=VERTEX_POINT('',#1480);
#474=VERTEX_POINT('',#1484);
#475=VERTEX_POINT('',#1486);
#476=VERTEX_POINT('',#1489);
#477=VERTEX_POINT('',#1491);
#478=VERTEX_POINT('',#1493);
#479=VERTEX_POINT('',#1494);
#480=VERTEX_POINT('',#1496);
#481=VERTEX_POINT('',#1498);
#482=VERTEX_POINT('',#1502);
#483=VERTEX_POINT('',#1504);
#484=VERTEX_POINT('',#1506);
#485=VERTEX_POINT('',#1510);
#486=VERTEX_POINT('',#1512);
#487=VERTEX_POINT('',#1516);
#488=VERTEX_POINT('',#1522);
#489=VERTEX_POINT('',#1523);
#490=VERTEX_POINT('',#1525);
#491=VERTEX_POINT('',#1527);
#492=VERTEX_POINT('',#1531);
#493=VERTEX_POINT('',#1533);
#494=VERTEX_POINT('',#1537);
#495=VERTEX_POINT('',#1541);
#496=VERTEX_POINT('',#1543);
#497=VERTEX_POINT('',#1545);
#498=VERTEX_POINT('',#1549);
#499=VERTEX_POINT('',#1557);
#500=VERTEX_POINT('',#1565);
#501=VERTEX_POINT('',#1568);
#502=VERTEX_POINT('',#1570);
#503=VERTEX_POINT('',#1572);
#504=VERTEX_POINT('',#1576);
#505=VERTEX_POINT('',#1578);
#506=VERTEX_POINT('',#1581);
#507=VERTEX_POINT('',#1583);
#508=VERTEX_POINT('',#1590);
#509=VERTEX_POINT('',#1594);
#510=VERTEX_POINT('',#1607);
#511=VERTEX_POINT('',#1608);
#512=VERTEX_POINT('',#1613);
#513=VERTEX_POINT('',#1617);
#514=VERTEX_POINT('',#1623);
#515=VERTEX_POINT('',#1627);
#516=VERTEX_POINT('',#1633);
#517=VERTEX_POINT('',#1635);
#518=EDGE_CURVE('',#426,#427,#402,.T.);
#519=EDGE_CURVE('',#427,#428,#174,.T.);
#520=EDGE_CURVE('',#428,#429,#403,.T.);
#521=EDGE_CURVE('',#429,#426,#175,.T.);
#522=EDGE_CURVE('',#427,#430,#176,.T.);
#523=EDGE_CURVE('',#431,#430,#177,.T.);
#524=EDGE_CURVE('',#432,#431,#178,.T.);
#525=EDGE_CURVE('',#433,#432,#179,.T.);
#526=EDGE_CURVE('',#433,#434,#180,.T.);
#527=EDGE_CURVE('',#434,#435,#181,.T.);
#528=EDGE_CURVE('',#435,#428,#182,.T.);
#529=EDGE_CURVE('',#436,#437,#183,.T.);
#530=EDGE_CURVE('',#437,#438,#184,.T.);
#531=EDGE_CURVE('',#438,#439,#185,.T.);
#532=EDGE_CURVE('',#436,#439,#186,.T.);
#533=EDGE_CURVE('',#430,#436,#187,.T.);
#534=EDGE_CURVE('',#439,#440,#188,.T.);
#535=EDGE_CURVE('',#440,#441,#189,.T.);
#536=EDGE_CURVE('',#441,#442,#190,.T.);
#537=EDGE_CURVE('',#442,#443,#191,.T.);
#538=EDGE_CURVE('',#443,#444,#192,.T.);
#539=EDGE_CURVE('',#444,#445,#193,.T.);
#540=EDGE_CURVE('',#445,#446,#194,.T.);
#541=EDGE_CURVE('',#446,#447,#195,.T.);
#542=EDGE_CURVE('',#447,#431,#196,.T.);
#543=EDGE_CURVE('',#437,#448,#197,.T.);
#544=EDGE_CURVE('',#448,#449,#198,.T.);
#545=EDGE_CURVE('',#449,#438,#199,.T.);
#546=EDGE_CURVE('',#448,#450,#200,.T.);
#547=EDGE_CURVE('',#451,#450,#201,.T.);
#548=EDGE_CURVE('',#449,#451,#202,.T.);
#549=EDGE_CURVE('',#450,#452,#203,.T.);
#550=EDGE_CURVE('',#453,#452,#204,.T.);
#551=EDGE_CURVE('',#451,#453,#205,.T.);
#552=EDGE_CURVE('',#452,#454,#206,.T.);
#553=EDGE_CURVE('',#454,#455,#207,.T.);
#554=EDGE_CURVE('',#455,#453,#208,.T.);
#555=EDGE_CURVE('',#454,#456,#404,.T.);
#556=EDGE_CURVE('',#457,#456,#209,.T.);
#557=EDGE_CURVE('',#455,#457,#405,.T.);
#558=EDGE_CURVE('',#456,#458,#210,.T.);
#559=EDGE_CURVE('',#459,#458,#211,.T.);
#560=EDGE_CURVE('',#459,#457,#212,.T.);
#561=EDGE_CURVE('',#458,#460,#406,.T.);
#562=EDGE_CURVE('',#460,#461,#213,.T.);
#563=EDGE_CURVE('',#459,#461,#407,.T.);
#564=EDGE_CURVE('',#462,#463,#214,.T.);
#565=EDGE_CURVE('',#463,#464,#215,.T.);
#566=EDGE_CURVE('',#464,#465,#216,.T.);
#567=EDGE_CURVE('',#465,#462,#217,.T.);
#568=EDGE_CURVE('',#466,#467,#218,.T.);
#569=EDGE_CURVE('',#468,#467,#219,.T.);
#570=EDGE_CURVE('',#468,#469,#220,.T.);
#571=EDGE_CURVE('',#469,#466,#221,.T.);
#572=EDGE_CURVE('',#460,#470,#222,.T.);
#573=EDGE_CURVE('',#470,#471,#223,.T.);
#574=EDGE_CURVE('',#471,#461,#224,.T.);
#575=EDGE_CURVE('',#472,#434,#225,.T.);
#576=EDGE_CURVE('',#473,#472,#226,.T.);
#577=EDGE_CURVE('',#473,#435,#227,.T.);
#578=EDGE_CURVE('',#474,#473,#228,.T.);
#579=EDGE_CURVE('',#475,#474,#408,.T.);
#580=EDGE_CURVE('',#475,#429,#229,.T.);
#581=EDGE_CURVE('',#476,#476,#409,.T.);
#582=EDGE_CURVE('',#477,#477,#410,.T.);
#583=EDGE_CURVE('',#478,#479,#230,.T.);
#584=EDGE_CURVE('',#479,#480,#231,.T.);
#585=EDGE_CURVE('',#480,#481,#232,.T.);
#586=EDGE_CURVE('',#481,#478,#233,.T.);
#587=EDGE_CURVE('',#482,#433,#411,.T.);
#588=EDGE_CURVE('',#483,#482,#234,.T.);
#589=EDGE_CURVE('',#484,#483,#412,.T.);
#590=EDGE_CURVE('',#472,#484,#235,.T.);
#591=EDGE_CURVE('',#483,#485,#236,.T.);
#592=EDGE_CURVE('',#485,#486,#413,.T.);
#593=EDGE_CURVE('',#486,#484,#237,.T.);
#594=EDGE_CURVE('',#487,#482,#238,.T.);
#595=EDGE_CURVE('',#487,#485,#239,.T.);
#596=EDGE_CURVE('',#432,#487,#414,.T.);
#597=EDGE_CURVE('',#488,#489,#240,.T.);
#598=EDGE_CURVE('',#489,#490,#241,.T.);
#599=EDGE_CURVE('',#491,#490,#242,.T.);
#600=EDGE_CURVE('',#488,#491,#243,.T.);
#601=EDGE_CURVE('',#489,#492,#244,.T.);
#602=EDGE_CURVE('',#493,#492,#245,.T.);
#603=EDGE_CURVE('',#490,#493,#246,.T.);
#604=EDGE_CURVE('',#494,#493,#247,.T.);
#605=EDGE_CURVE('',#494,#444,#248,.T.);
#606=EDGE_CURVE('',#469,#443,#249,.T.);
#607=EDGE_CURVE('',#468,#495,#415,.T.);
#608=EDGE_CURVE('',#496,#495,#250,.T.);
#609=EDGE_CURVE('',#496,#497,#416,.T.);
#610=EDGE_CURVE('',#491,#497,#251,.T.);
#611=EDGE_CURVE('',#492,#498,#252,.T.);
#612=EDGE_CURVE('',#498,#494,#253,.T.);
#613=EDGE_CURVE('',#471,#440,#254,.T.);
#614=EDGE_CURVE('',#486,#447,#255,.T.);
#615=EDGE_CURVE('',#446,#499,#256,.T.);
#616=EDGE_CURVE('',#474,#499,#257,.T.);
#617=EDGE_CURVE('',#498,#445,#258,.T.);
#618=EDGE_CURVE('',#466,#442,#259,.T.);
#619=EDGE_CURVE('',#500,#426,#260,.T.);
#620=EDGE_CURVE('',#499,#500,#417,.T.);
#621=EDGE_CURVE('',#501,#488,#261,.T.);
#622=EDGE_CURVE('',#502,#501,#418,.T.);
#623=EDGE_CURVE('',#503,#502,#262,.T.);
#624=EDGE_CURVE('',#467,#503,#419,.T.);
#625=EDGE_CURVE('',#470,#441,#263,.T.);
#626=EDGE_CURVE('',#462,#504,#264,.T.);
#627=EDGE_CURVE('',#504,#505,#265,.T.);
#628=EDGE_CURVE('',#505,#463,#266,.T.);
#629=EDGE_CURVE('',#506,#506,#420,.T.);
#630=EDGE_CURVE('',#507,#507,#421,.T.);
#631=EDGE_CURVE('',#497,#501,#267,.T.);
#632=EDGE_CURVE('',#502,#496,#268,.T.);
#633=EDGE_CURVE('',#508,#508,#422,.T.);
#634=EDGE_CURVE('',#508,#506,#269,.T.);
#635=EDGE_CURVE('',#509,#509,#423,.T.);
#636=EDGE_CURVE('',#509,#507,#270,.T.);
#637=EDGE_CURVE('',#503,#495,#271,.T.);
#638=EDGE_CURVE('',#500,#475,#272,.T.);
#639=EDGE_CURVE('',#510,#511,#273,.T.);
#640=EDGE_CURVE('',#510,#481,#274,.T.);
#641=EDGE_CURVE('',#511,#480,#275,.T.);
#642=EDGE_CURVE('',#512,#510,#276,.T.);
#643=EDGE_CURVE('',#512,#478,#277,.T.);
#644=EDGE_CURVE('',#513,#512,#278,.T.);
#645=EDGE_CURVE('',#513,#479,#279,.T.);
#646=EDGE_CURVE('',#511,#513,#280,.T.);
#647=EDGE_CURVE('',#464,#514,#281,.T.);
#648=EDGE_CURVE('',#514,#505,#282,.T.);
#649=EDGE_CURVE('',#514,#515,#283,.T.);
#650=EDGE_CURVE('',#515,#504,#284,.T.);
#651=EDGE_CURVE('',#515,#465,#285,.T.);
#652=EDGE_CURVE('',#516,#516,#424,.T.);
#653=EDGE_CURVE('',#517,#517,#425,.T.);
#654=EDGE_CURVE('',#516,#477,#286,.T.);
#655=EDGE_CURVE('',#517,#476,#287,.T.);
#656=ORIENTED_EDGE('',*,*,#518,.T.);
#657=ORIENTED_EDGE('',*,*,#519,.T.);
#658=ORIENTED_EDGE('',*,*,#520,.T.);
#659=ORIENTED_EDGE('',*,*,#521,.T.);
#660=ORIENTED_EDGE('',*,*,#522,.T.);
#661=ORIENTED_EDGE('',*,*,#523,.F.);
#662=ORIENTED_EDGE('',*,*,#524,.F.);
#663=ORIENTED_EDGE('',*,*,#525,.F.);
#664=ORIENTED_EDGE('',*,*,#526,.T.);
#665=ORIENTED_EDGE('',*,*,#527,.T.);
#666=ORIENTED_EDGE('',*,*,#528,.T.);
#667=ORIENTED_EDGE('',*,*,#519,.F.);
#668=ORIENTED_EDGE('',*,*,#529,.T.);
#669=ORIENTED_EDGE('',*,*,#530,.T.);
#670=ORIENTED_EDGE('',*,*,#531,.T.);
#671=ORIENTED_EDGE('',*,*,#532,.F.);
#672=ORIENTED_EDGE('',*,*,#533,.T.);
#673=ORIENTED_EDGE('',*,*,#532,.T.);
#674=ORIENTED_EDGE('',*,*,#534,.T.);
#675=ORIENTED_EDGE('',*,*,#535,.T.);
#676=ORIENTED_EDGE('',*,*,#536,.T.);
#677=ORIENTED_EDGE('',*,*,#537,.T.);
#678=ORIENTED_EDGE('',*,*,#538,.T.);
#679=ORIENTED_EDGE('',*,*,#539,.T.);
#680=ORIENTED_EDGE('',*,*,#540,.T.);
#681=ORIENTED_EDGE('',*,*,#541,.T.);
#682=ORIENTED_EDGE('',*,*,#542,.T.);
#683=ORIENTED_EDGE('',*,*,#523,.T.);
#684=ORIENTED_EDGE('',*,*,#543,.T.);
#685=ORIENTED_EDGE('',*,*,#544,.T.);
#686=ORIENTED_EDGE('',*,*,#545,.T.);
#687=ORIENTED_EDGE('',*,*,#530,.F.);
#688=ORIENTED_EDGE('',*,*,#546,.T.);
#689=ORIENTED_EDGE('',*,*,#547,.F.);
#690=ORIENTED_EDGE('',*,*,#548,.F.);
#691=ORIENTED_EDGE('',*,*,#544,.F.);
#692=ORIENTED_EDGE('',*,*,#549,.T.);
#693=ORIENTED_EDGE('',*,*,#550,.F.);
#694=ORIENTED_EDGE('',*,*,#551,.F.);
#695=ORIENTED_EDGE('',*,*,#547,.T.);
#696=ORIENTED_EDGE('',*,*,#552,.T.);
#697=ORIENTED_EDGE('',*,*,#553,.T.);
#698=ORIENTED_EDGE('',*,*,#554,.T.);
#699=ORIENTED_EDGE('',*,*,#550,.T.);
#700=ORIENTED_EDGE('',*,*,#555,.T.);
#701=ORIENTED_EDGE('',*,*,#556,.F.);
#702=ORIENTED_EDGE('',*,*,#557,.F.);
#703=ORIENTED_EDGE('',*,*,#553,.F.);
#704=ORIENTED_EDGE('',*,*,#558,.T.);
#705=ORIENTED_EDGE('',*,*,#559,.F.);
#706=ORIENTED_EDGE('',*,*,#560,.T.);
#707=ORIENTED_EDGE('',*,*,#556,.T.);
#708=ORIENTED_EDGE('',*,*,#561,.T.);
#709=ORIENTED_EDGE('',*,*,#562,.T.);
#710=ORIENTED_EDGE('',*,*,#563,.F.);
#711=ORIENTED_EDGE('',*,*,#559,.T.);
#712=ORIENTED_EDGE('',*,*,#564,.T.);
#713=ORIENTED_EDGE('',*,*,#565,.T.);
#714=ORIENTED_EDGE('',*,*,#566,.T.);
#715=ORIENTED_EDGE('',*,*,#567,.T.);
#716=ORIENTED_EDGE('',*,*,#568,.T.);
#717=ORIENTED_EDGE('',*,*,#569,.F.);
#718=ORIENTED_EDGE('',*,*,#570,.T.);
#719=ORIENTED_EDGE('',*,*,#571,.T.);
#720=ORIENTED_EDGE('',*,*,#572,.T.);
#721=ORIENTED_EDGE('',*,*,#573,.T.);
#722=ORIENTED_EDGE('',*,*,#574,.T.);
#723=ORIENTED_EDGE('',*,*,#562,.F.);
#724=ORIENTED_EDGE('',*,*,#527,.F.);
#725=ORIENTED_EDGE('',*,*,#575,.F.);
#726=ORIENTED_EDGE('',*,*,#576,.F.);
#727=ORIENTED_EDGE('',*,*,#577,.T.);
#728=ORIENTED_EDGE('',*,*,#528,.F.);
#729=ORIENTED_EDGE('',*,*,#577,.F.);
#730=ORIENTED_EDGE('',*,*,#578,.F.);
#731=ORIENTED_EDGE('',*,*,#579,.F.);
#732=ORIENTED_EDGE('',*,*,#580,.T.);
#733=ORIENTED_EDGE('',*,*,#520,.F.);
#734=ORIENTED_EDGE('',*,*,#581,.T.);
#735=ORIENTED_EDGE('',*,*,#582,.T.);
#736=ORIENTED_EDGE('',*,*,#583,.T.);
#737=ORIENTED_EDGE('',*,*,#584,.T.);
#738=ORIENTED_EDGE('',*,*,#585,.T.);
#739=ORIENTED_EDGE('',*,*,#586,.T.);
#740=ORIENTED_EDGE('',*,*,#587,.F.);
#741=ORIENTED_EDGE('',*,*,#588,.F.);
#742=ORIENTED_EDGE('',*,*,#589,.F.);
#743=ORIENTED_EDGE('',*,*,#590,.F.);
#744=ORIENTED_EDGE('',*,*,#575,.T.);
#745=ORIENTED_EDGE('',*,*,#526,.F.);
#746=ORIENTED_EDGE('',*,*,#589,.T.);
#747=ORIENTED_EDGE('',*,*,#591,.T.);
#748=ORIENTED_EDGE('',*,*,#592,.T.);
#749=ORIENTED_EDGE('',*,*,#593,.T.);
#750=ORIENTED_EDGE('',*,*,#588,.T.);
#751=ORIENTED_EDGE('',*,*,#594,.F.);
#752=ORIENTED_EDGE('',*,*,#595,.T.);
#753=ORIENTED_EDGE('',*,*,#591,.F.);
#754=ORIENTED_EDGE('',*,*,#587,.T.);
#755=ORIENTED_EDGE('',*,*,#525,.T.);
#756=ORIENTED_EDGE('',*,*,#596,.T.);
#757=ORIENTED_EDGE('',*,*,#594,.T.);
#758=ORIENTED_EDGE('',*,*,#597,.T.);
#759=ORIENTED_EDGE('',*,*,#598,.T.);
#760=ORIENTED_EDGE('',*,*,#599,.F.);
#761=ORIENTED_EDGE('',*,*,#600,.F.);
#762=ORIENTED_EDGE('',*,*,#601,.T.);
#763=ORIENTED_EDGE('',*,*,#602,.F.);
#764=ORIENTED_EDGE('',*,*,#603,.F.);
#765=ORIENTED_EDGE('',*,*,#598,.F.);
#766=ORIENTED_EDGE('',*,*,#599,.T.);
#767=ORIENTED_EDGE('',*,*,#603,.T.);
#768=ORIENTED_EDGE('',*,*,#604,.F.);
#769=ORIENTED_EDGE('',*,*,#605,.T.);
#770=ORIENTED_EDGE('',*,*,#538,.F.);
#771=ORIENTED_EDGE('',*,*,#606,.F.);
#772=ORIENTED_EDGE('',*,*,#570,.F.);
#773=ORIENTED_EDGE('',*,*,#607,.T.);
#774=ORIENTED_EDGE('',*,*,#608,.F.);
#775=ORIENTED_EDGE('',*,*,#609,.T.);
#776=ORIENTED_EDGE('',*,*,#610,.F.);
#777=ORIENTED_EDGE('',*,*,#611,.T.);
#778=ORIENTED_EDGE('',*,*,#612,.T.);
#779=ORIENTED_EDGE('',*,*,#604,.T.);
#780=ORIENTED_EDGE('',*,*,#602,.T.);
#781=ORIENTED_EDGE('',*,*,#548,.T.);
#782=ORIENTED_EDGE('',*,*,#551,.T.);
#783=ORIENTED_EDGE('',*,*,#554,.F.);
#784=ORIENTED_EDGE('',*,*,#557,.T.);
#785=ORIENTED_EDGE('',*,*,#560,.F.);
#786=ORIENTED_EDGE('',*,*,#563,.T.);
#787=ORIENTED_EDGE('',*,*,#574,.F.);
#788=ORIENTED_EDGE('',*,*,#613,.T.);
#789=ORIENTED_EDGE('',*,*,#534,.F.);
#790=ORIENTED_EDGE('',*,*,#531,.F.);
#791=ORIENTED_EDGE('',*,*,#545,.F.);
#792=ORIENTED_EDGE('',*,*,#614,.F.);
#793=ORIENTED_EDGE('',*,*,#592,.F.);
#794=ORIENTED_EDGE('',*,*,#595,.F.);
#795=ORIENTED_EDGE('',*,*,#596,.F.);
#796=ORIENTED_EDGE('',*,*,#524,.T.);
#797=ORIENTED_EDGE('',*,*,#542,.F.);
#798=ORIENTED_EDGE('',*,*,#615,.T.);
#799=ORIENTED_EDGE('',*,*,#616,.F.);
#800=ORIENTED_EDGE('',*,*,#578,.T.);
#801=ORIENTED_EDGE('',*,*,#576,.T.);
#802=ORIENTED_EDGE('',*,*,#590,.T.);
#803=ORIENTED_EDGE('',*,*,#593,.F.);
#804=ORIENTED_EDGE('',*,*,#614,.T.);
#805=ORIENTED_EDGE('',*,*,#541,.F.);
#806=ORIENTED_EDGE('',*,*,#617,.T.);
#807=ORIENTED_EDGE('',*,*,#539,.F.);
#808=ORIENTED_EDGE('',*,*,#605,.F.);
#809=ORIENTED_EDGE('',*,*,#612,.F.);
#810=ORIENTED_EDGE('',*,*,#618,.F.);
#811=ORIENTED_EDGE('',*,*,#571,.F.);
#812=ORIENTED_EDGE('',*,*,#606,.T.);
#813=ORIENTED_EDGE('',*,*,#537,.F.);
#814=ORIENTED_EDGE('',*,*,#572,.F.);
#815=ORIENTED_EDGE('',*,*,#561,.F.);
#816=ORIENTED_EDGE('',*,*,#558,.F.);
#817=ORIENTED_EDGE('',*,*,#555,.F.);
#818=ORIENTED_EDGE('',*,*,#552,.F.);
#819=ORIENTED_EDGE('',*,*,#549,.F.);
#820=ORIENTED_EDGE('',*,*,#546,.F.);
#821=ORIENTED_EDGE('',*,*,#543,.F.);
#822=ORIENTED_EDGE('',*,*,#529,.F.);
#823=ORIENTED_EDGE('',*,*,#533,.F.);
#824=ORIENTED_EDGE('',*,*,#522,.F.);
#825=ORIENTED_EDGE('',*,*,#518,.F.);
#826=ORIENTED_EDGE('',*,*,#619,.F.);
#827=ORIENTED_EDGE('',*,*,#620,.F.);
#828=ORIENTED_EDGE('',*,*,#615,.F.);
#829=ORIENTED_EDGE('',*,*,#540,.F.);
#830=ORIENTED_EDGE('',*,*,#617,.F.);
#831=ORIENTED_EDGE('',*,*,#611,.F.);
#832=ORIENTED_EDGE('',*,*,#601,.F.);
#833=ORIENTED_EDGE('',*,*,#597,.F.);
#834=ORIENTED_EDGE('',*,*,#621,.F.);
#835=ORIENTED_EDGE('',*,*,#622,.F.);
#836=ORIENTED_EDGE('',*,*,#623,.F.);
#837=ORIENTED_EDGE('',*,*,#624,.F.);
#838=ORIENTED_EDGE('',*,*,#568,.F.);
#839=ORIENTED_EDGE('',*,*,#618,.T.);
#840=ORIENTED_EDGE('',*,*,#536,.F.);
#841=ORIENTED_EDGE('',*,*,#625,.F.);
#842=ORIENTED_EDGE('',*,*,#626,.T.);
#843=ORIENTED_EDGE('',*,*,#627,.T.);
#844=ORIENTED_EDGE('',*,*,#628,.T.);
#845=ORIENTED_EDGE('',*,*,#564,.F.);
#846=ORIENTED_EDGE('',*,*,#629,.F.);
#847=ORIENTED_EDGE('',*,*,#630,.F.);
#848=ORIENTED_EDGE('',*,*,#613,.F.);
#849=ORIENTED_EDGE('',*,*,#573,.F.);
#850=ORIENTED_EDGE('',*,*,#625,.T.);
#851=ORIENTED_EDGE('',*,*,#535,.F.);
#852=ORIENTED_EDGE('',*,*,#622,.T.);
#853=ORIENTED_EDGE('',*,*,#631,.F.);
#854=ORIENTED_EDGE('',*,*,#609,.F.);
#855=ORIENTED_EDGE('',*,*,#632,.F.);
#856=ORIENTED_EDGE('',*,*,#633,.F.);
#857=ORIENTED_EDGE('',*,*,#634,.T.);
#858=ORIENTED_EDGE('',*,*,#629,.T.);
#859=ORIENTED_EDGE('',*,*,#634,.F.);
#860=ORIENTED_EDGE('',*,*,#635,.F.);
#861=ORIENTED_EDGE('',*,*,#636,.T.);
#862=ORIENTED_EDGE('',*,*,#630,.T.);
#863=ORIENTED_EDGE('',*,*,#636,.F.);
#864=ORIENTED_EDGE('',*,*,#623,.T.);
#865=ORIENTED_EDGE('',*,*,#632,.T.);
#866=ORIENTED_EDGE('',*,*,#608,.T.);
#867=ORIENTED_EDGE('',*,*,#637,.F.);
#868=ORIENTED_EDGE('',*,*,#621,.T.);
#869=ORIENTED_EDGE('',*,*,#600,.T.);
#870=ORIENTED_EDGE('',*,*,#610,.T.);
#871=ORIENTED_EDGE('',*,*,#631,.T.);
#872=ORIENTED_EDGE('',*,*,#633,.T.);
#873=ORIENTED_EDGE('',*,*,#635,.T.);
#874=ORIENTED_EDGE('',*,*,#624,.T.);
#875=ORIENTED_EDGE('',*,*,#637,.T.);
#876=ORIENTED_EDGE('',*,*,#607,.F.);
#877=ORIENTED_EDGE('',*,*,#569,.T.);
#878=ORIENTED_EDGE('',*,*,#620,.T.);
#879=ORIENTED_EDGE('',*,*,#638,.T.);
#880=ORIENTED_EDGE('',*,*,#579,.T.);
#881=ORIENTED_EDGE('',*,*,#616,.T.);
#882=ORIENTED_EDGE('',*,*,#619,.T.);
#883=ORIENTED_EDGE('',*,*,#521,.F.);
#884=ORIENTED_EDGE('',*,*,#580,.F.);
#885=ORIENTED_EDGE('',*,*,#638,.F.);
#886=ORIENTED_EDGE('',*,*,#639,.F.);
#887=ORIENTED_EDGE('',*,*,#640,.T.);
#888=ORIENTED_EDGE('',*,*,#585,.F.);
#889=ORIENTED_EDGE('',*,*,#641,.F.);
#890=ORIENTED_EDGE('',*,*,#642,.F.);
#891=ORIENTED_EDGE('',*,*,#643,.T.);
#892=ORIENTED_EDGE('',*,*,#586,.F.);
#893=ORIENTED_EDGE('',*,*,#640,.F.);
#894=ORIENTED_EDGE('',*,*,#644,.F.);
#895=ORIENTED_EDGE('',*,*,#645,.T.);
#896=ORIENTED_EDGE('',*,*,#583,.F.);
#897=ORIENTED_EDGE('',*,*,#643,.F.);
#898=ORIENTED_EDGE('',*,*,#646,.F.);
#899=ORIENTED_EDGE('',*,*,#641,.T.);
#900=ORIENTED_EDGE('',*,*,#584,.F.);
#901=ORIENTED_EDGE('',*,*,#645,.F.);
#902=ORIENTED_EDGE('',*,*,#647,.F.);
#903=ORIENTED_EDGE('',*,*,#565,.F.);
#904=ORIENTED_EDGE('',*,*,#628,.F.);
#905=ORIENTED_EDGE('',*,*,#648,.F.);
#906=ORIENTED_EDGE('',*,*,#649,.F.);
#907=ORIENTED_EDGE('',*,*,#648,.T.);
#908=ORIENTED_EDGE('',*,*,#627,.F.);
#909=ORIENTED_EDGE('',*,*,#650,.F.);
#910=ORIENTED_EDGE('',*,*,#651,.F.);
#911=ORIENTED_EDGE('',*,*,#650,.T.);
#912=ORIENTED_EDGE('',*,*,#626,.F.);
#913=ORIENTED_EDGE('',*,*,#567,.F.);
#914=ORIENTED_EDGE('',*,*,#647,.T.);
#915=ORIENTED_EDGE('',*,*,#649,.T.);
#916=ORIENTED_EDGE('',*,*,#651,.T.);
#917=ORIENTED_EDGE('',*,*,#566,.F.);
#918=ORIENTED_EDGE('',*,*,#639,.T.);
#919=ORIENTED_EDGE('',*,*,#646,.T.);
#920=ORIENTED_EDGE('',*,*,#644,.T.);
#921=ORIENTED_EDGE('',*,*,#642,.T.);
#922=ORIENTED_EDGE('',*,*,#652,.T.);
#923=ORIENTED_EDGE('',*,*,#653,.T.);
#924=ORIENTED_EDGE('',*,*,#652,.F.);
#925=ORIENTED_EDGE('',*,*,#654,.T.);
#926=ORIENTED_EDGE('',*,*,#582,.F.);
#927=ORIENTED_EDGE('',*,*,#654,.F.);
#928=ORIENTED_EDGE('',*,*,#653,.F.);
#929=ORIENTED_EDGE('',*,*,#655,.T.);
#930=ORIENTED_EDGE('',*,*,#581,.F.);
#931=ORIENTED_EDGE('',*,*,#655,.F.);
#932=CYLINDRICAL_SURFACE('',#1018,5.);
#933=CYLINDRICAL_SURFACE('',#1028,3.5);
#934=CYLINDRICAL_SURFACE('',#1032,5.);
#935=CYLINDRICAL_SURFACE('',#1046,5.);
#936=CYLINDRICAL_SURFACE('',#1049,5.);
#937=CYLINDRICAL_SURFACE('',#1069,3.5);
#938=CYLINDRICAL_SURFACE('',#1070,2.1);
#939=CYLINDRICAL_SURFACE('',#1072,2.1);
#940=CYLINDRICAL_SURFACE('',#1078,5.);
#941=CYLINDRICAL_SURFACE('',#1079,5.);
#942=CYLINDRICAL_SURFACE('',#1091,1.75);
#943=CYLINDRICAL_SURFACE('',#1092,1.75);
#944=ADVANCED_FACE('',(#63),#932,.T.);
#945=ADVANCED_FACE('',(#64),#24,.T.);
#946=ADVANCED_FACE('',(#65),#25,.T.);
#947=ADVANCED_FACE('',(#66),#26,.T.);
#948=ADVANCED_FACE('',(#67),#27,.F.);
#949=ADVANCED_FACE('',(#68),#28,.T.);
#950=ADVANCED_FACE('',(#69),#29,.T.);
#951=ADVANCED_FACE('',(#70),#30,.F.);
#952=ADVANCED_FACE('',(#71),#933,.T.);
#953=ADVANCED_FACE('',(#72),#31,.F.);
#954=ADVANCED_FACE('',(#73),#934,.F.);
#955=ADVANCED_FACE('',(#74),#32,.F.);
#956=ADVANCED_FACE('',(#75),#33,.F.);
#957=ADVANCED_FACE('',(#76),#34,.F.);
#958=ADVANCED_FACE('',(#77),#35,.F.);
#959=ADVANCED_FACE('',(#78,#15,#16,#17),#36,.T.);
#960=ADVANCED_FACE('',(#79),#37,.F.);
#961=ADVANCED_FACE('',(#80),#935,.T.);
#962=ADVANCED_FACE('',(#81),#38,.T.);
#963=ADVANCED_FACE('',(#82),#936,.T.);
#964=ADVANCED_FACE('',(#83),#39,.T.);
#965=ADVANCED_FACE('',(#84),#40,.T.);
#966=ADVANCED_FACE('',(#85),#41,.F.);
#967=ADVANCED_FACE('',(#86),#42,.F.);
#968=ADVANCED_FACE('',(#87),#43,.F.);
#969=ADVANCED_FACE('',(#88),#44,.F.);
#970=ADVANCED_FACE('',(#89),#45,.T.);
#971=ADVANCED_FACE('',(#90),#46,.T.);
#972=ADVANCED_FACE('',(#91),#47,.T.);
#973=ADVANCED_FACE('',(#92,#18,#19,#20),#48,.T.);
#974=ADVANCED_FACE('',(#93),#49,.T.);
#975=ADVANCED_FACE('',(#94),#937,.T.);
#976=ADVANCED_FACE('',(#95),#938,.F.);
#977=ADVANCED_FACE('',(#96),#939,.F.);
#978=ADVANCED_FACE('',(#97),#50,.F.);
#979=ADVANCED_FACE('',(#98),#51,.F.);
#980=ADVANCED_FACE('',(#99),#52,.F.);
#981=ADVANCED_FACE('',(#100),#53,.F.);
#982=ADVANCED_FACE('',(#101),#940,.F.);
#983=ADVANCED_FACE('',(#102),#941,.T.);
#984=ADVANCED_FACE('',(#103),#54,.T.);
#985=ADVANCED_FACE('',(#104),#55,.F.);
#986=ADVANCED_FACE('',(#105),#56,.F.);
#987=ADVANCED_FACE('',(#106),#57,.F.);
#988=ADVANCED_FACE('',(#107),#58,.F.);
#989=ADVANCED_FACE('',(#108),#59,.T.);
#990=ADVANCED_FACE('',(#109),#60,.T.);
#991=ADVANCED_FACE('',(#110),#61,.T.);
#992=ADVANCED_FACE('',(#111,#21,#22,#23),#62,.F.);
#993=ADVANCED_FACE('',(#112),#942,.F.);
#994=ADVANCED_FACE('',(#113),#943,.F.);
#995=CLOSED_SHELL('',(#944,#945,#946,#947,#948,#949,#950,#951,#952,#953,
#954,#955,#956,#957,#958,#959,#960,#961,#962,#963,#964,#965,#966,#967,#968,
#969,#970,#971,#972,#973,#974,#975,#976,#977,#978,#979,#980,#981,#982,#983,
#984,#985,#986,#987,#988,#989,#990,#991,#992,#993,#994));
#996=DERIVED_UNIT_ELEMENT(#999,1.);
#997=DERIVED_UNIT_ELEMENT(#1646,-3.);
#998=DIMENSIONAL_EXPONENTS(0.,1.,0.,0.,0.,0.,0.);
#999=(
CONVERSION_BASED_UNIT('gram',#1001)
MASS_UNIT()
NAMED_UNIT(#998)
);
#1000=(
MASS_UNIT()
NAMED_UNIT(*)
SI_UNIT(.KILO.,.GRAM.)
);
#1001=MASS_MEASURE_WITH_UNIT(MASS_MEASURE(0.001),#1000);
#1002=DERIVED_UNIT((#996,#997));
#1003=MEASURE_REPRESENTATION_ITEM('density measure',
POSITIVE_RATIO_MEASURE(1.),#1002);
#1004=PROPERTY_DEFINITION_REPRESENTATION(#1009,#1006);
#1005=PROPERTY_DEFINITION_REPRESENTATION(#1010,#1007);
#1006=REPRESENTATION('material name',(#1008),#1643);
#1007=REPRESENTATION('density',(#1003),#1643);
#1008=DESCRIPTIVE_REPRESENTATION_ITEM('Generic','Generic');
#1009=PROPERTY_DEFINITION('material property','material name',#1653);
#1010=PROPERTY_DEFINITION('material property','density of part',#1653);
#1011=DATE_TIME_ROLE('creation_date');
#1012=APPLIED_DATE_AND_TIME_ASSIGNMENT(#1013,#1011,(#1653));
#1013=DATE_AND_TIME(#1014,#1015);
#1014=CALENDAR_DATE(2026,12,4);
#1015=LOCAL_TIME(15,30,18.,#1016);
#1016=COORDINATED_UNIVERSAL_TIME_OFFSET(0,0,.BEHIND.);
#1017=AXIS2_PLACEMENT_3D('',#1359,#1093,#1094);
#1018=AXIS2_PLACEMENT_3D('',#1360,#1095,#1096);
#1019=AXIS2_PLACEMENT_3D('',#1363,#1097,#1098);
#1020=AXIS2_PLACEMENT_3D('',#1367,#1100,#1101);
#1021=AXIS2_PLACEMENT_3D('',#1369,#1103,#1104);
#1022=AXIS2_PLACEMENT_3D('',#1383,#1112,#1113);
#1023=AXIS2_PLACEMENT_3D('',#1392,#1118,#1119);
#1024=AXIS2_PLACEMENT_3D('',#1411,#1130,#1131);
#1025=AXIS2_PLACEMENT_3D('',#1417,#1135,#1136);
#1026=AXIS2_PLACEMENT_3D('',#1423,#1140,#1141);
#1027=AXIS2_PLACEMENT_3D('',#1429,#1145,#1146);
#1028=AXIS2_PLACEMENT_3D('',#1435,#1150,#1151);
#1029=AXIS2_PLACEMENT_3D('',#1437,#1152,#1153);
#1030=AXIS2_PLACEMENT_3D('',#1440,#1155,#1156);
#1031=AXIS2_PLACEMENT_3D('',#1441,#1157,#1158);
#1032=AXIS2_PLACEMENT_3D('',#1447,#1162,#1163);
#1033=AXIS2_PLACEMENT_3D('',#1449,#1164,#1165);
#1034=AXIS2_PLACEMENT_3D('',#1452,#1167,#1168);
#1035=AXIS2_PLACEMENT_3D('',#1453,#1169,#1170);
#1036=AXIS2_PLACEMENT_3D('',#1462,#1175,#1176);
#1037=AXIS2_PLACEMENT_3D('',#1471,#1181,#1182);
#1038=AXIS2_PLACEMENT_3D('',#1477,#1186,#1187);
#1039=AXIS2_PLACEMENT_3D('',#1483,#1191,#1192);
#1040=AXIS2_PLACEMENT_3D('',#1487,#1194,#1195);
#1041=AXIS2_PLACEMENT_3D('',#1490,#1197,#1198);
#1042=AXIS2_PLACEMENT_3D('',#1492,#1199,#1200);
#1043=AXIS2_PLACEMENT_3D('',#1501,#1205,#1206);
#1044=AXIS2_PLACEMENT_3D('',#1503,#1207,#1208);
#1045=AXIS2_PLACEMENT_3D('',#1507,#1210,#1211);
#1046=AXIS2_PLACEMENT_3D('',#1509,#1213,#1214);
#1047=AXIS2_PLACEMENT_3D('',#1513,#1216,#1217);
#1048=AXIS2_PLACEMENT_3D('',#1515,#1219,#1220);
#1049=AXIS2_PLACEMENT_3D('',#1519,#1223,#1224);
#1050=AXIS2_PLACEMENT_3D('',#1520,#1225,#1226);
#1051=AXIS2_PLACEMENT_3D('',#1521,#1227,#1228);
#1052=AXIS2_PLACEMENT_3D('',#1530,#1233,#1234);
#1053=AXIS2_PLACEMENT_3D('',#1536,#1238,#1239);
#1054=AXIS2_PLACEMENT_3D('',#1542,#1243,#1244);
#1055=AXIS2_PLACEMENT_3D('',#1546,#1246,#1247);
#1056=AXIS2_PLACEMENT_3D('',#1548,#1249,#1250);
#1057=AXIS2_PLACEMENT_3D('',#1552,#1253,#1254);
#1058=AXIS2_PLACEMENT_3D('',#1554,#1256,#1257);
#1059=AXIS2_PLACEMENT_3D('',#1556,#1259,#1260);
#1060=AXIS2_PLACEMENT_3D('',#1560,#1263,#1264);
#1061=AXIS2_PLACEMENT_3D('',#1562,#1266,#1267);
#1062=AXIS2_PLACEMENT_3D('',#1564,#1269,#1270);
#1063=AXIS2_PLACEMENT_3D('',#1567,#1272,#1273);
#1064=AXIS2_PLACEMENT_3D('',#1571,#1275,#1276);
#1065=AXIS2_PLACEMENT_3D('',#1574,#1278,#1279);
#1066=AXIS2_PLACEMENT_3D('',#1582,#1284,#1285);
#1067=AXIS2_PLACEMENT_3D('',#1584,#1286,#1287);
#1068=AXIS2_PLACEMENT_3D('',#1585,#1288,#1289);
#1069=AXIS2_PLACEMENT_3D('',#1586,#1290,#1291);
#1070=AXIS2_PLACEMENT_3D('',#1589,#1294,#1295);
#1071=AXIS2_PLACEMENT_3D('',#1591,#1296,#1297);
#1072=AXIS2_PLACEMENT_3D('',#1593,#1299,#1300);
#1073=AXIS2_PLACEMENT_3D('',#1595,#1301,#1302);
#1074=AXIS2_PLACEMENT_3D('',#1597,#1304,#1305);
#1075=AXIS2_PLACEMENT_3D('',#1599,#1307,#1308);
#1076=AXIS2_PLACEMENT_3D('',#1600,#1309,#1310);
#1077=AXIS2_PLACEMENT_3D('',#1601,#1311,#1312);
#1078=AXIS2_PLACEMENT_3D('',#1602,#1313,#1314);
#1079=AXIS2_PLACEMENT_3D('',#1603,#1315,#1316);
#1080=AXIS2_PLACEMENT_3D('',#1605,#1318,#1319);
#1081=AXIS2_PLACEMENT_3D('',#1606,#1320,#1321);
#1082=AXIS2_PLACEMENT_3D('',#1612,#1325,#1326);
#1083=AXIS2_PLACEMENT_3D('',#1616,#1329,#1330);
#1084=AXIS2_PLACEMENT_3D('',#1620,#1333,#1334);
#1085=AXIS2_PLACEMENT_3D('',#1622,#1336,#1337);
#1086=AXIS2_PLACEMENT_3D('',#1626,#1340,#1341);
#1087=AXIS2_PLACEMENT_3D('',#1630,#1344,#1345);
#1088=AXIS2_PLACEMENT_3D('',#1632,#1347,#1348);
#1089=AXIS2_PLACEMENT_3D('',#1634,#1349,#1350);
#1090=AXIS2_PLACEMENT_3D('',#1636,#1351,#1352);
#1091=AXIS2_PLACEMENT_3D('',#1637,#1353,#1354);
#1092=AXIS2_PLACEMENT_3D('',#1639,#1356,#1357);
#1093=DIRECTION('axis',(0.,0.,1.));
#1094=DIRECTION('refdir',(1.,0.,0.));
#1095=DIRECTION('center_axis',(0.,1.,0.));
#1096=DIRECTION('ref_axis',(-0.70710678118655,0.,0.707106781186545));
#1097=DIRECTION('center_axis',(-1.08314441426845E-16,-1.,0.));
#1098=DIRECTION('ref_axis',(-0.70710678118655,0.,0.707106781186545));
#1099=DIRECTION('',(0.,-1.,0.));
#1100=DIRECTION('center_axis',(-1.08314441426845E-16,1.,0.));
#1101=DIRECTION('ref_axis',(-0.70710678118655,-7.65898760333555E-17,0.707106781186545));
#1102=DIRECTION('',(0.,1.,0.));
#1103=DIRECTION('center_axis',(-1.,0.,1.2509555207044E-16));
#1104=DIRECTION('ref_axis',(1.2509555207044E-16,0.,1.));
#1105=DIRECTION('',(-1.2509555207044E-16,1.35496548474925E-32,-1.));
#1106=DIRECTION('',(0.,1.,0.));
#1107=DIRECTION('',(0.,0.,-1.));
#1108=DIRECTION('',(0.,-1.,0.));
#1109=DIRECTION('',(-1.2509555207044E-16,2.65603594407932E-16,-1.));
#1110=DIRECTION('',(0.,1.,0.));
#1111=DIRECTION('',(1.2509555207044E-16,-3.9715295189843E-16,1.));
#1112=DIRECTION('center_axis',(1.,0.,0.));
#1113=DIRECTION('ref_axis',(0.,0.,-1.));
#1114=DIRECTION('',(0.,0.,1.));
#1115=DIRECTION('',(0.,-1.,0.));
#1116=DIRECTION('',(0.,0.,-1.));
#1117=DIRECTION('',(0.,-1.,0.));
#1118=DIRECTION('center_axis',(0.,0.,-1.));
#1119=DIRECTION('ref_axis',(-1.,0.,0.));
#1120=DIRECTION('',(1.,-1.08314441426845E-16,0.));
#1121=DIRECTION('',(1.,0.,0.));
#1122=DIRECTION('',(0.,1.,0.));
#1123=DIRECTION('',(1.,0.,0.));
#1124=DIRECTION('',(0.,-1.,0.));
#1125=DIRECTION('',(1.,0.,0.));
#1126=DIRECTION('',(0.,1.,0.));
#1127=DIRECTION('',(1.,-1.08314441426845E-16,0.));
#1128=DIRECTION('',(0.,-1.,0.));
#1129=DIRECTION('',(-1.,0.,0.));
#1130=DIRECTION('center_axis',(1.97135755013551E-16,0.,-1.));
#1131=DIRECTION('ref_axis',(1.,0.,1.97135755013551E-16));
#1132=DIRECTION('',(-1.,1.08314441426845E-16,-1.97135755013551E-16));
#1133=DIRECTION('',(0.,-1.,0.));
#1134=DIRECTION('',(1.,0.,1.97135755013551E-16));
#1135=DIRECTION('center_axis',(1.,0.,0.));
#1136=DIRECTION('ref_axis',(0.,1.,0.));
#1137=DIRECTION('',(0.,0.,1.));
#1138=DIRECTION('',(0.,1.,0.));
#1139=DIRECTION('',(0.,0.,1.));
#1140=DIRECTION('center_axis',(0.,0.,1.));
#1141=DIRECTION('ref_axis',(1.,0.,0.));
#1142=DIRECTION('',(-1.,1.08314441426845E-16,0.));
#1143=DIRECTION('',(0.,1.,0.));
#1144=DIRECTION('',(-1.,0.,0.));
#1145=DIRECTION('center_axis',(-1.,0.,-2.22044604925031E-16));
#1146=DIRECTION('ref_axis',(2.22044604925031E-16,0.,-1.));
#1147=DIRECTION('',(-2.22044604925031E-16,2.40506373542991E-32,1.));
#1148=DIRECTION('',(0.,-1.,0.));
#1149=DIRECTION('',(2.22044604925031E-16,0.,-1.));
#1150=DIRECTION('center_axis',(0.,1.,0.));
#1151=DIRECTION('ref_axis',(1.,0.,2.22044604925031E-16));
#1152=DIRECTION('center_axis',(-1.08314441426845E-16,-1.,0.));
#1153=DIRECTION('ref_axis',(1.,0.,2.22044604925031E-16));
#1154=DIRECTION('',(0.,1.,0.));
#1155=DIRECTION('center_axis',(0.,-1.,0.));
#1156=DIRECTION('ref_axis',(1.,0.,2.22044604925031E-16));
#1157=DIRECTION('center_axis',(-1.,0.,-2.22044604925031E-16));
#1158=DIRECTION('ref_axis',(2.22044604925031E-16,0.,-1.));
#1159=DIRECTION('',(-2.22044604925031E-16,2.40506373542991E-32,1.));
#1160=DIRECTION('',(0.,1.,0.));
#1161=DIRECTION('',(2.22044604925031E-16,0.,-1.));
#1162=DIRECTION('center_axis',(0.,-1.,0.));
#1163=DIRECTION('ref_axis',(-0.707106781186548,0.,0.707106781186548));
#1164=DIRECTION('center_axis',(1.08314441426845E-16,1.,0.));
#1165=DIRECTION('ref_axis',(-0.707106781186548,0.,0.707106781186548));
#1166=DIRECTION('',(0.,-1.,0.));
#1167=DIRECTION('center_axis',(0.,1.,0.));
#1168=DIRECTION('ref_axis',(-0.707106781186548,0.,0.707106781186548));
#1169=DIRECTION('center_axis',(-3.35913633091799E-16,0.,1.));
#1170=DIRECTION('ref_axis',(-1.,0.,-3.35913633091799E-16));
#1171=DIRECTION('',(1.,-1.08314441426845E-16,3.35913633091799E-16));
#1172=DIRECTION('',(0.,-1.,0.));
#1173=DIRECTION('',(-1.,0.,-3.35913633091799E-16));
#1174=DIRECTION('',(0.,1.,0.));
#1175=DIRECTION('center_axis',(-3.35913633091799E-16,0.,1.));
#1176=DIRECTION('ref_axis',(-1.,0.,-3.35913633091799E-16));
#1177=DIRECTION('',(1.,-1.08314441426845E-16,3.35913633091799E-16));
#1178=DIRECTION('',(0.,1.,0.));
#1179=DIRECTION('',(-1.,0.,-3.35913633091799E-16));
#1180=DIRECTION('',(0.,1.,0.));
#1181=DIRECTION('center_axis',(-3.35913633091799E-16,0.,1.));
#1182=DIRECTION('ref_axis',(-1.,0.,-3.35913633091799E-16));
#1183=DIRECTION('',(1.,-1.08314441426845E-16,3.35913633091799E-16));
#1184=DIRECTION('',(0.,-1.,0.));
#1185=DIRECTION('',(-1.,0.,-3.35913633091799E-16));
#1186=DIRECTION('center_axis',(-1.44419255235793E-16,0.,-1.));
#1187=DIRECTION('ref_axis',(0.,-1.,0.));
#1188=DIRECTION('',(-1.,0.,1.44419255235793E-16));
#1189=DIRECTION('',(0.,-1.,0.));
#1190=DIRECTION('',(-1.,0.,1.44419255235793E-16));
#1191=DIRECTION('center_axis',(1.08314441426845E-16,-1.,0.));
#1192=DIRECTION('ref_axis',(1.,1.08314441426845E-16,-1.08314441426845E-16));
#1193=DIRECTION('',(-1.8764332810566E-16,3.9715295189843E-16,-1.));
#1194=DIRECTION('center_axis',(-1.08314441426845E-16,1.,0.));
#1195=DIRECTION('ref_axis',(0.707106781186548,7.65898760333552E-17,0.707106781186548));
#1196=DIRECTION('',(-1.,-1.08314441426845E-16,2.16628882853689E-16));
#1197=DIRECTION('center_axis',(-1.08314441426845E-16,1.,0.));
#1198=DIRECTION('ref_axis',(1.,1.08314441426845E-16,2.22044604925031E-16));
#1199=DIRECTION('center_axis',(-1.08314441426845E-16,1.,0.));
#1200=DIRECTION('ref_axis',(1.,1.08314441426845E-16,2.22044604925031E-16));
#1201=DIRECTION('',(-8.88178419700125E-16,-9.62025494171965E-32,-1.));
#1202=DIRECTION('',(-1.,-1.08314441426845E-16,2.08166817117218E-17));
#1203=DIRECTION('',(3.33066907387547E-16,3.60759560314487E-32,1.));
#1204=DIRECTION('',(1.,1.08314441426845E-16,2.22044604925031E-16));
#1205=DIRECTION('center_axis',(-3.83582732923431E-32,-1.,-2.65603594407932E-16));
#1206=DIRECTION('ref_axis',(1.8764332810566E-16,-2.65603594407932E-16,1.));
#1207=DIRECTION('center_axis',(-3.83582732923431E-32,-1.,-2.65603594407932E-16));
#1208=DIRECTION('ref_axis',(-0.707106781186548,-1.8781010271337E-16,0.707106781186548));
#1209=DIRECTION('',(-1.,-1.91791366461716E-32,2.16628882853689E-16));
#1210=DIRECTION('center_axis',(-3.83582732923431E-32,-1.,-2.65603594407932E-16));
#1211=DIRECTION('ref_axis',(0.707106781186548,-1.8781010271337E-16,0.707106781186548));
#1212=DIRECTION('',(1.8764332810566E-16,-2.65603594407932E-16,1.));
#1213=DIRECTION('center_axis',(0.,1.,0.));
#1214=DIRECTION('ref_axis',(0.707106781186548,0.,0.707106781186548));
#1215=DIRECTION('',(0.,-1.,0.));
#1216=DIRECTION('center_axis',(0.,1.,0.));
#1217=DIRECTION('ref_axis',(0.707106781186548,0.,0.707106781186548));
#1218=DIRECTION('',(0.,1.,0.));
#1219=DIRECTION('center_axis',(2.16628882853689E-16,0.,1.));
#1220=DIRECTION('ref_axis',(1.,0.,-2.16628882853689E-16));
#1221=DIRECTION('',(0.,1.,0.));
#1222=DIRECTION('',(1.,0.,-2.16628882853689E-16));
#1223=DIRECTION('center_axis',(0.,1.,0.));
#1224=DIRECTION('ref_axis',(-0.707106781186548,0.,0.707106781186548));
#1225=DIRECTION('center_axis',(0.,1.,0.));
#1226=DIRECTION('ref_axis',(-0.707106781186548,0.,0.707106781186548));
#1227=DIRECTION('center_axis',(0.,0.,1.));
#1228=DIRECTION('ref_axis',(1.,0.,0.));
#1229=DIRECTION('',(-1.,1.08314441426845E-16,0.));
#1230=DIRECTION('',(0.,-1.,0.));
#1231=DIRECTION('',(-1.,0.,0.));
#1232=DIRECTION('',(0.,-1.,0.));
#1233=DIRECTION('center_axis',(-1.,0.,0.));
#1234=DIRECTION('ref_axis',(0.,-1.,0.));
#1235=DIRECTION('',(0.,0.,-1.));
#1236=DIRECTION('',(0.,1.,0.));
#1237=DIRECTION('',(0.,0.,-1.));
#1238=DIRECTION('center_axis',(0.,-1.,0.));
#1239=DIRECTION('ref_axis',(0.,0.,-1.));
#1240=DIRECTION('',(1.,0.,1.97135755013551E-16));
#1241=DIRECTION('',(0.,0.,-1.));
#1242=DIRECTION('',(0.,0.,-1.));
#1243=DIRECTION('center_axis',(0.,1.,0.));
#1244=DIRECTION('ref_axis',(0.707106781186548,0.,0.707106781186548));
#1245=DIRECTION('',(-2.22044604925031E-16,0.,1.));
#1246=DIRECTION('center_axis',(0.,-1.,0.));
#1247=DIRECTION('ref_axis',(1.,0.,2.22044604925031E-16));
#1248=DIRECTION('',(-2.22044604925031E-16,0.,1.));
#1249=DIRECTION('center_axis',(1.97135755013551E-16,0.,-1.));
#1250=DIRECTION('ref_axis',(1.,0.,1.97135755013551E-16));
#1251=DIRECTION('',(-1.,1.08314441426845E-16,-1.97135755013551E-16));
#1252=DIRECTION('',(0.,-1.,0.));
#1253=DIRECTION('center_axis',(0.,-1.,0.));
#1254=DIRECTION('ref_axis',(0.,0.,-1.));
#1255=DIRECTION('',(0.,0.,-1.));
#1256=DIRECTION('center_axis',(0.,1.,0.));
#1257=DIRECTION('ref_axis',(0.,0.,1.));
#1258=DIRECTION('',(0.,0.,-1.));
#1259=DIRECTION('center_axis',(1.,0.,-1.8764332810566E-16));
#1260=DIRECTION('ref_axis',(-1.8764332810566E-16,0.,-1.));
#1261=DIRECTION('',(1.8764332810566E-16,-2.03244822712387E-32,1.));
#1262=DIRECTION('',(0.,1.,0.));
#1263=DIRECTION('center_axis',(-1.,0.,0.));
#1264=DIRECTION('ref_axis',(0.,0.,1.));
#1265=DIRECTION('',(0.,0.,-1.));
#1266=DIRECTION('center_axis',(1.,0.,4.22514025560977E-17));
#1267=DIRECTION('ref_axis',(4.22514025560977E-17,0.,-1.));
#1268=DIRECTION('',(0.,0.,-1.));
#1269=DIRECTION('center_axis',(0.,1.,0.));
#1270=DIRECTION('ref_axis',(0.,0.,1.));
#1271=DIRECTION('',(-1.,1.08314441426845E-16,2.16628882853689E-16));
#1272=DIRECTION('center_axis',(-1.08314441426845E-16,-1.,0.));
#1273=DIRECTION('ref_axis',(0.707106781186548,0.,0.707106781186548));
#1274=DIRECTION('',(2.22044604925031E-16,-2.40506373542991E-32,-1.));
#1275=DIRECTION('center_axis',(-1.08314441426845E-16,-1.,0.));
#1276=DIRECTION('ref_axis',(-1.,0.,-7.88598494689829E-16));
#1277=DIRECTION('',(2.22044604925031E-16,-2.40506373542991E-32,-1.));
#1278=DIRECTION('center_axis',(1.08314441426845E-16,1.,0.));
#1279=DIRECTION('ref_axis',(0.707106781186548,0.,0.707106781186548));
#1280=DIRECTION('',(0.,0.,-1.));
#1281=DIRECTION('',(-9.97591703286373E-17,0.,-1.));
#1282=DIRECTION('',(1.,0.,7.50875475591887E-18));
#1283=DIRECTION('',(2.07027095413193E-16,0.,1.));
#1284=DIRECTION('center_axis',(1.08314441426845E-16,1.,0.));
#1285=DIRECTION('ref_axis',(-1.,0.,-2.22044604925031E-16));
#1286=DIRECTION('center_axis',(1.08314441426845E-16,1.,0.));
#1287=DIRECTION('ref_axis',(-1.,0.,-2.22044604925031E-16));
#1288=DIRECTION('center_axis',(-1.,0.,-4.22514025571569E-17));
#1289=DIRECTION('ref_axis',(-4.22514025571569E-17,0.,1.));
#1290=DIRECTION('center_axis',(0.,1.,0.));
#1291=DIRECTION('ref_axis',(-1.,0.,-7.88598494689829E-16));
#1292=DIRECTION('',(0.,1.,0.));
#1293=DIRECTION('',(0.,-1.,0.));
#1294=DIRECTION('center_axis',(0.,1.,0.));
#1295=DIRECTION('ref_axis',(-1.,0.,-2.22044604925031E-16));
#1296=DIRECTION('center_axis',(0.,1.,0.));
#1297=DIRECTION('ref_axis',(-1.,0.,-2.22044604925031E-16));
#1298=DIRECTION('',(0.,1.,0.));
#1299=DIRECTION('center_axis',(0.,1.,0.));
#1300=DIRECTION('ref_axis',(-1.,0.,-2.22044604925031E-16));
#1301=DIRECTION('center_axis',(0.,1.,0.));
#1302=DIRECTION('ref_axis',(-1.,0.,-2.22044604925031E-16));
#1303=DIRECTION('',(0.,1.,0.));
#1304=DIRECTION('center_axis',(1.,0.,2.22044604925031E-16));
#1305=DIRECTION('ref_axis',(-2.22044604925031E-16,0.,1.));
#1306=DIRECTION('',(0.,-1.,0.));
#1307=DIRECTION('center_axis',(1.,0.,2.22044604925031E-16));
#1308=DIRECTION('ref_axis',(-2.22044604925031E-16,0.,1.));
#1309=DIRECTION('center_axis',(0.,-1.,0.));
#1310=DIRECTION('ref_axis',(0.,0.,-1.));
#1311=DIRECTION('center_axis',(0.,-1.,0.));
#1312=DIRECTION('ref_axis',(0.,0.,-1.));
#1313=DIRECTION('center_axis',(0.,1.,0.));
#1314=DIRECTION('ref_axis',(0.707106781186548,0.,0.707106781186548));
#1315=DIRECTION('center_axis',(0.,-1.,0.));
#1316=DIRECTION('ref_axis',(0.707106781186548,0.,0.707106781186548));
#1317=DIRECTION('',(0.,-1.,0.));
#1318=DIRECTION('center_axis',(2.16628882853689E-16,0.,1.));
#1319=DIRECTION('ref_axis',(1.,0.,-2.16628882853689E-16));
#1320=DIRECTION('center_axis',(-1.,0.,3.33066907387547E-16));
#1321=DIRECTION('ref_axis',(-3.33066907387547E-16,0.,-1.));
#1322=DIRECTION('',(-3.33066907387547E-16,0.,-1.));
#1323=DIRECTION('',(0.,-1.,0.));
#1324=DIRECTION('',(0.,-1.,0.));
#1325=DIRECTION('center_axis',(-2.22044604925031E-16,0.,1.));
#1326=DIRECTION('ref_axis',(-1.,0.,-2.22044604925031E-16));
#1327=DIRECTION('',(-1.,0.,-2.22044604925031E-16));
#1328=DIRECTION('',(0.,-1.,0.));
#1329=DIRECTION('center_axis',(1.,0.,-8.88178419700125E-16));
#1330=DIRECTION('ref_axis',(8.88178419700125E-16,0.,1.));
#1331=DIRECTION('',(8.88178419700125E-16,0.,1.));
#1332=DIRECTION('',(0.,-1.,0.));
#1333=DIRECTION('center_axis',(-2.08166817117218E-17,0.,-1.));
#1334=DIRECTION('ref_axis',(1.,0.,-2.08166817117218E-17));
#1335=DIRECTION('',(1.,0.,-2.08166817117218E-17));
#1336=DIRECTION('center_axis',(-1.,0.,2.07027095413193E-16));
#1337=DIRECTION('ref_axis',(2.07027095413193E-16,0.,1.));
#1338=DIRECTION('',(-2.07027095413193E-16,0.,-1.));
#1339=DIRECTION('',(0.,1.,0.));
#1340=DIRECTION('center_axis',(-7.50875475591887E-18,0.,1.));
#1341=DIRECTION('ref_axis',(1.,0.,7.50875475591887E-18));
#1342=DIRECTION('',(-1.,0.,-7.50875475591887E-18));
#1343=DIRECTION('',(0.,1.,0.));
#1344=DIRECTION('center_axis',(1.,0.,-9.97591703286373E-17));
#1345=DIRECTION('ref_axis',(-9.97591703286373E-17,0.,-1.));
#1346=DIRECTION('',(9.97591703286373E-17,0.,1.));
#1347=DIRECTION('center_axis',(0.,-1.,0.));
#1348=DIRECTION('ref_axis',(0.,0.,-1.));
#1349=DIRECTION('center_axis',(0.,-1.,0.));
#1350=DIRECTION('ref_axis',(1.,0.,2.22044604925031E-16));
#1351=DIRECTION('center_axis',(0.,-1.,0.));
#1352=DIRECTION('ref_axis',(1.,0.,2.22044604925031E-16));
#1353=DIRECTION('center_axis',(0.,-1.,0.));
#1354=DIRECTION('ref_axis',(1.,0.,2.22044604925031E-16));
#1355=DIRECTION('',(0.,-1.,0.));
#1356=DIRECTION('center_axis',(0.,-1.,0.));
#1357=DIRECTION('ref_axis',(1.,0.,2.22044604925031E-16));
#1358=DIRECTION('',(0.,-1.,0.));
#1359=CARTESIAN_POINT('',(0.,0.,0.));
#1360=CARTESIAN_POINT('Origin',(-36.,9.5,87.));
#1361=CARTESIAN_POINT('',(-36.,20.,92.));
#1362=CARTESIAN_POINT('',(-41.,20.,87.));
#1363=CARTESIAN_POINT('Origin',(-36.,20.,87.));
#1364=CARTESIAN_POINT('',(-41.,14.,87.));
#1365=CARTESIAN_POINT('',(-41.,9.5,87.));
#1366=CARTESIAN_POINT('',(-36.,14.,92.));
#1367=CARTESIAN_POINT('Origin',(-36.,14.,87.));
#1368=CARTESIAN_POINT('',(-36.,9.5,92.));
#1369=CARTESIAN_POINT('Origin',(-41.,0.,-71.));
#1370=CARTESIAN_POINT('',(-41.,20.,46.25));
#1371=CARTESIAN_POINT('',(-41.,20.,-12.375));
#1372=CARTESIAN_POINT('',(-41.,0.,46.25));
#1373=CARTESIAN_POINT('',(-41.,0.,46.25));
#1374=CARTESIAN_POINT('',(-41.,0.,87.));
#1375=CARTESIAN_POINT('',(-41.,0.,66.25));
#1376=CARTESIAN_POINT('',(-41.,7.00000000000001,87.));
#1377=CARTESIAN_POINT('',(-41.,0.,87.));
#1378=CARTESIAN_POINT('',(-41.,7.,56.25));
#1379=CARTESIAN_POINT('',(-41.,7.00000000000003,0.0500000000000094));
#1380=CARTESIAN_POINT('',(-41.,14.,56.25));
#1381=CARTESIAN_POINT('',(-41.,7.00000000000001,56.25));
#1382=CARTESIAN_POINT('',(-41.,14.,8.));
#1383=CARTESIAN_POINT('Origin',(-20.,2.,71.1000000000175));
#1384=CARTESIAN_POINT('',(-20.,20.,46.25));
#1385=CARTESIAN_POINT('',(-20.,20.,73.1000000000757));
#1386=CARTESIAN_POINT('',(-20.,20.,58.6750000000088));
#1387=CARTESIAN_POINT('',(-20.,18.,73.1000000000757));
#1388=CARTESIAN_POINT('',(-20.,24.,73.1000000000757));
#1389=CARTESIAN_POINT('',(-20.,18.,46.25));
#1390=CARTESIAN_POINT('',(-20.,18.,66.25));
#1391=CARTESIAN_POINT('',(-20.,27.,46.25));
#1392=CARTESIAN_POINT('Origin',(0.,13.5,46.25));
#1393=CARTESIAN_POINT('',(-20.5,20.,46.25));
#1394=CARTESIAN_POINT('',(-12.3500000000029,18.,46.25));
#1395=CARTESIAN_POINT('',(-20.,18.,46.25));
#1396=CARTESIAN_POINT('',(-12.3500000000029,20.,46.25));
#1397=CARTESIAN_POINT('',(-12.3500000000029,18.,46.25));
#1398=CARTESIAN_POINT('',(12.3500000000757,20.,46.25));
#1399=CARTESIAN_POINT('',(-12.3500000000029,20.,46.25));
#1400=CARTESIAN_POINT('',(12.3500000000757,18.,46.25));
#1401=CARTESIAN_POINT('',(12.3500000000757,20.,46.25));
#1402=CARTESIAN_POINT('',(20.,18.,46.25));
#1403=CARTESIAN_POINT('',(12.3500000000757,18.,46.25));
#1404=CARTESIAN_POINT('',(20.,20.,46.25));
#1405=CARTESIAN_POINT('',(20.,18.,46.25));
#1406=CARTESIAN_POINT('',(41.,20.,46.25));
#1407=CARTESIAN_POINT('',(-20.5,20.,46.25));
#1408=CARTESIAN_POINT('',(41.,0.,46.25));
#1409=CARTESIAN_POINT('',(41.,27.,46.25));
#1410=CARTESIAN_POINT('',(41.,0.,46.25));
#1411=CARTESIAN_POINT('Origin',(-38.9999999999709,24.,73.1000000000757));
#1412=CARTESIAN_POINT('',(-36.,20.,73.1000000000757));
#1413=CARTESIAN_POINT('',(-39.9999999999855,20.,73.1000000000757));
#1414=CARTESIAN_POINT('',(-36.,18.,73.1000000000757));
#1415=CARTESIAN_POINT('',(-36.,19.,73.1000000000757));
#1416=CARTESIAN_POINT('',(38.9999999999709,18.,73.1000000000757));
#1417=CARTESIAN_POINT('Origin',(-36.,14.,69.25));
#1418=CARTESIAN_POINT('',(-36.,20.,74.25));
#1419=CARTESIAN_POINT('',(-36.,20.,57.75));
#1420=CARTESIAN_POINT('',(-36.,18.,74.25));
#1421=CARTESIAN_POINT('',(-36.,27.,74.25));
#1422=CARTESIAN_POINT('',(-36.,18.,75.4000000000204));
#1423=CARTESIAN_POINT('Origin',(-38.5,13.5,74.25));
#1424=CARTESIAN_POINT('',(-38.9999999999709,20.,74.25));
#1425=CARTESIAN_POINT('',(-39.75,20.,74.25));
#1426=CARTESIAN_POINT('',(-38.9999999999709,18.,74.25));
#1427=CARTESIAN_POINT('',(-38.9999999999709,18.75,74.25));
#1428=CARTESIAN_POINT('',(-19.25,18.,74.25));
#1429=CARTESIAN_POINT('Origin',(-38.9999999999709,24.,90.0000000000058));
#1430=CARTESIAN_POINT('',(-38.9999999999709,20.,79.1005102572576));
#1431=CARTESIAN_POINT('',(-38.9999999999709,20.,68.1250000000029));
#1432=CARTESIAN_POINT('',(-38.9999999999709,18.,79.1005102572576));
#1433=CARTESIAN_POINT('',(-38.9999999999709,18.,79.1005102572576));
#1434=CARTESIAN_POINT('',(-38.9999999999709,18.,73.1000000000756));
#1435=CARTESIAN_POINT('Origin',(-36.4999999999709,18.,81.5500000000407));
#1436=CARTESIAN_POINT('',(-38.9999999999709,20.,83.9994897428239));
#1437=CARTESIAN_POINT('Origin',(-36.4999999999709,20.,81.5500000000407));
#1438=CARTESIAN_POINT('',(-38.9999999999709,18.,83.9994897428239));
#1439=CARTESIAN_POINT('',(-38.9999999999709,18.,83.9994897428239));
#1440=CARTESIAN_POINT('Origin',(-36.4999999999709,18.,81.5500000000407));
#1441=CARTESIAN_POINT('Origin',(-38.9999999999709,24.,90.0000000000058));
#1442=CARTESIAN_POINT('',(-38.9999999999709,20.,85.0000000000058));
#1443=CARTESIAN_POINT('',(-38.9999999999709,20.,68.1250000000029));
#1444=CARTESIAN_POINT('',(-38.9999999999709,18.,85.0000000000058));
#1445=CARTESIAN_POINT('',(-38.9999999999709,24.,85.0000000000058));
#1446=CARTESIAN_POINT('',(-38.9999999999709,18.,73.1000000000756));
#1447=CARTESIAN_POINT('Origin',(-33.9999999999709,24.,85.0000000000058));
#1448=CARTESIAN_POINT('',(-33.9999999999709,20.,90.0000000000058));
#1449=CARTESIAN_POINT('Origin',(-33.9999999999709,20.,85.0000000000058));
#1450=CARTESIAN_POINT('',(-33.9999999999709,18.,90.0000000000058));
#1451=CARTESIAN_POINT('',(-33.9999999999709,24.,90.0000000000058));
#1452=CARTESIAN_POINT('Origin',(-33.9999999999709,18.,85.0000000000058));
#1453=CARTESIAN_POINT('Origin',(38.9999999999709,24.,90.0000000000059));
#1454=CARTESIAN_POINT('',(-10.35,20.,90.0000000000058));
#1455=CARTESIAN_POINT('',(10.35,20.,90.0000000000058));
#1456=CARTESIAN_POINT('',(-1.00000000001456,20.,90.0000000000059));
#1457=CARTESIAN_POINT('',(10.35,18.,90.0000000000058));
#1458=CARTESIAN_POINT('',(10.35,21.,90.0000000000059));
#1459=CARTESIAN_POINT('',(-10.35,18.,90.0000000000058));
#1460=CARTESIAN_POINT('',(-38.9999999999709,18.,90.0000000000058));
#1461=CARTESIAN_POINT('',(-10.35,21.,90.0000000000058));
#1462=CARTESIAN_POINT('Origin',(38.9999999999709,24.,90.0000000000059));
#1463=CARTESIAN_POINT('',(12.3500000000757,20.,90.0000000000058));
#1464=CARTESIAN_POINT('',(33.9999999999709,20.,90.0000000000059));
#1465=CARTESIAN_POINT('',(-1.00000000001456,20.,90.0000000000059));
#1466=CARTESIAN_POINT('',(33.9999999999709,18.,90.0000000000059));
#1467=CARTESIAN_POINT('',(33.9999999999709,24.,90.0000000000059));
#1468=CARTESIAN_POINT('',(12.3500000000757,18.,90.0000000000058));
#1469=CARTESIAN_POINT('',(-38.9999999999709,18.,90.0000000000058));
#1470=CARTESIAN_POINT('',(12.3500000000757,21.,90.0000000000058));
#1471=CARTESIAN_POINT('Origin',(38.9999999999709,24.,90.0000000000059));
#1472=CARTESIAN_POINT('',(-12.3500000000029,20.,90.0000000000058));
#1473=CARTESIAN_POINT('',(-1.00000000001456,20.,90.0000000000059));
#1474=CARTESIAN_POINT('',(-12.3500000000029,18.,90.0000000000058));
#1475=CARTESIAN_POINT('',(-12.3500000000029,21.,90.0000000000058));
#1476=CARTESIAN_POINT('',(-38.9999999999709,18.,90.0000000000058));
#1477=CARTESIAN_POINT('Origin',(41.,14.,56.25));
#1478=CARTESIAN_POINT('',(41.,7.,56.25));
#1479=CARTESIAN_POINT('',(41.,7.,56.25));
#1480=CARTESIAN_POINT('',(41.,14.,56.25));
#1481=CARTESIAN_POINT('',(41.,7.00000000000001,56.25));
#1482=CARTESIAN_POINT('',(41.,14.,56.25));
#1483=CARTESIAN_POINT('Origin',(-41.,14.,71.1000000000175));
#1484=CARTESIAN_POINT('',(41.,14.,87.));
#1485=CARTESIAN_POINT('',(41.,14.,89.5));
#1486=CARTESIAN_POINT('',(36.,14.,92.));
#1487=CARTESIAN_POINT('Origin',(36.,14.,87.));
#1488=CARTESIAN_POINT('',(-20.5,14.,92.));
#1489=CARTESIAN_POINT('',(6.15,14.,87.0000000000059));
#1490=CARTESIAN_POINT('Origin',(7.9,14.,87.0000000000059));
#1491=CARTESIAN_POINT('',(-9.65,14.,87.0000000000058));
#1492=CARTESIAN_POINT('Origin',(-7.9,14.,87.0000000000058));
#1493=CARTESIAN_POINT('',(7.99999999999999,14.,85.0000000000059));
#1494=CARTESIAN_POINT('',(7.99999999999998,14.,73.0000000000059));
#1495=CARTESIAN_POINT('',(7.99999999999998,14.,72.0500000000116));
#1496=CARTESIAN_POINT('',(-8.00000000000001,14.,73.0000000000059));
#1497=CARTESIAN_POINT('',(-24.5,14.,73.0000000000059));
#1498=CARTESIAN_POINT('',(-8.00000000000001,14.,85.0000000000058));
#1499=CARTESIAN_POINT('',(-8.00000000000001,14.,78.0500000000116));
#1500=CARTESIAN_POINT('',(-16.5,14.,85.0000000000059));
#1501=CARTESIAN_POINT('Origin',(41.,7.00000000000001,71.1));
#1502=CARTESIAN_POINT('',(-36.,7.00000000000001,92.));
#1503=CARTESIAN_POINT('Origin',(-36.,7.00000000000001,87.));
#1504=CARTESIAN_POINT('',(36.,7.00000000000001,92.));
#1505=CARTESIAN_POINT('',(2.26377182582105E-15,7.00000000000001,92.));
#1506=CARTESIAN_POINT('',(41.,7.00000000000001,87.));
#1507=CARTESIAN_POINT('Origin',(36.,7.00000000000001,87.));
#1508=CARTESIAN_POINT('',(41.,7.00000000000001,81.55));
#1509=CARTESIAN_POINT('Origin',(36.,0.,87.));
#1510=CARTESIAN_POINT('',(36.,0.,92.));
#1511=CARTESIAN_POINT('',(36.,0.,92.));
#1512=CARTESIAN_POINT('',(41.,0.,87.));
#1513=CARTESIAN_POINT('Origin',(36.,0.,87.));
#1514=CARTESIAN_POINT('',(41.,0.,87.));
#1515=CARTESIAN_POINT('Origin',(-41.,0.,92.));
#1516=CARTESIAN_POINT('',(-36.,0.,92.));
#1517=CARTESIAN_POINT('',(-36.,0.,92.));
#1518=CARTESIAN_POINT('',(-41.,0.,92.));
#1519=CARTESIAN_POINT('Origin',(-36.,0.,87.));
#1520=CARTESIAN_POINT('Origin',(-36.,0.,87.));
#1521=CARTESIAN_POINT('Origin',(-38.5,13.5,74.25));
#1522=CARTESIAN_POINT('',(38.9999999999709,20.,74.25));
#1523=CARTESIAN_POINT('',(36.,20.,74.25));
#1524=CARTESIAN_POINT('',(-39.75,20.,74.25));
#1525=CARTESIAN_POINT('',(36.,18.,74.25));
#1526=CARTESIAN_POINT('',(36.,0.,74.25));
#1527=CARTESIAN_POINT('',(38.9999999999709,18.,74.25));
#1528=CARTESIAN_POINT('',(-19.25,18.,74.25));
#1529=CARTESIAN_POINT('',(38.9999999999709,18.75,74.25));
#1530=CARTESIAN_POINT('Origin',(36.,27.,69.25));
#1531=CARTESIAN_POINT('',(36.,20.,73.1000000000757));
#1532=CARTESIAN_POINT('',(36.,20.,57.75));
#1533=CARTESIAN_POINT('',(36.,18.,73.1000000000757));
#1534=CARTESIAN_POINT('',(36.,25.5,73.1000000000757));
#1535=CARTESIAN_POINT('',(36.,18.,75.4000000000204));
#1536=CARTESIAN_POINT('Origin',(-1.33226762955019E-14,18.,81.5500000000408));
#1537=CARTESIAN_POINT('',(20.,18.,73.1000000000757));
#1538=CARTESIAN_POINT('',(38.9999999999709,18.,73.1000000000757));
#1539=CARTESIAN_POINT('',(20.,18.,66.25));
#1540=CARTESIAN_POINT('',(12.3500000000757,18.,66.25));
#1541=CARTESIAN_POINT('',(38.9999999999709,18.,85.0000000000059));
#1542=CARTESIAN_POINT('Origin',(33.9999999999709,18.,85.0000000000059));
#1543=CARTESIAN_POINT('',(38.9999999999709,18.,83.999489742824));
#1544=CARTESIAN_POINT('',(38.9999999999709,18.,90.0000000000059));
#1545=CARTESIAN_POINT('',(38.9999999999709,18.,79.1005102572576));
#1546=CARTESIAN_POINT('Origin',(36.4999999999709,18.,81.5500000000408));
#1547=CARTESIAN_POINT('',(38.9999999999709,18.,90.0000000000059));
#1548=CARTESIAN_POINT('Origin',(20.,24.,73.1000000000757));
#1549=CARTESIAN_POINT('',(20.,20.,73.1000000000757));
#1550=CARTESIAN_POINT('',(-10.5,20.,73.1000000000757));
#1551=CARTESIAN_POINT('',(20.,24.,73.1000000000757));
#1552=CARTESIAN_POINT('Origin',(-1.33226762955019E-14,18.,81.5500000000408));
#1553=CARTESIAN_POINT('',(-12.3500000000029,18.,66.25));
#1554=CARTESIAN_POINT('Origin',(0.,0.,0.));
#1555=CARTESIAN_POINT('',(41.,0.,69.25));
#1556=CARTESIAN_POINT('Origin',(41.,0.,92.));
#1557=CARTESIAN_POINT('',(41.,20.,87.));
#1558=CARTESIAN_POINT('',(41.,20.,69.125));
#1559=CARTESIAN_POINT('',(41.,24.,87.));
#1560=CARTESIAN_POINT('Origin',(20.,2.,69.1000000000175));
#1561=CARTESIAN_POINT('',(20.,20.,57.6750000000088));
#1562=CARTESIAN_POINT('Origin',(12.3500000000757,18.,90.0000000000058));
#1563=CARTESIAN_POINT('',(12.3500000000757,20.,66.25));
#1564=CARTESIAN_POINT('Origin',(3.63686858406709E-11,20.,79.5500000000117));
#1565=CARTESIAN_POINT('',(36.,20.,92.));
#1566=CARTESIAN_POINT('',(-20.5,20.,92.));
#1567=CARTESIAN_POINT('Origin',(36.,20.,87.));
#1568=CARTESIAN_POINT('',(38.9999999999709,20.,79.1005102572576));
#1569=CARTESIAN_POINT('',(38.9999999999709,20.,59.6750000000379));
#1570=CARTESIAN_POINT('',(38.9999999999709,20.,83.999489742824));
#1571=CARTESIAN_POINT('Origin',(36.4999999999709,20.,81.5500000000408));
#1572=CARTESIAN_POINT('',(38.9999999999709,20.,85.0000000000059));
#1573=CARTESIAN_POINT('',(38.9999999999709,20.,59.6750000000379));
#1574=CARTESIAN_POINT('Origin',(33.9999999999709,20.,85.0000000000059));
#1575=CARTESIAN_POINT('',(-12.3500000000029,20.,66.25));
#1576=CARTESIAN_POINT('',(-10.35,20.,69.3000000000059));
#1577=CARTESIAN_POINT('',(-10.35,20.,90.0000000000058));
#1578=CARTESIAN_POINT('',(10.35,20.,69.3000000000059));
#1579=CARTESIAN_POINT('',(-10.35,20.,69.3000000000059));
#1580=CARTESIAN_POINT('',(10.35,20.,69.3000000000058));
#1581=CARTESIAN_POINT('',(38.5999999999709,20.,81.5500000000408));
#1582=CARTESIAN_POINT('Origin',(36.4999999999709,20.,81.5500000000408));
#1583=CARTESIAN_POINT('',(-34.3999999999709,20.,81.5500000000407));
#1584=CARTESIAN_POINT('Origin',(-36.4999999999709,20.,81.5500000000407));
#1585=CARTESIAN_POINT('Origin',(-12.3500000000029,18.,69.1000000000175));
#1586=CARTESIAN_POINT('Origin',(36.4999999999709,18.,81.5500000000408));
#1587=CARTESIAN_POINT('',(38.9999999999709,18.,79.1005102572576));
#1588=CARTESIAN_POINT('',(38.9999999999709,18.,83.999489742824));
#1589=CARTESIAN_POINT('Origin',(36.4999999999709,18.,81.5500000000408));
#1590=CARTESIAN_POINT('',(38.5999999999709,18.,81.5500000000408));
#1591=CARTESIAN_POINT('Origin',(36.4999999999709,18.,81.5500000000408));
#1592=CARTESIAN_POINT('',(38.5999999999709,18.,81.5500000000408));
#1593=CARTESIAN_POINT('Origin',(-36.4999999999709,18.,81.5500000000407));
#1594=CARTESIAN_POINT('',(-34.3999999999709,18.,81.5500000000407));
#1595=CARTESIAN_POINT('Origin',(-36.4999999999709,18.,81.5500000000407));
#1596=CARTESIAN_POINT('',(-34.3999999999709,18.,81.5500000000407));
#1597=CARTESIAN_POINT('Origin',(38.9999999999709,24.,73.1000000000757));
#1598=CARTESIAN_POINT('',(38.9999999999709,24.,85.0000000000059));
#1599=CARTESIAN_POINT('Origin',(38.9999999999709,24.,73.1000000000757));
#1600=CARTESIAN_POINT('Origin',(-1.33226762955019E-14,18.,81.5500000000408));
#1601=CARTESIAN_POINT('Origin',(-1.33226762955019E-14,18.,81.5500000000408));
#1602=CARTESIAN_POINT('Origin',(33.9999999999709,24.,85.0000000000059));
#1603=CARTESIAN_POINT('Origin',(36.,9.5,87.));
#1604=CARTESIAN_POINT('',(36.,9.5,92.));
#1605=CARTESIAN_POINT('Origin',(2.26377182581916E-15,19.,92.));
#1606=CARTESIAN_POINT('Origin',(-8.00000000000001,18.,85.0000000000058));
#1607=CARTESIAN_POINT('',(-8.00000000000001,18.,85.0000000000058));
#1608=CARTESIAN_POINT('',(-8.00000000000001,18.,73.0000000000059));
#1609=CARTESIAN_POINT('',(-8.00000000000001,18.,83.2750000000233));
#1610=CARTESIAN_POINT('',(-8.00000000000001,18.,85.0000000000058));
#1611=CARTESIAN_POINT('',(-8.00000000000001,18.,73.0000000000059));
#1612=CARTESIAN_POINT('Origin',(7.99999999999999,18.,85.0000000000059));
#1613=CARTESIAN_POINT('',(7.99999999999999,18.,85.0000000000059));
#1614=CARTESIAN_POINT('',(3.99999999999999,18.,85.0000000000059));
#1615=CARTESIAN_POINT('',(7.99999999999999,18.,85.0000000000059));
#1616=CARTESIAN_POINT('Origin',(7.99999999999998,18.,73.0000000000059));
#1617=CARTESIAN_POINT('',(7.99999999999998,18.,73.0000000000059));
#1618=CARTESIAN_POINT('',(7.99999999999998,18.,77.2750000000233));
#1619=CARTESIAN_POINT('',(7.99999999999998,18.,73.0000000000059));
#1620=CARTESIAN_POINT('Origin',(-8.00000000000001,18.,73.0000000000059));
#1621=CARTESIAN_POINT('',(-4.00000000000001,18.,73.0000000000059));
#1622=CARTESIAN_POINT('Origin',(10.35,18.,69.3000000000059));
#1623=CARTESIAN_POINT('',(10.35,18.,69.3000000000059));
#1624=CARTESIAN_POINT('',(10.35,18.,75.4250000000233));
#1625=CARTESIAN_POINT('',(10.35,18.,69.3000000000059));
#1626=CARTESIAN_POINT('Origin',(-10.35,18.,69.3000000000059));
#1627=CARTESIAN_POINT('',(-10.35,18.,69.3000000000059));
#1628=CARTESIAN_POINT('',(-5.17500000000001,18.,69.3000000000059));
#1629=CARTESIAN_POINT('',(-10.35,18.,69.3000000000059));
#1630=CARTESIAN_POINT('Origin',(-10.35,18.,90.0000000000058));
#1631=CARTESIAN_POINT('',(-10.35,18.,85.7750000000233));
#1632=CARTESIAN_POINT('Origin',(-1.33226762955019E-14,18.,81.5500000000408));
#1633=CARTESIAN_POINT('',(-9.65,18.,87.0000000000058));
#1634=CARTESIAN_POINT('Origin',(-7.9,18.,87.0000000000058));
#1635=CARTESIAN_POINT('',(6.15,18.,87.0000000000059));
#1636=CARTESIAN_POINT('Origin',(7.9,18.,87.0000000000059));
#1637=CARTESIAN_POINT('Origin',(-7.9,18.,87.0000000000058));
#1638=CARTESIAN_POINT('',(-9.65,18.,87.0000000000058));
#1639=CARTESIAN_POINT('Origin',(7.9,18.,87.0000000000059));
#1640=CARTESIAN_POINT('',(6.15,18.,87.0000000000059));
#1641=UNCERTAINTY_MEASURE_WITH_UNIT(LENGTH_MEASURE(0.01),#1645,
'DISTANCE_ACCURACY_VALUE',
'Maximum model space distance between geometric entities at asserted c
onnectivities');
#1642=UNCERTAINTY_MEASURE_WITH_UNIT(LENGTH_MEASURE(0.01),#1645,
'DISTANCE_ACCURACY_VALUE',
'Maximum model space distance between geometric entities at asserted c
onnectivities');
#1643=(
GEOMETRIC_REPRESENTATION_CONTEXT(3)
GLOBAL_UNCERTAINTY_ASSIGNED_CONTEXT((#1641))
GLOBAL_UNIT_ASSIGNED_CONTEXT((#1645,#1647,#1648))
REPRESENTATION_CONTEXT('','3D')
);
#1644=(
GEOMETRIC_REPRESENTATION_CONTEXT(3)
GLOBAL_UNCERTAINTY_ASSIGNED_CONTEXT((#1642))
GLOBAL_UNIT_ASSIGNED_CONTEXT((#1645,#1647,#1648))
REPRESENTATION_CONTEXT('','3D')
);
#1645=(
LENGTH_UNIT()
NAMED_UNIT(*)
SI_UNIT(.MILLI.,.METRE.)
);
#1646=(
LENGTH_UNIT()
NAMED_UNIT(*)
SI_UNIT(.CENTI.,.METRE.)
);
#1647=(
NAMED_UNIT(*)
PLANE_ANGLE_UNIT()
SI_UNIT($,.RADIAN.)
);
#1648=(
NAMED_UNIT(*)
SI_UNIT($,.STERADIAN.)
SOLID_ANGLE_UNIT()
);
#1649=SHAPE_DEFINITION_REPRESENTATION(#1650,#1651);
#1650=PRODUCT_DEFINITION_SHAPE('',$,#1653);
#1651=SHAPE_REPRESENTATION('',(#1017),#1643);
#1652=PRODUCT_DEFINITION_CONTEXT('part definition',#1657,'design');
#1653=PRODUCT_DEFINITION('basepcb.dwg','basepcb.dwg',#1654,#1652);
#1654=PRODUCT_DEFINITION_FORMATION('',$,#1659);
#1655=PRODUCT_RELATED_PRODUCT_CATEGORY('basepcb.dwg','basepcb.dwg',(#1659));
#1656=APPLICATION_PROTOCOL_DEFINITION('international standard',
'automotive_design',2009,#1657);
#1657=APPLICATION_CONTEXT(
'Core Data for Automotive Mechanical Design Process');
#1658=PRODUCT_CONTEXT('part definition',#1657,'mechanical');
#1659=PRODUCT('basepcb.dwg','basepcb.dwg',$,(#1658));
#1660=PRESENTATION_STYLE_ASSIGNMENT((#1661));
#1661=SURFACE_STYLE_USAGE(.BOTH.,#1664);
#1662=SURFACE_STYLE_RENDERING_WITH_PROPERTIES($,#1668,(#1663));
#1663=SURFACE_STYLE_TRANSPARENT(0.);
#1664=SURFACE_SIDE_STYLE('',(#1665,#1662));
#1665=SURFACE_STYLE_FILL_AREA(#1666);
#1666=FILL_AREA_STYLE('',(#1667));
#1667=FILL_AREA_STYLE_COLOUR('',#1668);
#1668=COLOUR_RGB('',0.749019607843137,0.749019607843137,0.749019607843137);
ENDSEC;
END-ISO-10303-21;
