ISO-10303-21;
HEADER;
/* Generated by software containing ST-Developer
 * from STEP Tools, Inc. (www.steptools.com) 
 */

FILE_DESCRIPTION(
/* description */ (''),
/* implementation_level */ '2;1');

FILE_NAME(
/* name */ 'colortop.dwg.stp',
/* time_stamp */ '2026-04-10T23:52:28+07:00',
/* author */ ('Fork'),
/* organization */ (''),
/* preprocessor_version */ 'ST-DEVELOPER v20.1',
/* originating_system */ 'Autodesk Inventor 2026',
/* authorisation */ '');

FILE_SCHEMA (('AUTOMOTIVE_DESIGN { 1 0 10303 214 3 1 1 }'));
ENDSEC;

DATA;
#10=MECHANICAL_DESIGN_GEOMETRIC_PRESENTATION_REPRESENTATION('',(#13),#856);
#11=SHAPE_REPRESENTATION_RELATIONSHIP('SRR','None',#863,#12);
#12=ADVANCED_BREP_SHAPE_REPRESENTATION('',(#14),#855);
#13=STYLED_ITEM('',(#872),#14);
#14=MANIFOLD_SOLID_BREP('Solid1',#511);
#15=FACE_BOUND('',#78,.T.);
#16=FACE_BOUND('',#81,.T.);
#17=FACE_BOUND('',#106,.T.);
#18=FACE_BOUND('',#107,.T.);
#19=FACE_BOUND('',#109,.T.);
#20=FACE_BOUND('',#110,.T.);
#21=FACE_BOUND('',#111,.T.);
#22=FACE_BOUND('',#112,.T.);
#23=FACE_BOUND('',#113,.T.);
#24=PLANE('',#537);
#25=PLANE('',#542);
#26=PLANE('',#548);
#27=PLANE('',#549);
#28=PLANE('',#550);
#29=PLANE('',#551);
#30=PLANE('',#552);
#31=PLANE('',#553);
#32=PLANE('',#554);
#33=PLANE('',#555);
#34=PLANE('',#556);
#35=PLANE('',#557);
#36=PLANE('',#558);
#37=PLANE('',#559);
#38=PLANE('',#560);
#39=PLANE('',#561);
#40=PLANE('',#562);
#41=PLANE('',#563);
#42=PLANE('',#564);
#43=PLANE('',#568);
#44=PLANE('',#572);
#45=PLANE('',#573);
#46=PLANE('',#574);
#47=FACE_OUTER_BOUND('',#76,.T.);
#48=FACE_OUTER_BOUND('',#77,.T.);
#49=FACE_OUTER_BOUND('',#79,.T.);
#50=FACE_OUTER_BOUND('',#80,.T.);
#51=FACE_OUTER_BOUND('',#82,.T.);
#52=FACE_OUTER_BOUND('',#83,.T.);
#53=FACE_OUTER_BOUND('',#84,.T.);
#54=FACE_OUTER_BOUND('',#85,.T.);
#55=FACE_OUTER_BOUND('',#86,.T.);
#56=FACE_OUTER_BOUND('',#87,.T.);
#57=FACE_OUTER_BOUND('',#88,.T.);
#58=FACE_OUTER_BOUND('',#89,.T.);
#59=FACE_OUTER_BOUND('',#90,.T.);
#60=FACE_OUTER_BOUND('',#91,.T.);
#61=FACE_OUTER_BOUND('',#92,.T.);
#62=FACE_OUTER_BOUND('',#93,.T.);
#63=FACE_OUTER_BOUND('',#94,.T.);
#64=FACE_OUTER_BOUND('',#95,.T.);
#65=FACE_OUTER_BOUND('',#96,.T.);
#66=FACE_OUTER_BOUND('',#97,.T.);
#67=FACE_OUTER_BOUND('',#98,.T.);
#68=FACE_OUTER_BOUND('',#99,.T.);
#69=FACE_OUTER_BOUND('',#100,.T.);
#70=FACE_OUTER_BOUND('',#101,.T.);
#71=FACE_OUTER_BOUND('',#102,.T.);
#72=FACE_OUTER_BOUND('',#103,.T.);
#73=FACE_OUTER_BOUND('',#104,.T.);
#74=FACE_OUTER_BOUND('',#105,.T.);
#75=FACE_OUTER_BOUND('',#108,.T.);
#76=EDGE_LOOP('',(#344,#345,#346,#347));
#77=EDGE_LOOP('',(#348));
#78=EDGE_LOOP('',(#349));
#79=EDGE_LOOP('',(#350,#351,#352,#353));
#80=EDGE_LOOP('',(#354));
#81=EDGE_LOOP('',(#355));
#82=EDGE_LOOP('',(#356,#357,#358,#359));
#83=EDGE_LOOP('',(#360,#361,#362,#363));
#84=EDGE_LOOP('',(#364,#365,#366,#367));
#85=EDGE_LOOP('',(#368,#369,#370,#371));
#86=EDGE_LOOP('',(#372,#373,#374,#375));
#87=EDGE_LOOP('',(#376,#377,#378,#379));
#88=EDGE_LOOP('',(#380,#381,#382,#383));
#89=EDGE_LOOP('',(#384,#385,#386,#387));
#90=EDGE_LOOP('',(#388,#389,#390,#391));
#91=EDGE_LOOP('',(#392,#393,#394,#395));
#92=EDGE_LOOP('',(#396,#397,#398,#399));
#93=EDGE_LOOP('',(#400,#401,#402,#403));
#94=EDGE_LOOP('',(#404,#405,#406,#407));
#95=EDGE_LOOP('',(#408,#409,#410,#411));
#96=EDGE_LOOP('',(#412,#413,#414,#415));
#97=EDGE_LOOP('',(#416,#417,#418,#419));
#98=EDGE_LOOP('',(#420,#421,#422,#423));
#99=EDGE_LOOP('',(#424,#425,#426,#427));
#100=EDGE_LOOP('',(#428,#429,#430,#431));
#101=EDGE_LOOP('',(#432,#433,#434,#435));
#102=EDGE_LOOP('',(#436,#437,#438,#439));
#103=EDGE_LOOP('',(#440,#441,#442,#443));
#104=EDGE_LOOP('',(#444,#445,#446,#447));
#105=EDGE_LOOP('',(#448,#449,#450,#451,#452,#453));
#106=EDGE_LOOP('',(#454));
#107=EDGE_LOOP('',(#455));
#108=EDGE_LOOP('',(#456,#457,#458,#459,#460,#461));
#109=EDGE_LOOP('',(#462));
#110=EDGE_LOOP('',(#463));
#111=EDGE_LOOP('',(#464,#465,#466,#467));
#112=EDGE_LOOP('',(#468,#469,#470,#471));
#113=EDGE_LOOP('',(#472,#473,#474,#475));
#114=LINE('',#718,#168);
#115=LINE('',#727,#169);
#116=LINE('',#734,#170);
#117=LINE('',#738,#171);
#118=LINE('',#743,#172);
#119=LINE('',#745,#173);
#120=LINE('',#747,#174);
#121=LINE('',#748,#175);
#122=LINE('',#751,#176);
#123=LINE('',#753,#177);
#124=LINE('',#754,#178);
#125=LINE('',#757,#179);
#126=LINE('',#759,#180);
#127=LINE('',#760,#181);
#128=LINE('',#762,#182);
#129=LINE('',#763,#183);
#130=LINE('',#768,#184);
#131=LINE('',#770,#185);
#132=LINE('',#772,#186);
#133=LINE('',#773,#187);
#134=LINE('',#776,#188);
#135=LINE('',#778,#189);
#136=LINE('',#779,#190);
#137=LINE('',#782,#191);
#138=LINE('',#784,#192);
#139=LINE('',#785,#193);
#140=LINE('',#787,#194);
#141=LINE('',#788,#195);
#142=LINE('',#793,#196);
#143=LINE('',#795,#197);
#144=LINE('',#797,#198);
#145=LINE('',#798,#199);
#146=LINE('',#801,#200);
#147=LINE('',#803,#201);
#148=LINE('',#804,#202);
#149=LINE('',#807,#203);
#150=LINE('',#809,#204);
#151=LINE('',#810,#205);
#152=LINE('',#812,#206);
#153=LINE('',#813,#207);
#154=LINE('',#818,#208);
#155=LINE('',#820,#209);
#156=LINE('',#822,#210);
#157=LINE('',#823,#211);
#158=LINE('',#826,#212);
#159=LINE('',#828,#213);
#160=LINE('',#829,#214);
#161=LINE('',#835,#215);
#162=LINE('',#838,#216);
#163=LINE('',#840,#217);
#164=LINE('',#841,#218);
#165=LINE('',#847,#219);
#166=LINE('',#849,#220);
#167=LINE('',#850,#221);
#168=VECTOR('',#581,2.75);
#169=VECTOR('',#592,2.75);
#170=VECTOR('',#601,2.1);
#171=VECTOR('',#606,2.1);
#172=VECTOR('',#611,10.);
#173=VECTOR('',#612,10.);
#174=VECTOR('',#613,10.);
#175=VECTOR('',#614,10.);
#176=VECTOR('',#617,10.);
#177=VECTOR('',#618,10.);
#178=VECTOR('',#619,10.);
#179=VECTOR('',#622,10.);
#180=VECTOR('',#623,10.);
#181=VECTOR('',#624,10.);
#182=VECTOR('',#627,10.);
#183=VECTOR('',#628,10.);
#184=VECTOR('',#633,10.);
#185=VECTOR('',#634,10.);
#186=VECTOR('',#635,10.);
#187=VECTOR('',#636,10.);
#188=VECTOR('',#639,10.);
#189=VECTOR('',#640,10.);
#190=VECTOR('',#641,10.);
#191=VECTOR('',#644,10.);
#192=VECTOR('',#645,10.);
#193=VECTOR('',#646,10.);
#194=VECTOR('',#649,10.);
#195=VECTOR('',#650,10.);
#196=VECTOR('',#655,10.);
#197=VECTOR('',#656,10.);
#198=VECTOR('',#657,10.);
#199=VECTOR('',#658,10.);
#200=VECTOR('',#661,10.);
#201=VECTOR('',#662,10.);
#202=VECTOR('',#663,10.);
#203=VECTOR('',#666,10.);
#204=VECTOR('',#667,10.);
#205=VECTOR('',#668,10.);
#206=VECTOR('',#671,10.);
#207=VECTOR('',#672,10.);
#208=VECTOR('',#677,10.);
#209=VECTOR('',#678,10.);
#210=VECTOR('',#679,10.);
#211=VECTOR('',#680,10.);
#212=VECTOR('',#683,10.);
#213=VECTOR('',#684,10.);
#214=VECTOR('',#685,10.);
#215=VECTOR('',#692,10.);
#216=VECTOR('',#695,10.);
#217=VECTOR('',#696,10.);
#218=VECTOR('',#697,10.);
#219=VECTOR('',#704,10.);
#220=VECTOR('',#707,10.);
#221=VECTOR('',#708,10.);
#222=CIRCLE('',#535,2.75);
#223=CIRCLE('',#536,2.75);
#224=CIRCLE('',#538,2.1);
#225=CIRCLE('',#540,2.75);
#226=CIRCLE('',#541,2.75);
#227=CIRCLE('',#543,2.1);
#228=CIRCLE('',#545,2.1);
#229=CIRCLE('',#547,2.1);
#230=CIRCLE('',#566,5.);
#231=CIRCLE('',#567,5.);
#232=CIRCLE('',#570,5.);
#233=CIRCLE('',#571,5.);
#234=VERTEX_POINT('',#715);
#235=VERTEX_POINT('',#717);
#236=VERTEX_POINT('',#721);
#237=VERTEX_POINT('',#724);
#238=VERTEX_POINT('',#726);
#239=VERTEX_POINT('',#730);
#240=VERTEX_POINT('',#733);
#241=VERTEX_POINT('',#737);
#242=VERTEX_POINT('',#741);
#243=VERTEX_POINT('',#742);
#244=VERTEX_POINT('',#744);
#245=VERTEX_POINT('',#746);
#246=VERTEX_POINT('',#750);
#247=VERTEX_POINT('',#752);
#248=VERTEX_POINT('',#756);
#249=VERTEX_POINT('',#758);
#250=VERTEX_POINT('',#766);
#251=VERTEX_POINT('',#767);
#252=VERTEX_POINT('',#769);
#253=VERTEX_POINT('',#771);
#254=VERTEX_POINT('',#775);
#255=VERTEX_POINT('',#777);
#256=VERTEX_POINT('',#781);
#257=VERTEX_POINT('',#783);
#258=VERTEX_POINT('',#791);
#259=VERTEX_POINT('',#792);
#260=VERTEX_POINT('',#794);
#261=VERTEX_POINT('',#796);
#262=VERTEX_POINT('',#800);
#263=VERTEX_POINT('',#802);
#264=VERTEX_POINT('',#806);
#265=VERTEX_POINT('',#808);
#266=VERTEX_POINT('',#816);
#267=VERTEX_POINT('',#817);
#268=VERTEX_POINT('',#819);
#269=VERTEX_POINT('',#821);
#270=VERTEX_POINT('',#825);
#271=VERTEX_POINT('',#827);
#272=VERTEX_POINT('',#831);
#273=VERTEX_POINT('',#833);
#274=VERTEX_POINT('',#837);
#275=VERTEX_POINT('',#839);
#276=VERTEX_POINT('',#843);
#277=VERTEX_POINT('',#845);
#278=EDGE_CURVE('',#234,#234,#222,.T.);
#279=EDGE_CURVE('',#234,#235,#114,.T.);
#280=EDGE_CURVE('',#235,#235,#223,.T.);
#281=EDGE_CURVE('',#236,#236,#224,.T.);
#282=EDGE_CURVE('',#237,#237,#225,.T.);
#283=EDGE_CURVE('',#237,#238,#115,.T.);
#284=EDGE_CURVE('',#238,#238,#226,.T.);
#285=EDGE_CURVE('',#239,#239,#227,.T.);
#286=EDGE_CURVE('',#236,#240,#116,.T.);
#287=EDGE_CURVE('',#240,#240,#228,.T.);
#288=EDGE_CURVE('',#239,#241,#117,.T.);
#289=EDGE_CURVE('',#241,#241,#229,.T.);
#290=EDGE_CURVE('',#242,#243,#118,.T.);
#291=EDGE_CURVE('',#242,#244,#119,.T.);
#292=EDGE_CURVE('',#245,#244,#120,.T.);
#293=EDGE_CURVE('',#243,#245,#121,.T.);
#294=EDGE_CURVE('',#243,#246,#122,.T.);
#295=EDGE_CURVE('',#247,#245,#123,.T.);
#296=EDGE_CURVE('',#246,#247,#124,.T.);
#297=EDGE_CURVE('',#246,#248,#125,.T.);
#298=EDGE_CURVE('',#249,#247,#126,.T.);
#299=EDGE_CURVE('',#248,#249,#127,.T.);
#300=EDGE_CURVE('',#248,#242,#128,.T.);
#301=EDGE_CURVE('',#244,#249,#129,.T.);
#302=EDGE_CURVE('',#250,#251,#130,.T.);
#303=EDGE_CURVE('',#250,#252,#131,.T.);
#304=EDGE_CURVE('',#253,#252,#132,.T.);
#305=EDGE_CURVE('',#251,#253,#133,.T.);
#306=EDGE_CURVE('',#251,#254,#134,.T.);
#307=EDGE_CURVE('',#255,#253,#135,.T.);
#308=EDGE_CURVE('',#254,#255,#136,.T.);
#309=EDGE_CURVE('',#254,#256,#137,.T.);
#310=EDGE_CURVE('',#257,#255,#138,.T.);
#311=EDGE_CURVE('',#256,#257,#139,.T.);
#312=EDGE_CURVE('',#256,#250,#140,.T.);
#313=EDGE_CURVE('',#252,#257,#141,.T.);
#314=EDGE_CURVE('',#258,#259,#142,.T.);
#315=EDGE_CURVE('',#258,#260,#143,.T.);
#316=EDGE_CURVE('',#261,#260,#144,.T.);
#317=EDGE_CURVE('',#259,#261,#145,.T.);
#318=EDGE_CURVE('',#259,#262,#146,.T.);
#319=EDGE_CURVE('',#263,#261,#147,.T.);
#320=EDGE_CURVE('',#262,#263,#148,.T.);
#321=EDGE_CURVE('',#262,#264,#149,.T.);
#322=EDGE_CURVE('',#265,#263,#150,.T.);
#323=EDGE_CURVE('',#264,#265,#151,.T.);
#324=EDGE_CURVE('',#264,#258,#152,.T.);
#325=EDGE_CURVE('',#260,#265,#153,.T.);
#326=EDGE_CURVE('',#266,#267,#154,.T.);
#327=EDGE_CURVE('',#267,#268,#155,.T.);
#328=EDGE_CURVE('',#269,#268,#156,.T.);
#329=EDGE_CURVE('',#266,#269,#157,.T.);
#330=EDGE_CURVE('',#270,#266,#158,.T.);
#331=EDGE_CURVE('',#271,#269,#159,.T.);
#332=EDGE_CURVE('',#270,#271,#160,.T.);
#333=EDGE_CURVE('',#272,#270,#230,.T.);
#334=EDGE_CURVE('',#273,#271,#231,.T.);
#335=EDGE_CURVE('',#272,#273,#161,.T.);
#336=EDGE_CURVE('',#274,#272,#162,.T.);
#337=EDGE_CURVE('',#275,#273,#163,.T.);
#338=EDGE_CURVE('',#274,#275,#164,.T.);
#339=EDGE_CURVE('',#276,#274,#232,.T.);
#340=EDGE_CURVE('',#277,#275,#233,.T.);
#341=EDGE_CURVE('',#276,#277,#165,.T.);
#342=EDGE_CURVE('',#267,#276,#166,.T.);
#343=EDGE_CURVE('',#268,#277,#167,.T.);
#344=ORIENTED_EDGE('',*,*,#278,.F.);
#345=ORIENTED_EDGE('',*,*,#279,.T.);
#346=ORIENTED_EDGE('',*,*,#280,.T.);
#347=ORIENTED_EDGE('',*,*,#279,.F.);
#348=ORIENTED_EDGE('',*,*,#280,.F.);
#349=ORIENTED_EDGE('',*,*,#281,.F.);
#350=ORIENTED_EDGE('',*,*,#282,.F.);
#351=ORIENTED_EDGE('',*,*,#283,.T.);
#352=ORIENTED_EDGE('',*,*,#284,.T.);
#353=ORIENTED_EDGE('',*,*,#283,.F.);
#354=ORIENTED_EDGE('',*,*,#284,.F.);
#355=ORIENTED_EDGE('',*,*,#285,.F.);
#356=ORIENTED_EDGE('',*,*,#281,.T.);
#357=ORIENTED_EDGE('',*,*,#286,.T.);
#358=ORIENTED_EDGE('',*,*,#287,.F.);
#359=ORIENTED_EDGE('',*,*,#286,.F.);
#360=ORIENTED_EDGE('',*,*,#285,.T.);
#361=ORIENTED_EDGE('',*,*,#288,.T.);
#362=ORIENTED_EDGE('',*,*,#289,.F.);
#363=ORIENTED_EDGE('',*,*,#288,.F.);
#364=ORIENTED_EDGE('',*,*,#290,.F.);
#365=ORIENTED_EDGE('',*,*,#291,.T.);
#366=ORIENTED_EDGE('',*,*,#292,.F.);
#367=ORIENTED_EDGE('',*,*,#293,.F.);
#368=ORIENTED_EDGE('',*,*,#294,.F.);
#369=ORIENTED_EDGE('',*,*,#293,.T.);
#370=ORIENTED_EDGE('',*,*,#295,.F.);
#371=ORIENTED_EDGE('',*,*,#296,.F.);
#372=ORIENTED_EDGE('',*,*,#297,.F.);
#373=ORIENTED_EDGE('',*,*,#296,.T.);
#374=ORIENTED_EDGE('',*,*,#298,.F.);
#375=ORIENTED_EDGE('',*,*,#299,.F.);
#376=ORIENTED_EDGE('',*,*,#300,.F.);
#377=ORIENTED_EDGE('',*,*,#299,.T.);
#378=ORIENTED_EDGE('',*,*,#301,.F.);
#379=ORIENTED_EDGE('',*,*,#291,.F.);
#380=ORIENTED_EDGE('',*,*,#301,.T.);
#381=ORIENTED_EDGE('',*,*,#298,.T.);
#382=ORIENTED_EDGE('',*,*,#295,.T.);
#383=ORIENTED_EDGE('',*,*,#292,.T.);
#384=ORIENTED_EDGE('',*,*,#302,.F.);
#385=ORIENTED_EDGE('',*,*,#303,.T.);
#386=ORIENTED_EDGE('',*,*,#304,.F.);
#387=ORIENTED_EDGE('',*,*,#305,.F.);
#388=ORIENTED_EDGE('',*,*,#306,.F.);
#389=ORIENTED_EDGE('',*,*,#305,.T.);
#390=ORIENTED_EDGE('',*,*,#307,.F.);
#391=ORIENTED_EDGE('',*,*,#308,.F.);
#392=ORIENTED_EDGE('',*,*,#309,.F.);
#393=ORIENTED_EDGE('',*,*,#308,.T.);
#394=ORIENTED_EDGE('',*,*,#310,.F.);
#395=ORIENTED_EDGE('',*,*,#311,.F.);
#396=ORIENTED_EDGE('',*,*,#312,.F.);
#397=ORIENTED_EDGE('',*,*,#311,.T.);
#398=ORIENTED_EDGE('',*,*,#313,.F.);
#399=ORIENTED_EDGE('',*,*,#303,.F.);
#400=ORIENTED_EDGE('',*,*,#313,.T.);
#401=ORIENTED_EDGE('',*,*,#310,.T.);
#402=ORIENTED_EDGE('',*,*,#307,.T.);
#403=ORIENTED_EDGE('',*,*,#304,.T.);
#404=ORIENTED_EDGE('',*,*,#314,.F.);
#405=ORIENTED_EDGE('',*,*,#315,.T.);
#406=ORIENTED_EDGE('',*,*,#316,.F.);
#407=ORIENTED_EDGE('',*,*,#317,.F.);
#408=ORIENTED_EDGE('',*,*,#318,.F.);
#409=ORIENTED_EDGE('',*,*,#317,.T.);
#410=ORIENTED_EDGE('',*,*,#319,.F.);
#411=ORIENTED_EDGE('',*,*,#320,.F.);
#412=ORIENTED_EDGE('',*,*,#321,.F.);
#413=ORIENTED_EDGE('',*,*,#320,.T.);
#414=ORIENTED_EDGE('',*,*,#322,.F.);
#415=ORIENTED_EDGE('',*,*,#323,.F.);
#416=ORIENTED_EDGE('',*,*,#324,.F.);
#417=ORIENTED_EDGE('',*,*,#323,.T.);
#418=ORIENTED_EDGE('',*,*,#325,.F.);
#419=ORIENTED_EDGE('',*,*,#315,.F.);
#420=ORIENTED_EDGE('',*,*,#325,.T.);
#421=ORIENTED_EDGE('',*,*,#322,.T.);
#422=ORIENTED_EDGE('',*,*,#319,.T.);
#423=ORIENTED_EDGE('',*,*,#316,.T.);
#424=ORIENTED_EDGE('',*,*,#326,.T.);
#425=ORIENTED_EDGE('',*,*,#327,.T.);
#426=ORIENTED_EDGE('',*,*,#328,.F.);
#427=ORIENTED_EDGE('',*,*,#329,.F.);
#428=ORIENTED_EDGE('',*,*,#330,.T.);
#429=ORIENTED_EDGE('',*,*,#329,.T.);
#430=ORIENTED_EDGE('',*,*,#331,.F.);
#431=ORIENTED_EDGE('',*,*,#332,.F.);
#432=ORIENTED_EDGE('',*,*,#333,.T.);
#433=ORIENTED_EDGE('',*,*,#332,.T.);
#434=ORIENTED_EDGE('',*,*,#334,.F.);
#435=ORIENTED_EDGE('',*,*,#335,.F.);
#436=ORIENTED_EDGE('',*,*,#336,.T.);
#437=ORIENTED_EDGE('',*,*,#335,.T.);
#438=ORIENTED_EDGE('',*,*,#337,.F.);
#439=ORIENTED_EDGE('',*,*,#338,.F.);
#440=ORIENTED_EDGE('',*,*,#339,.T.);
#441=ORIENTED_EDGE('',*,*,#338,.T.);
#442=ORIENTED_EDGE('',*,*,#340,.F.);
#443=ORIENTED_EDGE('',*,*,#341,.F.);
#444=ORIENTED_EDGE('',*,*,#342,.T.);
#445=ORIENTED_EDGE('',*,*,#341,.T.);
#446=ORIENTED_EDGE('',*,*,#343,.F.);
#447=ORIENTED_EDGE('',*,*,#327,.F.);
#448=ORIENTED_EDGE('',*,*,#343,.T.);
#449=ORIENTED_EDGE('',*,*,#340,.T.);
#450=ORIENTED_EDGE('',*,*,#337,.T.);
#451=ORIENTED_EDGE('',*,*,#334,.T.);
#452=ORIENTED_EDGE('',*,*,#331,.T.);
#453=ORIENTED_EDGE('',*,*,#328,.T.);
#454=ORIENTED_EDGE('',*,*,#278,.T.);
#455=ORIENTED_EDGE('',*,*,#282,.T.);
#456=ORIENTED_EDGE('',*,*,#342,.F.);
#457=ORIENTED_EDGE('',*,*,#326,.F.);
#458=ORIENTED_EDGE('',*,*,#330,.F.);
#459=ORIENTED_EDGE('',*,*,#333,.F.);
#460=ORIENTED_EDGE('',*,*,#336,.F.);
#461=ORIENTED_EDGE('',*,*,#339,.F.);
#462=ORIENTED_EDGE('',*,*,#287,.T.);
#463=ORIENTED_EDGE('',*,*,#289,.T.);
#464=ORIENTED_EDGE('',*,*,#290,.T.);
#465=ORIENTED_EDGE('',*,*,#294,.T.);
#466=ORIENTED_EDGE('',*,*,#297,.T.);
#467=ORIENTED_EDGE('',*,*,#300,.T.);
#468=ORIENTED_EDGE('',*,*,#302,.T.);
#469=ORIENTED_EDGE('',*,*,#306,.T.);
#470=ORIENTED_EDGE('',*,*,#309,.T.);
#471=ORIENTED_EDGE('',*,*,#312,.T.);
#472=ORIENTED_EDGE('',*,*,#314,.T.);
#473=ORIENTED_EDGE('',*,*,#318,.T.);
#474=ORIENTED_EDGE('',*,*,#321,.T.);
#475=ORIENTED_EDGE('',*,*,#324,.T.);
#476=CYLINDRICAL_SURFACE('',#534,2.75);
#477=CYLINDRICAL_SURFACE('',#539,2.75);
#478=CYLINDRICAL_SURFACE('',#544,2.1);
#479=CYLINDRICAL_SURFACE('',#546,2.1);
#480=CYLINDRICAL_SURFACE('',#565,5.);
#481=CYLINDRICAL_SURFACE('',#569,5.);
#482=ADVANCED_FACE('',(#47),#476,.F.);
#483=ADVANCED_FACE('',(#48,#15),#24,.T.);
#484=ADVANCED_FACE('',(#49),#477,.F.);
#485=ADVANCED_FACE('',(#50,#16),#25,.T.);
#486=ADVANCED_FACE('',(#51),#478,.F.);
#487=ADVANCED_FACE('',(#52),#479,.F.);
#488=ADVANCED_FACE('',(#53),#26,.T.);
#489=ADVANCED_FACE('',(#54),#27,.T.);
#490=ADVANCED_FACE('',(#55),#28,.T.);
#491=ADVANCED_FACE('',(#56),#29,.T.);
#492=ADVANCED_FACE('',(#57),#30,.T.);
#493=ADVANCED_FACE('',(#58),#31,.T.);
#494=ADVANCED_FACE('',(#59),#32,.T.);
#495=ADVANCED_FACE('',(#60),#33,.T.);
#496=ADVANCED_FACE('',(#61),#34,.T.);
#497=ADVANCED_FACE('',(#62),#35,.T.);
#498=ADVANCED_FACE('',(#63),#36,.T.);
#499=ADVANCED_FACE('',(#64),#37,.T.);
#500=ADVANCED_FACE('',(#65),#38,.T.);
#501=ADVANCED_FACE('',(#66),#39,.T.);
#502=ADVANCED_FACE('',(#67),#40,.T.);
#503=ADVANCED_FACE('',(#68),#41,.T.);
#504=ADVANCED_FACE('',(#69),#42,.T.);
#505=ADVANCED_FACE('',(#70),#480,.T.);
#506=ADVANCED_FACE('',(#71),#43,.T.);
#507=ADVANCED_FACE('',(#72),#481,.T.);
#508=ADVANCED_FACE('',(#73),#44,.T.);
#509=ADVANCED_FACE('',(#74,#17,#18),#45,.T.);
#510=ADVANCED_FACE('',(#75,#19,#20,#21,#22,#23),#46,.F.);
#511=CLOSED_SHELL('',(#482,#483,#484,#485,#486,#487,#488,#489,#490,#491,
#492,#493,#494,#495,#496,#497,#498,#499,#500,#501,#502,#503,#504,#505,#506,
#507,#508,#509,#510));
#512=DERIVED_UNIT_ELEMENT(#515,1.);
#513=DERIVED_UNIT_ELEMENT(#858,-3.);
#514=DIMENSIONAL_EXPONENTS(0.,1.,0.,0.,0.,0.,0.);
#515=(
CONVERSION_BASED_UNIT('gram',#517)
MASS_UNIT()
NAMED_UNIT(#514)
);
#516=(
MASS_UNIT()
NAMED_UNIT(*)
SI_UNIT(.KILO.,.GRAM.)
);
#517=MASS_MEASURE_WITH_UNIT(MASS_MEASURE(0.001),#516);
#518=DERIVED_UNIT((#512,#513));
#519=MEASURE_REPRESENTATION_ITEM('density measure',
POSITIVE_RATIO_MEASURE(1.),#518);
#520=PROPERTY_DEFINITION_REPRESENTATION(#525,#522);
#521=PROPERTY_DEFINITION_REPRESENTATION(#526,#523);
#522=REPRESENTATION('material name',(#524),#855);
#523=REPRESENTATION('density',(#519),#855);
#524=DESCRIPTIVE_REPRESENTATION_ITEM('Generic','Generic');
#525=PROPERTY_DEFINITION('material property','material name',#865);
#526=PROPERTY_DEFINITION('material property','density of part',#865);
#527=DATE_TIME_ROLE('creation_date');
#528=APPLIED_DATE_AND_TIME_ASSIGNMENT(#529,#527,(#865));
#529=DATE_AND_TIME(#530,#531);
#530=CALENDAR_DATE(2026,10,4);
#531=LOCAL_TIME(0,0,0.,#532);
#532=COORDINATED_UNIVERSAL_TIME_OFFSET(0,0,.BEHIND.);
#533=AXIS2_PLACEMENT_3D('',#713,#575,#576);
#534=AXIS2_PLACEMENT_3D('',#714,#577,#578);
#535=AXIS2_PLACEMENT_3D('',#716,#579,#580);
#536=AXIS2_PLACEMENT_3D('',#719,#582,#583);
#537=AXIS2_PLACEMENT_3D('',#720,#584,#585);
#538=AXIS2_PLACEMENT_3D('',#722,#586,#587);
#539=AXIS2_PLACEMENT_3D('',#723,#588,#589);
#540=AXIS2_PLACEMENT_3D('',#725,#590,#591);
#541=AXIS2_PLACEMENT_3D('',#728,#593,#594);
#542=AXIS2_PLACEMENT_3D('',#729,#595,#596);
#543=AXIS2_PLACEMENT_3D('',#731,#597,#598);
#544=AXIS2_PLACEMENT_3D('',#732,#599,#600);
#545=AXIS2_PLACEMENT_3D('',#735,#602,#603);
#546=AXIS2_PLACEMENT_3D('',#736,#604,#605);
#547=AXIS2_PLACEMENT_3D('',#739,#607,#608);
#548=AXIS2_PLACEMENT_3D('',#740,#609,#610);
#549=AXIS2_PLACEMENT_3D('',#749,#615,#616);
#550=AXIS2_PLACEMENT_3D('',#755,#620,#621);
#551=AXIS2_PLACEMENT_3D('',#761,#625,#626);
#552=AXIS2_PLACEMENT_3D('',#764,#629,#630);
#553=AXIS2_PLACEMENT_3D('',#765,#631,#632);
#554=AXIS2_PLACEMENT_3D('',#774,#637,#638);
#555=AXIS2_PLACEMENT_3D('',#780,#642,#643);
#556=AXIS2_PLACEMENT_3D('',#786,#647,#648);
#557=AXIS2_PLACEMENT_3D('',#789,#651,#652);
#558=AXIS2_PLACEMENT_3D('',#790,#653,#654);
#559=AXIS2_PLACEMENT_3D('',#799,#659,#660);
#560=AXIS2_PLACEMENT_3D('',#805,#664,#665);
#561=AXIS2_PLACEMENT_3D('',#811,#669,#670);
#562=AXIS2_PLACEMENT_3D('',#814,#673,#674);
#563=AXIS2_PLACEMENT_3D('',#815,#675,#676);
#564=AXIS2_PLACEMENT_3D('',#824,#681,#682);
#565=AXIS2_PLACEMENT_3D('',#830,#686,#687);
#566=AXIS2_PLACEMENT_3D('',#832,#688,#689);
#567=AXIS2_PLACEMENT_3D('',#834,#690,#691);
#568=AXIS2_PLACEMENT_3D('',#836,#693,#694);
#569=AXIS2_PLACEMENT_3D('',#842,#698,#699);
#570=AXIS2_PLACEMENT_3D('',#844,#700,#701);
#571=AXIS2_PLACEMENT_3D('',#846,#702,#703);
#572=AXIS2_PLACEMENT_3D('',#848,#705,#706);
#573=AXIS2_PLACEMENT_3D('',#851,#709,#710);
#574=AXIS2_PLACEMENT_3D('',#852,#711,#712);
#575=DIRECTION('axis',(0.,0.,1.));
#576=DIRECTION('refdir',(1.,0.,0.));
#577=DIRECTION('center_axis',(0.,0.,-1.));
#578=DIRECTION('ref_axis',(1.,0.,0.));
#579=DIRECTION('center_axis',(0.,0.,-1.));
#580=DIRECTION('ref_axis',(1.,0.,0.));
#581=DIRECTION('',(0.,0.,-1.));
#582=DIRECTION('center_axis',(0.,0.,-1.));
#583=DIRECTION('ref_axis',(1.,0.,0.));
#584=DIRECTION('center_axis',(0.,0.,1.));
#585=DIRECTION('ref_axis',(1.,0.,0.));
#586=DIRECTION('center_axis',(0.,0.,1.));
#587=DIRECTION('ref_axis',(1.,0.,0.));
#588=DIRECTION('center_axis',(0.,0.,-1.));
#589=DIRECTION('ref_axis',(1.,0.,0.));
#590=DIRECTION('center_axis',(0.,0.,-1.));
#591=DIRECTION('ref_axis',(1.,0.,0.));
#592=DIRECTION('',(0.,0.,-1.));
#593=DIRECTION('center_axis',(0.,0.,-1.));
#594=DIRECTION('ref_axis',(1.,0.,0.));
#595=DIRECTION('center_axis',(0.,0.,1.));
#596=DIRECTION('ref_axis',(1.,0.,0.));
#597=DIRECTION('center_axis',(0.,0.,1.));
#598=DIRECTION('ref_axis',(1.,0.,0.));
#599=DIRECTION('center_axis',(0.,0.,-1.));
#600=DIRECTION('ref_axis',(1.,0.,0.));
#601=DIRECTION('',(0.,0.,-1.));
#602=DIRECTION('center_axis',(0.,0.,1.));
#603=DIRECTION('ref_axis',(1.,0.,0.));
#604=DIRECTION('center_axis',(0.,0.,-1.));
#605=DIRECTION('ref_axis',(1.,0.,0.));
#606=DIRECTION('',(0.,0.,-1.));
#607=DIRECTION('center_axis',(0.,0.,1.));
#608=DIRECTION('ref_axis',(1.,0.,0.));
#609=DIRECTION('center_axis',(0.,-1.,0.));
#610=DIRECTION('ref_axis',(-1.,0.,0.));
#611=DIRECTION('',(1.,0.,0.));
#612=DIRECTION('',(0.,0.,-1.));
#613=DIRECTION('',(-1.,0.,0.));
#614=DIRECTION('',(0.,0.,-1.));
#615=DIRECTION('center_axis',(1.,0.,0.));
#616=DIRECTION('ref_axis',(0.,-1.,0.));
#617=DIRECTION('',(0.,1.,0.));
#618=DIRECTION('',(0.,-1.,0.));
#619=DIRECTION('',(0.,0.,-1.));
#620=DIRECTION('center_axis',(2.28323501208429E-16,1.,0.));
#621=DIRECTION('ref_axis',(1.,-2.28323501208429E-16,0.));
#622=DIRECTION('',(-1.,2.28323501208429E-16,0.));
#623=DIRECTION('',(1.,-2.28323501208429E-16,0.));
#624=DIRECTION('',(0.,0.,-1.));
#625=DIRECTION('center_axis',(-1.,0.,0.));
#626=DIRECTION('ref_axis',(0.,1.,0.));
#627=DIRECTION('',(0.,-1.,0.));
#628=DIRECTION('',(0.,1.,0.));
#629=DIRECTION('center_axis',(0.,0.,-1.));
#630=DIRECTION('ref_axis',(-1.,0.,0.));
#631=DIRECTION('center_axis',(0.,-1.,0.));
#632=DIRECTION('ref_axis',(-1.,0.,0.));
#633=DIRECTION('',(1.,0.,0.));
#634=DIRECTION('',(0.,0.,-1.));
#635=DIRECTION('',(-1.,0.,0.));
#636=DIRECTION('',(0.,0.,-1.));
#637=DIRECTION('center_axis',(1.,0.,0.));
#638=DIRECTION('ref_axis',(0.,-1.,0.));
#639=DIRECTION('',(0.,1.,0.));
#640=DIRECTION('',(0.,-1.,0.));
#641=DIRECTION('',(0.,0.,-1.));
#642=DIRECTION('center_axis',(2.28323501208429E-16,1.,0.));
#643=DIRECTION('ref_axis',(1.,-2.28323501208429E-16,0.));
#644=DIRECTION('',(-1.,2.28323501208429E-16,0.));
#645=DIRECTION('',(1.,-2.28323501208429E-16,0.));
#646=DIRECTION('',(0.,0.,-1.));
#647=DIRECTION('center_axis',(-1.,0.,0.));
#648=DIRECTION('ref_axis',(0.,1.,0.));
#649=DIRECTION('',(0.,-1.,0.));
#650=DIRECTION('',(0.,1.,0.));
#651=DIRECTION('center_axis',(0.,0.,-1.));
#652=DIRECTION('ref_axis',(-1.,0.,0.));
#653=DIRECTION('center_axis',(0.,-1.,0.));
#654=DIRECTION('ref_axis',(-1.,0.,0.));
#655=DIRECTION('',(1.,0.,0.));
#656=DIRECTION('',(0.,0.,-1.));
#657=DIRECTION('',(-1.,0.,0.));
#658=DIRECTION('',(0.,0.,-1.));
#659=DIRECTION('center_axis',(1.,-2.64838656056039E-11,0.));
#660=DIRECTION('ref_axis',(-2.64838656056039E-11,-1.,0.));
#661=DIRECTION('',(2.64838656056039E-11,1.,0.));
#662=DIRECTION('',(-2.64838656056039E-11,-1.,0.));
#663=DIRECTION('',(0.,0.,-1.));
#664=DIRECTION('center_axis',(0.,1.,0.));
#665=DIRECTION('ref_axis',(1.,0.,0.));
#666=DIRECTION('',(-1.,0.,0.));
#667=DIRECTION('',(1.,0.,0.));
#668=DIRECTION('',(0.,0.,-1.));
#669=DIRECTION('center_axis',(-1.,-2.64354195099839E-11,0.));
#670=DIRECTION('ref_axis',(-2.64354195099839E-11,1.,0.));
#671=DIRECTION('',(2.64354195099839E-11,-1.,0.));
#672=DIRECTION('',(-2.64354195099839E-11,1.,0.));
#673=DIRECTION('center_axis',(0.,0.,-1.));
#674=DIRECTION('ref_axis',(-1.,0.,0.));
#675=DIRECTION('center_axis',(2.16628882853689E-16,-1.,0.));
#676=DIRECTION('ref_axis',(1.,2.16628882853689E-16,0.));
#677=DIRECTION('',(1.,2.16628882853689E-16,0.));
#678=DIRECTION('',(0.,0.,1.));
#679=DIRECTION('',(1.,2.16628882853689E-16,0.));
#680=DIRECTION('',(0.,0.,1.));
#681=DIRECTION('center_axis',(-1.,-2.32203508418333E-16,0.));
#682=DIRECTION('ref_axis',(2.32203508418333E-16,-1.,0.));
#683=DIRECTION('',(2.32203508418333E-16,-1.,0.));
#684=DIRECTION('',(2.32203508418333E-16,-1.,0.));
#685=DIRECTION('',(0.,0.,1.));
#686=DIRECTION('center_axis',(0.,0.,1.));
#687=DIRECTION('ref_axis',(0.,1.,0.));
#688=DIRECTION('center_axis',(0.,0.,1.));
#689=DIRECTION('ref_axis',(0.,1.,0.));
#690=DIRECTION('center_axis',(0.,0.,1.));
#691=DIRECTION('ref_axis',(0.,1.,0.));
#692=DIRECTION('',(0.,0.,1.));
#693=DIRECTION('center_axis',(0.,1.,0.));
#694=DIRECTION('ref_axis',(-1.,0.,0.));
#695=DIRECTION('',(-1.,0.,0.));
#696=DIRECTION('',(-1.,0.,0.));
#697=DIRECTION('',(0.,0.,1.));
#698=DIRECTION('center_axis',(0.,0.,1.));
#699=DIRECTION('ref_axis',(1.,3.55271367880051E-15,0.));
#700=DIRECTION('center_axis',(0.,0.,1.));
#701=DIRECTION('ref_axis',(1.,3.55271367880051E-15,0.));
#702=DIRECTION('center_axis',(0.,0.,1.));
#703=DIRECTION('ref_axis',(1.,3.55271367880051E-15,0.));
#704=DIRECTION('',(0.,0.,1.));
#705=DIRECTION('center_axis',(1.,1.16101754209167E-16,0.));
#706=DIRECTION('ref_axis',(-1.16101754209167E-16,1.,0.));
#707=DIRECTION('',(-1.16101754209167E-16,1.,0.));
#708=DIRECTION('',(-1.16101754209167E-16,1.,0.));
#709=DIRECTION('center_axis',(0.,0.,1.));
#710=DIRECTION('ref_axis',(1.,0.,0.));
#711=DIRECTION('center_axis',(0.,0.,1.));
#712=DIRECTION('ref_axis',(1.,0.,0.));
#713=CARTESIAN_POINT('',(0.,0.,0.));
#714=CARTESIAN_POINT('Origin',(-36.4999999999709,81.500000000032,2.));
#715=CARTESIAN_POINT('',(-39.2499999999709,81.500000000032,2.));
#716=CARTESIAN_POINT('Origin',(-36.4999999999709,81.500000000032,2.));
#717=CARTESIAN_POINT('',(-39.2499999999709,81.500000000032,1.));
#718=CARTESIAN_POINT('',(-39.2499999999709,81.500000000032,2.));
#719=CARTESIAN_POINT('Origin',(-36.4999999999709,81.500000000032,1.));
#720=CARTESIAN_POINT('Origin',(-36.4999999999709,81.500000000032,1.));
#721=CARTESIAN_POINT('',(-38.5999999999709,81.500000000032,1.));
#722=CARTESIAN_POINT('Origin',(-36.4999999999709,81.500000000032,1.));
#723=CARTESIAN_POINT('Origin',(36.4999999999709,81.500000000032,2.));
#724=CARTESIAN_POINT('',(33.7499999999709,81.500000000032,2.));
#725=CARTESIAN_POINT('Origin',(36.4999999999709,81.500000000032,2.));
#726=CARTESIAN_POINT('',(33.7499999999709,81.500000000032,1.));
#727=CARTESIAN_POINT('',(33.7499999999709,81.500000000032,2.));
#728=CARTESIAN_POINT('Origin',(36.4999999999709,81.500000000032,1.));
#729=CARTESIAN_POINT('Origin',(36.4999999999709,81.500000000032,1.));
#730=CARTESIAN_POINT('',(34.3999999999709,81.500000000032,1.));
#731=CARTESIAN_POINT('Origin',(36.4999999999709,81.500000000032,1.));
#732=CARTESIAN_POINT('Origin',(-36.4999999999709,81.500000000032,2.));
#733=CARTESIAN_POINT('',(-38.5999999999709,81.500000000032,0.));
#734=CARTESIAN_POINT('',(-38.5999999999709,81.500000000032,2.));
#735=CARTESIAN_POINT('Origin',(-36.4999999999709,81.500000000032,0.));
#736=CARTESIAN_POINT('Origin',(36.4999999999709,81.500000000032,2.));
#737=CARTESIAN_POINT('',(34.3999999999709,81.500000000032,0.));
#738=CARTESIAN_POINT('',(34.3999999999709,81.500000000032,2.));
#739=CARTESIAN_POINT('Origin',(36.4999999999709,81.500000000032,0.));
#740=CARTESIAN_POINT('Origin',(38.899999999971,73.0500000000669,0.));
#741=CARTESIAN_POINT('',(37.899999999971,73.0500000000669,0.));
#742=CARTESIAN_POINT('',(38.899999999971,73.0500000000669,0.));
#743=CARTESIAN_POINT('',(19.4499999999855,73.0500000000669,0.));
#744=CARTESIAN_POINT('',(37.899999999971,73.0500000000669,-3.));
#745=CARTESIAN_POINT('',(37.899999999971,73.0500000000669,0.));
#746=CARTESIAN_POINT('',(38.899999999971,73.0500000000669,-3.));
#747=CARTESIAN_POINT('',(38.899999999971,73.0500000000669,-3.));
#748=CARTESIAN_POINT('',(38.899999999971,73.0500000000669,0.));
#749=CARTESIAN_POINT('Origin',(38.899999999971,77.0499999999971,0.));
#750=CARTESIAN_POINT('',(38.8999999999709,77.0499999999971,0.));
#751=CARTESIAN_POINT('',(38.899999999971,79.3249999999986,0.));
#752=CARTESIAN_POINT('',(38.8999999999709,77.0499999999971,-3.));
#753=CARTESIAN_POINT('',(38.899999999971,84.9499999999534,-3.));
#754=CARTESIAN_POINT('',(38.8999999999709,77.0499999999971,0.));
#755=CARTESIAN_POINT('Origin',(37.899999999971,77.0499999999971,0.));
#756=CARTESIAN_POINT('',(37.899999999971,77.0499999999971,0.));
#757=CARTESIAN_POINT('',(18.9499999999855,77.0499999999971,0.));
#758=CARTESIAN_POINT('',(37.899999999971,77.0499999999971,-3.));
#759=CARTESIAN_POINT('',(-38.8999999999709,77.0499999999971,-3.));
#760=CARTESIAN_POINT('',(37.899999999971,77.0499999999971,0.));
#761=CARTESIAN_POINT('Origin',(37.899999999971,73.0500000000669,0.));
#762=CARTESIAN_POINT('',(37.899999999971,77.3250000000335,0.));
#763=CARTESIAN_POINT('',(37.899999999971,73.0500000000669,-3.));
#764=CARTESIAN_POINT('Origin',(38.399999999971,75.050000000032,-3.));
#765=CARTESIAN_POINT('Origin',(-37.8999999999709,73.050000000067,0.));
#766=CARTESIAN_POINT('',(-38.8999999999709,73.050000000067,0.));
#767=CARTESIAN_POINT('',(-37.8999999999709,73.050000000067,0.));
#768=CARTESIAN_POINT('',(-18.9499999999855,73.0500000000669,0.));
#769=CARTESIAN_POINT('',(-38.8999999999709,73.050000000067,-3.));
#770=CARTESIAN_POINT('',(-38.8999999999709,73.050000000067,0.));
#771=CARTESIAN_POINT('',(-37.8999999999709,73.050000000067,-3.));
#772=CARTESIAN_POINT('',(-37.8999999999709,73.050000000067,-3.));
#773=CARTESIAN_POINT('',(-37.8999999999709,73.050000000067,0.));
#774=CARTESIAN_POINT('Origin',(-37.8999999999709,77.0499999999971,0.));
#775=CARTESIAN_POINT('',(-37.8999999999709,77.0499999999971,0.));
#776=CARTESIAN_POINT('',(-37.8999999999709,79.3249999999986,0.));
#777=CARTESIAN_POINT('',(-37.8999999999709,77.0499999999971,-3.));
#778=CARTESIAN_POINT('',(-37.8999999999709,84.9499999999534,-3.));
#779=CARTESIAN_POINT('',(-37.8999999999709,77.0499999999971,0.));
#780=CARTESIAN_POINT('Origin',(-38.8999999999709,77.0499999999971,0.));
#781=CARTESIAN_POINT('',(-38.8999999999709,77.0499999999971,0.));
#782=CARTESIAN_POINT('',(-19.4499999999854,77.0499999999971,0.));
#783=CARTESIAN_POINT('',(-38.8999999999709,77.0499999999971,-3.));
#784=CARTESIAN_POINT('',(-38.8999999999709,77.0499999999971,-3.));
#785=CARTESIAN_POINT('',(-38.8999999999709,77.0499999999971,0.));
#786=CARTESIAN_POINT('Origin',(-38.8999999999709,73.050000000067,0.));
#787=CARTESIAN_POINT('',(-38.8999999999709,77.3250000000335,0.));
#788=CARTESIAN_POINT('',(-38.8999999999709,73.050000000067,-3.));
#789=CARTESIAN_POINT('Origin',(-38.3999999999709,75.050000000032,-3.));
#790=CARTESIAN_POINT('Origin',(33.9999999999418,88.8499999999971,0.));
#791=CARTESIAN_POINT('',(-33.9999999999418,88.8499999999971,0.));
#792=CARTESIAN_POINT('',(33.9999999999418,88.8499999999971,0.));
#793=CARTESIAN_POINT('',(16.9999999999709,88.8499999999971,0.));
#794=CARTESIAN_POINT('',(-33.9999999999418,88.8499999999971,-3.));
#795=CARTESIAN_POINT('',(-33.9999999999418,88.8499999999971,0.));
#796=CARTESIAN_POINT('',(33.9999999999418,88.8499999999971,-3.));
#797=CARTESIAN_POINT('',(33.9999999999418,88.8499999999971,-3.));
#798=CARTESIAN_POINT('',(33.9999999999418,88.8499999999971,0.));
#799=CARTESIAN_POINT('Origin',(33.9999999999683,89.8499999999971,0.));
#800=CARTESIAN_POINT('',(33.9999999999418,89.8499999999971,0.));
#801=CARTESIAN_POINT('',(33.999999999859,85.7249999995483,0.));
#802=CARTESIAN_POINT('',(33.9999999999418,89.8499999999971,-3.));
#803=CARTESIAN_POINT('',(33.9999999999709,89.9499999999971,-3.));
#804=CARTESIAN_POINT('',(33.9999999999418,89.8499999999971,0.));
#805=CARTESIAN_POINT('Origin',(-33.9999999999418,89.8499999999971,0.));
#806=CARTESIAN_POINT('',(-33.9999999999418,89.8499999999972,0.));
#807=CARTESIAN_POINT('',(-16.9999999999709,89.8499999999971,0.));
#808=CARTESIAN_POINT('',(-33.9999999999418,89.8499999999972,-3.));
#809=CARTESIAN_POINT('',(-33.9999999999418,89.8499999999971,-3.));
#810=CARTESIAN_POINT('',(-33.9999999999418,89.8499999999972,0.));
#811=CARTESIAN_POINT('Origin',(-33.9999999999418,88.8499999999971,0.));
#812=CARTESIAN_POINT('',(-33.999999999846,85.2249999995492,0.));
#813=CARTESIAN_POINT('',(-33.9999999999418,88.8499999999971,-3.));
#814=CARTESIAN_POINT('Origin',(2.66453525910038E-14,89.3499999999972,-3.));
#815=CARTESIAN_POINT('Origin',(-41.,71.2500000000087,0.));
#816=CARTESIAN_POINT('',(-41.,71.2500000000087,0.));
#817=CARTESIAN_POINT('',(41.,71.2500000000088,0.));
#818=CARTESIAN_POINT('',(-41.,71.2500000000087,0.));
#819=CARTESIAN_POINT('',(41.,71.2500000000088,2.));
#820=CARTESIAN_POINT('',(41.,71.2500000000088,0.));
#821=CARTESIAN_POINT('',(-41.,71.2500000000087,2.));
#822=CARTESIAN_POINT('',(-41.,71.2500000000087,2.));
#823=CARTESIAN_POINT('',(-41.,71.2500000000087,0.));
#824=CARTESIAN_POINT('Origin',(-41.,86.9499999999913,0.));
#825=CARTESIAN_POINT('',(-41.,86.9499999999913,0.));
#826=CARTESIAN_POINT('',(-41.,86.9499999999913,0.));
#827=CARTESIAN_POINT('',(-41.,86.9499999999913,2.));
#828=CARTESIAN_POINT('',(-41.,86.9499999999913,2.));
#829=CARTESIAN_POINT('',(-41.,86.9499999999913,0.));
#830=CARTESIAN_POINT('Origin',(-36.,86.9499999999913,0.));
#831=CARTESIAN_POINT('',(-36.,91.9499999999913,0.));
#832=CARTESIAN_POINT('Origin',(-36.,86.9499999999913,0.));
#833=CARTESIAN_POINT('',(-36.,91.9499999999913,2.));
#834=CARTESIAN_POINT('Origin',(-36.,86.9499999999913,2.));
#835=CARTESIAN_POINT('',(-36.,91.9499999999913,0.));
#836=CARTESIAN_POINT('Origin',(36.,91.9499999999913,0.));
#837=CARTESIAN_POINT('',(36.,91.9499999999913,0.));
#838=CARTESIAN_POINT('',(36.,91.9499999999913,0.));
#839=CARTESIAN_POINT('',(36.,91.9499999999913,2.));
#840=CARTESIAN_POINT('',(36.,91.9499999999913,2.));
#841=CARTESIAN_POINT('',(36.,91.9499999999913,0.));
#842=CARTESIAN_POINT('Origin',(36.,86.9499999999913,0.));
#843=CARTESIAN_POINT('',(41.,86.9499999999913,0.));
#844=CARTESIAN_POINT('Origin',(36.,86.9499999999913,0.));
#845=CARTESIAN_POINT('',(41.,86.9499999999913,2.));
#846=CARTESIAN_POINT('Origin',(36.,86.9499999999913,2.));
#847=CARTESIAN_POINT('',(41.,86.9499999999913,0.));
#848=CARTESIAN_POINT('Origin',(41.,71.2500000000088,0.));
#849=CARTESIAN_POINT('',(41.,-66.0500000000087,0.));
#850=CARTESIAN_POINT('',(41.,-66.0500000000087,2.));
#851=CARTESIAN_POINT('Origin',(0.,81.6,2.));
#852=CARTESIAN_POINT('Origin',(0.,81.6,0.));
#853=UNCERTAINTY_MEASURE_WITH_UNIT(LENGTH_MEASURE(0.01),#857,
'DISTANCE_ACCURACY_VALUE',
'Maximum model space distance between geometric entities at asserted c
onnectivities');
#854=UNCERTAINTY_MEASURE_WITH_UNIT(LENGTH_MEASURE(0.01),#857,
'DISTANCE_ACCURACY_VALUE',
'Maximum model space distance between geometric entities at asserted c
onnectivities');
#855=(
GEOMETRIC_REPRESENTATION_CONTEXT(3)
GLOBAL_UNCERTAINTY_ASSIGNED_CONTEXT((#853))
GLOBAL_UNIT_ASSIGNED_CONTEXT((#857,#859,#860))
REPRESENTATION_CONTEXT('','3D')
);
#856=(
GEOMETRIC_REPRESENTATION_CONTEXT(3)
GLOBAL_UNCERTAINTY_ASSIGNED_CONTEXT((#854))
GLOBAL_UNIT_ASSIGNED_CONTEXT((#857,#859,#860))
REPRESENTATION_CONTEXT('','3D')
);
#857=(
LENGTH_UNIT()
NAMED_UNIT(*)
SI_UNIT(.MILLI.,.METRE.)
);
#858=(
LENGTH_UNIT()
NAMED_UNIT(*)
SI_UNIT(.CENTI.,.METRE.)
);
#859=(
NAMED_UNIT(*)
PLANE_ANGLE_UNIT()
SI_UNIT($,.RADIAN.)
);
#860=(
NAMED_UNIT(*)
SI_UNIT($,.STERADIAN.)
SOLID_ANGLE_UNIT()
);
#861=SHAPE_DEFINITION_REPRESENTATION(#862,#863);
#862=PRODUCT_DEFINITION_SHAPE('',$,#865);
#863=SHAPE_REPRESENTATION('',(#533),#855);
#864=PRODUCT_DEFINITION_CONTEXT('part definition',#869,'design');
#865=PRODUCT_DEFINITION('colortop','colortop',#866,#864);
#866=PRODUCT_DEFINITION_FORMATION('',$,#871);
#867=PRODUCT_RELATED_PRODUCT_CATEGORY('colortop','colortop',(#871));
#868=APPLICATION_PROTOCOL_DEFINITION('international standard',
'automotive_design',2009,#869);
#869=APPLICATION_CONTEXT(
'Core Data for Automotive Mechanical Design Process');
#870=PRODUCT_CONTEXT('part definition',#869,'mechanical');
#871=PRODUCT('colortop','colortop',$,(#870));
#872=PRESENTATION_STYLE_ASSIGNMENT((#873));
#873=SURFACE_STYLE_USAGE(.BOTH.,#876);
#874=SURFACE_STYLE_RENDERING_WITH_PROPERTIES($,#880,(#875));
#875=SURFACE_STYLE_TRANSPARENT(0.);
#876=SURFACE_SIDE_STYLE('',(#877,#874));
#877=SURFACE_STYLE_FILL_AREA(#878);
#878=FILL_AREA_STYLE('',(#879));
#879=FILL_AREA_STYLE_COLOUR('',#880);
#880=COLOUR_RGB('',0.749019607843137,0.749019607843137,0.749019607843137);
ENDSEC;
END-ISO-10303-21;
