ISO-10303-21;
HEADER;
/* Generated by software containing ST-Developer
 * from STEP Tools, Inc. (www.steptools.com) 
 */

FILE_DESCRIPTION(
/* description */ (''),
/* implementation_level */ '2;1');

FILE_NAME(
/* name */ 'knob.dwg.stp',
/* time_stamp */ '2026-04-11T20:04:21+07:00',
/* author */ ('Fork'),
/* organization */ (''),
/* preprocessor_version */ 'ST-DEVELOPER v20.1',
/* originating_system */ 'Autodesk Inventor 2026',
/* authorisation */ '');

FILE_SCHEMA (('AUTOMOTIVE_DESIGN { 1 0 10303 214 3 1 1 }'));
ENDSEC;

DATA;
#10=MECHANICAL_DESIGN_GEOMETRIC_PRESENTATION_REPRESENTATION('',(#13),#263);
#11=SHAPE_REPRESENTATION_RELATIONSHIP('SRR','None',#270,#12);
#12=ADVANCED_BREP_SHAPE_REPRESENTATION('',(#14),#262);
#13=STYLED_ITEM('',(#279),#14);
#14=MANIFOLD_SOLID_BREP('Solid1',#138);
#15=LINE('',#234,#22);
#16=LINE('',#238,#23);
#17=LINE('',#244,#24);
#18=LINE('',#246,#25);
#19=LINE('',#248,#26);
#20=LINE('',#249,#27);
#21=LINE('',#257,#28);
#22=VECTOR('',#191,7.5);
#23=VECTOR('',#196,25.);
#24=VECTOR('',#203,10.);
#25=VECTOR('',#204,10.);
#26=VECTOR('',#205,10.);
#27=VECTOR('',#206,10.);
#28=VECTOR('',#219,30.);
#29=CYLINDRICAL_SURFACE('',#164,7.5);
#30=CYLINDRICAL_SURFACE('',#167,25.);
#31=CYLINDRICAL_SURFACE('',#171,3.15);
#32=CYLINDRICAL_SURFACE('',#175,30.);
#33=FACE_BOUND('',#47,.T.);
#34=FACE_BOUND('',#51,.T.);
#35=FACE_BOUND('',#58,.T.);
#36=FACE_OUTER_BOUND('',#46,.T.);
#37=FACE_OUTER_BOUND('',#48,.T.);
#38=FACE_OUTER_BOUND('',#49,.T.);
#39=FACE_OUTER_BOUND('',#50,.T.);
#40=FACE_OUTER_BOUND('',#52,.T.);
#41=FACE_OUTER_BOUND('',#53,.T.);
#42=FACE_OUTER_BOUND('',#54,.T.);
#43=FACE_OUTER_BOUND('',#55,.T.);
#44=FACE_OUTER_BOUND('',#56,.T.);
#45=FACE_OUTER_BOUND('',#57,.T.);
#46=EDGE_LOOP('',(#92));
#47=EDGE_LOOP('',(#93));
#48=EDGE_LOOP('',(#94,#95,#96,#97));
#49=EDGE_LOOP('',(#98,#99,#100,#101));
#50=EDGE_LOOP('',(#102));
#51=EDGE_LOOP('',(#103));
#52=EDGE_LOOP('',(#104,#105,#106,#107));
#53=EDGE_LOOP('',(#108,#109,#110,#111));
#54=EDGE_LOOP('',(#112,#113));
#55=EDGE_LOOP('',(#114,#115,#116,#117));
#56=EDGE_LOOP('',(#118));
#57=EDGE_LOOP('',(#119));
#58=EDGE_LOOP('',(#120,#121));
#59=CIRCLE('',#162,30.);
#60=CIRCLE('',#163,25.);
#61=CIRCLE('',#165,7.5);
#62=CIRCLE('',#166,7.5);
#63=CIRCLE('',#168,25.);
#64=CIRCLE('',#172,3.15);
#65=CIRCLE('',#173,3.15);
#66=CIRCLE('',#176,30.);
#67=VERTEX_POINT('',#226);
#68=VERTEX_POINT('',#228);
#69=VERTEX_POINT('',#231);
#70=VERTEX_POINT('',#233);
#71=VERTEX_POINT('',#237);
#72=VERTEX_POINT('',#242);
#73=VERTEX_POINT('',#243);
#74=VERTEX_POINT('',#245);
#75=VERTEX_POINT('',#247);
#76=VERTEX_POINT('',#255);
#77=EDGE_CURVE('',#67,#67,#59,.T.);
#78=EDGE_CURVE('',#68,#68,#60,.T.);
#79=EDGE_CURVE('',#69,#69,#61,.T.);
#80=EDGE_CURVE('',#69,#70,#15,.T.);
#81=EDGE_CURVE('',#70,#70,#62,.T.);
#82=EDGE_CURVE('',#68,#71,#16,.T.);
#83=EDGE_CURVE('',#71,#71,#63,.T.);
#84=EDGE_CURVE('',#72,#73,#17,.T.);
#85=EDGE_CURVE('',#72,#74,#18,.T.);
#86=EDGE_CURVE('',#74,#75,#19,.T.);
#87=EDGE_CURVE('',#73,#75,#20,.T.);
#88=EDGE_CURVE('',#73,#72,#64,.T.);
#89=EDGE_CURVE('',#75,#74,#65,.T.);
#90=EDGE_CURVE('',#76,#76,#66,.T.);
#91=EDGE_CURVE('',#76,#67,#21,.T.);
#92=ORIENTED_EDGE('',*,*,#77,.T.);
#93=ORIENTED_EDGE('',*,*,#78,.T.);
#94=ORIENTED_EDGE('',*,*,#79,.F.);
#95=ORIENTED_EDGE('',*,*,#80,.T.);
#96=ORIENTED_EDGE('',*,*,#81,.T.);
#97=ORIENTED_EDGE('',*,*,#80,.F.);
#98=ORIENTED_EDGE('',*,*,#78,.F.);
#99=ORIENTED_EDGE('',*,*,#82,.T.);
#100=ORIENTED_EDGE('',*,*,#83,.T.);
#101=ORIENTED_EDGE('',*,*,#82,.F.);
#102=ORIENTED_EDGE('',*,*,#83,.F.);
#103=ORIENTED_EDGE('',*,*,#81,.F.);
#104=ORIENTED_EDGE('',*,*,#84,.F.);
#105=ORIENTED_EDGE('',*,*,#85,.T.);
#106=ORIENTED_EDGE('',*,*,#86,.T.);
#107=ORIENTED_EDGE('',*,*,#87,.F.);
#108=ORIENTED_EDGE('',*,*,#88,.F.);
#109=ORIENTED_EDGE('',*,*,#87,.T.);
#110=ORIENTED_EDGE('',*,*,#89,.T.);
#111=ORIENTED_EDGE('',*,*,#85,.F.);
#112=ORIENTED_EDGE('',*,*,#89,.F.);
#113=ORIENTED_EDGE('',*,*,#86,.F.);
#114=ORIENTED_EDGE('',*,*,#90,.F.);
#115=ORIENTED_EDGE('',*,*,#91,.T.);
#116=ORIENTED_EDGE('',*,*,#77,.F.);
#117=ORIENTED_EDGE('',*,*,#91,.F.);
#118=ORIENTED_EDGE('',*,*,#90,.T.);
#119=ORIENTED_EDGE('',*,*,#79,.T.);
#120=ORIENTED_EDGE('',*,*,#84,.T.);
#121=ORIENTED_EDGE('',*,*,#88,.T.);
#122=PLANE('',#161);
#123=PLANE('',#169);
#124=PLANE('',#170);
#125=PLANE('',#174);
#126=PLANE('',#177);
#127=PLANE('',#178);
#128=ADVANCED_FACE('',(#36,#33),#122,.T.);
#129=ADVANCED_FACE('',(#37),#29,.T.);
#130=ADVANCED_FACE('',(#38),#30,.F.);
#131=ADVANCED_FACE('',(#39,#34),#123,.T.);
#132=ADVANCED_FACE('',(#40),#124,.F.);
#133=ADVANCED_FACE('',(#41),#31,.F.);
#134=ADVANCED_FACE('',(#42),#125,.T.);
#135=ADVANCED_FACE('',(#43),#32,.T.);
#136=ADVANCED_FACE('',(#44),#126,.T.);
#137=ADVANCED_FACE('',(#45,#35),#127,.F.);
#138=CLOSED_SHELL('',(#128,#129,#130,#131,#132,#133,#134,#135,#136,#137));
#139=DERIVED_UNIT_ELEMENT(#142,1.);
#140=DERIVED_UNIT_ELEMENT(#265,-3.);
#141=DIMENSIONAL_EXPONENTS(0.,1.,0.,0.,0.,0.,0.);
#142=(
CONVERSION_BASED_UNIT('gram',#144)
MASS_UNIT()
NAMED_UNIT(#141)
);
#143=(
MASS_UNIT()
NAMED_UNIT(*)
SI_UNIT(.KILO.,.GRAM.)
);
#144=MASS_MEASURE_WITH_UNIT(MASS_MEASURE(0.001),#143);
#145=DERIVED_UNIT((#139,#140));
#146=MEASURE_REPRESENTATION_ITEM('density measure',
POSITIVE_RATIO_MEASURE(1.),#145);
#147=PROPERTY_DEFINITION_REPRESENTATION(#152,#149);
#148=PROPERTY_DEFINITION_REPRESENTATION(#153,#150);
#149=REPRESENTATION('material name',(#151),#262);
#150=REPRESENTATION('density',(#146),#262);
#151=DESCRIPTIVE_REPRESENTATION_ITEM('Generic','Generic');
#152=PROPERTY_DEFINITION('material property','material name',#272);
#153=PROPERTY_DEFINITION('material property','density of part',#272);
#154=DATE_TIME_ROLE('creation_date');
#155=APPLIED_DATE_AND_TIME_ASSIGNMENT(#156,#154,(#272));
#156=DATE_AND_TIME(#157,#158);
#157=CALENDAR_DATE(2026,10,4);
#158=LOCAL_TIME(0,0,0.,#159);
#159=COORDINATED_UNIVERSAL_TIME_OFFSET(0,0,.BEHIND.);
#160=AXIS2_PLACEMENT_3D('',#224,#179,#180);
#161=AXIS2_PLACEMENT_3D('',#225,#181,#182);
#162=AXIS2_PLACEMENT_3D('',#227,#183,#184);
#163=AXIS2_PLACEMENT_3D('',#229,#185,#186);
#164=AXIS2_PLACEMENT_3D('',#230,#187,#188);
#165=AXIS2_PLACEMENT_3D('',#232,#189,#190);
#166=AXIS2_PLACEMENT_3D('',#235,#192,#193);
#167=AXIS2_PLACEMENT_3D('',#236,#194,#195);
#168=AXIS2_PLACEMENT_3D('',#239,#197,#198);
#169=AXIS2_PLACEMENT_3D('',#240,#199,#200);
#170=AXIS2_PLACEMENT_3D('',#241,#201,#202);
#171=AXIS2_PLACEMENT_3D('',#250,#207,#208);
#172=AXIS2_PLACEMENT_3D('',#251,#209,#210);
#173=AXIS2_PLACEMENT_3D('',#252,#211,#212);
#174=AXIS2_PLACEMENT_3D('',#253,#213,#214);
#175=AXIS2_PLACEMENT_3D('',#254,#215,#216);
#176=AXIS2_PLACEMENT_3D('',#256,#217,#218);
#177=AXIS2_PLACEMENT_3D('',#258,#220,#221);
#178=AXIS2_PLACEMENT_3D('',#259,#222,#223);
#179=DIRECTION('axis',(0.,0.,1.));
#180=DIRECTION('refdir',(1.,0.,0.));
#181=DIRECTION('center_axis',(0.,0.,-1.));
#182=DIRECTION('ref_axis',(-1.,0.,0.));
#183=DIRECTION('center_axis',(0.,0.,-1.));
#184=DIRECTION('ref_axis',(-1.,0.,0.));
#185=DIRECTION('center_axis',(0.,0.,1.));
#186=DIRECTION('ref_axis',(1.,0.,0.));
#187=DIRECTION('center_axis',(0.,0.,1.));
#188=DIRECTION('ref_axis',(1.,0.,0.));
#189=DIRECTION('center_axis',(0.,0.,-1.));
#190=DIRECTION('ref_axis',(1.,0.,0.));
#191=DIRECTION('',(0.,0.,1.));
#192=DIRECTION('center_axis',(0.,0.,-1.));
#193=DIRECTION('ref_axis',(1.,0.,0.));
#194=DIRECTION('center_axis',(0.,0.,1.));
#195=DIRECTION('ref_axis',(-1.,0.,0.));
#196=DIRECTION('',(0.,0.,1.));
#197=DIRECTION('center_axis',(0.,0.,1.));
#198=DIRECTION('ref_axis',(-1.,0.,0.));
#199=DIRECTION('center_axis',(0.,0.,-1.));
#200=DIRECTION('ref_axis',(-1.,0.,0.));
#201=DIRECTION('center_axis',(1.,0.,0.));
#202=DIRECTION('ref_axis',(0.,1.,0.));
#203=DIRECTION('',(0.,1.,0.));
#204=DIRECTION('',(0.,0.,1.));
#205=DIRECTION('',(0.,1.,0.));
#206=DIRECTION('',(0.,0.,1.));
#207=DIRECTION('center_axis',(0.,0.,1.));
#208=DIRECTION('ref_axis',(-1.,0.,0.));
#209=DIRECTION('center_axis',(0.,0.,1.));
#210=DIRECTION('ref_axis',(-1.,0.,0.));
#211=DIRECTION('center_axis',(0.,0.,1.));
#212=DIRECTION('ref_axis',(-1.,0.,0.));
#213=DIRECTION('center_axis',(0.,0.,-1.));
#214=DIRECTION('ref_axis',(-1.,0.,0.));
#215=DIRECTION('center_axis',(0.,0.,1.));
#216=DIRECTION('ref_axis',(1.,0.,0.));
#217=DIRECTION('center_axis',(0.,0.,1.));
#218=DIRECTION('ref_axis',(1.,0.,0.));
#219=DIRECTION('',(0.,0.,-1.));
#220=DIRECTION('center_axis',(0.,0.,1.));
#221=DIRECTION('ref_axis',(1.,0.,0.));
#222=DIRECTION('center_axis',(0.,0.,1.));
#223=DIRECTION('ref_axis',(1.,0.,0.));
#224=CARTESIAN_POINT('',(0.,0.,0.));
#225=CARTESIAN_POINT('Origin',(0.249999999999986,36.0500000000087,-3.));
#226=CARTESIAN_POINT('',(-29.75,36.0500000000087,-3.));
#227=CARTESIAN_POINT('Origin',(0.249999999999986,36.0500000000087,-3.));
#228=CARTESIAN_POINT('',(25.25,36.0500000000088,-3.));
#229=CARTESIAN_POINT('Origin',(0.249999999999986,36.0500000000087,-3.));
#230=CARTESIAN_POINT('Origin',(0.249999999999986,36.0500000000087,0.));
#231=CARTESIAN_POINT('',(-7.25000000000002,36.0500000000087,0.));
#232=CARTESIAN_POINT('Origin',(0.249999999999986,36.0500000000087,0.));
#233=CARTESIAN_POINT('',(-7.25000000000001,36.0500000000087,7.));
#234=CARTESIAN_POINT('',(-7.25000000000002,36.0500000000087,0.));
#235=CARTESIAN_POINT('Origin',(0.249999999999986,36.0500000000087,7.));
#236=CARTESIAN_POINT('Origin',(0.249999999999986,36.0500000000087,0.));
#237=CARTESIAN_POINT('',(25.25,36.0500000000088,7.));
#238=CARTESIAN_POINT('',(25.25,36.0500000000088,0.));
#239=CARTESIAN_POINT('Origin',(0.249999999999986,36.0500000000087,7.));
#240=CARTESIAN_POINT('Origin',(0.249999999999986,36.0500000000087,7.));
#241=CARTESIAN_POINT('Origin',(1.89999999999999,33.366718427009,0.));
#242=CARTESIAN_POINT('',(1.89999999999999,33.366718427009,0.));
#243=CARTESIAN_POINT('',(1.89999999999999,38.7332815730085,0.));
#244=CARTESIAN_POINT('',(1.89999999999999,34.7083592135089,0.));
#245=CARTESIAN_POINT('',(1.89999999999999,33.366718427009,7.));
#246=CARTESIAN_POINT('',(1.89999999999999,33.366718427009,0.));
#247=CARTESIAN_POINT('',(1.89999999999999,38.7332815730085,7.));
#248=CARTESIAN_POINT('',(1.89999999999999,38.7332815730085,7.));
#249=CARTESIAN_POINT('',(1.89999999999999,38.7332815730085,0.));
#250=CARTESIAN_POINT('Origin',(0.249999999999986,36.0500000000087,0.));
#251=CARTESIAN_POINT('Origin',(0.249999999999986,36.0500000000087,0.));
#252=CARTESIAN_POINT('Origin',(0.249999999999986,36.0500000000087,7.));
#253=CARTESIAN_POINT('Origin',(-0.500000000000014,36.0500000000087,7.));
#254=CARTESIAN_POINT('Origin',(0.249999999999986,36.0500000000087,0.));
#255=CARTESIAN_POINT('',(-29.75,36.0500000000087,9.));
#256=CARTESIAN_POINT('Origin',(0.249999999999986,36.0500000000087,9.));
#257=CARTESIAN_POINT('',(-29.75,36.0500000000087,0.));
#258=CARTESIAN_POINT('Origin',(0.249999999999986,36.0500000000087,9.));
#259=CARTESIAN_POINT('Origin',(0.249999999999986,36.0500000000087,0.));
#260=UNCERTAINTY_MEASURE_WITH_UNIT(LENGTH_MEASURE(0.01),#264,
'DISTANCE_ACCURACY_VALUE',
'Maximum model space distance between geometric entities at asserted c
onnectivities');
#261=UNCERTAINTY_MEASURE_WITH_UNIT(LENGTH_MEASURE(0.01),#264,
'DISTANCE_ACCURACY_VALUE',
'Maximum model space distance between geometric entities at asserted c
onnectivities');
#262=(
GEOMETRIC_REPRESENTATION_CONTEXT(3)
GLOBAL_UNCERTAINTY_ASSIGNED_CONTEXT((#260))
GLOBAL_UNIT_ASSIGNED_CONTEXT((#264,#266,#267))
REPRESENTATION_CONTEXT('','3D')
);
#263=(
GEOMETRIC_REPRESENTATION_CONTEXT(3)
GLOBAL_UNCERTAINTY_ASSIGNED_CONTEXT((#261))
GLOBAL_UNIT_ASSIGNED_CONTEXT((#264,#266,#267))
REPRESENTATION_CONTEXT('','3D')
);
#264=(
LENGTH_UNIT()
NAMED_UNIT(*)
SI_UNIT(.MILLI.,.METRE.)
);
#265=(
LENGTH_UNIT()
NAMED_UNIT(*)
SI_UNIT(.CENTI.,.METRE.)
);
#266=(
NAMED_UNIT(*)
PLANE_ANGLE_UNIT()
SI_UNIT($,.RADIAN.)
);
#267=(
NAMED_UNIT(*)
SI_UNIT($,.STERADIAN.)
SOLID_ANGLE_UNIT()
);
#268=SHAPE_DEFINITION_REPRESENTATION(#269,#270);
#269=PRODUCT_DEFINITION_SHAPE('',$,#272);
#270=SHAPE_REPRESENTATION('',(#160),#262);
#271=PRODUCT_DEFINITION_CONTEXT('part definition',#276,'design');
#272=PRODUCT_DEFINITION('knob','knob',#273,#271);
#273=PRODUCT_DEFINITION_FORMATION('',$,#278);
#274=PRODUCT_RELATED_PRODUCT_CATEGORY('knob','knob',(#278));
#275=APPLICATION_PROTOCOL_DEFINITION('international standard',
'automotive_design',2009,#276);
#276=APPLICATION_CONTEXT(
'Core Data for Automotive Mechanical Design Process');
#277=PRODUCT_CONTEXT('part definition',#276,'mechanical');
#278=PRODUCT('knob','knob',$,(#277));
#279=PRESENTATION_STYLE_ASSIGNMENT((#280));
#280=SURFACE_STYLE_USAGE(.BOTH.,#283);
#281=SURFACE_STYLE_RENDERING_WITH_PROPERTIES($,#287,(#282));
#282=SURFACE_STYLE_TRANSPARENT(0.);
#283=SURFACE_SIDE_STYLE('',(#284,#281));
#284=SURFACE_STYLE_FILL_AREA(#285);
#285=FILL_AREA_STYLE('',(#286));
#286=FILL_AREA_STYLE_COLOUR('',#287);
#287=COLOUR_RGB('',0.749019607843137,0.749019607843137,0.749019607843137);
ENDSEC;
END-ISO-10303-21;
