ISO-10303-21;
HEADER;
/* Generated by software containing ST-Developer
 * from STEP Tools, Inc. (www.steptools.com) 
 */

FILE_DESCRIPTION(
/* description */ (''),
/* implementation_level */ '2;1');

FILE_NAME(
/* name */ 'MonitorBack.dwg.stp',
/* time_stamp */ '2026-04-12T12:25:35+07:00',
/* author */ ('Fork'),
/* organization */ (''),
/* preprocessor_version */ 'ST-DEVELOPER v20.1',
/* originating_system */ 'Autodesk Inventor 2026',
/* authorisation */ '');

FILE_SCHEMA (('AUTOMOTIVE_DESIGN { 1 0 10303 214 3 1 1 }'));
ENDSEC;

DATA;
#10=MECHANICAL_DESIGN_GEOMETRIC_PRESENTATION_REPRESENTATION('',(#13),#2094);
#11=SHAPE_REPRESENTATION_RELATIONSHIP('SRR','None',#2101,#12);
#12=ADVANCED_BREP_SHAPE_REPRESENTATION('',(#14),#2093);
#13=STYLED_ITEM('',(#2110),#14);
#14=MANIFOLD_SOLID_BREP('Solid1',#1253);
#15=FACE_BOUND('',#160,.T.);
#16=FACE_BOUND('',#163,.T.);
#17=FACE_BOUND('',#166,.T.);
#18=FACE_BOUND('',#169,.T.);
#19=FACE_BOUND('',#206,.T.);
#20=FACE_BOUND('',#207,.T.);
#21=FACE_BOUND('',#208,.T.);
#22=FACE_BOUND('',#209,.T.);
#23=FACE_BOUND('',#210,.T.);
#24=FACE_BOUND('',#211,.T.);
#25=FACE_BOUND('',#212,.T.);
#26=FACE_BOUND('',#213,.T.);
#27=FACE_BOUND('',#214,.T.);
#28=FACE_BOUND('',#215,.T.);
#29=FACE_BOUND('',#216,.T.);
#30=FACE_BOUND('',#217,.T.);
#31=FACE_BOUND('',#218,.T.);
#32=FACE_BOUND('',#246,.T.);
#33=FACE_BOUND('',#247,.T.);
#34=FACE_BOUND('',#248,.T.);
#35=FACE_BOUND('',#249,.T.);
#36=PLANE('',#1279);
#37=PLANE('',#1284);
#38=PLANE('',#1289);
#39=PLANE('',#1294);
#40=PLANE('',#1332);
#41=PLANE('',#1333);
#42=PLANE('',#1334);
#43=PLANE('',#1335);
#44=PLANE('',#1336);
#45=PLANE('',#1337);
#46=PLANE('',#1338);
#47=PLANE('',#1339);
#48=PLANE('',#1340);
#49=PLANE('',#1341);
#50=PLANE('',#1342);
#51=PLANE('',#1343);
#52=PLANE('',#1344);
#53=PLANE('',#1345);
#54=PLANE('',#1346);
#55=PLANE('',#1347);
#56=PLANE('',#1348);
#57=PLANE('',#1349);
#58=PLANE('',#1350);
#59=PLANE('',#1351);
#60=PLANE('',#1352);
#61=PLANE('',#1353);
#62=PLANE('',#1354);
#63=PLANE('',#1355);
#64=PLANE('',#1360);
#65=PLANE('',#1361);
#66=PLANE('',#1362);
#67=PLANE('',#1363);
#68=PLANE('',#1364);
#69=PLANE('',#1365);
#70=PLANE('',#1366);
#71=PLANE('',#1367);
#72=PLANE('',#1368);
#73=PLANE('',#1369);
#74=PLANE('',#1374);
#75=PLANE('',#1375);
#76=PLANE('',#1376);
#77=PLANE('',#1377);
#78=PLANE('',#1378);
#79=PLANE('',#1379);
#80=PLANE('',#1380);
#81=PLANE('',#1381);
#82=PLANE('',#1382);
#83=PLANE('',#1383);
#84=PLANE('',#1384);
#85=PLANE('',#1385);
#86=PLANE('',#1386);
#87=FACE_OUTER_BOUND('',#158,.T.);
#88=FACE_OUTER_BOUND('',#159,.T.);
#89=FACE_OUTER_BOUND('',#161,.T.);
#90=FACE_OUTER_BOUND('',#162,.T.);
#91=FACE_OUTER_BOUND('',#164,.T.);
#92=FACE_OUTER_BOUND('',#165,.T.);
#93=FACE_OUTER_BOUND('',#167,.T.);
#94=FACE_OUTER_BOUND('',#168,.T.);
#95=FACE_OUTER_BOUND('',#170,.T.);
#96=FACE_OUTER_BOUND('',#171,.T.);
#97=FACE_OUTER_BOUND('',#172,.T.);
#98=FACE_OUTER_BOUND('',#173,.T.);
#99=FACE_OUTER_BOUND('',#174,.T.);
#100=FACE_OUTER_BOUND('',#175,.T.);
#101=FACE_OUTER_BOUND('',#176,.T.);
#102=FACE_OUTER_BOUND('',#177,.T.);
#103=FACE_OUTER_BOUND('',#178,.T.);
#104=FACE_OUTER_BOUND('',#179,.T.);
#105=FACE_OUTER_BOUND('',#180,.T.);
#106=FACE_OUTER_BOUND('',#181,.T.);
#107=FACE_OUTER_BOUND('',#182,.T.);
#108=FACE_OUTER_BOUND('',#183,.T.);
#109=FACE_OUTER_BOUND('',#184,.T.);
#110=FACE_OUTER_BOUND('',#185,.T.);
#111=FACE_OUTER_BOUND('',#186,.T.);
#112=FACE_OUTER_BOUND('',#187,.T.);
#113=FACE_OUTER_BOUND('',#188,.T.);
#114=FACE_OUTER_BOUND('',#189,.T.);
#115=FACE_OUTER_BOUND('',#190,.T.);
#116=FACE_OUTER_BOUND('',#191,.T.);
#117=FACE_OUTER_BOUND('',#192,.T.);
#118=FACE_OUTER_BOUND('',#193,.T.);
#119=FACE_OUTER_BOUND('',#194,.T.);
#120=FACE_OUTER_BOUND('',#195,.T.);
#121=FACE_OUTER_BOUND('',#196,.T.);
#122=FACE_OUTER_BOUND('',#197,.T.);
#123=FACE_OUTER_BOUND('',#198,.T.);
#124=FACE_OUTER_BOUND('',#199,.T.);
#125=FACE_OUTER_BOUND('',#200,.T.);
#126=FACE_OUTER_BOUND('',#201,.T.);
#127=FACE_OUTER_BOUND('',#202,.T.);
#128=FACE_OUTER_BOUND('',#203,.T.);
#129=FACE_OUTER_BOUND('',#204,.T.);
#130=FACE_OUTER_BOUND('',#205,.T.);
#131=FACE_OUTER_BOUND('',#219,.T.);
#132=FACE_OUTER_BOUND('',#220,.T.);
#133=FACE_OUTER_BOUND('',#221,.T.);
#134=FACE_OUTER_BOUND('',#222,.T.);
#135=FACE_OUTER_BOUND('',#223,.T.);
#136=FACE_OUTER_BOUND('',#224,.T.);
#137=FACE_OUTER_BOUND('',#225,.T.);
#138=FACE_OUTER_BOUND('',#226,.T.);
#139=FACE_OUTER_BOUND('',#227,.T.);
#140=FACE_OUTER_BOUND('',#228,.T.);
#141=FACE_OUTER_BOUND('',#229,.T.);
#142=FACE_OUTER_BOUND('',#230,.T.);
#143=FACE_OUTER_BOUND('',#231,.T.);
#144=FACE_OUTER_BOUND('',#232,.T.);
#145=FACE_OUTER_BOUND('',#233,.T.);
#146=FACE_OUTER_BOUND('',#234,.T.);
#147=FACE_OUTER_BOUND('',#235,.T.);
#148=FACE_OUTER_BOUND('',#236,.T.);
#149=FACE_OUTER_BOUND('',#237,.T.);
#150=FACE_OUTER_BOUND('',#238,.T.);
#151=FACE_OUTER_BOUND('',#239,.T.);
#152=FACE_OUTER_BOUND('',#240,.T.);
#153=FACE_OUTER_BOUND('',#241,.T.);
#154=FACE_OUTER_BOUND('',#242,.T.);
#155=FACE_OUTER_BOUND('',#243,.T.);
#156=FACE_OUTER_BOUND('',#244,.T.);
#157=FACE_OUTER_BOUND('',#245,.T.);
#158=EDGE_LOOP('',(#826,#827,#828,#829));
#159=EDGE_LOOP('',(#830));
#160=EDGE_LOOP('',(#831));
#161=EDGE_LOOP('',(#832,#833,#834,#835));
#162=EDGE_LOOP('',(#836));
#163=EDGE_LOOP('',(#837));
#164=EDGE_LOOP('',(#838,#839,#840,#841));
#165=EDGE_LOOP('',(#842));
#166=EDGE_LOOP('',(#843));
#167=EDGE_LOOP('',(#844,#845,#846,#847));
#168=EDGE_LOOP('',(#848));
#169=EDGE_LOOP('',(#849));
#170=EDGE_LOOP('',(#850,#851,#852,#853));
#171=EDGE_LOOP('',(#854,#855,#856,#857));
#172=EDGE_LOOP('',(#858,#859,#860,#861));
#173=EDGE_LOOP('',(#862,#863,#864,#865));
#174=EDGE_LOOP('',(#866,#867,#868,#869));
#175=EDGE_LOOP('',(#870,#871,#872,#873));
#176=EDGE_LOOP('',(#874,#875,#876,#877));
#177=EDGE_LOOP('',(#878,#879,#880,#881));
#178=EDGE_LOOP('',(#882,#883,#884,#885));
#179=EDGE_LOOP('',(#886,#887,#888,#889));
#180=EDGE_LOOP('',(#890,#891,#892,#893));
#181=EDGE_LOOP('',(#894,#895,#896,#897));
#182=EDGE_LOOP('',(#898,#899,#900,#901));
#183=EDGE_LOOP('',(#902,#903,#904,#905));
#184=EDGE_LOOP('',(#906,#907,#908,#909));
#185=EDGE_LOOP('',(#910,#911,#912,#913));
#186=EDGE_LOOP('',(#914,#915,#916,#917));
#187=EDGE_LOOP('',(#918,#919,#920,#921));
#188=EDGE_LOOP('',(#922,#923,#924,#925));
#189=EDGE_LOOP('',(#926,#927,#928,#929));
#190=EDGE_LOOP('',(#930,#931,#932,#933));
#191=EDGE_LOOP('',(#934,#935,#936,#937));
#192=EDGE_LOOP('',(#938,#939,#940,#941));
#193=EDGE_LOOP('',(#942,#943,#944,#945));
#194=EDGE_LOOP('',(#946,#947,#948,#949));
#195=EDGE_LOOP('',(#950,#951,#952,#953));
#196=EDGE_LOOP('',(#954,#955,#956));
#197=EDGE_LOOP('',(#957,#958,#959));
#198=EDGE_LOOP('',(#960,#961,#962));
#199=EDGE_LOOP('',(#963,#964,#965));
#200=EDGE_LOOP('',(#966,#967,#968));
#201=EDGE_LOOP('',(#969,#970,#971));
#202=EDGE_LOOP('',(#972,#973,#974,#975,#976,#977,#978,#979,#980,#981,#982,
#983));
#203=EDGE_LOOP('',(#984,#985,#986));
#204=EDGE_LOOP('',(#987,#988,#989));
#205=EDGE_LOOP('',(#990,#991,#992,#993,#994,#995,#996,#997,#998,#999,#1000,
#1001));
#206=EDGE_LOOP('',(#1002,#1003,#1004));
#207=EDGE_LOOP('',(#1005,#1006,#1007,#1008,#1009,#1010,#1011,#1012,#1013,
#1014,#1015,#1016));
#208=EDGE_LOOP('',(#1017));
#209=EDGE_LOOP('',(#1018,#1019,#1020));
#210=EDGE_LOOP('',(#1021,#1022,#1023));
#211=EDGE_LOOP('',(#1024));
#212=EDGE_LOOP('',(#1025,#1026,#1027));
#213=EDGE_LOOP('',(#1028,#1029,#1030));
#214=EDGE_LOOP('',(#1031));
#215=EDGE_LOOP('',(#1032,#1033,#1034));
#216=EDGE_LOOP('',(#1035,#1036,#1037));
#217=EDGE_LOOP('',(#1038));
#218=EDGE_LOOP('',(#1039,#1040,#1041));
#219=EDGE_LOOP('',(#1042,#1043,#1044,#1045));
#220=EDGE_LOOP('',(#1046,#1047,#1048,#1049));
#221=EDGE_LOOP('',(#1050,#1051,#1052,#1053));
#222=EDGE_LOOP('',(#1054,#1055,#1056,#1057));
#223=EDGE_LOOP('',(#1058,#1059,#1060,#1061));
#224=EDGE_LOOP('',(#1062,#1063,#1064,#1065));
#225=EDGE_LOOP('',(#1066,#1067,#1068,#1069));
#226=EDGE_LOOP('',(#1070,#1071,#1072,#1073));
#227=EDGE_LOOP('',(#1074,#1075,#1076,#1077));
#228=EDGE_LOOP('',(#1078,#1079,#1080,#1081));
#229=EDGE_LOOP('',(#1082,#1083,#1084,#1085));
#230=EDGE_LOOP('',(#1086,#1087,#1088,#1089));
#231=EDGE_LOOP('',(#1090,#1091,#1092,#1093));
#232=EDGE_LOOP('',(#1094,#1095,#1096,#1097));
#233=EDGE_LOOP('',(#1098,#1099,#1100,#1101));
#234=EDGE_LOOP('',(#1102,#1103,#1104,#1105));
#235=EDGE_LOOP('',(#1106,#1107,#1108,#1109));
#236=EDGE_LOOP('',(#1110,#1111,#1112,#1113));
#237=EDGE_LOOP('',(#1114,#1115,#1116,#1117));
#238=EDGE_LOOP('',(#1118,#1119,#1120,#1121));
#239=EDGE_LOOP('',(#1122,#1123,#1124,#1125));
#240=EDGE_LOOP('',(#1126,#1127,#1128,#1129));
#241=EDGE_LOOP('',(#1130,#1131,#1132,#1133));
#242=EDGE_LOOP('',(#1134,#1135,#1136,#1137));
#243=EDGE_LOOP('',(#1138,#1139,#1140,#1141));
#244=EDGE_LOOP('',(#1142,#1143,#1144,#1145));
#245=EDGE_LOOP('',(#1146,#1147,#1148,#1149,#1150,#1151,#1152,#1153,#1154,
#1155,#1156,#1157));
#246=EDGE_LOOP('',(#1158));
#247=EDGE_LOOP('',(#1159));
#248=EDGE_LOOP('',(#1160));
#249=EDGE_LOOP('',(#1161));
#250=LINE('',#1744,#378);
#251=LINE('',#1753,#379);
#252=LINE('',#1762,#380);
#253=LINE('',#1771,#381);
#254=LINE('',#1781,#382);
#255=LINE('',#1784,#383);
#256=LINE('',#1790,#384);
#257=LINE('',#1793,#385);
#258=LINE('',#1799,#386);
#259=LINE('',#1802,#387);
#260=LINE('',#1808,#388);
#261=LINE('',#1811,#389);
#262=LINE('',#1817,#390);
#263=LINE('',#1820,#391);
#264=LINE('',#1826,#392);
#265=LINE('',#1829,#393);
#266=LINE('',#1835,#394);
#267=LINE('',#1838,#395);
#268=LINE('',#1844,#396);
#269=LINE('',#1847,#397);
#270=LINE('',#1853,#398);
#271=LINE('',#1856,#399);
#272=LINE('',#1860,#400);
#273=LINE('',#1864,#401);
#274=LINE('',#1869,#402);
#275=LINE('',#1873,#403);
#276=LINE('',#1878,#404);
#277=LINE('',#1882,#405);
#278=LINE('',#1886,#406);
#279=LINE('',#1888,#407);
#280=LINE('',#1889,#408);
#281=LINE('',#1892,#409);
#282=LINE('',#1894,#410);
#283=LINE('',#1895,#411);
#284=LINE('',#1898,#412);
#285=LINE('',#1900,#413);
#286=LINE('',#1901,#414);
#287=LINE('',#1904,#415);
#288=LINE('',#1906,#416);
#289=LINE('',#1907,#417);
#290=LINE('',#1910,#418);
#291=LINE('',#1912,#419);
#292=LINE('',#1913,#420);
#293=LINE('',#1916,#421);
#294=LINE('',#1918,#422);
#295=LINE('',#1919,#423);
#296=LINE('',#1922,#424);
#297=LINE('',#1924,#425);
#298=LINE('',#1925,#426);
#299=LINE('',#1928,#427);
#300=LINE('',#1930,#428);
#301=LINE('',#1931,#429);
#302=LINE('',#1933,#430);
#303=LINE('',#1934,#431);
#304=LINE('',#1936,#432);
#305=LINE('',#1937,#433);
#306=LINE('',#1940,#434);
#307=LINE('',#1942,#435);
#308=LINE('',#1943,#436);
#309=LINE('',#1945,#437);
#310=LINE('',#1946,#438);
#311=LINE('',#1949,#439);
#312=LINE('',#1951,#440);
#313=LINE('',#1952,#441);
#314=LINE('',#1954,#442);
#315=LINE('',#1955,#443);
#316=LINE('',#1957,#444);
#317=LINE('',#1959,#445);
#318=LINE('',#1962,#446);
#319=LINE('',#1965,#447);
#320=LINE('',#1967,#448);
#321=LINE('',#1969,#449);
#322=LINE('',#1971,#450);
#323=LINE('',#1972,#451);
#324=LINE('',#1974,#452);
#325=LINE('',#1976,#453);
#326=LINE('',#1980,#454);
#327=LINE('',#1982,#455);
#328=LINE('',#1984,#456);
#329=LINE('',#1986,#457);
#330=LINE('',#1988,#458);
#331=LINE('',#1990,#459);
#332=LINE('',#1992,#460);
#333=LINE('',#1994,#461);
#334=LINE('',#1996,#462);
#335=LINE('',#1998,#463);
#336=LINE('',#2000,#464);
#337=LINE('',#2001,#465);
#338=LINE('',#2002,#466);
#339=LINE('',#2004,#467);
#340=LINE('',#2006,#468);
#341=LINE('',#2007,#469);
#342=LINE('',#2008,#470);
#343=LINE('',#2011,#471);
#344=LINE('',#2014,#472);
#345=LINE('',#2015,#473);
#346=LINE('',#2018,#474);
#347=LINE('',#2021,#475);
#348=LINE('',#2027,#476);
#349=LINE('',#2029,#477);
#350=LINE('',#2035,#478);
#351=LINE('',#2037,#479);
#352=LINE('',#2039,#480);
#353=LINE('',#2041,#481);
#354=LINE('',#2044,#482);
#355=LINE('',#2046,#483);
#356=LINE('',#2047,#484);
#357=LINE('',#2050,#485);
#358=LINE('',#2051,#486);
#359=LINE('',#2054,#487);
#360=LINE('',#2055,#488);
#361=LINE('',#2058,#489);
#362=LINE('',#2059,#490);
#363=LINE('',#2062,#491);
#364=LINE('',#2063,#492);
#365=LINE('',#2066,#493);
#366=LINE('',#2067,#494);
#367=LINE('',#2070,#495);
#368=LINE('',#2071,#496);
#369=LINE('',#2074,#497);
#370=LINE('',#2075,#498);
#371=LINE('',#2078,#499);
#372=LINE('',#2079,#500);
#373=LINE('',#2082,#501);
#374=LINE('',#2083,#502);
#375=LINE('',#2086,#503);
#376=LINE('',#2087,#504);
#377=LINE('',#2089,#505);
#378=VECTOR('',#1393,3.75);
#379=VECTOR('',#1404,3.75);
#380=VECTOR('',#1415,3.75);
#381=VECTOR('',#1426,3.75);
#382=VECTOR('',#1437,10.);
#383=VECTOR('',#1440,10.);
#384=VECTOR('',#1445,10.);
#385=VECTOR('',#1448,10.);
#386=VECTOR('',#1453,10.);
#387=VECTOR('',#1456,10.);
#388=VECTOR('',#1461,10.);
#389=VECTOR('',#1464,10.);
#390=VECTOR('',#1469,10.);
#391=VECTOR('',#1472,10.);
#392=VECTOR('',#1477,10.);
#393=VECTOR('',#1480,10.);
#394=VECTOR('',#1485,10.);
#395=VECTOR('',#1488,10.);
#396=VECTOR('',#1493,10.);
#397=VECTOR('',#1496,10.);
#398=VECTOR('',#1501,10.);
#399=VECTOR('',#1504,10.);
#400=VECTOR('',#1507,10.);
#401=VECTOR('',#1510,10.);
#402=VECTOR('',#1515,10.);
#403=VECTOR('',#1518,10.);
#404=VECTOR('',#1523,10.);
#405=VECTOR('',#1526,10.);
#406=VECTOR('',#1531,10.);
#407=VECTOR('',#1532,10.);
#408=VECTOR('',#1533,10.);
#409=VECTOR('',#1536,10.);
#410=VECTOR('',#1537,10.);
#411=VECTOR('',#1538,10.);
#412=VECTOR('',#1541,10.);
#413=VECTOR('',#1542,10.);
#414=VECTOR('',#1543,10.);
#415=VECTOR('',#1546,10.);
#416=VECTOR('',#1547,10.);
#417=VECTOR('',#1548,10.);
#418=VECTOR('',#1551,10.);
#419=VECTOR('',#1552,10.);
#420=VECTOR('',#1553,10.);
#421=VECTOR('',#1556,10.);
#422=VECTOR('',#1557,10.);
#423=VECTOR('',#1558,10.);
#424=VECTOR('',#1561,10.);
#425=VECTOR('',#1562,10.);
#426=VECTOR('',#1563,10.);
#427=VECTOR('',#1566,10.);
#428=VECTOR('',#1567,10.);
#429=VECTOR('',#1568,10.);
#430=VECTOR('',#1571,10.);
#431=VECTOR('',#1572,10.);
#432=VECTOR('',#1575,10.);
#433=VECTOR('',#1576,10.);
#434=VECTOR('',#1579,10.);
#435=VECTOR('',#1580,10.);
#436=VECTOR('',#1581,10.);
#437=VECTOR('',#1584,10.);
#438=VECTOR('',#1585,10.);
#439=VECTOR('',#1588,10.);
#440=VECTOR('',#1589,10.);
#441=VECTOR('',#1590,10.);
#442=VECTOR('',#1593,10.);
#443=VECTOR('',#1594,10.);
#444=VECTOR('',#1597,10.);
#445=VECTOR('',#1600,10.);
#446=VECTOR('',#1605,10.);
#447=VECTOR('',#1610,10.);
#448=VECTOR('',#1613,10.);
#449=VECTOR('',#1614,10.);
#450=VECTOR('',#1615,10.);
#451=VECTOR('',#1616,10.);
#452=VECTOR('',#1619,10.);
#453=VECTOR('',#1622,10.);
#454=VECTOR('',#1625,10.);
#455=VECTOR('',#1626,10.);
#456=VECTOR('',#1627,10.);
#457=VECTOR('',#1628,10.);
#458=VECTOR('',#1629,10.);
#459=VECTOR('',#1630,10.);
#460=VECTOR('',#1631,10.);
#461=VECTOR('',#1632,10.);
#462=VECTOR('',#1633,10.);
#463=VECTOR('',#1634,10.);
#464=VECTOR('',#1635,10.);
#465=VECTOR('',#1636,10.);
#466=VECTOR('',#1637,10.);
#467=VECTOR('',#1638,10.);
#468=VECTOR('',#1639,10.);
#469=VECTOR('',#1640,10.);
#470=VECTOR('',#1641,10.);
#471=VECTOR('',#1644,10.);
#472=VECTOR('',#1647,10.);
#473=VECTOR('',#1648,10.);
#474=VECTOR('',#1651,10.);
#475=VECTOR('',#1654,10.);
#476=VECTOR('',#1665,10.);
#477=VECTOR('',#1668,10.);
#478=VECTOR('',#1679,2.1);
#479=VECTOR('',#1682,2.1);
#480=VECTOR('',#1685,2.1);
#481=VECTOR('',#1688,2.1);
#482=VECTOR('',#1691,10.);
#483=VECTOR('',#1692,10.);
#484=VECTOR('',#1693,10.);
#485=VECTOR('',#1696,10.);
#486=VECTOR('',#1697,10.);
#487=VECTOR('',#1700,10.);
#488=VECTOR('',#1701,10.);
#489=VECTOR('',#1704,10.);
#490=VECTOR('',#1705,10.);
#491=VECTOR('',#1708,10.);
#492=VECTOR('',#1709,10.);
#493=VECTOR('',#1712,10.);
#494=VECTOR('',#1713,10.);
#495=VECTOR('',#1716,10.);
#496=VECTOR('',#1717,10.);
#497=VECTOR('',#1720,10.);
#498=VECTOR('',#1721,10.);
#499=VECTOR('',#1724,10.);
#500=VECTOR('',#1725,10.);
#501=VECTOR('',#1728,10.);
#502=VECTOR('',#1729,10.);
#503=VECTOR('',#1732,10.);
#504=VECTOR('',#1733,10.);
#505=VECTOR('',#1736,10.);
#506=CIRCLE('',#1277,3.75);
#507=CIRCLE('',#1278,3.75);
#508=CIRCLE('',#1280,2.1);
#509=CIRCLE('',#1282,3.75);
#510=CIRCLE('',#1283,3.75);
#511=CIRCLE('',#1285,2.1);
#512=CIRCLE('',#1287,3.75);
#513=CIRCLE('',#1288,3.75);
#514=CIRCLE('',#1290,2.1);
#515=CIRCLE('',#1292,3.75);
#516=CIRCLE('',#1293,3.75);
#517=CIRCLE('',#1295,2.1);
#518=CIRCLE('',#1297,4.5);
#519=CIRCLE('',#1298,4.5);
#520=CIRCLE('',#1300,4.5);
#521=CIRCLE('',#1301,4.5);
#522=CIRCLE('',#1303,4.5);
#523=CIRCLE('',#1304,4.5);
#524=CIRCLE('',#1306,4.5);
#525=CIRCLE('',#1307,4.5);
#526=CIRCLE('',#1309,4.5);
#527=CIRCLE('',#1310,4.5);
#528=CIRCLE('',#1312,4.5);
#529=CIRCLE('',#1313,4.5);
#530=CIRCLE('',#1315,4.5);
#531=CIRCLE('',#1316,4.5);
#532=CIRCLE('',#1318,4.5);
#533=CIRCLE('',#1319,4.5);
#534=CIRCLE('',#1321,4.5);
#535=CIRCLE('',#1322,4.5);
#536=CIRCLE('',#1324,4.5);
#537=CIRCLE('',#1325,4.5);
#538=CIRCLE('',#1327,4.5);
#539=CIRCLE('',#1328,4.5);
#540=CIRCLE('',#1330,4.5);
#541=CIRCLE('',#1331,4.5);
#542=CIRCLE('',#1356,2.1);
#543=CIRCLE('',#1357,2.1);
#544=CIRCLE('',#1358,2.1);
#545=CIRCLE('',#1359,2.1);
#546=VERTEX_POINT('',#1741);
#547=VERTEX_POINT('',#1743);
#548=VERTEX_POINT('',#1747);
#549=VERTEX_POINT('',#1750);
#550=VERTEX_POINT('',#1752);
#551=VERTEX_POINT('',#1756);
#552=VERTEX_POINT('',#1759);
#553=VERTEX_POINT('',#1761);
#554=VERTEX_POINT('',#1765);
#555=VERTEX_POINT('',#1768);
#556=VERTEX_POINT('',#1770);
#557=VERTEX_POINT('',#1774);
#558=VERTEX_POINT('',#1777);
#559=VERTEX_POINT('',#1778);
#560=VERTEX_POINT('',#1780);
#561=VERTEX_POINT('',#1782);
#562=VERTEX_POINT('',#1786);
#563=VERTEX_POINT('',#1787);
#564=VERTEX_POINT('',#1789);
#565=VERTEX_POINT('',#1791);
#566=VERTEX_POINT('',#1795);
#567=VERTEX_POINT('',#1796);
#568=VERTEX_POINT('',#1798);
#569=VERTEX_POINT('',#1800);
#570=VERTEX_POINT('',#1804);
#571=VERTEX_POINT('',#1805);
#572=VERTEX_POINT('',#1807);
#573=VERTEX_POINT('',#1809);
#574=VERTEX_POINT('',#1813);
#575=VERTEX_POINT('',#1814);
#576=VERTEX_POINT('',#1816);
#577=VERTEX_POINT('',#1818);
#578=VERTEX_POINT('',#1822);
#579=VERTEX_POINT('',#1823);
#580=VERTEX_POINT('',#1825);
#581=VERTEX_POINT('',#1827);
#582=VERTEX_POINT('',#1831);
#583=VERTEX_POINT('',#1832);
#584=VERTEX_POINT('',#1834);
#585=VERTEX_POINT('',#1836);
#586=VERTEX_POINT('',#1840);
#587=VERTEX_POINT('',#1841);
#588=VERTEX_POINT('',#1843);
#589=VERTEX_POINT('',#1845);
#590=VERTEX_POINT('',#1849);
#591=VERTEX_POINT('',#1850);
#592=VERTEX_POINT('',#1852);
#593=VERTEX_POINT('',#1854);
#594=VERTEX_POINT('',#1858);
#595=VERTEX_POINT('',#1859);
#596=VERTEX_POINT('',#1861);
#597=VERTEX_POINT('',#1863);
#598=VERTEX_POINT('',#1867);
#599=VERTEX_POINT('',#1868);
#600=VERTEX_POINT('',#1870);
#601=VERTEX_POINT('',#1872);
#602=VERTEX_POINT('',#1876);
#603=VERTEX_POINT('',#1877);
#604=VERTEX_POINT('',#1879);
#605=VERTEX_POINT('',#1881);
#606=VERTEX_POINT('',#1885);
#607=VERTEX_POINT('',#1887);
#608=VERTEX_POINT('',#1891);
#609=VERTEX_POINT('',#1893);
#610=VERTEX_POINT('',#1897);
#611=VERTEX_POINT('',#1899);
#612=VERTEX_POINT('',#1903);
#613=VERTEX_POINT('',#1905);
#614=VERTEX_POINT('',#1909);
#615=VERTEX_POINT('',#1911);
#616=VERTEX_POINT('',#1915);
#617=VERTEX_POINT('',#1917);
#618=VERTEX_POINT('',#1921);
#619=VERTEX_POINT('',#1923);
#620=VERTEX_POINT('',#1927);
#621=VERTEX_POINT('',#1929);
#622=VERTEX_POINT('',#1939);
#623=VERTEX_POINT('',#1941);
#624=VERTEX_POINT('',#1948);
#625=VERTEX_POINT('',#1950);
#626=VERTEX_POINT('',#1968);
#627=VERTEX_POINT('',#1970);
#628=VERTEX_POINT('',#1978);
#629=VERTEX_POINT('',#1979);
#630=VERTEX_POINT('',#1981);
#631=VERTEX_POINT('',#1983);
#632=VERTEX_POINT('',#1985);
#633=VERTEX_POINT('',#1987);
#634=VERTEX_POINT('',#1989);
#635=VERTEX_POINT('',#1991);
#636=VERTEX_POINT('',#1993);
#637=VERTEX_POINT('',#1995);
#638=VERTEX_POINT('',#1997);
#639=VERTEX_POINT('',#1999);
#640=VERTEX_POINT('',#2003);
#641=VERTEX_POINT('',#2005);
#642=VERTEX_POINT('',#2009);
#643=VERTEX_POINT('',#2012);
#644=VERTEX_POINT('',#2016);
#645=VERTEX_POINT('',#2019);
#646=VERTEX_POINT('',#2043);
#647=VERTEX_POINT('',#2045);
#648=VERTEX_POINT('',#2049);
#649=VERTEX_POINT('',#2053);
#650=VERTEX_POINT('',#2057);
#651=VERTEX_POINT('',#2061);
#652=VERTEX_POINT('',#2065);
#653=VERTEX_POINT('',#2069);
#654=VERTEX_POINT('',#2073);
#655=VERTEX_POINT('',#2077);
#656=VERTEX_POINT('',#2081);
#657=VERTEX_POINT('',#2085);
#658=EDGE_CURVE('',#546,#546,#506,.T.);
#659=EDGE_CURVE('',#546,#547,#250,.T.);
#660=EDGE_CURVE('',#547,#547,#507,.T.);
#661=EDGE_CURVE('',#548,#548,#508,.T.);
#662=EDGE_CURVE('',#549,#549,#509,.T.);
#663=EDGE_CURVE('',#549,#550,#251,.T.);
#664=EDGE_CURVE('',#550,#550,#510,.T.);
#665=EDGE_CURVE('',#551,#551,#511,.T.);
#666=EDGE_CURVE('',#552,#552,#512,.T.);
#667=EDGE_CURVE('',#552,#553,#252,.T.);
#668=EDGE_CURVE('',#553,#553,#513,.T.);
#669=EDGE_CURVE('',#554,#554,#514,.T.);
#670=EDGE_CURVE('',#555,#555,#515,.T.);
#671=EDGE_CURVE('',#555,#556,#253,.T.);
#672=EDGE_CURVE('',#556,#556,#516,.T.);
#673=EDGE_CURVE('',#557,#557,#517,.T.);
#674=EDGE_CURVE('',#558,#559,#518,.T.);
#675=EDGE_CURVE('',#560,#558,#254,.T.);
#676=EDGE_CURVE('',#561,#560,#519,.T.);
#677=EDGE_CURVE('',#559,#561,#255,.T.);
#678=EDGE_CURVE('',#562,#563,#520,.T.);
#679=EDGE_CURVE('',#564,#562,#256,.T.);
#680=EDGE_CURVE('',#565,#564,#521,.T.);
#681=EDGE_CURVE('',#563,#565,#257,.T.);
#682=EDGE_CURVE('',#566,#567,#522,.T.);
#683=EDGE_CURVE('',#568,#566,#258,.T.);
#684=EDGE_CURVE('',#569,#568,#523,.T.);
#685=EDGE_CURVE('',#567,#569,#259,.T.);
#686=EDGE_CURVE('',#570,#571,#524,.T.);
#687=EDGE_CURVE('',#572,#570,#260,.T.);
#688=EDGE_CURVE('',#573,#572,#525,.T.);
#689=EDGE_CURVE('',#571,#573,#261,.T.);
#690=EDGE_CURVE('',#574,#575,#526,.T.);
#691=EDGE_CURVE('',#576,#574,#262,.T.);
#692=EDGE_CURVE('',#577,#576,#527,.T.);
#693=EDGE_CURVE('',#575,#577,#263,.T.);
#694=EDGE_CURVE('',#578,#579,#528,.T.);
#695=EDGE_CURVE('',#580,#578,#264,.T.);
#696=EDGE_CURVE('',#581,#580,#529,.T.);
#697=EDGE_CURVE('',#579,#581,#265,.T.);
#698=EDGE_CURVE('',#582,#583,#530,.T.);
#699=EDGE_CURVE('',#584,#582,#266,.T.);
#700=EDGE_CURVE('',#585,#584,#531,.T.);
#701=EDGE_CURVE('',#583,#585,#267,.T.);
#702=EDGE_CURVE('',#586,#587,#532,.T.);
#703=EDGE_CURVE('',#588,#586,#268,.T.);
#704=EDGE_CURVE('',#589,#588,#533,.T.);
#705=EDGE_CURVE('',#587,#589,#269,.T.);
#706=EDGE_CURVE('',#590,#591,#534,.T.);
#707=EDGE_CURVE('',#592,#590,#270,.T.);
#708=EDGE_CURVE('',#593,#592,#535,.T.);
#709=EDGE_CURVE('',#591,#593,#271,.T.);
#710=EDGE_CURVE('',#594,#595,#272,.T.);
#711=EDGE_CURVE('',#596,#594,#536,.T.);
#712=EDGE_CURVE('',#597,#596,#273,.T.);
#713=EDGE_CURVE('',#595,#597,#537,.T.);
#714=EDGE_CURVE('',#598,#599,#274,.T.);
#715=EDGE_CURVE('',#600,#598,#538,.T.);
#716=EDGE_CURVE('',#601,#600,#275,.T.);
#717=EDGE_CURVE('',#599,#601,#539,.T.);
#718=EDGE_CURVE('',#602,#603,#276,.T.);
#719=EDGE_CURVE('',#604,#602,#540,.T.);
#720=EDGE_CURVE('',#605,#604,#277,.T.);
#721=EDGE_CURVE('',#603,#605,#541,.T.);
#722=EDGE_CURVE('',#606,#561,#278,.T.);
#723=EDGE_CURVE('',#607,#606,#279,.T.);
#724=EDGE_CURVE('',#559,#607,#280,.T.);
#725=EDGE_CURVE('',#608,#562,#281,.T.);
#726=EDGE_CURVE('',#608,#609,#282,.T.);
#727=EDGE_CURVE('',#564,#609,#283,.T.);
#728=EDGE_CURVE('',#610,#573,#284,.T.);
#729=EDGE_CURVE('',#611,#610,#285,.T.);
#730=EDGE_CURVE('',#571,#611,#286,.T.);
#731=EDGE_CURVE('',#612,#574,#287,.T.);
#732=EDGE_CURVE('',#612,#613,#288,.T.);
#733=EDGE_CURVE('',#576,#613,#289,.T.);
#734=EDGE_CURVE('',#614,#578,#290,.T.);
#735=EDGE_CURVE('',#614,#615,#291,.T.);
#736=EDGE_CURVE('',#580,#615,#292,.T.);
#737=EDGE_CURVE('',#616,#585,#293,.T.);
#738=EDGE_CURVE('',#617,#616,#294,.T.);
#739=EDGE_CURVE('',#583,#617,#295,.T.);
#740=EDGE_CURVE('',#618,#586,#296,.T.);
#741=EDGE_CURVE('',#618,#619,#297,.T.);
#742=EDGE_CURVE('',#588,#619,#298,.T.);
#743=EDGE_CURVE('',#620,#590,#299,.T.);
#744=EDGE_CURVE('',#620,#621,#300,.T.);
#745=EDGE_CURVE('',#592,#621,#301,.T.);
#746=EDGE_CURVE('',#591,#566,#302,.T.);
#747=EDGE_CURVE('',#568,#593,#303,.T.);
#748=EDGE_CURVE('',#617,#582,#304,.T.);
#749=EDGE_CURVE('',#584,#616,#305,.T.);
#750=EDGE_CURVE('',#622,#599,#306,.T.);
#751=EDGE_CURVE('',#622,#623,#307,.T.);
#752=EDGE_CURVE('',#598,#623,#308,.T.);
#753=EDGE_CURVE('',#615,#581,#309,.T.);
#754=EDGE_CURVE('',#579,#614,#310,.T.);
#755=EDGE_CURVE('',#624,#595,#311,.T.);
#756=EDGE_CURVE('',#625,#624,#312,.T.);
#757=EDGE_CURVE('',#594,#625,#313,.T.);
#758=EDGE_CURVE('',#605,#569,#314,.T.);
#759=EDGE_CURVE('',#567,#604,#315,.T.);
#760=EDGE_CURVE('',#601,#622,#316,.T.);
#761=EDGE_CURVE('',#625,#596,#317,.T.);
#762=EDGE_CURVE('',#587,#618,#318,.T.);
#763=EDGE_CURVE('',#575,#612,#319,.T.);
#764=EDGE_CURVE('',#602,#570,#320,.T.);
#765=EDGE_CURVE('',#611,#626,#321,.T.);
#766=EDGE_CURVE('',#626,#627,#322,.T.);
#767=EDGE_CURVE('',#627,#620,#323,.T.);
#768=EDGE_CURVE('',#607,#558,#324,.T.);
#769=EDGE_CURVE('',#563,#608,#325,.T.);
#770=EDGE_CURVE('',#628,#629,#326,.T.);
#771=EDGE_CURVE('',#629,#630,#327,.T.);
#772=EDGE_CURVE('',#630,#631,#328,.T.);
#773=EDGE_CURVE('',#631,#632,#329,.T.);
#774=EDGE_CURVE('',#632,#633,#330,.T.);
#775=EDGE_CURVE('',#633,#634,#331,.T.);
#776=EDGE_CURVE('',#634,#635,#332,.T.);
#777=EDGE_CURVE('',#635,#636,#333,.T.);
#778=EDGE_CURVE('',#636,#637,#334,.T.);
#779=EDGE_CURVE('',#637,#638,#335,.T.);
#780=EDGE_CURVE('',#638,#639,#336,.T.);
#781=EDGE_CURVE('',#639,#628,#337,.T.);
#782=EDGE_CURVE('',#609,#565,#338,.T.);
#783=EDGE_CURVE('',#621,#640,#339,.T.);
#784=EDGE_CURVE('',#640,#641,#340,.T.);
#785=EDGE_CURVE('',#641,#610,#341,.T.);
#786=EDGE_CURVE('',#572,#603,#342,.T.);
#787=EDGE_CURVE('',#642,#642,#542,.T.);
#788=EDGE_CURVE('',#613,#577,#343,.T.);
#789=EDGE_CURVE('',#643,#643,#543,.T.);
#790=EDGE_CURVE('',#619,#589,#344,.T.);
#791=EDGE_CURVE('',#560,#606,#345,.T.);
#792=EDGE_CURVE('',#644,#644,#544,.T.);
#793=EDGE_CURVE('',#623,#600,#346,.T.);
#794=EDGE_CURVE('',#645,#645,#545,.T.);
#795=EDGE_CURVE('',#597,#624,#347,.T.);
#796=EDGE_CURVE('',#626,#641,#348,.T.);
#797=EDGE_CURVE('',#627,#640,#349,.T.);
#798=EDGE_CURVE('',#548,#643,#350,.T.);
#799=EDGE_CURVE('',#551,#644,#351,.T.);
#800=EDGE_CURVE('',#554,#645,#352,.T.);
#801=EDGE_CURVE('',#557,#642,#353,.T.);
#802=EDGE_CURVE('',#646,#639,#354,.T.);
#803=EDGE_CURVE('',#647,#646,#355,.T.);
#804=EDGE_CURVE('',#628,#647,#356,.T.);
#805=EDGE_CURVE('',#648,#647,#357,.T.);
#806=EDGE_CURVE('',#629,#648,#358,.T.);
#807=EDGE_CURVE('',#649,#648,#359,.T.);
#808=EDGE_CURVE('',#630,#649,#360,.T.);
#809=EDGE_CURVE('',#650,#649,#361,.T.);
#810=EDGE_CURVE('',#631,#650,#362,.T.);
#811=EDGE_CURVE('',#651,#650,#363,.T.);
#812=EDGE_CURVE('',#632,#651,#364,.T.);
#813=EDGE_CURVE('',#652,#651,#365,.T.);
#814=EDGE_CURVE('',#633,#652,#366,.T.);
#815=EDGE_CURVE('',#653,#652,#367,.T.);
#816=EDGE_CURVE('',#634,#653,#368,.T.);
#817=EDGE_CURVE('',#654,#653,#369,.T.);
#818=EDGE_CURVE('',#635,#654,#370,.T.);
#819=EDGE_CURVE('',#655,#654,#371,.T.);
#820=EDGE_CURVE('',#636,#655,#372,.T.);
#821=EDGE_CURVE('',#656,#655,#373,.T.);
#822=EDGE_CURVE('',#637,#656,#374,.T.);
#823=EDGE_CURVE('',#657,#656,#375,.T.);
#824=EDGE_CURVE('',#638,#657,#376,.T.);
#825=EDGE_CURVE('',#646,#657,#377,.T.);
#826=ORIENTED_EDGE('',*,*,#658,.F.);
#827=ORIENTED_EDGE('',*,*,#659,.T.);
#828=ORIENTED_EDGE('',*,*,#660,.T.);
#829=ORIENTED_EDGE('',*,*,#659,.F.);
#830=ORIENTED_EDGE('',*,*,#660,.F.);
#831=ORIENTED_EDGE('',*,*,#661,.F.);
#832=ORIENTED_EDGE('',*,*,#662,.F.);
#833=ORIENTED_EDGE('',*,*,#663,.T.);
#834=ORIENTED_EDGE('',*,*,#664,.T.);
#835=ORIENTED_EDGE('',*,*,#663,.F.);
#836=ORIENTED_EDGE('',*,*,#664,.F.);
#837=ORIENTED_EDGE('',*,*,#665,.F.);
#838=ORIENTED_EDGE('',*,*,#666,.F.);
#839=ORIENTED_EDGE('',*,*,#667,.T.);
#840=ORIENTED_EDGE('',*,*,#668,.T.);
#841=ORIENTED_EDGE('',*,*,#667,.F.);
#842=ORIENTED_EDGE('',*,*,#668,.F.);
#843=ORIENTED_EDGE('',*,*,#669,.F.);
#844=ORIENTED_EDGE('',*,*,#670,.F.);
#845=ORIENTED_EDGE('',*,*,#671,.T.);
#846=ORIENTED_EDGE('',*,*,#672,.T.);
#847=ORIENTED_EDGE('',*,*,#671,.F.);
#848=ORIENTED_EDGE('',*,*,#672,.F.);
#849=ORIENTED_EDGE('',*,*,#673,.F.);
#850=ORIENTED_EDGE('',*,*,#674,.F.);
#851=ORIENTED_EDGE('',*,*,#675,.F.);
#852=ORIENTED_EDGE('',*,*,#676,.F.);
#853=ORIENTED_EDGE('',*,*,#677,.F.);
#854=ORIENTED_EDGE('',*,*,#678,.F.);
#855=ORIENTED_EDGE('',*,*,#679,.F.);
#856=ORIENTED_EDGE('',*,*,#680,.F.);
#857=ORIENTED_EDGE('',*,*,#681,.F.);
#858=ORIENTED_EDGE('',*,*,#682,.F.);
#859=ORIENTED_EDGE('',*,*,#683,.F.);
#860=ORIENTED_EDGE('',*,*,#684,.F.);
#861=ORIENTED_EDGE('',*,*,#685,.F.);
#862=ORIENTED_EDGE('',*,*,#686,.F.);
#863=ORIENTED_EDGE('',*,*,#687,.F.);
#864=ORIENTED_EDGE('',*,*,#688,.F.);
#865=ORIENTED_EDGE('',*,*,#689,.F.);
#866=ORIENTED_EDGE('',*,*,#690,.F.);
#867=ORIENTED_EDGE('',*,*,#691,.F.);
#868=ORIENTED_EDGE('',*,*,#692,.F.);
#869=ORIENTED_EDGE('',*,*,#693,.F.);
#870=ORIENTED_EDGE('',*,*,#694,.F.);
#871=ORIENTED_EDGE('',*,*,#695,.F.);
#872=ORIENTED_EDGE('',*,*,#696,.F.);
#873=ORIENTED_EDGE('',*,*,#697,.F.);
#874=ORIENTED_EDGE('',*,*,#698,.F.);
#875=ORIENTED_EDGE('',*,*,#699,.F.);
#876=ORIENTED_EDGE('',*,*,#700,.F.);
#877=ORIENTED_EDGE('',*,*,#701,.F.);
#878=ORIENTED_EDGE('',*,*,#702,.F.);
#879=ORIENTED_EDGE('',*,*,#703,.F.);
#880=ORIENTED_EDGE('',*,*,#704,.F.);
#881=ORIENTED_EDGE('',*,*,#705,.F.);
#882=ORIENTED_EDGE('',*,*,#706,.F.);
#883=ORIENTED_EDGE('',*,*,#707,.F.);
#884=ORIENTED_EDGE('',*,*,#708,.F.);
#885=ORIENTED_EDGE('',*,*,#709,.F.);
#886=ORIENTED_EDGE('',*,*,#710,.F.);
#887=ORIENTED_EDGE('',*,*,#711,.F.);
#888=ORIENTED_EDGE('',*,*,#712,.F.);
#889=ORIENTED_EDGE('',*,*,#713,.F.);
#890=ORIENTED_EDGE('',*,*,#714,.F.);
#891=ORIENTED_EDGE('',*,*,#715,.F.);
#892=ORIENTED_EDGE('',*,*,#716,.F.);
#893=ORIENTED_EDGE('',*,*,#717,.F.);
#894=ORIENTED_EDGE('',*,*,#718,.F.);
#895=ORIENTED_EDGE('',*,*,#719,.F.);
#896=ORIENTED_EDGE('',*,*,#720,.F.);
#897=ORIENTED_EDGE('',*,*,#721,.F.);
#898=ORIENTED_EDGE('',*,*,#677,.T.);
#899=ORIENTED_EDGE('',*,*,#722,.F.);
#900=ORIENTED_EDGE('',*,*,#723,.F.);
#901=ORIENTED_EDGE('',*,*,#724,.F.);
#902=ORIENTED_EDGE('',*,*,#679,.T.);
#903=ORIENTED_EDGE('',*,*,#725,.F.);
#904=ORIENTED_EDGE('',*,*,#726,.T.);
#905=ORIENTED_EDGE('',*,*,#727,.F.);
#906=ORIENTED_EDGE('',*,*,#689,.T.);
#907=ORIENTED_EDGE('',*,*,#728,.F.);
#908=ORIENTED_EDGE('',*,*,#729,.F.);
#909=ORIENTED_EDGE('',*,*,#730,.F.);
#910=ORIENTED_EDGE('',*,*,#691,.T.);
#911=ORIENTED_EDGE('',*,*,#731,.F.);
#912=ORIENTED_EDGE('',*,*,#732,.T.);
#913=ORIENTED_EDGE('',*,*,#733,.F.);
#914=ORIENTED_EDGE('',*,*,#695,.T.);
#915=ORIENTED_EDGE('',*,*,#734,.F.);
#916=ORIENTED_EDGE('',*,*,#735,.T.);
#917=ORIENTED_EDGE('',*,*,#736,.F.);
#918=ORIENTED_EDGE('',*,*,#701,.T.);
#919=ORIENTED_EDGE('',*,*,#737,.F.);
#920=ORIENTED_EDGE('',*,*,#738,.F.);
#921=ORIENTED_EDGE('',*,*,#739,.F.);
#922=ORIENTED_EDGE('',*,*,#703,.T.);
#923=ORIENTED_EDGE('',*,*,#740,.F.);
#924=ORIENTED_EDGE('',*,*,#741,.T.);
#925=ORIENTED_EDGE('',*,*,#742,.F.);
#926=ORIENTED_EDGE('',*,*,#707,.T.);
#927=ORIENTED_EDGE('',*,*,#743,.F.);
#928=ORIENTED_EDGE('',*,*,#744,.T.);
#929=ORIENTED_EDGE('',*,*,#745,.F.);
#930=ORIENTED_EDGE('',*,*,#683,.T.);
#931=ORIENTED_EDGE('',*,*,#746,.F.);
#932=ORIENTED_EDGE('',*,*,#709,.T.);
#933=ORIENTED_EDGE('',*,*,#747,.F.);
#934=ORIENTED_EDGE('',*,*,#699,.T.);
#935=ORIENTED_EDGE('',*,*,#748,.F.);
#936=ORIENTED_EDGE('',*,*,#738,.T.);
#937=ORIENTED_EDGE('',*,*,#749,.F.);
#938=ORIENTED_EDGE('',*,*,#714,.T.);
#939=ORIENTED_EDGE('',*,*,#750,.F.);
#940=ORIENTED_EDGE('',*,*,#751,.T.);
#941=ORIENTED_EDGE('',*,*,#752,.F.);
#942=ORIENTED_EDGE('',*,*,#697,.T.);
#943=ORIENTED_EDGE('',*,*,#753,.F.);
#944=ORIENTED_EDGE('',*,*,#735,.F.);
#945=ORIENTED_EDGE('',*,*,#754,.F.);
#946=ORIENTED_EDGE('',*,*,#710,.T.);
#947=ORIENTED_EDGE('',*,*,#755,.F.);
#948=ORIENTED_EDGE('',*,*,#756,.F.);
#949=ORIENTED_EDGE('',*,*,#757,.F.);
#950=ORIENTED_EDGE('',*,*,#685,.T.);
#951=ORIENTED_EDGE('',*,*,#758,.F.);
#952=ORIENTED_EDGE('',*,*,#720,.T.);
#953=ORIENTED_EDGE('',*,*,#759,.F.);
#954=ORIENTED_EDGE('',*,*,#717,.T.);
#955=ORIENTED_EDGE('',*,*,#760,.T.);
#956=ORIENTED_EDGE('',*,*,#750,.T.);
#957=ORIENTED_EDGE('',*,*,#711,.T.);
#958=ORIENTED_EDGE('',*,*,#757,.T.);
#959=ORIENTED_EDGE('',*,*,#761,.T.);
#960=ORIENTED_EDGE('',*,*,#698,.T.);
#961=ORIENTED_EDGE('',*,*,#739,.T.);
#962=ORIENTED_EDGE('',*,*,#748,.T.);
#963=ORIENTED_EDGE('',*,*,#702,.T.);
#964=ORIENTED_EDGE('',*,*,#762,.T.);
#965=ORIENTED_EDGE('',*,*,#740,.T.);
#966=ORIENTED_EDGE('',*,*,#694,.T.);
#967=ORIENTED_EDGE('',*,*,#754,.T.);
#968=ORIENTED_EDGE('',*,*,#734,.T.);
#969=ORIENTED_EDGE('',*,*,#690,.T.);
#970=ORIENTED_EDGE('',*,*,#763,.T.);
#971=ORIENTED_EDGE('',*,*,#731,.T.);
#972=ORIENTED_EDGE('',*,*,#682,.T.);
#973=ORIENTED_EDGE('',*,*,#759,.T.);
#974=ORIENTED_EDGE('',*,*,#719,.T.);
#975=ORIENTED_EDGE('',*,*,#764,.T.);
#976=ORIENTED_EDGE('',*,*,#686,.T.);
#977=ORIENTED_EDGE('',*,*,#730,.T.);
#978=ORIENTED_EDGE('',*,*,#765,.T.);
#979=ORIENTED_EDGE('',*,*,#766,.T.);
#980=ORIENTED_EDGE('',*,*,#767,.T.);
#981=ORIENTED_EDGE('',*,*,#743,.T.);
#982=ORIENTED_EDGE('',*,*,#706,.T.);
#983=ORIENTED_EDGE('',*,*,#746,.T.);
#984=ORIENTED_EDGE('',*,*,#674,.T.);
#985=ORIENTED_EDGE('',*,*,#724,.T.);
#986=ORIENTED_EDGE('',*,*,#768,.T.);
#987=ORIENTED_EDGE('',*,*,#678,.T.);
#988=ORIENTED_EDGE('',*,*,#769,.T.);
#989=ORIENTED_EDGE('',*,*,#725,.T.);
#990=ORIENTED_EDGE('',*,*,#770,.T.);
#991=ORIENTED_EDGE('',*,*,#771,.T.);
#992=ORIENTED_EDGE('',*,*,#772,.T.);
#993=ORIENTED_EDGE('',*,*,#773,.T.);
#994=ORIENTED_EDGE('',*,*,#774,.T.);
#995=ORIENTED_EDGE('',*,*,#775,.T.);
#996=ORIENTED_EDGE('',*,*,#776,.T.);
#997=ORIENTED_EDGE('',*,*,#777,.T.);
#998=ORIENTED_EDGE('',*,*,#778,.T.);
#999=ORIENTED_EDGE('',*,*,#779,.T.);
#1000=ORIENTED_EDGE('',*,*,#780,.T.);
#1001=ORIENTED_EDGE('',*,*,#781,.T.);
#1002=ORIENTED_EDGE('',*,*,#727,.T.);
#1003=ORIENTED_EDGE('',*,*,#782,.T.);
#1004=ORIENTED_EDGE('',*,*,#680,.T.);
#1005=ORIENTED_EDGE('',*,*,#747,.T.);
#1006=ORIENTED_EDGE('',*,*,#708,.T.);
#1007=ORIENTED_EDGE('',*,*,#745,.T.);
#1008=ORIENTED_EDGE('',*,*,#783,.T.);
#1009=ORIENTED_EDGE('',*,*,#784,.T.);
#1010=ORIENTED_EDGE('',*,*,#785,.T.);
#1011=ORIENTED_EDGE('',*,*,#728,.T.);
#1012=ORIENTED_EDGE('',*,*,#688,.T.);
#1013=ORIENTED_EDGE('',*,*,#786,.T.);
#1014=ORIENTED_EDGE('',*,*,#721,.T.);
#1015=ORIENTED_EDGE('',*,*,#758,.T.);
#1016=ORIENTED_EDGE('',*,*,#684,.T.);
#1017=ORIENTED_EDGE('',*,*,#787,.T.);
#1018=ORIENTED_EDGE('',*,*,#733,.T.);
#1019=ORIENTED_EDGE('',*,*,#788,.T.);
#1020=ORIENTED_EDGE('',*,*,#692,.T.);
#1021=ORIENTED_EDGE('',*,*,#736,.T.);
#1022=ORIENTED_EDGE('',*,*,#753,.T.);
#1023=ORIENTED_EDGE('',*,*,#696,.T.);
#1024=ORIENTED_EDGE('',*,*,#789,.T.);
#1025=ORIENTED_EDGE('',*,*,#742,.T.);
#1026=ORIENTED_EDGE('',*,*,#790,.T.);
#1027=ORIENTED_EDGE('',*,*,#704,.T.);
#1028=ORIENTED_EDGE('',*,*,#676,.T.);
#1029=ORIENTED_EDGE('',*,*,#791,.T.);
#1030=ORIENTED_EDGE('',*,*,#722,.T.);
#1031=ORIENTED_EDGE('',*,*,#792,.T.);
#1032=ORIENTED_EDGE('',*,*,#752,.T.);
#1033=ORIENTED_EDGE('',*,*,#793,.T.);
#1034=ORIENTED_EDGE('',*,*,#715,.T.);
#1035=ORIENTED_EDGE('',*,*,#700,.T.);
#1036=ORIENTED_EDGE('',*,*,#749,.T.);
#1037=ORIENTED_EDGE('',*,*,#737,.T.);
#1038=ORIENTED_EDGE('',*,*,#794,.T.);
#1039=ORIENTED_EDGE('',*,*,#713,.T.);
#1040=ORIENTED_EDGE('',*,*,#795,.T.);
#1041=ORIENTED_EDGE('',*,*,#755,.T.);
#1042=ORIENTED_EDGE('',*,*,#712,.T.);
#1043=ORIENTED_EDGE('',*,*,#761,.F.);
#1044=ORIENTED_EDGE('',*,*,#756,.T.);
#1045=ORIENTED_EDGE('',*,*,#795,.F.);
#1046=ORIENTED_EDGE('',*,*,#716,.T.);
#1047=ORIENTED_EDGE('',*,*,#793,.F.);
#1048=ORIENTED_EDGE('',*,*,#751,.F.);
#1049=ORIENTED_EDGE('',*,*,#760,.F.);
#1050=ORIENTED_EDGE('',*,*,#687,.T.);
#1051=ORIENTED_EDGE('',*,*,#764,.F.);
#1052=ORIENTED_EDGE('',*,*,#718,.T.);
#1053=ORIENTED_EDGE('',*,*,#786,.F.);
#1054=ORIENTED_EDGE('',*,*,#693,.T.);
#1055=ORIENTED_EDGE('',*,*,#788,.F.);
#1056=ORIENTED_EDGE('',*,*,#732,.F.);
#1057=ORIENTED_EDGE('',*,*,#763,.F.);
#1058=ORIENTED_EDGE('',*,*,#765,.F.);
#1059=ORIENTED_EDGE('',*,*,#729,.T.);
#1060=ORIENTED_EDGE('',*,*,#785,.F.);
#1061=ORIENTED_EDGE('',*,*,#796,.F.);
#1062=ORIENTED_EDGE('',*,*,#766,.F.);
#1063=ORIENTED_EDGE('',*,*,#796,.T.);
#1064=ORIENTED_EDGE('',*,*,#784,.F.);
#1065=ORIENTED_EDGE('',*,*,#797,.F.);
#1066=ORIENTED_EDGE('',*,*,#767,.F.);
#1067=ORIENTED_EDGE('',*,*,#797,.T.);
#1068=ORIENTED_EDGE('',*,*,#783,.F.);
#1069=ORIENTED_EDGE('',*,*,#744,.F.);
#1070=ORIENTED_EDGE('',*,*,#705,.T.);
#1071=ORIENTED_EDGE('',*,*,#790,.F.);
#1072=ORIENTED_EDGE('',*,*,#741,.F.);
#1073=ORIENTED_EDGE('',*,*,#762,.F.);
#1074=ORIENTED_EDGE('',*,*,#681,.T.);
#1075=ORIENTED_EDGE('',*,*,#782,.F.);
#1076=ORIENTED_EDGE('',*,*,#726,.F.);
#1077=ORIENTED_EDGE('',*,*,#769,.F.);
#1078=ORIENTED_EDGE('',*,*,#675,.T.);
#1079=ORIENTED_EDGE('',*,*,#768,.F.);
#1080=ORIENTED_EDGE('',*,*,#723,.T.);
#1081=ORIENTED_EDGE('',*,*,#791,.F.);
#1082=ORIENTED_EDGE('',*,*,#661,.T.);
#1083=ORIENTED_EDGE('',*,*,#798,.T.);
#1084=ORIENTED_EDGE('',*,*,#789,.F.);
#1085=ORIENTED_EDGE('',*,*,#798,.F.);
#1086=ORIENTED_EDGE('',*,*,#665,.T.);
#1087=ORIENTED_EDGE('',*,*,#799,.T.);
#1088=ORIENTED_EDGE('',*,*,#792,.F.);
#1089=ORIENTED_EDGE('',*,*,#799,.F.);
#1090=ORIENTED_EDGE('',*,*,#669,.T.);
#1091=ORIENTED_EDGE('',*,*,#800,.T.);
#1092=ORIENTED_EDGE('',*,*,#794,.F.);
#1093=ORIENTED_EDGE('',*,*,#800,.F.);
#1094=ORIENTED_EDGE('',*,*,#673,.T.);
#1095=ORIENTED_EDGE('',*,*,#801,.T.);
#1096=ORIENTED_EDGE('',*,*,#787,.F.);
#1097=ORIENTED_EDGE('',*,*,#801,.F.);
#1098=ORIENTED_EDGE('',*,*,#802,.F.);
#1099=ORIENTED_EDGE('',*,*,#803,.F.);
#1100=ORIENTED_EDGE('',*,*,#804,.F.);
#1101=ORIENTED_EDGE('',*,*,#781,.F.);
#1102=ORIENTED_EDGE('',*,*,#804,.T.);
#1103=ORIENTED_EDGE('',*,*,#805,.F.);
#1104=ORIENTED_EDGE('',*,*,#806,.F.);
#1105=ORIENTED_EDGE('',*,*,#770,.F.);
#1106=ORIENTED_EDGE('',*,*,#806,.T.);
#1107=ORIENTED_EDGE('',*,*,#807,.F.);
#1108=ORIENTED_EDGE('',*,*,#808,.F.);
#1109=ORIENTED_EDGE('',*,*,#771,.F.);
#1110=ORIENTED_EDGE('',*,*,#808,.T.);
#1111=ORIENTED_EDGE('',*,*,#809,.F.);
#1112=ORIENTED_EDGE('',*,*,#810,.F.);
#1113=ORIENTED_EDGE('',*,*,#772,.F.);
#1114=ORIENTED_EDGE('',*,*,#810,.T.);
#1115=ORIENTED_EDGE('',*,*,#811,.F.);
#1116=ORIENTED_EDGE('',*,*,#812,.F.);
#1117=ORIENTED_EDGE('',*,*,#773,.F.);
#1118=ORIENTED_EDGE('',*,*,#812,.T.);
#1119=ORIENTED_EDGE('',*,*,#813,.F.);
#1120=ORIENTED_EDGE('',*,*,#814,.F.);
#1121=ORIENTED_EDGE('',*,*,#774,.F.);
#1122=ORIENTED_EDGE('',*,*,#814,.T.);
#1123=ORIENTED_EDGE('',*,*,#815,.F.);
#1124=ORIENTED_EDGE('',*,*,#816,.F.);
#1125=ORIENTED_EDGE('',*,*,#775,.F.);
#1126=ORIENTED_EDGE('',*,*,#816,.T.);
#1127=ORIENTED_EDGE('',*,*,#817,.F.);
#1128=ORIENTED_EDGE('',*,*,#818,.F.);
#1129=ORIENTED_EDGE('',*,*,#776,.F.);
#1130=ORIENTED_EDGE('',*,*,#818,.T.);
#1131=ORIENTED_EDGE('',*,*,#819,.F.);
#1132=ORIENTED_EDGE('',*,*,#820,.F.);
#1133=ORIENTED_EDGE('',*,*,#777,.F.);
#1134=ORIENTED_EDGE('',*,*,#820,.T.);
#1135=ORIENTED_EDGE('',*,*,#821,.F.);
#1136=ORIENTED_EDGE('',*,*,#822,.F.);
#1137=ORIENTED_EDGE('',*,*,#778,.F.);
#1138=ORIENTED_EDGE('',*,*,#822,.T.);
#1139=ORIENTED_EDGE('',*,*,#823,.F.);
#1140=ORIENTED_EDGE('',*,*,#824,.F.);
#1141=ORIENTED_EDGE('',*,*,#779,.F.);
#1142=ORIENTED_EDGE('',*,*,#824,.T.);
#1143=ORIENTED_EDGE('',*,*,#825,.F.);
#1144=ORIENTED_EDGE('',*,*,#802,.T.);
#1145=ORIENTED_EDGE('',*,*,#780,.F.);
#1146=ORIENTED_EDGE('',*,*,#825,.T.);
#1147=ORIENTED_EDGE('',*,*,#823,.T.);
#1148=ORIENTED_EDGE('',*,*,#821,.T.);
#1149=ORIENTED_EDGE('',*,*,#819,.T.);
#1150=ORIENTED_EDGE('',*,*,#817,.T.);
#1151=ORIENTED_EDGE('',*,*,#815,.T.);
#1152=ORIENTED_EDGE('',*,*,#813,.T.);
#1153=ORIENTED_EDGE('',*,*,#811,.T.);
#1154=ORIENTED_EDGE('',*,*,#809,.T.);
#1155=ORIENTED_EDGE('',*,*,#807,.T.);
#1156=ORIENTED_EDGE('',*,*,#805,.T.);
#1157=ORIENTED_EDGE('',*,*,#803,.T.);
#1158=ORIENTED_EDGE('',*,*,#658,.T.);
#1159=ORIENTED_EDGE('',*,*,#662,.T.);
#1160=ORIENTED_EDGE('',*,*,#666,.T.);
#1161=ORIENTED_EDGE('',*,*,#670,.T.);
#1162=CYLINDRICAL_SURFACE('',#1276,3.75);
#1163=CYLINDRICAL_SURFACE('',#1281,3.75);
#1164=CYLINDRICAL_SURFACE('',#1286,3.75);
#1165=CYLINDRICAL_SURFACE('',#1291,3.75);
#1166=CYLINDRICAL_SURFACE('',#1296,4.5);
#1167=CYLINDRICAL_SURFACE('',#1299,4.5);
#1168=CYLINDRICAL_SURFACE('',#1302,4.5);
#1169=CYLINDRICAL_SURFACE('',#1305,4.5);
#1170=CYLINDRICAL_SURFACE('',#1308,4.5);
#1171=CYLINDRICAL_SURFACE('',#1311,4.5);
#1172=CYLINDRICAL_SURFACE('',#1314,4.5);
#1173=CYLINDRICAL_SURFACE('',#1317,4.5);
#1174=CYLINDRICAL_SURFACE('',#1320,4.5);
#1175=CYLINDRICAL_SURFACE('',#1323,4.5);
#1176=CYLINDRICAL_SURFACE('',#1326,4.5);
#1177=CYLINDRICAL_SURFACE('',#1329,4.5);
#1178=CYLINDRICAL_SURFACE('',#1370,2.1);
#1179=CYLINDRICAL_SURFACE('',#1371,2.1);
#1180=CYLINDRICAL_SURFACE('',#1372,2.1);
#1181=CYLINDRICAL_SURFACE('',#1373,2.1);
#1182=ADVANCED_FACE('',(#87),#1162,.F.);
#1183=ADVANCED_FACE('',(#88,#15),#36,.T.);
#1184=ADVANCED_FACE('',(#89),#1163,.F.);
#1185=ADVANCED_FACE('',(#90,#16),#37,.T.);
#1186=ADVANCED_FACE('',(#91),#1164,.F.);
#1187=ADVANCED_FACE('',(#92,#17),#38,.T.);
#1188=ADVANCED_FACE('',(#93),#1165,.F.);
#1189=ADVANCED_FACE('',(#94,#18),#39,.T.);
#1190=ADVANCED_FACE('',(#95),#1166,.T.);
#1191=ADVANCED_FACE('',(#96),#1167,.T.);
#1192=ADVANCED_FACE('',(#97),#1168,.T.);
#1193=ADVANCED_FACE('',(#98),#1169,.T.);
#1194=ADVANCED_FACE('',(#99),#1170,.T.);
#1195=ADVANCED_FACE('',(#100),#1171,.T.);
#1196=ADVANCED_FACE('',(#101),#1172,.T.);
#1197=ADVANCED_FACE('',(#102),#1173,.T.);
#1198=ADVANCED_FACE('',(#103),#1174,.T.);
#1199=ADVANCED_FACE('',(#104),#1175,.T.);
#1200=ADVANCED_FACE('',(#105),#1176,.T.);
#1201=ADVANCED_FACE('',(#106),#1177,.T.);
#1202=ADVANCED_FACE('',(#107),#40,.T.);
#1203=ADVANCED_FACE('',(#108),#41,.T.);
#1204=ADVANCED_FACE('',(#109),#42,.T.);
#1205=ADVANCED_FACE('',(#110),#43,.T.);
#1206=ADVANCED_FACE('',(#111),#44,.T.);
#1207=ADVANCED_FACE('',(#112),#45,.T.);
#1208=ADVANCED_FACE('',(#113),#46,.T.);
#1209=ADVANCED_FACE('',(#114),#47,.T.);
#1210=ADVANCED_FACE('',(#115),#48,.T.);
#1211=ADVANCED_FACE('',(#116),#49,.T.);
#1212=ADVANCED_FACE('',(#117),#50,.T.);
#1213=ADVANCED_FACE('',(#118),#51,.T.);
#1214=ADVANCED_FACE('',(#119),#52,.T.);
#1215=ADVANCED_FACE('',(#120),#53,.T.);
#1216=ADVANCED_FACE('',(#121),#54,.F.);
#1217=ADVANCED_FACE('',(#122),#55,.F.);
#1218=ADVANCED_FACE('',(#123),#56,.F.);
#1219=ADVANCED_FACE('',(#124),#57,.F.);
#1220=ADVANCED_FACE('',(#125),#58,.F.);
#1221=ADVANCED_FACE('',(#126),#59,.F.);
#1222=ADVANCED_FACE('',(#127),#60,.F.);
#1223=ADVANCED_FACE('',(#128),#61,.F.);
#1224=ADVANCED_FACE('',(#129),#62,.F.);
#1225=ADVANCED_FACE('',(#130,#19,#20,#21,#22,#23,#24,#25,#26,#27,#28,#29,
#30,#31),#63,.T.);
#1226=ADVANCED_FACE('',(#131),#64,.T.);
#1227=ADVANCED_FACE('',(#132),#65,.T.);
#1228=ADVANCED_FACE('',(#133),#66,.T.);
#1229=ADVANCED_FACE('',(#134),#67,.T.);
#1230=ADVANCED_FACE('',(#135),#68,.T.);
#1231=ADVANCED_FACE('',(#136),#69,.T.);
#1232=ADVANCED_FACE('',(#137),#70,.T.);
#1233=ADVANCED_FACE('',(#138),#71,.T.);
#1234=ADVANCED_FACE('',(#139),#72,.T.);
#1235=ADVANCED_FACE('',(#140),#73,.T.);
#1236=ADVANCED_FACE('',(#141),#1178,.F.);
#1237=ADVANCED_FACE('',(#142),#1179,.F.);
#1238=ADVANCED_FACE('',(#143),#1180,.F.);
#1239=ADVANCED_FACE('',(#144),#1181,.F.);
#1240=ADVANCED_FACE('',(#145),#74,.T.);
#1241=ADVANCED_FACE('',(#146),#75,.T.);
#1242=ADVANCED_FACE('',(#147),#76,.T.);
#1243=ADVANCED_FACE('',(#148),#77,.T.);
#1244=ADVANCED_FACE('',(#149),#78,.T.);
#1245=ADVANCED_FACE('',(#150),#79,.T.);
#1246=ADVANCED_FACE('',(#151),#80,.T.);
#1247=ADVANCED_FACE('',(#152),#81,.T.);
#1248=ADVANCED_FACE('',(#153),#82,.T.);
#1249=ADVANCED_FACE('',(#154),#83,.T.);
#1250=ADVANCED_FACE('',(#155),#84,.T.);
#1251=ADVANCED_FACE('',(#156),#85,.T.);
#1252=ADVANCED_FACE('',(#157,#32,#33,#34,#35),#86,.T.);
#1253=CLOSED_SHELL('',(#1182,#1183,#1184,#1185,#1186,#1187,#1188,#1189,
#1190,#1191,#1192,#1193,#1194,#1195,#1196,#1197,#1198,#1199,#1200,#1201,
#1202,#1203,#1204,#1205,#1206,#1207,#1208,#1209,#1210,#1211,#1212,#1213,
#1214,#1215,#1216,#1217,#1218,#1219,#1220,#1221,#1222,#1223,#1224,#1225,
#1226,#1227,#1228,#1229,#1230,#1231,#1232,#1233,#1234,#1235,#1236,#1237,
#1238,#1239,#1240,#1241,#1242,#1243,#1244,#1245,#1246,#1247,#1248,#1249,
#1250,#1251,#1252));
#1254=DERIVED_UNIT_ELEMENT(#1257,1.);
#1255=DERIVED_UNIT_ELEMENT(#2096,-3.);
#1256=DIMENSIONAL_EXPONENTS(0.,1.,0.,0.,0.,0.,0.);
#1257=(
CONVERSION_BASED_UNIT('gram',#1259)
MASS_UNIT()
NAMED_UNIT(#1256)
);
#1258=(
MASS_UNIT()
NAMED_UNIT(*)
SI_UNIT(.KILO.,.GRAM.)
);
#1259=MASS_MEASURE_WITH_UNIT(MASS_MEASURE(0.001),#1258);
#1260=DERIVED_UNIT((#1254,#1255));
#1261=MEASURE_REPRESENTATION_ITEM('density measure',
POSITIVE_RATIO_MEASURE(1.),#1260);
#1262=PROPERTY_DEFINITION_REPRESENTATION(#1267,#1264);
#1263=PROPERTY_DEFINITION_REPRESENTATION(#1268,#1265);
#1264=REPRESENTATION('material name',(#1266),#2093);
#1265=REPRESENTATION('density',(#1261),#2093);
#1266=DESCRIPTIVE_REPRESENTATION_ITEM('Generic','Generic');
#1267=PROPERTY_DEFINITION('material property','material name',#2103);
#1268=PROPERTY_DEFINITION('material property','density of part',#2103);
#1269=DATE_TIME_ROLE('creation_date');
#1270=APPLIED_DATE_AND_TIME_ASSIGNMENT(#1271,#1269,(#2103));
#1271=DATE_AND_TIME(#1272,#1273);
#1272=CALENDAR_DATE(2026,16,3);
#1273=LOCAL_TIME(0,0,0.,#1274);
#1274=COORDINATED_UNIVERSAL_TIME_OFFSET(0,0,.BEHIND.);
#1275=AXIS2_PLACEMENT_3D('',#1739,#1387,#1388);
#1276=AXIS2_PLACEMENT_3D('',#1740,#1389,#1390);
#1277=AXIS2_PLACEMENT_3D('',#1742,#1391,#1392);
#1278=AXIS2_PLACEMENT_3D('',#1745,#1394,#1395);
#1279=AXIS2_PLACEMENT_3D('',#1746,#1396,#1397);
#1280=AXIS2_PLACEMENT_3D('',#1748,#1398,#1399);
#1281=AXIS2_PLACEMENT_3D('',#1749,#1400,#1401);
#1282=AXIS2_PLACEMENT_3D('',#1751,#1402,#1403);
#1283=AXIS2_PLACEMENT_3D('',#1754,#1405,#1406);
#1284=AXIS2_PLACEMENT_3D('',#1755,#1407,#1408);
#1285=AXIS2_PLACEMENT_3D('',#1757,#1409,#1410);
#1286=AXIS2_PLACEMENT_3D('',#1758,#1411,#1412);
#1287=AXIS2_PLACEMENT_3D('',#1760,#1413,#1414);
#1288=AXIS2_PLACEMENT_3D('',#1763,#1416,#1417);
#1289=AXIS2_PLACEMENT_3D('',#1764,#1418,#1419);
#1290=AXIS2_PLACEMENT_3D('',#1766,#1420,#1421);
#1291=AXIS2_PLACEMENT_3D('',#1767,#1422,#1423);
#1292=AXIS2_PLACEMENT_3D('',#1769,#1424,#1425);
#1293=AXIS2_PLACEMENT_3D('',#1772,#1427,#1428);
#1294=AXIS2_PLACEMENT_3D('',#1773,#1429,#1430);
#1295=AXIS2_PLACEMENT_3D('',#1775,#1431,#1432);
#1296=AXIS2_PLACEMENT_3D('',#1776,#1433,#1434);
#1297=AXIS2_PLACEMENT_3D('',#1779,#1435,#1436);
#1298=AXIS2_PLACEMENT_3D('',#1783,#1438,#1439);
#1299=AXIS2_PLACEMENT_3D('',#1785,#1441,#1442);
#1300=AXIS2_PLACEMENT_3D('',#1788,#1443,#1444);
#1301=AXIS2_PLACEMENT_3D('',#1792,#1446,#1447);
#1302=AXIS2_PLACEMENT_3D('',#1794,#1449,#1450);
#1303=AXIS2_PLACEMENT_3D('',#1797,#1451,#1452);
#1304=AXIS2_PLACEMENT_3D('',#1801,#1454,#1455);
#1305=AXIS2_PLACEMENT_3D('',#1803,#1457,#1458);
#1306=AXIS2_PLACEMENT_3D('',#1806,#1459,#1460);
#1307=AXIS2_PLACEMENT_3D('',#1810,#1462,#1463);
#1308=AXIS2_PLACEMENT_3D('',#1812,#1465,#1466);
#1309=AXIS2_PLACEMENT_3D('',#1815,#1467,#1468);
#1310=AXIS2_PLACEMENT_3D('',#1819,#1470,#1471);
#1311=AXIS2_PLACEMENT_3D('',#1821,#1473,#1474);
#1312=AXIS2_PLACEMENT_3D('',#1824,#1475,#1476);
#1313=AXIS2_PLACEMENT_3D('',#1828,#1478,#1479);
#1314=AXIS2_PLACEMENT_3D('',#1830,#1481,#1482);
#1315=AXIS2_PLACEMENT_3D('',#1833,#1483,#1484);
#1316=AXIS2_PLACEMENT_3D('',#1837,#1486,#1487);
#1317=AXIS2_PLACEMENT_3D('',#1839,#1489,#1490);
#1318=AXIS2_PLACEMENT_3D('',#1842,#1491,#1492);
#1319=AXIS2_PLACEMENT_3D('',#1846,#1494,#1495);
#1320=AXIS2_PLACEMENT_3D('',#1848,#1497,#1498);
#1321=AXIS2_PLACEMENT_3D('',#1851,#1499,#1500);
#1322=AXIS2_PLACEMENT_3D('',#1855,#1502,#1503);
#1323=AXIS2_PLACEMENT_3D('',#1857,#1505,#1506);
#1324=AXIS2_PLACEMENT_3D('',#1862,#1508,#1509);
#1325=AXIS2_PLACEMENT_3D('',#1865,#1511,#1512);
#1326=AXIS2_PLACEMENT_3D('',#1866,#1513,#1514);
#1327=AXIS2_PLACEMENT_3D('',#1871,#1516,#1517);
#1328=AXIS2_PLACEMENT_3D('',#1874,#1519,#1520);
#1329=AXIS2_PLACEMENT_3D('',#1875,#1521,#1522);
#1330=AXIS2_PLACEMENT_3D('',#1880,#1524,#1525);
#1331=AXIS2_PLACEMENT_3D('',#1883,#1527,#1528);
#1332=AXIS2_PLACEMENT_3D('',#1884,#1529,#1530);
#1333=AXIS2_PLACEMENT_3D('',#1890,#1534,#1535);
#1334=AXIS2_PLACEMENT_3D('',#1896,#1539,#1540);
#1335=AXIS2_PLACEMENT_3D('',#1902,#1544,#1545);
#1336=AXIS2_PLACEMENT_3D('',#1908,#1549,#1550);
#1337=AXIS2_PLACEMENT_3D('',#1914,#1554,#1555);
#1338=AXIS2_PLACEMENT_3D('',#1920,#1559,#1560);
#1339=AXIS2_PLACEMENT_3D('',#1926,#1564,#1565);
#1340=AXIS2_PLACEMENT_3D('',#1932,#1569,#1570);
#1341=AXIS2_PLACEMENT_3D('',#1935,#1573,#1574);
#1342=AXIS2_PLACEMENT_3D('',#1938,#1577,#1578);
#1343=AXIS2_PLACEMENT_3D('',#1944,#1582,#1583);
#1344=AXIS2_PLACEMENT_3D('',#1947,#1586,#1587);
#1345=AXIS2_PLACEMENT_3D('',#1953,#1591,#1592);
#1346=AXIS2_PLACEMENT_3D('',#1956,#1595,#1596);
#1347=AXIS2_PLACEMENT_3D('',#1958,#1598,#1599);
#1348=AXIS2_PLACEMENT_3D('',#1960,#1601,#1602);
#1349=AXIS2_PLACEMENT_3D('',#1961,#1603,#1604);
#1350=AXIS2_PLACEMENT_3D('',#1963,#1606,#1607);
#1351=AXIS2_PLACEMENT_3D('',#1964,#1608,#1609);
#1352=AXIS2_PLACEMENT_3D('',#1966,#1611,#1612);
#1353=AXIS2_PLACEMENT_3D('',#1973,#1617,#1618);
#1354=AXIS2_PLACEMENT_3D('',#1975,#1620,#1621);
#1355=AXIS2_PLACEMENT_3D('',#1977,#1623,#1624);
#1356=AXIS2_PLACEMENT_3D('',#2010,#1642,#1643);
#1357=AXIS2_PLACEMENT_3D('',#2013,#1645,#1646);
#1358=AXIS2_PLACEMENT_3D('',#2017,#1649,#1650);
#1359=AXIS2_PLACEMENT_3D('',#2020,#1652,#1653);
#1360=AXIS2_PLACEMENT_3D('',#2022,#1655,#1656);
#1361=AXIS2_PLACEMENT_3D('',#2023,#1657,#1658);
#1362=AXIS2_PLACEMENT_3D('',#2024,#1659,#1660);
#1363=AXIS2_PLACEMENT_3D('',#2025,#1661,#1662);
#1364=AXIS2_PLACEMENT_3D('',#2026,#1663,#1664);
#1365=AXIS2_PLACEMENT_3D('',#2028,#1666,#1667);
#1366=AXIS2_PLACEMENT_3D('',#2030,#1669,#1670);
#1367=AXIS2_PLACEMENT_3D('',#2031,#1671,#1672);
#1368=AXIS2_PLACEMENT_3D('',#2032,#1673,#1674);
#1369=AXIS2_PLACEMENT_3D('',#2033,#1675,#1676);
#1370=AXIS2_PLACEMENT_3D('',#2034,#1677,#1678);
#1371=AXIS2_PLACEMENT_3D('',#2036,#1680,#1681);
#1372=AXIS2_PLACEMENT_3D('',#2038,#1683,#1684);
#1373=AXIS2_PLACEMENT_3D('',#2040,#1686,#1687);
#1374=AXIS2_PLACEMENT_3D('',#2042,#1689,#1690);
#1375=AXIS2_PLACEMENT_3D('',#2048,#1694,#1695);
#1376=AXIS2_PLACEMENT_3D('',#2052,#1698,#1699);
#1377=AXIS2_PLACEMENT_3D('',#2056,#1702,#1703);
#1378=AXIS2_PLACEMENT_3D('',#2060,#1706,#1707);
#1379=AXIS2_PLACEMENT_3D('',#2064,#1710,#1711);
#1380=AXIS2_PLACEMENT_3D('',#2068,#1714,#1715);
#1381=AXIS2_PLACEMENT_3D('',#2072,#1718,#1719);
#1382=AXIS2_PLACEMENT_3D('',#2076,#1722,#1723);
#1383=AXIS2_PLACEMENT_3D('',#2080,#1726,#1727);
#1384=AXIS2_PLACEMENT_3D('',#2084,#1730,#1731);
#1385=AXIS2_PLACEMENT_3D('',#2088,#1734,#1735);
#1386=AXIS2_PLACEMENT_3D('',#2090,#1737,#1738);
#1387=DIRECTION('axis',(0.,0.,1.));
#1388=DIRECTION('refdir',(1.,0.,0.));
#1389=DIRECTION('center_axis',(0.,0.,-1.));
#1390=DIRECTION('ref_axis',(1.,0.,0.));
#1391=DIRECTION('center_axis',(0.,0.,-1.));
#1392=DIRECTION('ref_axis',(1.,0.,0.));
#1393=DIRECTION('',(0.,0.,-1.));
#1394=DIRECTION('center_axis',(0.,0.,-1.));
#1395=DIRECTION('ref_axis',(1.,0.,0.));
#1396=DIRECTION('center_axis',(0.,0.,1.));
#1397=DIRECTION('ref_axis',(1.,0.,0.));
#1398=DIRECTION('center_axis',(0.,0.,1.));
#1399=DIRECTION('ref_axis',(-1.,0.,0.));
#1400=DIRECTION('center_axis',(0.,0.,-1.));
#1401=DIRECTION('ref_axis',(1.,0.,0.));
#1402=DIRECTION('center_axis',(0.,0.,-1.));
#1403=DIRECTION('ref_axis',(1.,0.,0.));
#1404=DIRECTION('',(0.,0.,-1.));
#1405=DIRECTION('center_axis',(0.,0.,-1.));
#1406=DIRECTION('ref_axis',(1.,0.,0.));
#1407=DIRECTION('center_axis',(0.,0.,1.));
#1408=DIRECTION('ref_axis',(1.,0.,0.));
#1409=DIRECTION('center_axis',(0.,0.,1.));
#1410=DIRECTION('ref_axis',(-1.,0.,0.));
#1411=DIRECTION('center_axis',(0.,0.,-1.));
#1412=DIRECTION('ref_axis',(1.,0.,0.));
#1413=DIRECTION('center_axis',(0.,0.,-1.));
#1414=DIRECTION('ref_axis',(1.,0.,0.));
#1415=DIRECTION('',(0.,0.,-1.));
#1416=DIRECTION('center_axis',(0.,0.,-1.));
#1417=DIRECTION('ref_axis',(1.,0.,0.));
#1418=DIRECTION('center_axis',(0.,0.,1.));
#1419=DIRECTION('ref_axis',(1.,0.,0.));
#1420=DIRECTION('center_axis',(0.,0.,1.));
#1421=DIRECTION('ref_axis',(-1.,0.,0.));
#1422=DIRECTION('center_axis',(0.,0.,-1.));
#1423=DIRECTION('ref_axis',(1.,0.,0.));
#1424=DIRECTION('center_axis',(0.,0.,-1.));
#1425=DIRECTION('ref_axis',(1.,0.,0.));
#1426=DIRECTION('',(0.,0.,-1.));
#1427=DIRECTION('center_axis',(0.,0.,-1.));
#1428=DIRECTION('ref_axis',(1.,0.,0.));
#1429=DIRECTION('center_axis',(0.,0.,1.));
#1430=DIRECTION('ref_axis',(1.,0.,0.));
#1431=DIRECTION('center_axis',(0.,0.,1.));
#1432=DIRECTION('ref_axis',(-1.,0.,0.));
#1433=DIRECTION('center_axis',(0.,0.,-1.));
#1434=DIRECTION('ref_axis',(-1.,0.,0.));
#1435=DIRECTION('center_axis',(0.,0.,1.));
#1436=DIRECTION('ref_axis',(-1.,0.,0.));
#1437=DIRECTION('',(0.,0.,1.));
#1438=DIRECTION('center_axis',(0.,0.,-1.));
#1439=DIRECTION('ref_axis',(-1.,0.,0.));
#1440=DIRECTION('',(0.,0.,-1.));
#1441=DIRECTION('center_axis',(0.,0.,-1.));
#1442=DIRECTION('ref_axis',(-1.,0.,0.));
#1443=DIRECTION('center_axis',(0.,0.,1.));
#1444=DIRECTION('ref_axis',(-1.,0.,0.));
#1445=DIRECTION('',(0.,0.,1.));
#1446=DIRECTION('center_axis',(0.,0.,-1.));
#1447=DIRECTION('ref_axis',(-1.,0.,0.));
#1448=DIRECTION('',(0.,0.,-1.));
#1449=DIRECTION('center_axis',(0.,0.,-1.));
#1450=DIRECTION('ref_axis',(0.707106781173192,-0.707106781199903,0.));
#1451=DIRECTION('center_axis',(0.,0.,1.));
#1452=DIRECTION('ref_axis',(-1.,0.,0.));
#1453=DIRECTION('',(0.,0.,1.));
#1454=DIRECTION('center_axis',(0.,0.,-1.));
#1455=DIRECTION('ref_axis',(-1.,0.,0.));
#1456=DIRECTION('',(0.,0.,-1.));
#1457=DIRECTION('center_axis',(0.,0.,-1.));
#1458=DIRECTION('ref_axis',(-1.,0.,0.));
#1459=DIRECTION('center_axis',(0.,0.,1.));
#1460=DIRECTION('ref_axis',(-1.,0.,0.));
#1461=DIRECTION('',(0.,0.,1.));
#1462=DIRECTION('center_axis',(0.,0.,-1.));
#1463=DIRECTION('ref_axis',(-1.,0.,0.));
#1464=DIRECTION('',(0.,0.,-1.));
#1465=DIRECTION('center_axis',(0.,0.,-1.));
#1466=DIRECTION('ref_axis',(-1.,0.,0.));
#1467=DIRECTION('center_axis',(0.,0.,1.));
#1468=DIRECTION('ref_axis',(-1.,0.,0.));
#1469=DIRECTION('',(0.,0.,1.));
#1470=DIRECTION('center_axis',(0.,0.,-1.));
#1471=DIRECTION('ref_axis',(-1.,0.,0.));
#1472=DIRECTION('',(0.,0.,-1.));
#1473=DIRECTION('center_axis',(0.,0.,-1.));
#1474=DIRECTION('ref_axis',(-1.,0.,0.));
#1475=DIRECTION('center_axis',(0.,0.,1.));
#1476=DIRECTION('ref_axis',(-1.,0.,0.));
#1477=DIRECTION('',(0.,0.,1.));
#1478=DIRECTION('center_axis',(0.,0.,-1.));
#1479=DIRECTION('ref_axis',(-1.,0.,0.));
#1480=DIRECTION('',(0.,0.,-1.));
#1481=DIRECTION('center_axis',(0.,0.,-1.));
#1482=DIRECTION('ref_axis',(-1.,0.,0.));
#1483=DIRECTION('center_axis',(0.,0.,1.));
#1484=DIRECTION('ref_axis',(-1.,0.,0.));
#1485=DIRECTION('',(0.,0.,1.));
#1486=DIRECTION('center_axis',(0.,0.,-1.));
#1487=DIRECTION('ref_axis',(-1.,0.,0.));
#1488=DIRECTION('',(0.,0.,-1.));
#1489=DIRECTION('center_axis',(0.,0.,-1.));
#1490=DIRECTION('ref_axis',(-1.,0.,0.));
#1491=DIRECTION('center_axis',(0.,0.,1.));
#1492=DIRECTION('ref_axis',(-1.,0.,0.));
#1493=DIRECTION('',(0.,0.,1.));
#1494=DIRECTION('center_axis',(0.,0.,-1.));
#1495=DIRECTION('ref_axis',(-1.,0.,0.));
#1496=DIRECTION('',(0.,0.,-1.));
#1497=DIRECTION('center_axis',(0.,0.,-1.));
#1498=DIRECTION('ref_axis',(0.707106781200738,0.707106781172357,0.));
#1499=DIRECTION('center_axis',(0.,0.,1.));
#1500=DIRECTION('ref_axis',(-1.,0.,0.));
#1501=DIRECTION('',(0.,0.,1.));
#1502=DIRECTION('center_axis',(0.,0.,-1.));
#1503=DIRECTION('ref_axis',(-1.,0.,0.));
#1504=DIRECTION('',(0.,0.,-1.));
#1505=DIRECTION('center_axis',(0.,0.,-1.));
#1506=DIRECTION('ref_axis',(-1.,0.,0.));
#1507=DIRECTION('',(0.,0.,-1.));
#1508=DIRECTION('center_axis',(0.,0.,1.));
#1509=DIRECTION('ref_axis',(-1.,0.,0.));
#1510=DIRECTION('',(0.,0.,1.));
#1511=DIRECTION('center_axis',(0.,0.,-1.));
#1512=DIRECTION('ref_axis',(-1.,0.,0.));
#1513=DIRECTION('center_axis',(0.,0.,-1.));
#1514=DIRECTION('ref_axis',(-1.,0.,0.));
#1515=DIRECTION('',(0.,0.,1.));
#1516=DIRECTION('center_axis',(0.,0.,-1.));
#1517=DIRECTION('ref_axis',(-1.,0.,0.));
#1518=DIRECTION('',(0.,0.,-1.));
#1519=DIRECTION('center_axis',(0.,0.,1.));
#1520=DIRECTION('ref_axis',(-1.,0.,0.));
#1521=DIRECTION('center_axis',(0.,0.,-1.));
#1522=DIRECTION('ref_axis',(-1.,0.,0.));
#1523=DIRECTION('',(0.,0.,-1.));
#1524=DIRECTION('center_axis',(0.,0.,1.));
#1525=DIRECTION('ref_axis',(-1.,0.,0.));
#1526=DIRECTION('',(0.,0.,1.));
#1527=DIRECTION('center_axis',(0.,0.,-1.));
#1528=DIRECTION('ref_axis',(-1.,0.,0.));
#1529=DIRECTION('center_axis',(0.707106781203423,-0.707106781169672,0.));
#1530=DIRECTION('ref_axis',(-0.707106781169672,-0.707106781203423,0.));
#1531=DIRECTION('',(-0.707106781169672,-0.707106781203423,0.));
#1532=DIRECTION('',(0.,0.,-1.));
#1533=DIRECTION('',(0.707106781169672,0.707106781203423,0.));
#1534=DIRECTION('center_axis',(0.707106781203423,-0.707106781169672,0.));
#1535=DIRECTION('ref_axis',(-0.707106781169672,-0.707106781203423,0.));
#1536=DIRECTION('',(0.707106781169672,0.707106781203423,0.));
#1537=DIRECTION('',(0.,0.,-1.));
#1538=DIRECTION('',(-0.707106781169672,-0.707106781203423,0.));
#1539=DIRECTION('center_axis',(-2.17842569483832E-16,1.,0.));
#1540=DIRECTION('ref_axis',(1.,2.17842569483832E-16,0.));
#1541=DIRECTION('',(1.,2.17842569483832E-16,0.));
#1542=DIRECTION('',(0.,0.,-1.));
#1543=DIRECTION('',(-1.,-2.17842569483832E-16,0.));
#1544=DIRECTION('center_axis',(-2.17842569483832E-16,1.,0.));
#1545=DIRECTION('ref_axis',(1.,2.17842569483832E-16,0.));
#1546=DIRECTION('',(-1.,-2.17842569483832E-16,0.));
#1547=DIRECTION('',(0.,0.,-1.));
#1548=DIRECTION('',(1.,2.17842569483832E-16,0.));
#1549=DIRECTION('center_axis',(-0.707106781176399,0.707106781196696,0.));
#1550=DIRECTION('ref_axis',(0.707106781196696,0.707106781176399,0.));
#1551=DIRECTION('',(-0.707106781196696,-0.707106781176399,0.));
#1552=DIRECTION('',(0.,0.,-1.));
#1553=DIRECTION('',(0.707106781196696,0.707106781176399,0.));
#1554=DIRECTION('center_axis',(0.707106781183765,0.70710678118933,0.));
#1555=DIRECTION('ref_axis',(0.70710678118933,-0.707106781183765,0.));
#1556=DIRECTION('',(0.70710678118933,-0.707106781183765,0.));
#1557=DIRECTION('',(0.,0.,-1.));
#1558=DIRECTION('',(-0.70710678118933,0.707106781183765,0.));
#1559=DIRECTION('center_axis',(0.707106781183765,0.70710678118933,0.));
#1560=DIRECTION('ref_axis',(0.70710678118933,-0.707106781183765,0.));
#1561=DIRECTION('',(-0.70710678118933,0.707106781183765,0.));
#1562=DIRECTION('',(0.,0.,-1.));
#1563=DIRECTION('',(0.70710678118933,-0.707106781183765,0.));
#1564=DIRECTION('center_axis',(0.,1.,0.));
#1565=DIRECTION('ref_axis',(1.,0.,0.));
#1566=DIRECTION('',(-1.,0.,0.));
#1567=DIRECTION('',(0.,0.,-1.));
#1568=DIRECTION('',(1.,0.,0.));
#1569=DIRECTION('center_axis',(1.,1.01765713748264E-12,0.));
#1570=DIRECTION('ref_axis',(1.01765713748264E-12,-1.,0.));
#1571=DIRECTION('',(-1.01765713748264E-12,1.,0.));
#1572=DIRECTION('',(1.01765713748264E-12,-1.,0.));
#1573=DIRECTION('center_axis',(1.,1.01765713748264E-12,0.));
#1574=DIRECTION('ref_axis',(1.01765713748264E-12,-1.,0.));
#1575=DIRECTION('',(-1.01765713748264E-12,1.,0.));
#1576=DIRECTION('',(1.01765713748264E-12,-1.,0.));
#1577=DIRECTION('center_axis',(-1.,-1.01790525577179E-12,0.));
#1578=DIRECTION('ref_axis',(-1.01790525577179E-12,1.,0.));
#1579=DIRECTION('',(1.01790525577179E-12,-1.,0.));
#1580=DIRECTION('',(0.,0.,-1.));
#1581=DIRECTION('',(-1.01790525577179E-12,1.,0.));
#1582=DIRECTION('center_axis',(-1.,-1.01790525577179E-12,0.));
#1583=DIRECTION('ref_axis',(-1.01790525577179E-12,1.,0.));
#1584=DIRECTION('',(-1.01790525577179E-12,1.,0.));
#1585=DIRECTION('',(1.01790525577179E-12,-1.,0.));
#1586=DIRECTION('center_axis',(1.20220894277926E-12,-1.,0.));
#1587=DIRECTION('ref_axis',(-1.,-1.20220894277926E-12,0.));
#1588=DIRECTION('',(-1.,-1.20220894277926E-12,0.));
#1589=DIRECTION('',(0.,0.,-1.));
#1590=DIRECTION('',(1.,1.20220894277926E-12,0.));
#1591=DIRECTION('center_axis',(1.20220894277926E-12,-1.,0.));
#1592=DIRECTION('ref_axis',(-1.,-1.20220894277926E-12,0.));
#1593=DIRECTION('',(-1.,-1.20220894277926E-12,0.));
#1594=DIRECTION('',(1.,1.20220894277926E-12,0.));
#1595=DIRECTION('center_axis',(0.,0.,1.));
#1596=DIRECTION('ref_axis',(1.,0.,0.));
#1597=DIRECTION('',(0.707106781162928,-0.707106781210167,0.));
#1598=DIRECTION('center_axis',(0.,0.,1.));
#1599=DIRECTION('ref_axis',(1.,0.,0.));
#1600=DIRECTION('',(0.707106781162928,-0.707106781210167,0.));
#1601=DIRECTION('center_axis',(0.,0.,1.));
#1602=DIRECTION('ref_axis',(1.,0.,0.));
#1603=DIRECTION('center_axis',(0.,0.,1.));
#1604=DIRECTION('ref_axis',(1.,0.,0.));
#1605=DIRECTION('',(-1.,0.,0.));
#1606=DIRECTION('center_axis',(0.,0.,1.));
#1607=DIRECTION('ref_axis',(1.,0.,0.));
#1608=DIRECTION('center_axis',(0.,0.,1.));
#1609=DIRECTION('ref_axis',(1.,0.,0.));
#1610=DIRECTION('',(-0.707106781196696,-0.707106781176399,0.));
#1611=DIRECTION('center_axis',(0.,0.,1.));
#1612=DIRECTION('ref_axis',(1.,0.,0.));
#1613=DIRECTION('',(1.01790525577179E-12,-1.,0.));
#1614=DIRECTION('',(0.,1.,0.));
#1615=DIRECTION('',(-1.,1.1242764806334E-16,0.));
#1616=DIRECTION('',(0.,-1.,0.));
#1617=DIRECTION('center_axis',(0.,0.,1.));
#1618=DIRECTION('ref_axis',(1.,0.,0.));
#1619=DIRECTION('',(1.,1.20220894277926E-12,0.));
#1620=DIRECTION('center_axis',(0.,0.,1.));
#1621=DIRECTION('ref_axis',(1.,0.,0.));
#1622=DIRECTION('',(-1.01765713748264E-12,1.,0.));
#1623=DIRECTION('center_axis',(0.,0.,-1.));
#1624=DIRECTION('ref_axis',(-1.,0.,0.));
#1625=DIRECTION('',(-0.707106781186549,0.707106781186546,0.));
#1626=DIRECTION('',(-2.78881961134511E-15,1.,0.));
#1627=DIRECTION('',(0.707106781186553,0.707106781186542,0.));
#1628=DIRECTION('',(1.,0.,0.));
#1629=DIRECTION('',(0.707106781186542,-0.707106781186553,0.));
#1630=DIRECTION('',(3.03132566450555E-15,-1.,0.));
#1631=DIRECTION('',(-0.70710678118655,-0.707106781186545,0.));
#1632=DIRECTION('',(-1.,-3.05565970080339E-16,0.));
#1633=DIRECTION('',(0.,1.,0.));
#1634=DIRECTION('',(-1.,2.50191104140839E-16,0.));
#1635=DIRECTION('',(0.,-1.,0.));
#1636=DIRECTION('',(-1.,-1.01855323360113E-16,0.));
#1637=DIRECTION('',(1.01765713748264E-12,-1.,0.));
#1638=DIRECTION('',(0.,1.,0.));
#1639=DIRECTION('',(1.,-1.1242764806334E-16,0.));
#1640=DIRECTION('',(0.,-1.,0.));
#1641=DIRECTION('',(-1.01790525577179E-12,1.,0.));
#1642=DIRECTION('center_axis',(0.,0.,1.));
#1643=DIRECTION('ref_axis',(1.,0.,0.));
#1644=DIRECTION('',(0.707106781196696,0.707106781176399,0.));
#1645=DIRECTION('center_axis',(0.,0.,1.));
#1646=DIRECTION('ref_axis',(1.,0.,0.));
#1647=DIRECTION('',(1.,0.,0.));
#1648=DIRECTION('',(-1.,-1.20220894277926E-12,0.));
#1649=DIRECTION('center_axis',(0.,0.,1.));
#1650=DIRECTION('ref_axis',(1.,0.,0.));
#1651=DIRECTION('',(-0.707106781162928,0.707106781210167,0.));
#1652=DIRECTION('center_axis',(0.,0.,1.));
#1653=DIRECTION('ref_axis',(1.,0.,0.));
#1654=DIRECTION('',(-0.707106781162928,0.707106781210167,0.));
#1655=DIRECTION('center_axis',(-0.707106781210167,-0.707106781162928,0.));
#1656=DIRECTION('ref_axis',(-0.707106781162928,0.707106781210167,0.));
#1657=DIRECTION('center_axis',(-0.707106781210167,-0.707106781162928,0.));
#1658=DIRECTION('ref_axis',(-0.707106781162928,0.707106781210167,0.));
#1659=DIRECTION('center_axis',(-1.,-1.01790525577179E-12,0.));
#1660=DIRECTION('ref_axis',(-1.01790525577179E-12,1.,0.));
#1661=DIRECTION('center_axis',(-0.707106781176399,0.707106781196696,0.));
#1662=DIRECTION('ref_axis',(0.707106781196696,0.707106781176399,0.));
#1663=DIRECTION('center_axis',(1.,0.,0.));
#1664=DIRECTION('ref_axis',(0.,-1.,0.));
#1665=DIRECTION('',(0.,0.,-1.));
#1666=DIRECTION('center_axis',(1.1242764806334E-16,1.,0.));
#1667=DIRECTION('ref_axis',(1.,-1.1242764806334E-16,0.));
#1668=DIRECTION('',(0.,0.,-1.));
#1669=DIRECTION('center_axis',(-1.,0.,0.));
#1670=DIRECTION('ref_axis',(0.,1.,0.));
#1671=DIRECTION('center_axis',(0.,1.,0.));
#1672=DIRECTION('ref_axis',(1.,0.,0.));
#1673=DIRECTION('center_axis',(1.,1.01765713748264E-12,0.));
#1674=DIRECTION('ref_axis',(1.01765713748264E-12,-1.,0.));
#1675=DIRECTION('center_axis',(1.20220894277926E-12,-1.,0.));
#1676=DIRECTION('ref_axis',(-1.,-1.20220894277926E-12,0.));
#1677=DIRECTION('center_axis',(0.,0.,1.));
#1678=DIRECTION('ref_axis',(-1.,0.,0.));
#1679=DIRECTION('',(0.,0.,-1.));
#1680=DIRECTION('center_axis',(0.,0.,1.));
#1681=DIRECTION('ref_axis',(-1.,0.,0.));
#1682=DIRECTION('',(0.,0.,-1.));
#1683=DIRECTION('center_axis',(0.,0.,1.));
#1684=DIRECTION('ref_axis',(-1.,0.,0.));
#1685=DIRECTION('',(0.,0.,-1.));
#1686=DIRECTION('center_axis',(0.,0.,1.));
#1687=DIRECTION('ref_axis',(-1.,0.,0.));
#1688=DIRECTION('',(0.,0.,-1.));
#1689=DIRECTION('center_axis',(1.00700501099794E-16,-1.,0.));
#1690=DIRECTION('ref_axis',(1.,1.00700501099794E-16,0.));
#1691=DIRECTION('',(0.,0.,-1.));
#1692=DIRECTION('',(1.,1.00700501099794E-16,0.));
#1693=DIRECTION('',(0.,0.,1.));
#1694=DIRECTION('center_axis',(-0.707106781186546,-0.707106781186549,0.));
#1695=DIRECTION('ref_axis',(0.707106781186549,-0.707106781186546,0.));
#1696=DIRECTION('',(0.707106781186549,-0.707106781186546,0.));
#1697=DIRECTION('',(0.,0.,1.));
#1698=DIRECTION('center_axis',(-1.,-2.78881961134511E-15,0.));
#1699=DIRECTION('ref_axis',(2.78881961134511E-15,-1.,0.));
#1700=DIRECTION('',(2.78881961134511E-15,-1.,0.));
#1701=DIRECTION('',(0.,0.,1.));
#1702=DIRECTION('center_axis',(-0.707106781186542,0.707106781186553,0.));
#1703=DIRECTION('ref_axis',(-0.707106781186553,-0.707106781186542,0.));
#1704=DIRECTION('',(-0.707106781186553,-0.707106781186542,0.));
#1705=DIRECTION('',(0.,0.,1.));
#1706=DIRECTION('center_axis',(0.,1.,0.));
#1707=DIRECTION('ref_axis',(-1.,0.,0.));
#1708=DIRECTION('',(-1.,0.,0.));
#1709=DIRECTION('',(0.,0.,1.));
#1710=DIRECTION('center_axis',(0.707106781186553,0.707106781186542,0.));
#1711=DIRECTION('ref_axis',(-0.707106781186542,0.707106781186553,0.));
#1712=DIRECTION('',(-0.707106781186542,0.707106781186553,0.));
#1713=DIRECTION('',(0.,0.,1.));
#1714=DIRECTION('center_axis',(1.,3.03132566450555E-15,0.));
#1715=DIRECTION('ref_axis',(-3.03132566450555E-15,1.,0.));
#1716=DIRECTION('',(-3.03132566450555E-15,1.,0.));
#1717=DIRECTION('',(0.,0.,1.));
#1718=DIRECTION('center_axis',(0.707106781186545,-0.70710678118655,0.));
#1719=DIRECTION('ref_axis',(0.70710678118655,0.707106781186545,0.));
#1720=DIRECTION('',(0.70710678118655,0.707106781186545,0.));
#1721=DIRECTION('',(0.,0.,1.));
#1722=DIRECTION('center_axis',(3.02101503299383E-16,-1.,0.));
#1723=DIRECTION('ref_axis',(1.,3.02101503299383E-16,0.));
#1724=DIRECTION('',(1.,3.02101503299383E-16,0.));
#1725=DIRECTION('',(0.,0.,1.));
#1726=DIRECTION('center_axis',(-1.,0.,0.));
#1727=DIRECTION('ref_axis',(0.,-1.,0.));
#1728=DIRECTION('',(0.,-1.,0.));
#1729=DIRECTION('',(0.,0.,1.));
#1730=DIRECTION('center_axis',(-2.50191104140839E-16,-1.,0.));
#1731=DIRECTION('ref_axis',(1.,-2.50191104140839E-16,0.));
#1732=DIRECTION('',(1.,-2.50191104140839E-16,0.));
#1733=DIRECTION('',(0.,0.,1.));
#1734=DIRECTION('center_axis',(1.,0.,0.));
#1735=DIRECTION('ref_axis',(0.,1.,0.));
#1736=DIRECTION('',(0.,1.,0.));
#1737=DIRECTION('center_axis',(0.,0.,1.));
#1738=DIRECTION('ref_axis',(1.,0.,0.));
#1739=CARTESIAN_POINT('',(0.,0.,0.));
#1740=CARTESIAN_POINT('Origin',(58.7000000000002,-32.2500000000001,2.));
#1741=CARTESIAN_POINT('',(54.9500000000002,-32.2500000000001,2.));
#1742=CARTESIAN_POINT('Origin',(58.7000000000002,-32.2500000000001,2.));
#1743=CARTESIAN_POINT('',(54.9500000000002,-32.2500000000001,-4.));
#1744=CARTESIAN_POINT('',(54.9500000000002,-32.2500000000001,2.));
#1745=CARTESIAN_POINT('Origin',(58.7000000000002,-32.2500000000001,-4.));
#1746=CARTESIAN_POINT('Origin',(58.7000000000002,-32.2500000000001,-4.));
#1747=CARTESIAN_POINT('',(60.8000000000002,-32.2500000000001,-4.));
#1748=CARTESIAN_POINT('Origin',(58.7000000000002,-32.2500000000001,-4.));
#1749=CARTESIAN_POINT('Origin',(-57.9999999999997,-32.2500000000001,2.));
#1750=CARTESIAN_POINT('',(-61.7499999999997,-32.2500000000001,2.));
#1751=CARTESIAN_POINT('Origin',(-57.9999999999997,-32.2500000000001,2.));
#1752=CARTESIAN_POINT('',(-61.7499999999997,-32.2500000000001,-4.));
#1753=CARTESIAN_POINT('',(-61.7499999999997,-32.2500000000001,2.));
#1754=CARTESIAN_POINT('Origin',(-57.9999999999997,-32.2500000000001,-4.));
#1755=CARTESIAN_POINT('Origin',(-57.9999999999997,-32.2500000000001,-4.));
#1756=CARTESIAN_POINT('',(-55.8999999999997,-32.2500000000001,-4.));
#1757=CARTESIAN_POINT('Origin',(-57.9999999999997,-32.2500000000001,-4.));
#1758=CARTESIAN_POINT('Origin',(58.7,34.9999999999999,2.));
#1759=CARTESIAN_POINT('',(54.95,34.9999999999999,2.));
#1760=CARTESIAN_POINT('Origin',(58.7,34.9999999999999,2.));
#1761=CARTESIAN_POINT('',(54.95,34.9999999999999,-4.));
#1762=CARTESIAN_POINT('',(54.95,34.9999999999999,2.));
#1763=CARTESIAN_POINT('Origin',(58.7,34.9999999999999,-4.));
#1764=CARTESIAN_POINT('Origin',(58.7,34.9999999999999,-4.));
#1765=CARTESIAN_POINT('',(60.8,34.9999999999999,-4.));
#1766=CARTESIAN_POINT('Origin',(58.7,34.9999999999999,-4.));
#1767=CARTESIAN_POINT('Origin',(-57.9999999999999,34.9999999999998,2.));
#1768=CARTESIAN_POINT('',(-61.7499999999999,34.9999999999998,2.));
#1769=CARTESIAN_POINT('Origin',(-57.9999999999999,34.9999999999998,2.));
#1770=CARTESIAN_POINT('',(-61.7499999999999,34.9999999999998,-4.));
#1771=CARTESIAN_POINT('',(-61.7499999999999,34.9999999999998,2.));
#1772=CARTESIAN_POINT('Origin',(-57.9999999999999,34.9999999999998,-4.));
#1773=CARTESIAN_POINT('Origin',(-57.9999999999999,34.9999999999998,-4.));
#1774=CARTESIAN_POINT('',(-55.8999999999999,34.9999999999998,-4.));
#1775=CARTESIAN_POINT('Origin',(-57.9999999999999,34.9999999999998,-4.));
#1776=CARTESIAN_POINT('Origin',(-57.9999999999999,34.9999999999998,0.));
#1777=CARTESIAN_POINT('',(-60.0615528130059,38.9999999998982,0.));
#1778=CARTESIAN_POINT('',(-60.3093058772613,38.8622669981818,0.));
#1779=CARTESIAN_POINT('Origin',(-57.9999999999999,34.9999999999998,0.));
#1780=CARTESIAN_POINT('',(-60.0615528130059,38.9999999998982,-12.));
#1781=CARTESIAN_POINT('',(-60.0615528130059,38.9999999998982,0.));
#1782=CARTESIAN_POINT('',(-60.3093058772613,38.8622669981818,-12.));
#1783=CARTESIAN_POINT('Origin',(-57.9999999999999,34.9999999999998,-12.));
#1784=CARTESIAN_POINT('',(-60.3093058772613,38.8622669981818,0.));
#1785=CARTESIAN_POINT('Origin',(-57.9999999999999,34.9999999999998,0.));
#1786=CARTESIAN_POINT('',(-61.8622669982921,37.3093058770768,0.));
#1787=CARTESIAN_POINT('',(-61.9999999999853,37.061552812837,0.));
#1788=CARTESIAN_POINT('Origin',(-57.9999999999999,34.9999999999998,0.));
#1789=CARTESIAN_POINT('',(-61.8622669982921,37.3093058770768,-12.));
#1790=CARTESIAN_POINT('',(-61.8622669982921,37.3093058770769,0.));
#1791=CARTESIAN_POINT('',(-61.9999999999853,37.061552812837,-12.));
#1792=CARTESIAN_POINT('Origin',(-57.9999999999999,34.9999999999998,-12.));
#1793=CARTESIAN_POINT('',(-61.9999999999853,37.061552812837,0.));
#1794=CARTESIAN_POINT('Origin',(-57.9999999999999,34.9999999999998,0.));
#1795=CARTESIAN_POINT('',(-61.9999999999811,32.9384471871545,0.));
#1796=CARTESIAN_POINT('',(-55.9384471870035,38.9999999999031,0.));
#1797=CARTESIAN_POINT('Origin',(-57.9999999999999,34.9999999999998,0.));
#1798=CARTESIAN_POINT('',(-61.9999999999811,32.9384471871545,-12.));
#1799=CARTESIAN_POINT('',(-61.9999999999811,32.9384471871545,0.));
#1800=CARTESIAN_POINT('',(-55.9384471870035,38.9999999999031,-12.));
#1801=CARTESIAN_POINT('Origin',(-57.9999999999999,34.9999999999998,-12.));
#1802=CARTESIAN_POINT('',(-55.9384471870035,38.9999999999031,0.));
#1803=CARTESIAN_POINT('Origin',(58.7000000000002,-32.2500000000001,0.));
#1804=CARTESIAN_POINT('',(62.7000000000162,-30.1884471872222,0.));
#1805=CARTESIAN_POINT('',(56.6384471871912,-36.25,0.));
#1806=CARTESIAN_POINT('Origin',(58.7000000000002,-32.2500000000001,0.));
#1807=CARTESIAN_POINT('',(62.7000000000162,-30.1884471872222,-12.));
#1808=CARTESIAN_POINT('',(62.7000000000162,-30.1884471872222,0.));
#1809=CARTESIAN_POINT('',(56.6384471871912,-36.25,-12.));
#1810=CARTESIAN_POINT('Origin',(58.7000000000002,-32.2500000000001,-12.));
#1811=CARTESIAN_POINT('',(56.6384471871912,-36.25,0.));
#1812=CARTESIAN_POINT('Origin',(58.7000000000002,-32.2500000000001,0.));
#1813=CARTESIAN_POINT('',(60.7615528128091,-36.25,0.));
#1814=CARTESIAN_POINT('',(61.009305876266,-36.1122669987774,0.));
#1815=CARTESIAN_POINT('Origin',(58.7000000000002,-32.2500000000001,0.));
#1816=CARTESIAN_POINT('',(60.7615528128091,-36.25,-12.));
#1817=CARTESIAN_POINT('',(60.7615528128091,-36.25,0.));
#1818=CARTESIAN_POINT('',(61.009305876266,-36.1122669987774,-12.));
#1819=CARTESIAN_POINT('Origin',(58.7000000000002,-32.2500000000001,-12.));
#1820=CARTESIAN_POINT('',(61.009305876266,-36.1122669987774,0.));
#1821=CARTESIAN_POINT('Origin',(58.7000000000002,-32.2500000000001,0.));
#1822=CARTESIAN_POINT('',(62.5622669987112,-34.5593058763767,0.));
#1823=CARTESIAN_POINT('',(62.7000000000204,-34.3115528127698,0.));
#1824=CARTESIAN_POINT('Origin',(58.7000000000002,-32.2500000000001,0.));
#1825=CARTESIAN_POINT('',(62.5622669987112,-34.5593058763767,-12.));
#1826=CARTESIAN_POINT('',(62.5622669987112,-34.5593058763768,0.));
#1827=CARTESIAN_POINT('',(62.7000000000204,-34.3115528127698,-12.));
#1828=CARTESIAN_POINT('Origin',(58.7000000000002,-32.2500000000001,-12.));
#1829=CARTESIAN_POINT('',(62.7000000000204,-34.3115528127698,0.));
#1830=CARTESIAN_POINT('Origin',(-57.9999999999997,-32.2500000000001,0.));
#1831=CARTESIAN_POINT('',(-61.9999999999126,-34.3115528129778,0.));
#1832=CARTESIAN_POINT('',(-61.8622669985416,-34.5593058766596,0.));
#1833=CARTESIAN_POINT('Origin',(-57.9999999999997,-32.2500000000001,0.));
#1834=CARTESIAN_POINT('',(-61.9999999999126,-34.3115528129778,-12.));
#1835=CARTESIAN_POINT('',(-61.9999999999126,-34.3115528129778,0.));
#1836=CARTESIAN_POINT('',(-61.8622669985416,-34.5593058766596,-12.));
#1837=CARTESIAN_POINT('Origin',(-57.9999999999997,-32.2500000000001,-12.));
#1838=CARTESIAN_POINT('',(-61.8622669985416,-34.5593058766595,0.));
#1839=CARTESIAN_POINT('Origin',(-57.9999999999997,-32.2500000000001,0.));
#1840=CARTESIAN_POINT('',(-60.3093058766287,-36.1122669985602,0.));
#1841=CARTESIAN_POINT('',(-60.0615528128087,-36.25,0.));
#1842=CARTESIAN_POINT('Origin',(-57.9999999999997,-32.2500000000001,0.));
#1843=CARTESIAN_POINT('',(-60.3093058766287,-36.1122669985602,-12.));
#1844=CARTESIAN_POINT('',(-60.3093058766287,-36.1122669985602,0.));
#1845=CARTESIAN_POINT('',(-60.0615528128087,-36.25,-12.));
#1846=CARTESIAN_POINT('Origin',(-57.9999999999997,-32.2500000000001,-12.));
#1847=CARTESIAN_POINT('',(-60.0615528128087,-36.25,0.));
#1848=CARTESIAN_POINT('Origin',(-57.9999999999997,-32.2500000000001,0.));
#1849=CARTESIAN_POINT('',(-55.9384471871907,-36.25,0.));
#1850=CARTESIAN_POINT('',(-61.9999999999168,-30.1884471870305,0.));
#1851=CARTESIAN_POINT('Origin',(-57.9999999999997,-32.2500000000001,0.));
#1852=CARTESIAN_POINT('',(-55.9384471871907,-36.25,-12.));
#1853=CARTESIAN_POINT('',(-55.9384471871906,-36.25,0.));
#1854=CARTESIAN_POINT('',(-61.9999999999168,-30.1884471870305,-12.));
#1855=CARTESIAN_POINT('Origin',(-57.9999999999997,-32.2500000000001,-12.));
#1856=CARTESIAN_POINT('',(-61.9999999999168,-30.1884471870305,0.));
#1857=CARTESIAN_POINT('Origin',(58.7,34.9999999999999,0.));
#1858=CARTESIAN_POINT('',(60.7615528127244,39.0000000000434,0.));
#1859=CARTESIAN_POINT('',(60.7615528127244,39.0000000000434,-12.));
#1860=CARTESIAN_POINT('',(60.7615528127244,39.0000000000434,0.));
#1861=CARTESIAN_POINT('',(61.0093058767042,38.8622669985151,0.));
#1862=CARTESIAN_POINT('Origin',(58.7,34.9999999999999,0.));
#1863=CARTESIAN_POINT('',(61.0093058767042,38.8622669985151,-12.));
#1864=CARTESIAN_POINT('',(61.0093058767042,38.8622669985151,0.));
#1865=CARTESIAN_POINT('Origin',(58.7,34.9999999999999,-12.));
#1866=CARTESIAN_POINT('Origin',(58.7,34.9999999999999,0.));
#1867=CARTESIAN_POINT('',(62.6999999999477,37.0615528129102,-12.));
#1868=CARTESIAN_POINT('',(62.6999999999477,37.0615528129102,0.));
#1869=CARTESIAN_POINT('',(62.6999999999477,37.0615528129102,0.));
#1870=CARTESIAN_POINT('',(62.5622669986695,37.3093058764461,-12.));
#1871=CARTESIAN_POINT('Origin',(58.7,34.9999999999999,-12.));
#1872=CARTESIAN_POINT('',(62.5622669986695,37.3093058764461,0.));
#1873=CARTESIAN_POINT('',(62.5622669986695,37.3093058764461,0.));
#1874=CARTESIAN_POINT('Origin',(58.7,34.9999999999999,0.));
#1875=CARTESIAN_POINT('Origin',(58.7,34.9999999999999,0.));
#1876=CARTESIAN_POINT('',(62.6999999999519,32.9384471870978,0.));
#1877=CARTESIAN_POINT('',(62.6999999999519,32.9384471870978,-12.));
#1878=CARTESIAN_POINT('',(62.6999999999519,32.9384471870978,0.));
#1879=CARTESIAN_POINT('',(56.638447187266,39.0000000000385,0.));
#1880=CARTESIAN_POINT('Origin',(58.7,34.9999999999999,0.));
#1881=CARTESIAN_POINT('',(56.638447187266,39.0000000000385,-12.));
#1882=CARTESIAN_POINT('',(56.638447187266,39.0000000000385,0.));
#1883=CARTESIAN_POINT('Origin',(58.7,34.9999999999999,-12.));
#1884=CARTESIAN_POINT('Origin',(-60.1715728755516,38.999999999898,0.));
#1885=CARTESIAN_POINT('',(-60.1715728755516,38.999999999898,-12.));
#1886=CARTESIAN_POINT('',(-60.1715728755516,38.999999999898,-12.));
#1887=CARTESIAN_POINT('',(-60.1715728755516,38.999999999898,0.));
#1888=CARTESIAN_POINT('',(-60.1715728755516,38.999999999898,0.));
#1889=CARTESIAN_POINT('',(-54.4474296573604,44.7241432183625,0.));
#1890=CARTESIAN_POINT('Origin',(-60.1715728755516,38.999999999898,0.));
#1891=CARTESIAN_POINT('',(-61.9999999999854,37.171572875377,0.));
#1892=CARTESIAN_POINT('',(-54.4474296573604,44.7241432183625,0.));
#1893=CARTESIAN_POINT('',(-61.9999999999854,37.171572875377,-12.));
#1894=CARTESIAN_POINT('',(-61.9999999999854,37.171572875377,0.));
#1895=CARTESIAN_POINT('',(-60.1715728755516,38.999999999898,-12.));
#1896=CARTESIAN_POINT('Origin',(20.0999999999754,-36.25,0.));
#1897=CARTESIAN_POINT('',(20.0999999999754,-36.25,-12.));
#1898=CARTESIAN_POINT('',(20.0999999999754,-36.25,-12.));
#1899=CARTESIAN_POINT('',(20.0999999999754,-36.25,0.));
#1900=CARTESIAN_POINT('',(20.0999999999754,-36.25,0.));
#1901=CARTESIAN_POINT('',(10.2249999999878,-36.25,0.));
#1902=CARTESIAN_POINT('Origin',(20.0999999999754,-36.25,0.));
#1903=CARTESIAN_POINT('',(60.8715728750394,-36.25,0.));
#1904=CARTESIAN_POINT('',(10.2249999999878,-36.25,0.));
#1905=CARTESIAN_POINT('',(60.8715728750394,-36.25,-12.));
#1906=CARTESIAN_POINT('',(60.8715728750394,-36.25,0.));
#1907=CARTESIAN_POINT('',(20.0999999999754,-36.25,-12.));
#1908=CARTESIAN_POINT('Origin',(60.8715728750394,-36.25,0.));
#1909=CARTESIAN_POINT('',(62.7000000000205,-34.4215728750714,0.));
#1910=CARTESIAN_POINT('',(55.1474296558453,-41.9741432190298,0.));
#1911=CARTESIAN_POINT('',(62.7000000000205,-34.4215728750714,-12.));
#1912=CARTESIAN_POINT('',(62.7000000000205,-34.4215728750714,0.));
#1913=CARTESIAN_POINT('',(60.8715728750394,-36.25,-12.));
#1914=CARTESIAN_POINT('Origin',(-61.9999999999125,-34.4215728752897,0.));
#1915=CARTESIAN_POINT('',(-61.9999999999125,-34.4215728752897,-12.));
#1916=CARTESIAN_POINT('',(-61.9999999999125,-34.4215728752897,-12.));
#1917=CARTESIAN_POINT('',(-61.9999999999125,-34.4215728752897,0.));
#1918=CARTESIAN_POINT('',(-61.9999999999125,-34.4215728752897,0.));
#1919=CARTESIAN_POINT('',(-55.3616432186341,-41.0599296565159,0.));
#1920=CARTESIAN_POINT('Origin',(-61.9999999999125,-34.4215728752897,0.));
#1921=CARTESIAN_POINT('',(-60.1715728751878,-36.25,0.));
#1922=CARTESIAN_POINT('',(-55.3616432186341,-41.0599296565159,0.));
#1923=CARTESIAN_POINT('',(-60.1715728751878,-36.25,-12.));
#1924=CARTESIAN_POINT('',(-60.1715728751878,-36.25,0.));
#1925=CARTESIAN_POINT('',(-61.9999999999125,-34.4215728752897,-12.));
#1926=CARTESIAN_POINT('Origin',(-60.1715728751878,-36.25,0.));
#1927=CARTESIAN_POINT('',(-19.400000000013,-36.25,0.));
#1928=CARTESIAN_POINT('',(-29.9107864375938,-36.25,0.));
#1929=CARTESIAN_POINT('',(-19.400000000013,-36.25,-12.));
#1930=CARTESIAN_POINT('',(-19.400000000013,-36.25,0.));
#1931=CARTESIAN_POINT('',(-60.1715728751878,-36.25,-12.));
#1932=CARTESIAN_POINT('Origin',(-61.9999999999854,37.171572875377,0.));
#1933=CARTESIAN_POINT('',(-61.9999999999672,19.2732864376567,0.));
#1934=CARTESIAN_POINT('',(-61.9999999999854,37.171572875377,-12.));
#1935=CARTESIAN_POINT('Origin',(-61.9999999999854,37.171572875377,0.));
#1936=CARTESIAN_POINT('',(-61.9999999999672,19.2732864376567,0.));
#1937=CARTESIAN_POINT('',(-61.9999999999854,37.171572875377,-12.));
#1938=CARTESIAN_POINT('Origin',(62.7000000000205,-34.4215728750714,0.));
#1939=CARTESIAN_POINT('',(62.6999999999476,37.1715728751587,0.));
#1940=CARTESIAN_POINT('',(62.7000000000022,-16.523286437504,0.));
#1941=CARTESIAN_POINT('',(62.6999999999476,37.1715728751587,-12.));
#1942=CARTESIAN_POINT('',(62.6999999999476,37.1715728751587,0.));
#1943=CARTESIAN_POINT('',(62.7000000000205,-34.4215728750714,-12.));
#1944=CARTESIAN_POINT('Origin',(62.7000000000205,-34.4215728750714,0.));
#1945=CARTESIAN_POINT('',(62.7000000000205,-34.4215728750714,-12.));
#1946=CARTESIAN_POINT('',(62.7000000000022,-16.523286437504,0.));
#1947=CARTESIAN_POINT('Origin',(60.8715728751849,39.0000000000435,0.));
#1948=CARTESIAN_POINT('',(60.8715728751849,39.0000000000436,-12.));
#1949=CARTESIAN_POINT('',(60.8715728751849,39.0000000000435,-12.));
#1950=CARTESIAN_POINT('',(60.8715728751849,39.0000000000435,0.));
#1951=CARTESIAN_POINT('',(60.8715728751849,39.0000000000435,0.));
#1952=CARTESIAN_POINT('',(30.6107864375699,39.0000000000072,0.));
#1953=CARTESIAN_POINT('Origin',(60.8715728751849,39.0000000000435,0.));
#1954=CARTESIAN_POINT('',(60.8715728751849,39.0000000000435,-12.));
#1955=CARTESIAN_POINT('',(30.6107864375699,39.0000000000072,0.));
#1956=CARTESIAN_POINT('Origin',(0.350000000000161,1.37499999999989,0.));
#1957=CARTESIAN_POINT('',(56.0616432197918,43.809929655758,0.));
#1958=CARTESIAN_POINT('Origin',(0.350000000000161,1.37499999999989,0.));
#1959=CARTESIAN_POINT('',(56.0616432197918,43.809929655758,0.));
#1960=CARTESIAN_POINT('Origin',(0.350000000000161,1.37499999999989,0.));
#1961=CARTESIAN_POINT('Origin',(0.350000000000161,1.37499999999989,0.));
#1962=CARTESIAN_POINT('',(-29.9107864375938,-36.25,0.));
#1963=CARTESIAN_POINT('Origin',(0.350000000000161,1.37499999999989,0.));
#1964=CARTESIAN_POINT('Origin',(0.350000000000161,1.37499999999989,0.));
#1965=CARTESIAN_POINT('',(55.1474296558453,-41.9741432190298,0.));
#1966=CARTESIAN_POINT('Origin',(0.350000000000161,1.37499999999989,0.));
#1967=CARTESIAN_POINT('',(62.7000000000022,-16.523286437504,0.));
#1968=CARTESIAN_POINT('',(20.0999999999754,-35.7499999999854,0.));
#1969=CARTESIAN_POINT('',(20.0999999999754,-17.1874999999928,0.));
#1970=CARTESIAN_POINT('',(-19.400000000013,-35.7499999999854,0.));
#1971=CARTESIAN_POINT('',(-9.5250000000064,-35.7499999999854,0.));
#1972=CARTESIAN_POINT('',(-19.400000000013,-17.4375000000001,0.));
#1973=CARTESIAN_POINT('Origin',(0.350000000000161,1.37499999999989,0.));
#1974=CARTESIAN_POINT('',(30.6107864375699,39.0000000000072,0.));
#1975=CARTESIAN_POINT('Origin',(0.350000000000161,1.37499999999989,0.));
#1976=CARTESIAN_POINT('',(-61.9999999999672,19.2732864376567,0.));
#1977=CARTESIAN_POINT('Origin',(0.350000000000161,1.37499999999989,-12.));
#1978=CARTESIAN_POINT('',(-60.9999999999997,-38.25,-12.));
#1979=CARTESIAN_POINT('',(-63.9999999999997,-35.25,-12.));
#1980=CARTESIAN_POINT('',(-60.9999999999997,-38.25,-12.));
#1981=CARTESIAN_POINT('',(-63.9999999999999,37.9999999999998,-12.));
#1982=CARTESIAN_POINT('',(-63.9999999999997,-35.25,-12.));
#1983=CARTESIAN_POINT('',(-60.9999999999999,40.9999999999998,-12.));
#1984=CARTESIAN_POINT('',(-63.9999999999999,37.9999999999998,-12.));
#1985=CARTESIAN_POINT('',(61.7,40.9999999999998,-12.));
#1986=CARTESIAN_POINT('',(-60.9999999999999,40.9999999999998,-12.));
#1987=CARTESIAN_POINT('',(64.7,37.9999999999998,-12.));
#1988=CARTESIAN_POINT('',(61.7,40.9999999999998,-12.));
#1989=CARTESIAN_POINT('',(64.7000000000002,-35.25,-12.));
#1990=CARTESIAN_POINT('',(64.7,37.9999999999998,-12.));
#1991=CARTESIAN_POINT('',(61.7000000000002,-38.25,-12.));
#1992=CARTESIAN_POINT('',(64.7000000000002,-35.25,-12.));
#1993=CARTESIAN_POINT('',(18.1000000000032,-38.25,-12.));
#1994=CARTESIAN_POINT('',(61.7000000000002,-38.25,-12.));
#1995=CARTESIAN_POINT('',(18.1000000000032,-37.75,-12.));
#1996=CARTESIAN_POINT('',(18.1000000000032,-38.25,-12.));
#1997=CARTESIAN_POINT('',(-17.4000000000026,-37.75,-12.));
#1998=CARTESIAN_POINT('',(18.1000000000032,-37.75,-12.));
#1999=CARTESIAN_POINT('',(-17.4000000000026,-38.25,-12.));
#2000=CARTESIAN_POINT('',(-17.4000000000026,-37.75,-12.));
#2001=CARTESIAN_POINT('',(-17.4000000000026,-38.25,-12.));
#2002=CARTESIAN_POINT('',(-61.9999999999854,37.171572875377,-12.));
#2003=CARTESIAN_POINT('',(-19.400000000013,-35.7499999999854,-12.));
#2004=CARTESIAN_POINT('',(-19.400000000013,-36.25,-12.));
#2005=CARTESIAN_POINT('',(20.0999999999754,-35.7499999999854,-12.));
#2006=CARTESIAN_POINT('',(-19.400000000013,-35.7499999999854,-12.));
#2007=CARTESIAN_POINT('',(20.0999999999754,-35.7499999999854,-12.));
#2008=CARTESIAN_POINT('',(62.7000000000205,-34.4215728750714,-12.));
#2009=CARTESIAN_POINT('',(-55.8999999999999,34.9999999999998,-12.));
#2010=CARTESIAN_POINT('Origin',(-57.9999999999999,34.9999999999998,-12.));
#2011=CARTESIAN_POINT('',(60.8715728750394,-36.25,-12.));
#2012=CARTESIAN_POINT('',(60.8000000000002,-32.2500000000001,-12.));
#2013=CARTESIAN_POINT('Origin',(58.7000000000002,-32.2500000000001,-12.));
#2014=CARTESIAN_POINT('',(-60.1715728751878,-36.25,-12.));
#2015=CARTESIAN_POINT('',(60.8715728751849,39.0000000000435,-12.));
#2016=CARTESIAN_POINT('',(-55.8999999999997,-32.2500000000001,-12.));
#2017=CARTESIAN_POINT('Origin',(-57.9999999999997,-32.2500000000001,-12.));
#2018=CARTESIAN_POINT('',(62.6999999999476,37.1715728751587,-12.));
#2019=CARTESIAN_POINT('',(60.8,34.9999999999999,-12.));
#2020=CARTESIAN_POINT('Origin',(58.7,34.9999999999999,-12.));
#2021=CARTESIAN_POINT('',(62.6999999999476,37.1715728751587,-12.));
#2022=CARTESIAN_POINT('Origin',(62.6999999999476,37.1715728751587,0.));
#2023=CARTESIAN_POINT('Origin',(62.6999999999476,37.1715728751587,0.));
#2024=CARTESIAN_POINT('Origin',(62.7000000000205,-34.4215728750714,0.));
#2025=CARTESIAN_POINT('Origin',(60.8715728750394,-36.25,0.));
#2026=CARTESIAN_POINT('Origin',(20.0999999999754,-35.7499999999854,0.));
#2027=CARTESIAN_POINT('',(20.0999999999754,-35.7499999999854,0.));
#2028=CARTESIAN_POINT('Origin',(-19.400000000013,-35.7499999999854,0.));
#2029=CARTESIAN_POINT('',(-19.400000000013,-35.7499999999854,0.));
#2030=CARTESIAN_POINT('Origin',(-19.400000000013,-36.25,0.));
#2031=CARTESIAN_POINT('Origin',(-60.1715728751878,-36.25,0.));
#2032=CARTESIAN_POINT('Origin',(-61.9999999999854,37.171572875377,0.));
#2033=CARTESIAN_POINT('Origin',(60.8715728751849,39.0000000000435,0.));
#2034=CARTESIAN_POINT('Origin',(58.7000000000002,-32.2500000000001,0.));
#2035=CARTESIAN_POINT('',(60.8000000000002,-32.2500000000001,0.));
#2036=CARTESIAN_POINT('Origin',(-57.9999999999997,-32.2500000000001,0.));
#2037=CARTESIAN_POINT('',(-55.8999999999997,-32.2500000000001,0.));
#2038=CARTESIAN_POINT('Origin',(58.7,34.9999999999999,0.));
#2039=CARTESIAN_POINT('',(60.8,34.9999999999999,0.));
#2040=CARTESIAN_POINT('Origin',(-57.9999999999999,34.9999999999998,0.));
#2041=CARTESIAN_POINT('',(-55.8999999999999,34.9999999999998,0.));
#2042=CARTESIAN_POINT('Origin',(-60.9999999999997,-38.25,0.));
#2043=CARTESIAN_POINT('',(-17.4000000000026,-38.25,2.));
#2044=CARTESIAN_POINT('',(-17.4000000000026,-38.25,0.));
#2045=CARTESIAN_POINT('',(-60.9999999999997,-38.25,2.));
#2046=CARTESIAN_POINT('',(-60.9999999999997,-38.25,2.));
#2047=CARTESIAN_POINT('',(-60.9999999999997,-38.25,0.));
#2048=CARTESIAN_POINT('Origin',(-63.9999999999997,-35.25,0.));
#2049=CARTESIAN_POINT('',(-63.9999999999997,-35.25,2.));
#2050=CARTESIAN_POINT('',(-63.9999999999997,-35.25,2.));
#2051=CARTESIAN_POINT('',(-63.9999999999997,-35.25,0.));
#2052=CARTESIAN_POINT('Origin',(-63.9999999999999,37.9999999999998,0.));
#2053=CARTESIAN_POINT('',(-63.9999999999999,37.9999999999998,2.));
#2054=CARTESIAN_POINT('',(-63.9999999999999,37.9999999999998,2.));
#2055=CARTESIAN_POINT('',(-63.9999999999999,37.9999999999998,0.));
#2056=CARTESIAN_POINT('Origin',(-60.9999999999999,40.9999999999998,0.));
#2057=CARTESIAN_POINT('',(-60.9999999999999,40.9999999999998,2.));
#2058=CARTESIAN_POINT('',(-60.9999999999999,40.9999999999998,2.));
#2059=CARTESIAN_POINT('',(-60.9999999999999,40.9999999999998,0.));
#2060=CARTESIAN_POINT('Origin',(61.7,40.9999999999998,0.));
#2061=CARTESIAN_POINT('',(61.7,40.9999999999998,2.));
#2062=CARTESIAN_POINT('',(61.7,40.9999999999998,2.));
#2063=CARTESIAN_POINT('',(61.7,40.9999999999998,0.));
#2064=CARTESIAN_POINT('Origin',(64.7,37.9999999999998,0.));
#2065=CARTESIAN_POINT('',(64.7,37.9999999999998,2.));
#2066=CARTESIAN_POINT('',(64.7,37.9999999999998,2.));
#2067=CARTESIAN_POINT('',(64.7,37.9999999999998,0.));
#2068=CARTESIAN_POINT('Origin',(64.7000000000002,-35.25,0.));
#2069=CARTESIAN_POINT('',(64.7000000000002,-35.25,2.));
#2070=CARTESIAN_POINT('',(64.7000000000002,-35.25,2.));
#2071=CARTESIAN_POINT('',(64.7000000000002,-35.25,0.));
#2072=CARTESIAN_POINT('Origin',(61.7000000000002,-38.25,0.));
#2073=CARTESIAN_POINT('',(61.7000000000002,-38.25,2.));
#2074=CARTESIAN_POINT('',(61.7000000000002,-38.25,2.));
#2075=CARTESIAN_POINT('',(61.7000000000002,-38.25,0.));
#2076=CARTESIAN_POINT('Origin',(18.1000000000032,-38.25,0.));
#2077=CARTESIAN_POINT('',(18.1000000000032,-38.25,2.));
#2078=CARTESIAN_POINT('',(17.6000000000032,-38.25,2.));
#2079=CARTESIAN_POINT('',(18.1000000000032,-38.25,0.));
#2080=CARTESIAN_POINT('Origin',(18.1000000000032,-37.75,0.));
#2081=CARTESIAN_POINT('',(18.1000000000032,-37.75,2.));
#2082=CARTESIAN_POINT('',(18.1000000000032,-37.75,2.));
#2083=CARTESIAN_POINT('',(18.1000000000032,-37.75,0.));
#2084=CARTESIAN_POINT('Origin',(-17.4000000000026,-37.75,0.));
#2085=CARTESIAN_POINT('',(-17.4000000000026,-37.75,2.));
#2086=CARTESIAN_POINT('',(-17.4000000000026,-37.75,2.));
#2087=CARTESIAN_POINT('',(-17.4000000000026,-37.75,0.));
#2088=CARTESIAN_POINT('Origin',(-17.4000000000026,-38.25,0.));
#2089=CARTESIAN_POINT('',(-17.4000000000026,-38.25,2.));
#2090=CARTESIAN_POINT('Origin',(0.350000000000161,1.37499999999989,2.));
#2091=UNCERTAINTY_MEASURE_WITH_UNIT(LENGTH_MEASURE(0.01),#2095,
'DISTANCE_ACCURACY_VALUE',
'Maximum model space distance between geometric entities at asserted c
onnectivities');
#2092=UNCERTAINTY_MEASURE_WITH_UNIT(LENGTH_MEASURE(0.01),#2095,
'DISTANCE_ACCURACY_VALUE',
'Maximum model space distance between geometric entities at asserted c
onnectivities');
#2093=(
GEOMETRIC_REPRESENTATION_CONTEXT(3)
GLOBAL_UNCERTAINTY_ASSIGNED_CONTEXT((#2091))
GLOBAL_UNIT_ASSIGNED_CONTEXT((#2095,#2097,#2098))
REPRESENTATION_CONTEXT('','3D')
);
#2094=(
GEOMETRIC_REPRESENTATION_CONTEXT(3)
GLOBAL_UNCERTAINTY_ASSIGNED_CONTEXT((#2092))
GLOBAL_UNIT_ASSIGNED_CONTEXT((#2095,#2097,#2098))
REPRESENTATION_CONTEXT('','3D')
);
#2095=(
LENGTH_UNIT()
NAMED_UNIT(*)
SI_UNIT(.MILLI.,.METRE.)
);
#2096=(
LENGTH_UNIT()
NAMED_UNIT(*)
SI_UNIT(.CENTI.,.METRE.)
);
#2097=(
NAMED_UNIT(*)
PLANE_ANGLE_UNIT()
SI_UNIT($,.RADIAN.)
);
#2098=(
NAMED_UNIT(*)
SI_UNIT($,.STERADIAN.)
SOLID_ANGLE_UNIT()
);
#2099=SHAPE_DEFINITION_REPRESENTATION(#2100,#2101);
#2100=PRODUCT_DEFINITION_SHAPE('',$,#2103);
#2101=SHAPE_REPRESENTATION('',(#1275),#2093);
#2102=PRODUCT_DEFINITION_CONTEXT('part definition',#2107,'design');
#2103=PRODUCT_DEFINITION('MonitorBack','MonitorBack',#2104,#2102);
#2104=PRODUCT_DEFINITION_FORMATION('',$,#2109);
#2105=PRODUCT_RELATED_PRODUCT_CATEGORY('MonitorBack','MonitorBack',(#2109));
#2106=APPLICATION_PROTOCOL_DEFINITION('international standard',
'automotive_design',2009,#2107);
#2107=APPLICATION_CONTEXT(
'Core Data for Automotive Mechanical Design Process');
#2108=PRODUCT_CONTEXT('part definition',#2107,'mechanical');
#2109=PRODUCT('MonitorBack','MonitorBack',$,(#2108));
#2110=PRESENTATION_STYLE_ASSIGNMENT((#2111));
#2111=SURFACE_STYLE_USAGE(.BOTH.,#2114);
#2112=SURFACE_STYLE_RENDERING_WITH_PROPERTIES($,#2118,(#2113));
#2113=SURFACE_STYLE_TRANSPARENT(0.);
#2114=SURFACE_SIDE_STYLE('',(#2115,#2112));
#2115=SURFACE_STYLE_FILL_AREA(#2116);
#2116=FILL_AREA_STYLE('',(#2117));
#2117=FILL_AREA_STYLE_COLOUR('',#2118);
#2118=COLOUR_RGB('',0.749019607843137,0.749019607843137,0.749019607843137);
ENDSEC;
END-ISO-10303-21;
