ISO-10303-21;
HEADER;
/* Generated by software containing ST-Developer
 * from STEP Tools, Inc. (www.steptools.com) 
 */

FILE_DESCRIPTION(
/* description */ (''),
/* implementation_level */ '2;1');

FILE_NAME(
/* name */ 'toppcb.dwg.stp',
/* time_stamp */ '2026-04-11T11:14:25+07:00',
/* author */ ('Fork'),
/* organization */ (''),
/* preprocessor_version */ 'ST-DEVELOPER v20.1',
/* originating_system */ 'Autodesk Inventor 2026',
/* authorisation */ '');

FILE_SCHEMA (('AUTOMOTIVE_DESIGN { 1 0 10303 214 3 1 1 }'));
ENDSEC;

DATA;
#10=MECHANICAL_DESIGN_GEOMETRIC_PRESENTATION_REPRESENTATION('',(#16),#1503);
#11=GEOMETRICALLY_BOUNDED_WIREFRAME_SHAPE_REPRESENTATION('',(#12),#1502);
#12=GEOMETRIC_CURVE_SET('Sketch6',(#1499));
#13=SHAPE_REPRESENTATION_RELATIONSHIP('SRR','None',#1510,#15);
#14=SHAPE_REPRESENTATION_RELATIONSHIP('SRR','None',#1510,#11);
#15=ADVANCED_BREP_SHAPE_REPRESENTATION('',(#17),#1502);
#16=STYLED_ITEM('',(#1519),#17);
#17=MANIFOLD_SOLID_BREP('Solid1',#885);
#18=FACE_BOUND('',#122,.T.);
#19=FACE_BOUND('',#125,.T.);
#20=FACE_BOUND('',#128,.T.);
#21=FACE_BOUND('',#131,.T.);
#22=FACE_BOUND('',#138,.T.);
#23=FACE_BOUND('',#139,.T.);
#24=FACE_BOUND('',#145,.T.);
#25=FACE_BOUND('',#146,.T.);
#26=FACE_BOUND('',#147,.T.);
#27=FACE_BOUND('',#148,.T.);
#28=FACE_BOUND('',#149,.T.);
#29=FACE_BOUND('',#150,.T.);
#30=FACE_BOUND('',#182,.T.);
#31=FACE_BOUND('',#183,.T.);
#32=FACE_BOUND('',#184,.T.);
#33=FACE_BOUND('',#185,.T.);
#34=FACE_BOUND('',#186,.T.);
#35=FACE_BOUND('',#187,.T.);
#36=FACE_BOUND('',#188,.T.);
#37=FACE_BOUND('',#189,.T.);
#38=FACE_BOUND('',#190,.T.);
#39=PLANE('',#911);
#40=PLANE('',#916);
#41=PLANE('',#921);
#42=PLANE('',#926);
#43=PLANE('',#928);
#44=PLANE('',#929);
#45=PLANE('',#930);
#46=PLANE('',#931);
#47=PLANE('',#935);
#48=PLANE('',#940);
#49=PLANE('',#942);
#50=PLANE('',#944);
#51=PLANE('',#946);
#52=PLANE('',#948);
#53=PLANE('',#955);
#54=PLANE('',#956);
#55=PLANE('',#961);
#56=PLANE('',#962);
#57=PLANE('',#965);
#58=PLANE('',#966);
#59=PLANE('',#971);
#60=PLANE('',#972);
#61=PLANE('',#977);
#62=PLANE('',#980);
#63=PLANE('',#983);
#64=PLANE('',#986);
#65=PLANE('',#987);
#66=PLANE('',#988);
#67=PLANE('',#991);
#68=PLANE('',#994);
#69=PLANE('',#995);
#70=FACE_OUTER_BOUND('',#120,.T.);
#71=FACE_OUTER_BOUND('',#121,.T.);
#72=FACE_OUTER_BOUND('',#123,.T.);
#73=FACE_OUTER_BOUND('',#124,.T.);
#74=FACE_OUTER_BOUND('',#126,.T.);
#75=FACE_OUTER_BOUND('',#127,.T.);
#76=FACE_OUTER_BOUND('',#129,.T.);
#77=FACE_OUTER_BOUND('',#130,.T.);
#78=FACE_OUTER_BOUND('',#132,.T.);
#79=FACE_OUTER_BOUND('',#133,.T.);
#80=FACE_OUTER_BOUND('',#134,.T.);
#81=FACE_OUTER_BOUND('',#135,.T.);
#82=FACE_OUTER_BOUND('',#136,.T.);
#83=FACE_OUTER_BOUND('',#137,.T.);
#84=FACE_OUTER_BOUND('',#140,.T.);
#85=FACE_OUTER_BOUND('',#141,.T.);
#86=FACE_OUTER_BOUND('',#142,.T.);
#87=FACE_OUTER_BOUND('',#143,.T.);
#88=FACE_OUTER_BOUND('',#144,.T.);
#89=FACE_OUTER_BOUND('',#151,.T.);
#90=FACE_OUTER_BOUND('',#152,.T.);
#91=FACE_OUTER_BOUND('',#153,.T.);
#92=FACE_OUTER_BOUND('',#154,.T.);
#93=FACE_OUTER_BOUND('',#155,.T.);
#94=FACE_OUTER_BOUND('',#156,.T.);
#95=FACE_OUTER_BOUND('',#157,.T.);
#96=FACE_OUTER_BOUND('',#158,.T.);
#97=FACE_OUTER_BOUND('',#159,.T.);
#98=FACE_OUTER_BOUND('',#160,.T.);
#99=FACE_OUTER_BOUND('',#161,.T.);
#100=FACE_OUTER_BOUND('',#162,.T.);
#101=FACE_OUTER_BOUND('',#163,.T.);
#102=FACE_OUTER_BOUND('',#164,.T.);
#103=FACE_OUTER_BOUND('',#165,.T.);
#104=FACE_OUTER_BOUND('',#166,.T.);
#105=FACE_OUTER_BOUND('',#167,.T.);
#106=FACE_OUTER_BOUND('',#168,.T.);
#107=FACE_OUTER_BOUND('',#169,.T.);
#108=FACE_OUTER_BOUND('',#170,.T.);
#109=FACE_OUTER_BOUND('',#171,.T.);
#110=FACE_OUTER_BOUND('',#172,.T.);
#111=FACE_OUTER_BOUND('',#173,.T.);
#112=FACE_OUTER_BOUND('',#174,.T.);
#113=FACE_OUTER_BOUND('',#175,.T.);
#114=FACE_OUTER_BOUND('',#176,.T.);
#115=FACE_OUTER_BOUND('',#177,.T.);
#116=FACE_OUTER_BOUND('',#178,.T.);
#117=FACE_OUTER_BOUND('',#179,.T.);
#118=FACE_OUTER_BOUND('',#180,.T.);
#119=FACE_OUTER_BOUND('',#181,.T.);
#120=EDGE_LOOP('',(#582,#583,#584,#585));
#121=EDGE_LOOP('',(#586));
#122=EDGE_LOOP('',(#587));
#123=EDGE_LOOP('',(#588,#589,#590,#591));
#124=EDGE_LOOP('',(#592));
#125=EDGE_LOOP('',(#593));
#126=EDGE_LOOP('',(#594,#595,#596,#597));
#127=EDGE_LOOP('',(#598));
#128=EDGE_LOOP('',(#599));
#129=EDGE_LOOP('',(#600,#601,#602,#603));
#130=EDGE_LOOP('',(#604));
#131=EDGE_LOOP('',(#605));
#132=EDGE_LOOP('',(#606,#607,#608,#609));
#133=EDGE_LOOP('',(#610,#611,#612,#613));
#134=EDGE_LOOP('',(#614,#615,#616,#617));
#135=EDGE_LOOP('',(#618,#619,#620,#621));
#136=EDGE_LOOP('',(#622,#623,#624,#625));
#137=EDGE_LOOP('',(#626,#627,#628,#629,#630,#631,#632,#633));
#138=EDGE_LOOP('',(#634,#635,#636,#637));
#139=EDGE_LOOP('',(#638));
#140=EDGE_LOOP('',(#639,#640,#641));
#141=EDGE_LOOP('',(#642,#643,#644));
#142=EDGE_LOOP('',(#645,#646,#647));
#143=EDGE_LOOP('',(#648,#649,#650));
#144=EDGE_LOOP('',(#651,#652,#653,#654,#655,#656));
#145=EDGE_LOOP('',(#657));
#146=EDGE_LOOP('',(#658));
#147=EDGE_LOOP('',(#659));
#148=EDGE_LOOP('',(#660));
#149=EDGE_LOOP('',(#661,#662,#663,#664));
#150=EDGE_LOOP('',(#665));
#151=EDGE_LOOP('',(#666,#667,#668,#669));
#152=EDGE_LOOP('',(#670,#671,#672,#673));
#153=EDGE_LOOP('',(#674,#675,#676,#677));
#154=EDGE_LOOP('',(#678,#679,#680,#681));
#155=EDGE_LOOP('',(#682,#683,#684,#685));
#156=EDGE_LOOP('',(#686,#687,#688,#689));
#157=EDGE_LOOP('',(#690,#691,#692,#693));
#158=EDGE_LOOP('',(#694,#695,#696,#697));
#159=EDGE_LOOP('',(#698,#699,#700,#701));
#160=EDGE_LOOP('',(#702,#703,#704,#705));
#161=EDGE_LOOP('',(#706,#707,#708,#709));
#162=EDGE_LOOP('',(#710,#711,#712,#713));
#163=EDGE_LOOP('',(#714,#715,#716,#717));
#164=EDGE_LOOP('',(#718,#719,#720,#721));
#165=EDGE_LOOP('',(#722,#723,#724,#725));
#166=EDGE_LOOP('',(#726,#727,#728,#729));
#167=EDGE_LOOP('',(#730,#731,#732,#733));
#168=EDGE_LOOP('',(#734,#735,#736,#737));
#169=EDGE_LOOP('',(#738,#739,#740,#741));
#170=EDGE_LOOP('',(#742,#743,#744,#745));
#171=EDGE_LOOP('',(#746,#747,#748,#749));
#172=EDGE_LOOP('',(#750,#751,#752,#753));
#173=EDGE_LOOP('',(#754,#755,#756,#757));
#174=EDGE_LOOP('',(#758,#759,#760,#761));
#175=EDGE_LOOP('',(#762,#763,#764,#765));
#176=EDGE_LOOP('',(#766,#767,#768,#769));
#177=EDGE_LOOP('',(#770,#771,#772,#773));
#178=EDGE_LOOP('',(#774,#775,#776,#777));
#179=EDGE_LOOP('',(#778,#779,#780,#781));
#180=EDGE_LOOP('',(#782,#783,#784,#785));
#181=EDGE_LOOP('',(#786,#787,#788,#789,#790,#791));
#182=EDGE_LOOP('',(#792,#793,#794,#795,#796,#797,#798,#799));
#183=EDGE_LOOP('',(#800,#801,#802));
#184=EDGE_LOOP('',(#803));
#185=EDGE_LOOP('',(#804,#805,#806));
#186=EDGE_LOOP('',(#807));
#187=EDGE_LOOP('',(#808,#809,#810));
#188=EDGE_LOOP('',(#811));
#189=EDGE_LOOP('',(#812,#813,#814));
#190=EDGE_LOOP('',(#815));
#191=LINE('',#1258,#270);
#192=LINE('',#1267,#271);
#193=LINE('',#1276,#272);
#194=LINE('',#1285,#273);
#195=LINE('',#1293,#274);
#196=LINE('',#1295,#275);
#197=LINE('',#1297,#276);
#198=LINE('',#1298,#277);
#199=LINE('',#1301,#278);
#200=LINE('',#1303,#279);
#201=LINE('',#1304,#280);
#202=LINE('',#1307,#281);
#203=LINE('',#1309,#282);
#204=LINE('',#1310,#283);
#205=LINE('',#1312,#284);
#206=LINE('',#1313,#285);
#207=LINE('',#1318,#286);
#208=LINE('',#1325,#287);
#209=LINE('',#1329,#288);
#210=LINE('',#1333,#289);
#211=LINE('',#1336,#290);
#212=LINE('',#1340,#291);
#213=LINE('',#1343,#292);
#214=LINE('',#1347,#293);
#215=LINE('',#1350,#294);
#216=LINE('',#1356,#295);
#217=LINE('',#1357,#296);
#218=LINE('',#1363,#297);
#219=LINE('',#1364,#298);
#220=LINE('',#1370,#299);
#221=LINE('',#1374,#300);
#222=LINE('',#1376,#301);
#223=LINE('',#1377,#302);
#224=LINE('',#1380,#303);
#225=LINE('',#1386,#304);
#226=LINE('',#1387,#305);
#227=LINE('',#1390,#306);
#228=LINE('',#1391,#307);
#229=LINE('',#1393,#308);
#230=LINE('',#1396,#309);
#231=LINE('',#1402,#310);
#232=LINE('',#1403,#311);
#233=LINE('',#1406,#312);
#234=LINE('',#1407,#313);
#235=LINE('',#1409,#314);
#236=LINE('',#1412,#315);
#237=LINE('',#1417,#316);
#238=LINE('',#1418,#317);
#239=LINE('',#1419,#318);
#240=LINE('',#1422,#319);
#241=LINE('',#1423,#320);
#242=LINE('',#1428,#321);
#243=LINE('',#1433,#322);
#244=LINE('',#1434,#323);
#245=LINE('',#1435,#324);
#246=LINE('',#1438,#325);
#247=LINE('',#1439,#326);
#248=LINE('',#1446,#327);
#249=LINE('',#1447,#328);
#250=LINE('',#1450,#329);
#251=LINE('',#1451,#330);
#252=LINE('',#1455,#331);
#253=LINE('',#1458,#332);
#254=LINE('',#1459,#333);
#255=LINE('',#1463,#334);
#256=LINE('',#1466,#335);
#257=LINE('',#1467,#336);
#258=LINE('',#1471,#337);
#259=LINE('',#1473,#338);
#260=LINE('',#1477,#339);
#261=LINE('',#1478,#340);
#262=LINE('',#1479,#341);
#263=LINE('',#1482,#342);
#264=LINE('',#1483,#343);
#265=LINE('',#1487,#344);
#266=LINE('',#1490,#345);
#267=LINE('',#1491,#346);
#268=LINE('',#1495,#347);
#269=LINE('',#1497,#348);
#270=VECTOR('',#1002,3.25);
#271=VECTOR('',#1013,3.25);
#272=VECTOR('',#1024,3.25);
#273=VECTOR('',#1035,3.25);
#274=VECTOR('',#1044,10.);
#275=VECTOR('',#1045,10.);
#276=VECTOR('',#1046,10.);
#277=VECTOR('',#1047,10.);
#278=VECTOR('',#1050,10.);
#279=VECTOR('',#1051,10.);
#280=VECTOR('',#1052,10.);
#281=VECTOR('',#1055,10.);
#282=VECTOR('',#1056,10.);
#283=VECTOR('',#1057,10.);
#284=VECTOR('',#1060,10.);
#285=VECTOR('',#1061,10.);
#286=VECTOR('',#1066,3.75);
#287=VECTOR('',#1073,10.);
#288=VECTOR('',#1076,10.);
#289=VECTOR('',#1079,10.);
#290=VECTOR('',#1082,10.);
#291=VECTOR('',#1085,10.);
#292=VECTOR('',#1088,10.);
#293=VECTOR('',#1091,10.);
#294=VECTOR('',#1094,10.);
#295=VECTOR('',#1099,10.);
#296=VECTOR('',#1100,10.);
#297=VECTOR('',#1105,10.);
#298=VECTOR('',#1106,10.);
#299=VECTOR('',#1111,10.);
#300=VECTOR('',#1114,10.);
#301=VECTOR('',#1115,10.);
#302=VECTOR('',#1116,10.);
#303=VECTOR('',#1119,2.1);
#304=VECTOR('',#1126,10.);
#305=VECTOR('',#1127,10.);
#306=VECTOR('',#1130,10.);
#307=VECTOR('',#1131,10.);
#308=VECTOR('',#1134,10.);
#309=VECTOR('',#1137,2.1);
#310=VECTOR('',#1144,10.);
#311=VECTOR('',#1145,10.);
#312=VECTOR('',#1148,10.);
#313=VECTOR('',#1149,10.);
#314=VECTOR('',#1152,10.);
#315=VECTOR('',#1155,2.1);
#316=VECTOR('',#1160,10.);
#317=VECTOR('',#1161,10.);
#318=VECTOR('',#1162,10.);
#319=VECTOR('',#1165,10.);
#320=VECTOR('',#1166,10.);
#321=VECTOR('',#1173,2.1);
#322=VECTOR('',#1178,10.);
#323=VECTOR('',#1179,10.);
#324=VECTOR('',#1180,10.);
#325=VECTOR('',#1183,10.);
#326=VECTOR('',#1184,10.);
#327=VECTOR('',#1193,10.);
#328=VECTOR('',#1194,10.);
#329=VECTOR('',#1197,10.);
#330=VECTOR('',#1198,10.);
#331=VECTOR('',#1203,10.);
#332=VECTOR('',#1206,10.);
#333=VECTOR('',#1207,10.);
#334=VECTOR('',#1212,10.);
#335=VECTOR('',#1215,10.);
#336=VECTOR('',#1216,10.);
#337=VECTOR('',#1221,10.);
#338=VECTOR('',#1224,10.);
#339=VECTOR('',#1227,10.);
#340=VECTOR('',#1228,10.);
#341=VECTOR('',#1229,10.);
#342=VECTOR('',#1232,10.);
#343=VECTOR('',#1233,10.);
#344=VECTOR('',#1238,10.);
#345=VECTOR('',#1241,10.);
#346=VECTOR('',#1242,10.);
#347=VECTOR('',#1247,10.);
#348=VECTOR('',#1250,10.);
#349=CIRCLE('',#909,3.25);
#350=CIRCLE('',#910,3.25);
#351=CIRCLE('',#912,2.1);
#352=CIRCLE('',#914,3.25);
#353=CIRCLE('',#915,3.25);
#354=CIRCLE('',#917,2.1);
#355=CIRCLE('',#919,3.25);
#356=CIRCLE('',#920,3.25);
#357=CIRCLE('',#922,2.1);
#358=CIRCLE('',#924,3.25);
#359=CIRCLE('',#925,3.25);
#360=CIRCLE('',#927,2.1);
#361=CIRCLE('',#933,3.75);
#362=CIRCLE('',#934,3.75);
#363=CIRCLE('',#936,4.);
#364=CIRCLE('',#937,4.);
#365=CIRCLE('',#938,4.);
#366=CIRCLE('',#939,4.);
#367=CIRCLE('',#941,4.);
#368=CIRCLE('',#943,4.);
#369=CIRCLE('',#945,4.);
#370=CIRCLE('',#947,4.);
#371=CIRCLE('',#949,5.);
#372=CIRCLE('',#950,5.);
#373=CIRCLE('',#952,2.1);
#374=CIRCLE('',#954,4.);
#375=CIRCLE('',#958,2.1);
#376=CIRCLE('',#960,4.);
#377=CIRCLE('',#964,2.1);
#378=CIRCLE('',#968,4.);
#379=CIRCLE('',#970,2.1);
#380=CIRCLE('',#974,4.);
#381=CIRCLE('',#976,4.);
#382=CIRCLE('',#979,4.);
#383=CIRCLE('',#982,4.);
#384=CIRCLE('',#985,4.);
#385=CIRCLE('',#990,5.);
#386=CIRCLE('',#993,5.);
#387=VERTEX_POINT('',#1255);
#388=VERTEX_POINT('',#1257);
#389=VERTEX_POINT('',#1261);
#390=VERTEX_POINT('',#1264);
#391=VERTEX_POINT('',#1266);
#392=VERTEX_POINT('',#1270);
#393=VERTEX_POINT('',#1273);
#394=VERTEX_POINT('',#1275);
#395=VERTEX_POINT('',#1279);
#396=VERTEX_POINT('',#1282);
#397=VERTEX_POINT('',#1284);
#398=VERTEX_POINT('',#1288);
#399=VERTEX_POINT('',#1291);
#400=VERTEX_POINT('',#1292);
#401=VERTEX_POINT('',#1294);
#402=VERTEX_POINT('',#1296);
#403=VERTEX_POINT('',#1300);
#404=VERTEX_POINT('',#1302);
#405=VERTEX_POINT('',#1306);
#406=VERTEX_POINT('',#1308);
#407=VERTEX_POINT('',#1315);
#408=VERTEX_POINT('',#1317);
#409=VERTEX_POINT('',#1321);
#410=VERTEX_POINT('',#1322);
#411=VERTEX_POINT('',#1324);
#412=VERTEX_POINT('',#1326);
#413=VERTEX_POINT('',#1328);
#414=VERTEX_POINT('',#1330);
#415=VERTEX_POINT('',#1332);
#416=VERTEX_POINT('',#1334);
#417=VERTEX_POINT('',#1338);
#418=VERTEX_POINT('',#1339);
#419=VERTEX_POINT('',#1341);
#420=VERTEX_POINT('',#1345);
#421=VERTEX_POINT('',#1346);
#422=VERTEX_POINT('',#1348);
#423=VERTEX_POINT('',#1352);
#424=VERTEX_POINT('',#1353);
#425=VERTEX_POINT('',#1355);
#426=VERTEX_POINT('',#1359);
#427=VERTEX_POINT('',#1360);
#428=VERTEX_POINT('',#1362);
#429=VERTEX_POINT('',#1366);
#430=VERTEX_POINT('',#1367);
#431=VERTEX_POINT('',#1369);
#432=VERTEX_POINT('',#1371);
#433=VERTEX_POINT('',#1373);
#434=VERTEX_POINT('',#1375);
#435=VERTEX_POINT('',#1379);
#436=VERTEX_POINT('',#1383);
#437=VERTEX_POINT('',#1384);
#438=VERTEX_POINT('',#1389);
#439=VERTEX_POINT('',#1395);
#440=VERTEX_POINT('',#1399);
#441=VERTEX_POINT('',#1400);
#442=VERTEX_POINT('',#1405);
#443=VERTEX_POINT('',#1411);
#444=VERTEX_POINT('',#1415);
#445=VERTEX_POINT('',#1416);
#446=VERTEX_POINT('',#1421);
#447=VERTEX_POINT('',#1427);
#448=VERTEX_POINT('',#1431);
#449=VERTEX_POINT('',#1432);
#450=VERTEX_POINT('',#1437);
#451=VERTEX_POINT('',#1443);
#452=VERTEX_POINT('',#1444);
#453=VERTEX_POINT('',#1449);
#454=VERTEX_POINT('',#1453);
#455=VERTEX_POINT('',#1457);
#456=VERTEX_POINT('',#1461);
#457=VERTEX_POINT('',#1465);
#458=VERTEX_POINT('',#1469);
#459=VERTEX_POINT('',#1475);
#460=VERTEX_POINT('',#1476);
#461=VERTEX_POINT('',#1481);
#462=VERTEX_POINT('',#1485);
#463=VERTEX_POINT('',#1489);
#464=VERTEX_POINT('',#1493);
#465=EDGE_CURVE('',#387,#387,#349,.T.);
#466=EDGE_CURVE('',#387,#388,#191,.T.);
#467=EDGE_CURVE('',#388,#388,#350,.T.);
#468=EDGE_CURVE('',#389,#389,#351,.T.);
#469=EDGE_CURVE('',#390,#390,#352,.T.);
#470=EDGE_CURVE('',#390,#391,#192,.T.);
#471=EDGE_CURVE('',#391,#391,#353,.T.);
#472=EDGE_CURVE('',#392,#392,#354,.T.);
#473=EDGE_CURVE('',#393,#393,#355,.T.);
#474=EDGE_CURVE('',#393,#394,#193,.T.);
#475=EDGE_CURVE('',#394,#394,#356,.T.);
#476=EDGE_CURVE('',#395,#395,#357,.T.);
#477=EDGE_CURVE('',#396,#396,#358,.T.);
#478=EDGE_CURVE('',#396,#397,#194,.T.);
#479=EDGE_CURVE('',#397,#397,#359,.T.);
#480=EDGE_CURVE('',#398,#398,#360,.T.);
#481=EDGE_CURVE('',#399,#400,#195,.T.);
#482=EDGE_CURVE('',#399,#401,#196,.T.);
#483=EDGE_CURVE('',#402,#401,#197,.T.);
#484=EDGE_CURVE('',#400,#402,#198,.T.);
#485=EDGE_CURVE('',#403,#399,#199,.T.);
#486=EDGE_CURVE('',#403,#404,#200,.T.);
#487=EDGE_CURVE('',#401,#404,#201,.T.);
#488=EDGE_CURVE('',#405,#403,#202,.T.);
#489=EDGE_CURVE('',#405,#406,#203,.T.);
#490=EDGE_CURVE('',#404,#406,#204,.T.);
#491=EDGE_CURVE('',#400,#405,#205,.T.);
#492=EDGE_CURVE('',#406,#402,#206,.T.);
#493=EDGE_CURVE('',#407,#407,#361,.T.);
#494=EDGE_CURVE('',#407,#408,#207,.T.);
#495=EDGE_CURVE('',#408,#408,#362,.T.);
#496=EDGE_CURVE('',#409,#410,#363,.T.);
#497=EDGE_CURVE('',#410,#411,#208,.T.);
#498=EDGE_CURVE('',#411,#412,#364,.T.);
#499=EDGE_CURVE('',#412,#413,#209,.T.);
#500=EDGE_CURVE('',#413,#414,#365,.T.);
#501=EDGE_CURVE('',#414,#415,#210,.T.);
#502=EDGE_CURVE('',#415,#416,#366,.T.);
#503=EDGE_CURVE('',#416,#409,#211,.T.);
#504=EDGE_CURVE('',#417,#418,#212,.T.);
#505=EDGE_CURVE('',#418,#419,#367,.T.);
#506=EDGE_CURVE('',#419,#417,#213,.T.);
#507=EDGE_CURVE('',#420,#421,#214,.T.);
#508=EDGE_CURVE('',#421,#422,#368,.T.);
#509=EDGE_CURVE('',#422,#420,#215,.T.);
#510=EDGE_CURVE('',#423,#424,#369,.T.);
#511=EDGE_CURVE('',#424,#425,#216,.T.);
#512=EDGE_CURVE('',#425,#423,#217,.T.);
#513=EDGE_CURVE('',#426,#427,#370,.T.);
#514=EDGE_CURVE('',#427,#428,#218,.T.);
#515=EDGE_CURVE('',#428,#426,#219,.T.);
#516=EDGE_CURVE('',#429,#430,#371,.T.);
#517=EDGE_CURVE('',#430,#431,#220,.T.);
#518=EDGE_CURVE('',#431,#432,#372,.T.);
#519=EDGE_CURVE('',#432,#433,#221,.T.);
#520=EDGE_CURVE('',#433,#434,#222,.T.);
#521=EDGE_CURVE('',#434,#429,#223,.T.);
#522=EDGE_CURVE('',#392,#435,#224,.T.);
#523=EDGE_CURVE('',#435,#435,#373,.T.);
#524=EDGE_CURVE('',#436,#437,#374,.T.);
#525=EDGE_CURVE('',#437,#427,#225,.T.);
#526=EDGE_CURVE('',#436,#426,#226,.T.);
#527=EDGE_CURVE('',#438,#436,#227,.T.);
#528=EDGE_CURVE('',#438,#428,#228,.T.);
#529=EDGE_CURVE('',#437,#438,#229,.T.);
#530=EDGE_CURVE('',#395,#439,#230,.T.);
#531=EDGE_CURVE('',#439,#439,#375,.T.);
#532=EDGE_CURVE('',#440,#441,#376,.T.);
#533=EDGE_CURVE('',#441,#424,#231,.T.);
#534=EDGE_CURVE('',#440,#423,#232,.T.);
#535=EDGE_CURVE('',#442,#440,#233,.T.);
#536=EDGE_CURVE('',#442,#425,#234,.T.);
#537=EDGE_CURVE('',#441,#442,#235,.T.);
#538=EDGE_CURVE('',#398,#443,#236,.T.);
#539=EDGE_CURVE('',#443,#443,#377,.T.);
#540=EDGE_CURVE('',#444,#445,#237,.T.);
#541=EDGE_CURVE('',#445,#421,#238,.T.);
#542=EDGE_CURVE('',#444,#420,#239,.T.);
#543=EDGE_CURVE('',#446,#444,#240,.T.);
#544=EDGE_CURVE('',#446,#422,#241,.T.);
#545=EDGE_CURVE('',#445,#446,#378,.T.);
#546=EDGE_CURVE('',#389,#447,#242,.T.);
#547=EDGE_CURVE('',#447,#447,#379,.T.);
#548=EDGE_CURVE('',#448,#449,#243,.T.);
#549=EDGE_CURVE('',#449,#418,#244,.T.);
#550=EDGE_CURVE('',#448,#417,#245,.T.);
#551=EDGE_CURVE('',#450,#448,#246,.T.);
#552=EDGE_CURVE('',#450,#419,#247,.T.);
#553=EDGE_CURVE('',#449,#450,#380,.T.);
#554=EDGE_CURVE('',#451,#452,#381,.T.);
#555=EDGE_CURVE('',#452,#410,#248,.T.);
#556=EDGE_CURVE('',#451,#409,#249,.T.);
#557=EDGE_CURVE('',#453,#451,#250,.T.);
#558=EDGE_CURVE('',#453,#416,#251,.T.);
#559=EDGE_CURVE('',#454,#453,#382,.T.);
#560=EDGE_CURVE('',#454,#415,#252,.T.);
#561=EDGE_CURVE('',#455,#454,#253,.T.);
#562=EDGE_CURVE('',#455,#414,#254,.T.);
#563=EDGE_CURVE('',#456,#455,#383,.T.);
#564=EDGE_CURVE('',#456,#413,#255,.T.);
#565=EDGE_CURVE('',#457,#456,#256,.T.);
#566=EDGE_CURVE('',#457,#412,#257,.T.);
#567=EDGE_CURVE('',#458,#457,#384,.T.);
#568=EDGE_CURVE('',#458,#411,#258,.T.);
#569=EDGE_CURVE('',#452,#458,#259,.T.);
#570=EDGE_CURVE('',#459,#460,#260,.T.);
#571=EDGE_CURVE('',#460,#434,#261,.T.);
#572=EDGE_CURVE('',#459,#433,#262,.T.);
#573=EDGE_CURVE('',#461,#459,#263,.T.);
#574=EDGE_CURVE('',#461,#432,#264,.T.);
#575=EDGE_CURVE('',#462,#461,#385,.T.);
#576=EDGE_CURVE('',#462,#431,#265,.T.);
#577=EDGE_CURVE('',#463,#462,#266,.T.);
#578=EDGE_CURVE('',#463,#430,#267,.T.);
#579=EDGE_CURVE('',#464,#463,#386,.T.);
#580=EDGE_CURVE('',#464,#429,#268,.T.);
#581=EDGE_CURVE('',#460,#464,#269,.T.);
#582=ORIENTED_EDGE('',*,*,#465,.F.);
#583=ORIENTED_EDGE('',*,*,#466,.T.);
#584=ORIENTED_EDGE('',*,*,#467,.T.);
#585=ORIENTED_EDGE('',*,*,#466,.F.);
#586=ORIENTED_EDGE('',*,*,#467,.F.);
#587=ORIENTED_EDGE('',*,*,#468,.T.);
#588=ORIENTED_EDGE('',*,*,#469,.F.);
#589=ORIENTED_EDGE('',*,*,#470,.T.);
#590=ORIENTED_EDGE('',*,*,#471,.T.);
#591=ORIENTED_EDGE('',*,*,#470,.F.);
#592=ORIENTED_EDGE('',*,*,#471,.F.);
#593=ORIENTED_EDGE('',*,*,#472,.T.);
#594=ORIENTED_EDGE('',*,*,#473,.F.);
#595=ORIENTED_EDGE('',*,*,#474,.T.);
#596=ORIENTED_EDGE('',*,*,#475,.T.);
#597=ORIENTED_EDGE('',*,*,#474,.F.);
#598=ORIENTED_EDGE('',*,*,#475,.F.);
#599=ORIENTED_EDGE('',*,*,#476,.T.);
#600=ORIENTED_EDGE('',*,*,#477,.F.);
#601=ORIENTED_EDGE('',*,*,#478,.T.);
#602=ORIENTED_EDGE('',*,*,#479,.T.);
#603=ORIENTED_EDGE('',*,*,#478,.F.);
#604=ORIENTED_EDGE('',*,*,#479,.F.);
#605=ORIENTED_EDGE('',*,*,#480,.T.);
#606=ORIENTED_EDGE('',*,*,#481,.F.);
#607=ORIENTED_EDGE('',*,*,#482,.T.);
#608=ORIENTED_EDGE('',*,*,#483,.F.);
#609=ORIENTED_EDGE('',*,*,#484,.F.);
#610=ORIENTED_EDGE('',*,*,#485,.F.);
#611=ORIENTED_EDGE('',*,*,#486,.T.);
#612=ORIENTED_EDGE('',*,*,#487,.F.);
#613=ORIENTED_EDGE('',*,*,#482,.F.);
#614=ORIENTED_EDGE('',*,*,#488,.F.);
#615=ORIENTED_EDGE('',*,*,#489,.T.);
#616=ORIENTED_EDGE('',*,*,#490,.F.);
#617=ORIENTED_EDGE('',*,*,#486,.F.);
#618=ORIENTED_EDGE('',*,*,#491,.F.);
#619=ORIENTED_EDGE('',*,*,#484,.T.);
#620=ORIENTED_EDGE('',*,*,#492,.F.);
#621=ORIENTED_EDGE('',*,*,#489,.F.);
#622=ORIENTED_EDGE('',*,*,#493,.F.);
#623=ORIENTED_EDGE('',*,*,#494,.T.);
#624=ORIENTED_EDGE('',*,*,#495,.F.);
#625=ORIENTED_EDGE('',*,*,#494,.F.);
#626=ORIENTED_EDGE('',*,*,#496,.T.);
#627=ORIENTED_EDGE('',*,*,#497,.T.);
#628=ORIENTED_EDGE('',*,*,#498,.T.);
#629=ORIENTED_EDGE('',*,*,#499,.T.);
#630=ORIENTED_EDGE('',*,*,#500,.T.);
#631=ORIENTED_EDGE('',*,*,#501,.T.);
#632=ORIENTED_EDGE('',*,*,#502,.T.);
#633=ORIENTED_EDGE('',*,*,#503,.T.);
#634=ORIENTED_EDGE('',*,*,#483,.T.);
#635=ORIENTED_EDGE('',*,*,#487,.T.);
#636=ORIENTED_EDGE('',*,*,#490,.T.);
#637=ORIENTED_EDGE('',*,*,#492,.T.);
#638=ORIENTED_EDGE('',*,*,#495,.T.);
#639=ORIENTED_EDGE('',*,*,#504,.T.);
#640=ORIENTED_EDGE('',*,*,#505,.T.);
#641=ORIENTED_EDGE('',*,*,#506,.T.);
#642=ORIENTED_EDGE('',*,*,#507,.T.);
#643=ORIENTED_EDGE('',*,*,#508,.T.);
#644=ORIENTED_EDGE('',*,*,#509,.T.);
#645=ORIENTED_EDGE('',*,*,#510,.T.);
#646=ORIENTED_EDGE('',*,*,#511,.T.);
#647=ORIENTED_EDGE('',*,*,#512,.T.);
#648=ORIENTED_EDGE('',*,*,#513,.T.);
#649=ORIENTED_EDGE('',*,*,#514,.T.);
#650=ORIENTED_EDGE('',*,*,#515,.T.);
#651=ORIENTED_EDGE('',*,*,#516,.T.);
#652=ORIENTED_EDGE('',*,*,#517,.T.);
#653=ORIENTED_EDGE('',*,*,#518,.T.);
#654=ORIENTED_EDGE('',*,*,#519,.T.);
#655=ORIENTED_EDGE('',*,*,#520,.T.);
#656=ORIENTED_EDGE('',*,*,#521,.T.);
#657=ORIENTED_EDGE('',*,*,#465,.T.);
#658=ORIENTED_EDGE('',*,*,#469,.T.);
#659=ORIENTED_EDGE('',*,*,#473,.T.);
#660=ORIENTED_EDGE('',*,*,#477,.T.);
#661=ORIENTED_EDGE('',*,*,#481,.T.);
#662=ORIENTED_EDGE('',*,*,#491,.T.);
#663=ORIENTED_EDGE('',*,*,#488,.T.);
#664=ORIENTED_EDGE('',*,*,#485,.T.);
#665=ORIENTED_EDGE('',*,*,#493,.T.);
#666=ORIENTED_EDGE('',*,*,#472,.F.);
#667=ORIENTED_EDGE('',*,*,#522,.T.);
#668=ORIENTED_EDGE('',*,*,#523,.T.);
#669=ORIENTED_EDGE('',*,*,#522,.F.);
#670=ORIENTED_EDGE('',*,*,#524,.T.);
#671=ORIENTED_EDGE('',*,*,#525,.T.);
#672=ORIENTED_EDGE('',*,*,#513,.F.);
#673=ORIENTED_EDGE('',*,*,#526,.F.);
#674=ORIENTED_EDGE('',*,*,#527,.T.);
#675=ORIENTED_EDGE('',*,*,#526,.T.);
#676=ORIENTED_EDGE('',*,*,#515,.F.);
#677=ORIENTED_EDGE('',*,*,#528,.F.);
#678=ORIENTED_EDGE('',*,*,#529,.T.);
#679=ORIENTED_EDGE('',*,*,#528,.T.);
#680=ORIENTED_EDGE('',*,*,#514,.F.);
#681=ORIENTED_EDGE('',*,*,#525,.F.);
#682=ORIENTED_EDGE('',*,*,#476,.F.);
#683=ORIENTED_EDGE('',*,*,#530,.T.);
#684=ORIENTED_EDGE('',*,*,#531,.T.);
#685=ORIENTED_EDGE('',*,*,#530,.F.);
#686=ORIENTED_EDGE('',*,*,#532,.T.);
#687=ORIENTED_EDGE('',*,*,#533,.T.);
#688=ORIENTED_EDGE('',*,*,#510,.F.);
#689=ORIENTED_EDGE('',*,*,#534,.F.);
#690=ORIENTED_EDGE('',*,*,#535,.T.);
#691=ORIENTED_EDGE('',*,*,#534,.T.);
#692=ORIENTED_EDGE('',*,*,#512,.F.);
#693=ORIENTED_EDGE('',*,*,#536,.F.);
#694=ORIENTED_EDGE('',*,*,#537,.T.);
#695=ORIENTED_EDGE('',*,*,#536,.T.);
#696=ORIENTED_EDGE('',*,*,#511,.F.);
#697=ORIENTED_EDGE('',*,*,#533,.F.);
#698=ORIENTED_EDGE('',*,*,#480,.F.);
#699=ORIENTED_EDGE('',*,*,#538,.T.);
#700=ORIENTED_EDGE('',*,*,#539,.T.);
#701=ORIENTED_EDGE('',*,*,#538,.F.);
#702=ORIENTED_EDGE('',*,*,#540,.T.);
#703=ORIENTED_EDGE('',*,*,#541,.T.);
#704=ORIENTED_EDGE('',*,*,#507,.F.);
#705=ORIENTED_EDGE('',*,*,#542,.F.);
#706=ORIENTED_EDGE('',*,*,#543,.T.);
#707=ORIENTED_EDGE('',*,*,#542,.T.);
#708=ORIENTED_EDGE('',*,*,#509,.F.);
#709=ORIENTED_EDGE('',*,*,#544,.F.);
#710=ORIENTED_EDGE('',*,*,#545,.T.);
#711=ORIENTED_EDGE('',*,*,#544,.T.);
#712=ORIENTED_EDGE('',*,*,#508,.F.);
#713=ORIENTED_EDGE('',*,*,#541,.F.);
#714=ORIENTED_EDGE('',*,*,#468,.F.);
#715=ORIENTED_EDGE('',*,*,#546,.T.);
#716=ORIENTED_EDGE('',*,*,#547,.T.);
#717=ORIENTED_EDGE('',*,*,#546,.F.);
#718=ORIENTED_EDGE('',*,*,#548,.T.);
#719=ORIENTED_EDGE('',*,*,#549,.T.);
#720=ORIENTED_EDGE('',*,*,#504,.F.);
#721=ORIENTED_EDGE('',*,*,#550,.F.);
#722=ORIENTED_EDGE('',*,*,#551,.T.);
#723=ORIENTED_EDGE('',*,*,#550,.T.);
#724=ORIENTED_EDGE('',*,*,#506,.F.);
#725=ORIENTED_EDGE('',*,*,#552,.F.);
#726=ORIENTED_EDGE('',*,*,#553,.T.);
#727=ORIENTED_EDGE('',*,*,#552,.T.);
#728=ORIENTED_EDGE('',*,*,#505,.F.);
#729=ORIENTED_EDGE('',*,*,#549,.F.);
#730=ORIENTED_EDGE('',*,*,#554,.T.);
#731=ORIENTED_EDGE('',*,*,#555,.T.);
#732=ORIENTED_EDGE('',*,*,#496,.F.);
#733=ORIENTED_EDGE('',*,*,#556,.F.);
#734=ORIENTED_EDGE('',*,*,#557,.T.);
#735=ORIENTED_EDGE('',*,*,#556,.T.);
#736=ORIENTED_EDGE('',*,*,#503,.F.);
#737=ORIENTED_EDGE('',*,*,#558,.F.);
#738=ORIENTED_EDGE('',*,*,#559,.T.);
#739=ORIENTED_EDGE('',*,*,#558,.T.);
#740=ORIENTED_EDGE('',*,*,#502,.F.);
#741=ORIENTED_EDGE('',*,*,#560,.F.);
#742=ORIENTED_EDGE('',*,*,#561,.T.);
#743=ORIENTED_EDGE('',*,*,#560,.T.);
#744=ORIENTED_EDGE('',*,*,#501,.F.);
#745=ORIENTED_EDGE('',*,*,#562,.F.);
#746=ORIENTED_EDGE('',*,*,#563,.T.);
#747=ORIENTED_EDGE('',*,*,#562,.T.);
#748=ORIENTED_EDGE('',*,*,#500,.F.);
#749=ORIENTED_EDGE('',*,*,#564,.F.);
#750=ORIENTED_EDGE('',*,*,#565,.T.);
#751=ORIENTED_EDGE('',*,*,#564,.T.);
#752=ORIENTED_EDGE('',*,*,#499,.F.);
#753=ORIENTED_EDGE('',*,*,#566,.F.);
#754=ORIENTED_EDGE('',*,*,#567,.T.);
#755=ORIENTED_EDGE('',*,*,#566,.T.);
#756=ORIENTED_EDGE('',*,*,#498,.F.);
#757=ORIENTED_EDGE('',*,*,#568,.F.);
#758=ORIENTED_EDGE('',*,*,#569,.T.);
#759=ORIENTED_EDGE('',*,*,#568,.T.);
#760=ORIENTED_EDGE('',*,*,#497,.F.);
#761=ORIENTED_EDGE('',*,*,#555,.F.);
#762=ORIENTED_EDGE('',*,*,#570,.T.);
#763=ORIENTED_EDGE('',*,*,#571,.T.);
#764=ORIENTED_EDGE('',*,*,#520,.F.);
#765=ORIENTED_EDGE('',*,*,#572,.F.);
#766=ORIENTED_EDGE('',*,*,#573,.T.);
#767=ORIENTED_EDGE('',*,*,#572,.T.);
#768=ORIENTED_EDGE('',*,*,#519,.F.);
#769=ORIENTED_EDGE('',*,*,#574,.F.);
#770=ORIENTED_EDGE('',*,*,#575,.T.);
#771=ORIENTED_EDGE('',*,*,#574,.T.);
#772=ORIENTED_EDGE('',*,*,#518,.F.);
#773=ORIENTED_EDGE('',*,*,#576,.F.);
#774=ORIENTED_EDGE('',*,*,#577,.T.);
#775=ORIENTED_EDGE('',*,*,#576,.T.);
#776=ORIENTED_EDGE('',*,*,#517,.F.);
#777=ORIENTED_EDGE('',*,*,#578,.F.);
#778=ORIENTED_EDGE('',*,*,#579,.T.);
#779=ORIENTED_EDGE('',*,*,#578,.T.);
#780=ORIENTED_EDGE('',*,*,#516,.F.);
#781=ORIENTED_EDGE('',*,*,#580,.F.);
#782=ORIENTED_EDGE('',*,*,#581,.T.);
#783=ORIENTED_EDGE('',*,*,#580,.T.);
#784=ORIENTED_EDGE('',*,*,#521,.F.);
#785=ORIENTED_EDGE('',*,*,#571,.F.);
#786=ORIENTED_EDGE('',*,*,#581,.F.);
#787=ORIENTED_EDGE('',*,*,#570,.F.);
#788=ORIENTED_EDGE('',*,*,#573,.F.);
#789=ORIENTED_EDGE('',*,*,#575,.F.);
#790=ORIENTED_EDGE('',*,*,#577,.F.);
#791=ORIENTED_EDGE('',*,*,#579,.F.);
#792=ORIENTED_EDGE('',*,*,#569,.F.);
#793=ORIENTED_EDGE('',*,*,#554,.F.);
#794=ORIENTED_EDGE('',*,*,#557,.F.);
#795=ORIENTED_EDGE('',*,*,#559,.F.);
#796=ORIENTED_EDGE('',*,*,#561,.F.);
#797=ORIENTED_EDGE('',*,*,#563,.F.);
#798=ORIENTED_EDGE('',*,*,#565,.F.);
#799=ORIENTED_EDGE('',*,*,#567,.F.);
#800=ORIENTED_EDGE('',*,*,#553,.F.);
#801=ORIENTED_EDGE('',*,*,#548,.F.);
#802=ORIENTED_EDGE('',*,*,#551,.F.);
#803=ORIENTED_EDGE('',*,*,#547,.F.);
#804=ORIENTED_EDGE('',*,*,#545,.F.);
#805=ORIENTED_EDGE('',*,*,#540,.F.);
#806=ORIENTED_EDGE('',*,*,#543,.F.);
#807=ORIENTED_EDGE('',*,*,#539,.F.);
#808=ORIENTED_EDGE('',*,*,#537,.F.);
#809=ORIENTED_EDGE('',*,*,#532,.F.);
#810=ORIENTED_EDGE('',*,*,#535,.F.);
#811=ORIENTED_EDGE('',*,*,#531,.F.);
#812=ORIENTED_EDGE('',*,*,#529,.F.);
#813=ORIENTED_EDGE('',*,*,#524,.F.);
#814=ORIENTED_EDGE('',*,*,#527,.F.);
#815=ORIENTED_EDGE('',*,*,#523,.F.);
#816=CYLINDRICAL_SURFACE('',#908,3.25);
#817=CYLINDRICAL_SURFACE('',#913,3.25);
#818=CYLINDRICAL_SURFACE('',#918,3.25);
#819=CYLINDRICAL_SURFACE('',#923,3.25);
#820=CYLINDRICAL_SURFACE('',#932,3.75);
#821=CYLINDRICAL_SURFACE('',#951,2.1);
#822=CYLINDRICAL_SURFACE('',#953,4.);
#823=CYLINDRICAL_SURFACE('',#957,2.1);
#824=CYLINDRICAL_SURFACE('',#959,4.);
#825=CYLINDRICAL_SURFACE('',#963,2.1);
#826=CYLINDRICAL_SURFACE('',#967,4.);
#827=CYLINDRICAL_SURFACE('',#969,2.1);
#828=CYLINDRICAL_SURFACE('',#973,4.);
#829=CYLINDRICAL_SURFACE('',#975,4.);
#830=CYLINDRICAL_SURFACE('',#978,4.);
#831=CYLINDRICAL_SURFACE('',#981,4.);
#832=CYLINDRICAL_SURFACE('',#984,4.);
#833=CYLINDRICAL_SURFACE('',#989,5.);
#834=CYLINDRICAL_SURFACE('',#992,5.);
#835=ADVANCED_FACE('',(#70),#816,.F.);
#836=ADVANCED_FACE('',(#71,#18),#39,.T.);
#837=ADVANCED_FACE('',(#72),#817,.F.);
#838=ADVANCED_FACE('',(#73,#19),#40,.T.);
#839=ADVANCED_FACE('',(#74),#818,.F.);
#840=ADVANCED_FACE('',(#75,#20),#41,.T.);
#841=ADVANCED_FACE('',(#76),#819,.F.);
#842=ADVANCED_FACE('',(#77,#21),#42,.T.);
#843=ADVANCED_FACE('',(#78),#43,.F.);
#844=ADVANCED_FACE('',(#79),#44,.F.);
#845=ADVANCED_FACE('',(#80),#45,.F.);
#846=ADVANCED_FACE('',(#81),#46,.F.);
#847=ADVANCED_FACE('',(#82),#820,.F.);
#848=ADVANCED_FACE('',(#83,#22,#23),#47,.F.);
#849=ADVANCED_FACE('',(#84),#48,.F.);
#850=ADVANCED_FACE('',(#85),#49,.F.);
#851=ADVANCED_FACE('',(#86),#50,.F.);
#852=ADVANCED_FACE('',(#87),#51,.F.);
#853=ADVANCED_FACE('',(#88,#24,#25,#26,#27,#28,#29),#52,.T.);
#854=ADVANCED_FACE('',(#89),#821,.F.);
#855=ADVANCED_FACE('',(#90),#822,.T.);
#856=ADVANCED_FACE('',(#91),#53,.T.);
#857=ADVANCED_FACE('',(#92),#54,.T.);
#858=ADVANCED_FACE('',(#93),#823,.F.);
#859=ADVANCED_FACE('',(#94),#824,.T.);
#860=ADVANCED_FACE('',(#95),#55,.T.);
#861=ADVANCED_FACE('',(#96),#56,.T.);
#862=ADVANCED_FACE('',(#97),#825,.F.);
#863=ADVANCED_FACE('',(#98),#57,.T.);
#864=ADVANCED_FACE('',(#99),#58,.T.);
#865=ADVANCED_FACE('',(#100),#826,.T.);
#866=ADVANCED_FACE('',(#101),#827,.F.);
#867=ADVANCED_FACE('',(#102),#59,.T.);
#868=ADVANCED_FACE('',(#103),#60,.T.);
#869=ADVANCED_FACE('',(#104),#828,.T.);
#870=ADVANCED_FACE('',(#105),#829,.T.);
#871=ADVANCED_FACE('',(#106),#61,.T.);
#872=ADVANCED_FACE('',(#107),#830,.T.);
#873=ADVANCED_FACE('',(#108),#62,.T.);
#874=ADVANCED_FACE('',(#109),#831,.T.);
#875=ADVANCED_FACE('',(#110),#63,.T.);
#876=ADVANCED_FACE('',(#111),#832,.T.);
#877=ADVANCED_FACE('',(#112),#64,.T.);
#878=ADVANCED_FACE('',(#113),#65,.T.);
#879=ADVANCED_FACE('',(#114),#66,.T.);
#880=ADVANCED_FACE('',(#115),#833,.T.);
#881=ADVANCED_FACE('',(#116),#67,.T.);
#882=ADVANCED_FACE('',(#117),#834,.T.);
#883=ADVANCED_FACE('',(#118),#68,.T.);
#884=ADVANCED_FACE('',(#119,#30,#31,#32,#33,#34,#35,#36,#37,#38),#69,.F.);
#885=CLOSED_SHELL('',(#835,#836,#837,#838,#839,#840,#841,#842,#843,#844,
#845,#846,#847,#848,#849,#850,#851,#852,#853,#854,#855,#856,#857,#858,#859,
#860,#861,#862,#863,#864,#865,#866,#867,#868,#869,#870,#871,#872,#873,#874,
#875,#876,#877,#878,#879,#880,#881,#882,#883,#884));
#886=DERIVED_UNIT_ELEMENT(#889,1.);
#887=DERIVED_UNIT_ELEMENT(#1505,-3.);
#888=DIMENSIONAL_EXPONENTS(0.,1.,0.,0.,0.,0.,0.);
#889=(
CONVERSION_BASED_UNIT('gram',#891)
MASS_UNIT()
NAMED_UNIT(#888)
);
#890=(
MASS_UNIT()
NAMED_UNIT(*)
SI_UNIT(.KILO.,.GRAM.)
);
#891=MASS_MEASURE_WITH_UNIT(MASS_MEASURE(0.001),#890);
#892=DERIVED_UNIT((#886,#887));
#893=MEASURE_REPRESENTATION_ITEM('density measure',
POSITIVE_RATIO_MEASURE(1.),#892);
#894=PROPERTY_DEFINITION_REPRESENTATION(#899,#896);
#895=PROPERTY_DEFINITION_REPRESENTATION(#900,#897);
#896=REPRESENTATION('material name',(#898),#1502);
#897=REPRESENTATION('density',(#893),#1502);
#898=DESCRIPTIVE_REPRESENTATION_ITEM('Generic','Generic');
#899=PROPERTY_DEFINITION('material property','material name',#1512);
#900=PROPERTY_DEFINITION('material property','density of part',#1512);
#901=DATE_TIME_ROLE('creation_date');
#902=APPLIED_DATE_AND_TIME_ASSIGNMENT(#903,#901,(#1512));
#903=DATE_AND_TIME(#904,#905);
#904=CALENDAR_DATE(2026,10,4);
#905=LOCAL_TIME(0,0,0.,#906);
#906=COORDINATED_UNIVERSAL_TIME_OFFSET(0,0,.BEHIND.);
#907=AXIS2_PLACEMENT_3D('',#1253,#996,#997);
#908=AXIS2_PLACEMENT_3D('',#1254,#998,#999);
#909=AXIS2_PLACEMENT_3D('',#1256,#1000,#1001);
#910=AXIS2_PLACEMENT_3D('',#1259,#1003,#1004);
#911=AXIS2_PLACEMENT_3D('',#1260,#1005,#1006);
#912=AXIS2_PLACEMENT_3D('',#1262,#1007,#1008);
#913=AXIS2_PLACEMENT_3D('',#1263,#1009,#1010);
#914=AXIS2_PLACEMENT_3D('',#1265,#1011,#1012);
#915=AXIS2_PLACEMENT_3D('',#1268,#1014,#1015);
#916=AXIS2_PLACEMENT_3D('',#1269,#1016,#1017);
#917=AXIS2_PLACEMENT_3D('',#1271,#1018,#1019);
#918=AXIS2_PLACEMENT_3D('',#1272,#1020,#1021);
#919=AXIS2_PLACEMENT_3D('',#1274,#1022,#1023);
#920=AXIS2_PLACEMENT_3D('',#1277,#1025,#1026);
#921=AXIS2_PLACEMENT_3D('',#1278,#1027,#1028);
#922=AXIS2_PLACEMENT_3D('',#1280,#1029,#1030);
#923=AXIS2_PLACEMENT_3D('',#1281,#1031,#1032);
#924=AXIS2_PLACEMENT_3D('',#1283,#1033,#1034);
#925=AXIS2_PLACEMENT_3D('',#1286,#1036,#1037);
#926=AXIS2_PLACEMENT_3D('',#1287,#1038,#1039);
#927=AXIS2_PLACEMENT_3D('',#1289,#1040,#1041);
#928=AXIS2_PLACEMENT_3D('',#1290,#1042,#1043);
#929=AXIS2_PLACEMENT_3D('',#1299,#1048,#1049);
#930=AXIS2_PLACEMENT_3D('',#1305,#1053,#1054);
#931=AXIS2_PLACEMENT_3D('',#1311,#1058,#1059);
#932=AXIS2_PLACEMENT_3D('',#1314,#1062,#1063);
#933=AXIS2_PLACEMENT_3D('',#1316,#1064,#1065);
#934=AXIS2_PLACEMENT_3D('',#1319,#1067,#1068);
#935=AXIS2_PLACEMENT_3D('',#1320,#1069,#1070);
#936=AXIS2_PLACEMENT_3D('',#1323,#1071,#1072);
#937=AXIS2_PLACEMENT_3D('',#1327,#1074,#1075);
#938=AXIS2_PLACEMENT_3D('',#1331,#1077,#1078);
#939=AXIS2_PLACEMENT_3D('',#1335,#1080,#1081);
#940=AXIS2_PLACEMENT_3D('',#1337,#1083,#1084);
#941=AXIS2_PLACEMENT_3D('',#1342,#1086,#1087);
#942=AXIS2_PLACEMENT_3D('',#1344,#1089,#1090);
#943=AXIS2_PLACEMENT_3D('',#1349,#1092,#1093);
#944=AXIS2_PLACEMENT_3D('',#1351,#1095,#1096);
#945=AXIS2_PLACEMENT_3D('',#1354,#1097,#1098);
#946=AXIS2_PLACEMENT_3D('',#1358,#1101,#1102);
#947=AXIS2_PLACEMENT_3D('',#1361,#1103,#1104);
#948=AXIS2_PLACEMENT_3D('',#1365,#1107,#1108);
#949=AXIS2_PLACEMENT_3D('',#1368,#1109,#1110);
#950=AXIS2_PLACEMENT_3D('',#1372,#1112,#1113);
#951=AXIS2_PLACEMENT_3D('',#1378,#1117,#1118);
#952=AXIS2_PLACEMENT_3D('',#1381,#1120,#1121);
#953=AXIS2_PLACEMENT_3D('',#1382,#1122,#1123);
#954=AXIS2_PLACEMENT_3D('',#1385,#1124,#1125);
#955=AXIS2_PLACEMENT_3D('',#1388,#1128,#1129);
#956=AXIS2_PLACEMENT_3D('',#1392,#1132,#1133);
#957=AXIS2_PLACEMENT_3D('',#1394,#1135,#1136);
#958=AXIS2_PLACEMENT_3D('',#1397,#1138,#1139);
#959=AXIS2_PLACEMENT_3D('',#1398,#1140,#1141);
#960=AXIS2_PLACEMENT_3D('',#1401,#1142,#1143);
#961=AXIS2_PLACEMENT_3D('',#1404,#1146,#1147);
#962=AXIS2_PLACEMENT_3D('',#1408,#1150,#1151);
#963=AXIS2_PLACEMENT_3D('',#1410,#1153,#1154);
#964=AXIS2_PLACEMENT_3D('',#1413,#1156,#1157);
#965=AXIS2_PLACEMENT_3D('',#1414,#1158,#1159);
#966=AXIS2_PLACEMENT_3D('',#1420,#1163,#1164);
#967=AXIS2_PLACEMENT_3D('',#1424,#1167,#1168);
#968=AXIS2_PLACEMENT_3D('',#1425,#1169,#1170);
#969=AXIS2_PLACEMENT_3D('',#1426,#1171,#1172);
#970=AXIS2_PLACEMENT_3D('',#1429,#1174,#1175);
#971=AXIS2_PLACEMENT_3D('',#1430,#1176,#1177);
#972=AXIS2_PLACEMENT_3D('',#1436,#1181,#1182);
#973=AXIS2_PLACEMENT_3D('',#1440,#1185,#1186);
#974=AXIS2_PLACEMENT_3D('',#1441,#1187,#1188);
#975=AXIS2_PLACEMENT_3D('',#1442,#1189,#1190);
#976=AXIS2_PLACEMENT_3D('',#1445,#1191,#1192);
#977=AXIS2_PLACEMENT_3D('',#1448,#1195,#1196);
#978=AXIS2_PLACEMENT_3D('',#1452,#1199,#1200);
#979=AXIS2_PLACEMENT_3D('',#1454,#1201,#1202);
#980=AXIS2_PLACEMENT_3D('',#1456,#1204,#1205);
#981=AXIS2_PLACEMENT_3D('',#1460,#1208,#1209);
#982=AXIS2_PLACEMENT_3D('',#1462,#1210,#1211);
#983=AXIS2_PLACEMENT_3D('',#1464,#1213,#1214);
#984=AXIS2_PLACEMENT_3D('',#1468,#1217,#1218);
#985=AXIS2_PLACEMENT_3D('',#1470,#1219,#1220);
#986=AXIS2_PLACEMENT_3D('',#1472,#1222,#1223);
#987=AXIS2_PLACEMENT_3D('',#1474,#1225,#1226);
#988=AXIS2_PLACEMENT_3D('',#1480,#1230,#1231);
#989=AXIS2_PLACEMENT_3D('',#1484,#1234,#1235);
#990=AXIS2_PLACEMENT_3D('',#1486,#1236,#1237);
#991=AXIS2_PLACEMENT_3D('',#1488,#1239,#1240);
#992=AXIS2_PLACEMENT_3D('',#1492,#1243,#1244);
#993=AXIS2_PLACEMENT_3D('',#1494,#1245,#1246);
#994=AXIS2_PLACEMENT_3D('',#1496,#1248,#1249);
#995=AXIS2_PLACEMENT_3D('',#1498,#1251,#1252);
#996=DIRECTION('axis',(0.,0.,1.));
#997=DIRECTION('refdir',(1.,0.,0.));
#998=DIRECTION('center_axis',(0.,0.,-1.));
#999=DIRECTION('ref_axis',(1.,0.,0.));
#1000=DIRECTION('center_axis',(0.,0.,-1.));
#1001=DIRECTION('ref_axis',(1.,0.,0.));
#1002=DIRECTION('',(0.,0.,-1.));
#1003=DIRECTION('center_axis',(0.,0.,-1.));
#1004=DIRECTION('ref_axis',(1.,0.,0.));
#1005=DIRECTION('center_axis',(0.,0.,1.));
#1006=DIRECTION('ref_axis',(1.,0.,0.));
#1007=DIRECTION('center_axis',(0.,0.,-1.));
#1008=DIRECTION('ref_axis',(-1.,0.,0.));
#1009=DIRECTION('center_axis',(0.,0.,-1.));
#1010=DIRECTION('ref_axis',(1.,0.,0.));
#1011=DIRECTION('center_axis',(0.,0.,-1.));
#1012=DIRECTION('ref_axis',(1.,0.,0.));
#1013=DIRECTION('',(0.,0.,-1.));
#1014=DIRECTION('center_axis',(0.,0.,-1.));
#1015=DIRECTION('ref_axis',(1.,0.,0.));
#1016=DIRECTION('center_axis',(0.,0.,1.));
#1017=DIRECTION('ref_axis',(1.,0.,0.));
#1018=DIRECTION('center_axis',(0.,0.,-1.));
#1019=DIRECTION('ref_axis',(-1.,0.,0.));
#1020=DIRECTION('center_axis',(0.,0.,-1.));
#1021=DIRECTION('ref_axis',(1.,0.,0.));
#1022=DIRECTION('center_axis',(0.,0.,-1.));
#1023=DIRECTION('ref_axis',(1.,0.,0.));
#1024=DIRECTION('',(0.,0.,-1.));
#1025=DIRECTION('center_axis',(0.,0.,-1.));
#1026=DIRECTION('ref_axis',(1.,0.,0.));
#1027=DIRECTION('center_axis',(0.,0.,1.));
#1028=DIRECTION('ref_axis',(1.,0.,0.));
#1029=DIRECTION('center_axis',(0.,0.,-1.));
#1030=DIRECTION('ref_axis',(-1.,0.,0.));
#1031=DIRECTION('center_axis',(0.,0.,-1.));
#1032=DIRECTION('ref_axis',(1.,0.,0.));
#1033=DIRECTION('center_axis',(0.,0.,-1.));
#1034=DIRECTION('ref_axis',(1.,0.,0.));
#1035=DIRECTION('',(0.,0.,-1.));
#1036=DIRECTION('center_axis',(0.,0.,-1.));
#1037=DIRECTION('ref_axis',(1.,0.,0.));
#1038=DIRECTION('center_axis',(0.,0.,1.));
#1039=DIRECTION('ref_axis',(1.,0.,0.));
#1040=DIRECTION('center_axis',(0.,0.,-1.));
#1041=DIRECTION('ref_axis',(-1.,0.,0.));
#1042=DIRECTION('center_axis',(-1.,-3.22973970800046E-16,0.));
#1043=DIRECTION('ref_axis',(-3.22973970800046E-16,1.,0.));
#1044=DIRECTION('',(-3.22973970800046E-16,1.,0.));
#1045=DIRECTION('',(0.,0.,-1.));
#1046=DIRECTION('',(3.22973970800046E-16,-1.,0.));
#1047=DIRECTION('',(0.,0.,-1.));
#1048=DIRECTION('center_axis',(2.089831575765E-16,-1.,0.));
#1049=DIRECTION('ref_axis',(-1.,-2.089831575765E-16,0.));
#1050=DIRECTION('',(-1.,-2.089831575765E-16,0.));
#1051=DIRECTION('',(0.,0.,-1.));
#1052=DIRECTION('',(1.,2.089831575765E-16,0.));
#1053=DIRECTION('center_axis',(1.,4.03717463500057E-16,0.));
#1054=DIRECTION('ref_axis',(4.03717463500057E-16,-1.,0.));
#1055=DIRECTION('',(4.03717463500057E-16,-1.,0.));
#1056=DIRECTION('',(0.,0.,-1.));
#1057=DIRECTION('',(-4.03717463500057E-16,1.,0.));
#1058=DIRECTION('center_axis',(-1.0449157878825E-16,1.,0.));
#1059=DIRECTION('ref_axis',(1.,1.0449157878825E-16,0.));
#1060=DIRECTION('',(1.,1.0449157878825E-16,0.));
#1061=DIRECTION('',(-1.,-1.0449157878825E-16,0.));
#1062=DIRECTION('center_axis',(0.,0.,-1.));
#1063=DIRECTION('ref_axis',(1.,0.,0.));
#1064=DIRECTION('center_axis',(0.,0.,-1.));
#1065=DIRECTION('ref_axis',(1.,0.,0.));
#1066=DIRECTION('',(0.,0.,-1.));
#1067=DIRECTION('center_axis',(0.,0.,1.));
#1068=DIRECTION('ref_axis',(1.,0.,0.));
#1069=DIRECTION('center_axis',(0.,0.,1.));
#1070=DIRECTION('ref_axis',(1.,0.,0.));
#1071=DIRECTION('center_axis',(0.,0.,1.));
#1072=DIRECTION('ref_axis',(-0.750000000000002,-0.661437827766145,0.));
#1073=DIRECTION('',(1.,1.330181038842E-15,0.));
#1074=DIRECTION('center_axis',(0.,0.,1.));
#1075=DIRECTION('ref_axis',(-0.661437827766147,0.750000000000001,0.));
#1076=DIRECTION('',(1.16101754209255E-16,-1.,0.));
#1077=DIRECTION('center_axis',(0.,0.,1.));
#1078=DIRECTION('ref_axis',(0.750000000000001,0.661437827766147,0.));
#1079=DIRECTION('',(-1.,-2.4671622769408E-16,0.));
#1080=DIRECTION('center_axis',(0.,0.,1.));
#1081=DIRECTION('ref_axis',(0.661437827766149,-0.749999999999999,0.));
#1082=DIRECTION('',(-5.80508771046275E-17,1.,0.));
#1083=DIRECTION('center_axis',(0.,0.,1.));
#1084=DIRECTION('ref_axis',(1.,0.,0.));
#1085=DIRECTION('',(1.,0.,0.));
#1086=DIRECTION('center_axis',(0.,0.,1.));
#1087=DIRECTION('ref_axis',(-0.661437827766155,0.749999999999993,0.));
#1088=DIRECTION('',(1.25360861937041E-14,1.,0.));
#1089=DIRECTION('center_axis',(0.,0.,1.));
#1090=DIRECTION('ref_axis',(1.,0.,0.));
#1091=DIRECTION('',(2.50721723874062E-14,1.,0.));
#1092=DIRECTION('center_axis',(0.,0.,1.));
#1093=DIRECTION('ref_axis',(-0.750000000000001,-0.661437827766146,0.));
#1094=DIRECTION('',(-1.,0.,0.));
#1095=DIRECTION('center_axis',(0.,0.,1.));
#1096=DIRECTION('ref_axis',(1.,0.,0.));
#1097=DIRECTION('center_axis',(0.,0.,1.));
#1098=DIRECTION('ref_axis',(0.661437827766152,-0.749999999999996,0.));
#1099=DIRECTION('',(0.,-1.,0.));
#1100=DIRECTION('',(-1.,0.,0.));
#1101=DIRECTION('center_axis',(0.,0.,1.));
#1102=DIRECTION('ref_axis',(1.,0.,0.));
#1103=DIRECTION('center_axis',(0.,0.,1.));
#1104=DIRECTION('ref_axis',(0.750000000000001,0.661437827766147,0.));
#1105=DIRECTION('',(1.,0.,0.));
#1106=DIRECTION('',(3.76082585811084E-14,-1.,0.));
#1107=DIRECTION('center_axis',(0.,0.,1.));
#1108=DIRECTION('ref_axis',(1.,0.,0.));
#1109=DIRECTION('center_axis',(0.,0.,1.));
#1110=DIRECTION('ref_axis',(-1.,0.,0.));
#1111=DIRECTION('',(1.,4.93432455388958E-16,0.));
#1112=DIRECTION('center_axis',(0.,0.,1.));
#1113=DIRECTION('ref_axis',(1.77635683940026E-15,-1.,0.));
#1114=DIRECTION('',(-1.29566509073671E-16,1.,0.));
#1115=DIRECTION('',(-1.,1.08314441426845E-16,0.));
#1116=DIRECTION('',(2.59133018147341E-16,-1.,0.));
#1117=DIRECTION('center_axis',(0.,0.,1.));
#1118=DIRECTION('ref_axis',(-1.,0.,0.));
#1119=DIRECTION('',(0.,0.,-1.));
#1120=DIRECTION('center_axis',(0.,0.,-1.));
#1121=DIRECTION('ref_axis',(-1.,0.,0.));
#1122=DIRECTION('center_axis',(0.,0.,1.));
#1123=DIRECTION('ref_axis',(0.750000000000001,0.661437827766147,0.));
#1124=DIRECTION('center_axis',(0.,0.,1.));
#1125=DIRECTION('ref_axis',(0.750000000000001,0.661437827766147,0.));
#1126=DIRECTION('',(0.,0.,1.));
#1127=DIRECTION('',(0.,0.,1.));
#1128=DIRECTION('center_axis',(-1.,-3.76082585811084E-14,0.));
#1129=DIRECTION('ref_axis',(3.76082585811084E-14,-1.,0.));
#1130=DIRECTION('',(3.76082585811084E-14,-1.,0.));
#1131=DIRECTION('',(0.,0.,1.));
#1132=DIRECTION('center_axis',(0.,-1.,0.));
#1133=DIRECTION('ref_axis',(1.,0.,0.));
#1134=DIRECTION('',(1.,0.,0.));
#1135=DIRECTION('center_axis',(0.,0.,1.));
#1136=DIRECTION('ref_axis',(-1.,0.,0.));
#1137=DIRECTION('',(0.,0.,-1.));
#1138=DIRECTION('center_axis',(0.,0.,-1.));
#1139=DIRECTION('ref_axis',(-1.,0.,0.));
#1140=DIRECTION('center_axis',(0.,0.,1.));
#1141=DIRECTION('ref_axis',(0.661437827766152,-0.749999999999996,0.));
#1142=DIRECTION('center_axis',(0.,0.,1.));
#1143=DIRECTION('ref_axis',(0.661437827766152,-0.749999999999996,0.));
#1144=DIRECTION('',(0.,0.,1.));
#1145=DIRECTION('',(0.,0.,1.));
#1146=DIRECTION('center_axis',(0.,1.,0.));
#1147=DIRECTION('ref_axis',(-1.,0.,0.));
#1148=DIRECTION('',(-1.,0.,0.));
#1149=DIRECTION('',(0.,0.,1.));
#1150=DIRECTION('center_axis',(-1.,0.,0.));
#1151=DIRECTION('ref_axis',(0.,-1.,0.));
#1152=DIRECTION('',(0.,-1.,0.));
#1153=DIRECTION('center_axis',(0.,0.,1.));
#1154=DIRECTION('ref_axis',(-1.,0.,0.));
#1155=DIRECTION('',(0.,0.,-1.));
#1156=DIRECTION('center_axis',(0.,0.,-1.));
#1157=DIRECTION('ref_axis',(-1.,0.,0.));
#1158=DIRECTION('center_axis',(1.,-2.50721723874062E-14,0.));
#1159=DIRECTION('ref_axis',(2.50721723874062E-14,1.,0.));
#1160=DIRECTION('',(2.50721723874062E-14,1.,0.));
#1161=DIRECTION('',(0.,0.,1.));
#1162=DIRECTION('',(0.,0.,1.));
#1163=DIRECTION('center_axis',(0.,1.,0.));
#1164=DIRECTION('ref_axis',(-1.,0.,0.));
#1165=DIRECTION('',(-1.,0.,0.));
#1166=DIRECTION('',(0.,0.,1.));
#1167=DIRECTION('center_axis',(0.,0.,1.));
#1168=DIRECTION('ref_axis',(-0.750000000000001,-0.661437827766146,0.));
#1169=DIRECTION('center_axis',(0.,0.,1.));
#1170=DIRECTION('ref_axis',(-0.750000000000001,-0.661437827766146,0.));
#1171=DIRECTION('center_axis',(0.,0.,1.));
#1172=DIRECTION('ref_axis',(-1.,0.,0.));
#1173=DIRECTION('',(0.,0.,-1.));
#1174=DIRECTION('center_axis',(0.,0.,-1.));
#1175=DIRECTION('ref_axis',(-1.,0.,0.));
#1176=DIRECTION('center_axis',(0.,-1.,0.));
#1177=DIRECTION('ref_axis',(1.,0.,0.));
#1178=DIRECTION('',(1.,0.,0.));
#1179=DIRECTION('',(0.,0.,1.));
#1180=DIRECTION('',(0.,0.,1.));
#1181=DIRECTION('center_axis',(1.,-1.25360861937041E-14,0.));
#1182=DIRECTION('ref_axis',(1.25360861937041E-14,1.,0.));
#1183=DIRECTION('',(1.25360861937041E-14,1.,0.));
#1184=DIRECTION('',(0.,0.,1.));
#1185=DIRECTION('center_axis',(0.,0.,1.));
#1186=DIRECTION('ref_axis',(-0.661437827766155,0.749999999999993,0.));
#1187=DIRECTION('center_axis',(0.,0.,1.));
#1188=DIRECTION('ref_axis',(-0.661437827766155,0.749999999999993,0.));
#1189=DIRECTION('center_axis',(0.,0.,1.));
#1190=DIRECTION('ref_axis',(0.765529202576886,-0.643401150140406,0.));
#1191=DIRECTION('center_axis',(0.,0.,1.));
#1192=DIRECTION('ref_axis',(-0.750000000000002,-0.661437827766145,0.));
#1193=DIRECTION('',(0.,0.,1.));
#1194=DIRECTION('',(0.,0.,1.));
#1195=DIRECTION('center_axis',(1.,5.80508771046275E-17,0.));
#1196=DIRECTION('ref_axis',(-5.80508771046275E-17,1.,0.));
#1197=DIRECTION('',(-5.80508771046275E-17,1.,0.));
#1198=DIRECTION('',(0.,0.,1.));
#1199=DIRECTION('center_axis',(0.,0.,1.));
#1200=DIRECTION('ref_axis',(0.661437827766149,-0.749999999999999,0.));
#1201=DIRECTION('center_axis',(0.,0.,1.));
#1202=DIRECTION('ref_axis',(0.661437827766149,-0.749999999999999,0.));
#1203=DIRECTION('',(0.,0.,1.));
#1204=DIRECTION('center_axis',(-2.4671622769408E-16,1.,0.));
#1205=DIRECTION('ref_axis',(-1.,-2.4671622769408E-16,0.));
#1206=DIRECTION('',(-1.,-2.4671622769408E-16,0.));
#1207=DIRECTION('',(0.,0.,1.));
#1208=DIRECTION('center_axis',(0.,0.,1.));
#1209=DIRECTION('ref_axis',(0.750000000000001,0.661437827766147,0.));
#1210=DIRECTION('center_axis',(0.,0.,1.));
#1211=DIRECTION('ref_axis',(0.750000000000001,0.661437827766147,0.));
#1212=DIRECTION('',(0.,0.,1.));
#1213=DIRECTION('center_axis',(-1.,-1.16101754209255E-16,0.));
#1214=DIRECTION('ref_axis',(1.16101754209255E-16,-1.,0.));
#1215=DIRECTION('',(1.16101754209255E-16,-1.,0.));
#1216=DIRECTION('',(0.,0.,1.));
#1217=DIRECTION('center_axis',(0.,0.,1.));
#1218=DIRECTION('ref_axis',(-0.661437827766147,0.750000000000001,0.));
#1219=DIRECTION('center_axis',(0.,0.,1.));
#1220=DIRECTION('ref_axis',(-0.661437827766147,0.750000000000001,0.));
#1221=DIRECTION('',(0.,0.,1.));
#1222=DIRECTION('center_axis',(1.330181038842E-15,-1.,0.));
#1223=DIRECTION('ref_axis',(1.,1.330181038842E-15,0.));
#1224=DIRECTION('',(1.,1.330181038842E-15,0.));
#1225=DIRECTION('center_axis',(4.22942104619108E-16,1.,0.));
#1226=DIRECTION('ref_axis',(-1.,4.22942104619108E-16,0.));
#1227=DIRECTION('',(-1.,4.22942104619108E-16,0.));
#1228=DIRECTION('',(0.,0.,1.));
#1229=DIRECTION('',(0.,0.,1.));
#1230=DIRECTION('center_axis',(1.,1.16101754209167E-16,0.));
#1231=DIRECTION('ref_axis',(-1.16101754209167E-16,1.,0.));
#1232=DIRECTION('',(-1.16101754209167E-16,1.,0.));
#1233=DIRECTION('',(0.,0.,1.));
#1234=DIRECTION('center_axis',(0.,0.,1.));
#1235=DIRECTION('ref_axis',(1.77635683940025E-15,-1.,0.));
#1236=DIRECTION('center_axis',(0.,0.,1.));
#1237=DIRECTION('ref_axis',(1.77635683940025E-15,-1.,0.));
#1238=DIRECTION('',(0.,0.,1.));
#1239=DIRECTION('center_axis',(2.46716227694479E-16,-1.,0.));
#1240=DIRECTION('ref_axis',(1.,2.46716227694479E-16,0.));
#1241=DIRECTION('',(1.,2.46716227694479E-16,0.));
#1242=DIRECTION('',(0.,0.,1.));
#1243=DIRECTION('center_axis',(0.,0.,1.));
#1244=DIRECTION('ref_axis',(-1.,0.,0.));
#1245=DIRECTION('center_axis',(0.,0.,1.));
#1246=DIRECTION('ref_axis',(-1.,0.,0.));
#1247=DIRECTION('',(0.,0.,1.));
#1248=DIRECTION('center_axis',(-1.,-5.80508771045833E-17,0.));
#1249=DIRECTION('ref_axis',(5.80508771045833E-17,-1.,0.));
#1250=DIRECTION('',(5.80508771045833E-17,-1.,0.));
#1251=DIRECTION('center_axis',(0.,0.,1.));
#1252=DIRECTION('ref_axis',(1.,0.,0.));
#1253=CARTESIAN_POINT('',(0.,0.,0.));
#1254=CARTESIAN_POINT('Origin',(-36.,66.0500000000088,18.));
#1255=CARTESIAN_POINT('',(-39.25,66.0500000000088,18.));
#1256=CARTESIAN_POINT('Origin',(-36.,66.0500000000088,18.));
#1257=CARTESIAN_POINT('',(-39.25,66.0500000000088,15.));
#1258=CARTESIAN_POINT('',(-39.25,66.0500000000088,18.));
#1259=CARTESIAN_POINT('Origin',(-36.,66.0500000000088,15.));
#1260=CARTESIAN_POINT('Origin',(-36.,66.0500000000088,15.));
#1261=CARTESIAN_POINT('',(-33.9,66.0500000000088,15.));
#1262=CARTESIAN_POINT('Origin',(-36.,66.0500000000088,15.));
#1263=CARTESIAN_POINT('Origin',(-36.,-66.0500000000087,18.));
#1264=CARTESIAN_POINT('',(-39.25,-66.0500000000087,18.));
#1265=CARTESIAN_POINT('Origin',(-36.,-66.0500000000087,18.));
#1266=CARTESIAN_POINT('',(-39.25,-66.0500000000087,15.));
#1267=CARTESIAN_POINT('',(-39.25,-66.0500000000087,18.));
#1268=CARTESIAN_POINT('Origin',(-36.,-66.0500000000087,15.));
#1269=CARTESIAN_POINT('Origin',(-36.,-66.0500000000087,15.));
#1270=CARTESIAN_POINT('',(-33.9,-66.0500000000087,15.));
#1271=CARTESIAN_POINT('Origin',(-36.,-66.0500000000087,15.));
#1272=CARTESIAN_POINT('Origin',(36.,66.0500000000087,18.));
#1273=CARTESIAN_POINT('',(32.75,66.0500000000087,18.));
#1274=CARTESIAN_POINT('Origin',(36.,66.0500000000087,18.));
#1275=CARTESIAN_POINT('',(32.75,66.0500000000087,15.));
#1276=CARTESIAN_POINT('',(32.75,66.0500000000087,18.));
#1277=CARTESIAN_POINT('Origin',(36.,66.0500000000087,15.));
#1278=CARTESIAN_POINT('Origin',(36.,66.0500000000087,15.));
#1279=CARTESIAN_POINT('',(38.1,66.0500000000087,15.));
#1280=CARTESIAN_POINT('Origin',(36.,66.0500000000087,15.));
#1281=CARTESIAN_POINT('Origin',(36.,-66.0500000000087,18.));
#1282=CARTESIAN_POINT('',(32.75,-66.0500000000087,18.));
#1283=CARTESIAN_POINT('Origin',(36.,-66.0500000000087,18.));
#1284=CARTESIAN_POINT('',(32.75,-66.0500000000087,15.));
#1285=CARTESIAN_POINT('',(32.75,-66.0500000000087,18.));
#1286=CARTESIAN_POINT('Origin',(36.,-66.0500000000087,15.));
#1287=CARTESIAN_POINT('Origin',(36.,-66.0500000000087,15.));
#1288=CARTESIAN_POINT('',(38.1,-66.0500000000087,15.));
#1289=CARTESIAN_POINT('Origin',(36.,-66.0500000000087,15.));
#1290=CARTESIAN_POINT('Origin',(-21.,-56.0500000000087,18.));
#1291=CARTESIAN_POINT('',(-21.,-56.0500000000087,18.));
#1292=CARTESIAN_POINT('',(-21.,-1.05000000000873,18.));
#1293=CARTESIAN_POINT('',(-21.,-28.0250000000044,18.));
#1294=CARTESIAN_POINT('',(-21.,-56.0500000000087,15.));
#1295=CARTESIAN_POINT('',(-21.,-56.0500000000087,18.));
#1296=CARTESIAN_POINT('',(-21.,-1.05000000000873,15.));
#1297=CARTESIAN_POINT('',(-21.,-28.0250000000044,15.));
#1298=CARTESIAN_POINT('',(-21.,-1.05000000000873,18.));
#1299=CARTESIAN_POINT('Origin',(21.5,-56.0500000000087,18.));
#1300=CARTESIAN_POINT('',(21.5,-56.0500000000087,18.));
#1301=CARTESIAN_POINT('',(10.75,-56.0500000000087,18.));
#1302=CARTESIAN_POINT('',(21.5,-56.0500000000087,15.));
#1303=CARTESIAN_POINT('',(21.5,-56.0500000000087,18.));
#1304=CARTESIAN_POINT('',(10.75,-56.0500000000087,15.));
#1305=CARTESIAN_POINT('Origin',(21.5,-1.05000000000872,18.));
#1306=CARTESIAN_POINT('',(21.5,-1.05000000000872,18.));
#1307=CARTESIAN_POINT('',(21.5,-0.525000000004354,18.));
#1308=CARTESIAN_POINT('',(21.5,-1.05000000000872,15.));
#1309=CARTESIAN_POINT('',(21.5,-1.05000000000872,18.));
#1310=CARTESIAN_POINT('',(21.5,-0.525000000004354,15.));
#1311=CARTESIAN_POINT('Origin',(-21.,-1.05000000000873,18.));
#1312=CARTESIAN_POINT('',(-10.5,-1.05000000000873,18.));
#1313=CARTESIAN_POINT('',(-10.5,-1.05000000000873,15.));
#1314=CARTESIAN_POINT('Origin',(0.250000000000004,36.0500000000087,18.));
#1315=CARTESIAN_POINT('',(-3.5,36.0500000000087,18.));
#1316=CARTESIAN_POINT('Origin',(0.250000000000004,36.0500000000087,18.));
#1317=CARTESIAN_POINT('',(-3.5,36.0500000000087,15.));
#1318=CARTESIAN_POINT('',(-3.5,36.0500000000087,18.));
#1319=CARTESIAN_POINT('Origin',(0.250000000000004,36.0500000000087,15.));
#1320=CARTESIAN_POINT('Origin',(0.,0.,15.));
#1321=CARTESIAN_POINT('',(-38.5,62.9275010008095,15.));
#1322=CARTESIAN_POINT('',(-33.3542486889354,69.0500000000087,15.));
#1323=CARTESIAN_POINT('Origin',(-36.,66.0500000000088,15.));
#1324=CARTESIAN_POINT('',(33.3542486889354,69.0500000000087,15.));
#1325=CARTESIAN_POINT('',(-33.3542486889354,69.0500000000087,15.));
#1326=CARTESIAN_POINT('',(38.5,62.9275010008096,15.));
#1327=CARTESIAN_POINT('Origin',(36.,66.0500000000087,15.));
#1328=CARTESIAN_POINT('',(38.5,-62.9275010008095,15.));
#1329=CARTESIAN_POINT('',(38.5,86.9499999999243,15.));
#1330=CARTESIAN_POINT('',(32.8775010008008,-68.5500000000087,15.));
#1331=CARTESIAN_POINT('Origin',(36.,-66.0500000000087,15.));
#1332=CARTESIAN_POINT('',(-32.8775010008008,-68.5500000000087,15.));
#1333=CARTESIAN_POINT('',(36.0000000000582,-68.5500000000087,15.));
#1334=CARTESIAN_POINT('',(-38.5,-62.9275010008095,15.));
#1335=CARTESIAN_POINT('Origin',(-36.,-66.0500000000087,15.));
#1336=CARTESIAN_POINT('',(-38.5,-66.0499999999593,15.));
#1337=CARTESIAN_POINT('Origin',(0.,0.,15.));
#1338=CARTESIAN_POINT('',(-39.,69.0500000000087,15.));
#1339=CARTESIAN_POINT('',(-38.6457513110646,69.0500000000087,15.));
#1340=CARTESIAN_POINT('',(-39.,69.0500000000087,15.));
#1341=CARTESIAN_POINT('',(-39.,68.6957513110734,15.));
#1342=CARTESIAN_POINT('Origin',(-36.,66.0500000000088,15.));
#1343=CARTESIAN_POINT('',(-39.,68.6957513110734,15.));
#1344=CARTESIAN_POINT('Origin',(0.,0.,15.));
#1345=CARTESIAN_POINT('',(-39.,-69.0500000000087,15.));
#1346=CARTESIAN_POINT('',(-39.,-68.6957513110733,15.));
#1347=CARTESIAN_POINT('',(-39.,-69.0500000000087,15.));
#1348=CARTESIAN_POINT('',(-38.6457513110646,-69.0500000000087,15.));
#1349=CARTESIAN_POINT('Origin',(-36.,-66.0500000000087,15.));
#1350=CARTESIAN_POINT('',(-38.6457513110646,-69.0500000000087,15.));
#1351=CARTESIAN_POINT('Origin',(0.,0.,15.));
#1352=CARTESIAN_POINT('',(38.6457513110646,-69.0500000000087,15.));
#1353=CARTESIAN_POINT('',(39.,-68.6957513110733,15.));
#1354=CARTESIAN_POINT('Origin',(36.,-66.0500000000087,15.));
#1355=CARTESIAN_POINT('',(39.,-69.0500000000087,15.));
#1356=CARTESIAN_POINT('',(39.,-68.6957513110733,15.));
#1357=CARTESIAN_POINT('',(39.,-69.0500000000087,15.));
#1358=CARTESIAN_POINT('Origin',(0.,0.,15.));
#1359=CARTESIAN_POINT('',(39.,68.6957513110733,15.));
#1360=CARTESIAN_POINT('',(38.6457513110646,69.0500000000087,15.));
#1361=CARTESIAN_POINT('Origin',(36.,66.0500000000087,15.));
#1362=CARTESIAN_POINT('',(39.,69.0500000000087,15.));
#1363=CARTESIAN_POINT('',(38.6457513110646,69.0500000000087,15.));
#1364=CARTESIAN_POINT('',(39.,69.0500000000087,15.));
#1365=CARTESIAN_POINT('Origin',(0.,0.,18.));
#1366=CARTESIAN_POINT('',(-41.,-66.0500000000087,18.));
#1367=CARTESIAN_POINT('',(-36.,-71.0500000000087,18.));
#1368=CARTESIAN_POINT('Origin',(-36.,-66.0500000000087,18.));
#1369=CARTESIAN_POINT('',(36.,-71.0500000000087,18.));
#1370=CARTESIAN_POINT('',(-36.,-71.0500000000087,18.));
#1371=CARTESIAN_POINT('',(41.,-66.0500000000087,18.));
#1372=CARTESIAN_POINT('Origin',(36.,-66.0500000000087,18.));
#1373=CARTESIAN_POINT('',(41.,71.0500000000087,18.));
#1374=CARTESIAN_POINT('',(41.,-66.0500000000087,18.));
#1375=CARTESIAN_POINT('',(-41.,71.0500000000087,18.));
#1376=CARTESIAN_POINT('',(41.,71.0500000000087,18.));
#1377=CARTESIAN_POINT('',(-41.,71.0500000000087,18.));
#1378=CARTESIAN_POINT('Origin',(-36.,-66.0500000000087,0.));
#1379=CARTESIAN_POINT('',(-33.9,-66.0500000000087,0.));
#1380=CARTESIAN_POINT('',(-33.9,-66.0500000000087,0.));
#1381=CARTESIAN_POINT('Origin',(-36.,-66.0500000000087,0.));
#1382=CARTESIAN_POINT('Origin',(36.,66.0500000000087,0.));
#1383=CARTESIAN_POINT('',(39.,68.6957513110733,0.));
#1384=CARTESIAN_POINT('',(38.6457513110646,69.0500000000087,0.));
#1385=CARTESIAN_POINT('Origin',(36.,66.0500000000087,0.));
#1386=CARTESIAN_POINT('',(38.6457513110646,69.0500000000087,0.));
#1387=CARTESIAN_POINT('',(39.,68.6957513110733,0.));
#1388=CARTESIAN_POINT('Origin',(39.,69.0500000000087,0.));
#1389=CARTESIAN_POINT('',(39.,69.0500000000087,0.));
#1390=CARTESIAN_POINT('',(39.,69.0500000000087,0.));
#1391=CARTESIAN_POINT('',(39.,69.0500000000087,0.));
#1392=CARTESIAN_POINT('Origin',(38.6457513110646,69.0500000000087,0.));
#1393=CARTESIAN_POINT('',(38.6457513110646,69.0500000000087,0.));
#1394=CARTESIAN_POINT('Origin',(36.,66.0500000000087,0.));
#1395=CARTESIAN_POINT('',(38.1,66.0500000000087,0.));
#1396=CARTESIAN_POINT('',(38.1,66.0500000000087,0.));
#1397=CARTESIAN_POINT('Origin',(36.,66.0500000000087,0.));
#1398=CARTESIAN_POINT('Origin',(36.,-66.0500000000087,0.));
#1399=CARTESIAN_POINT('',(38.6457513110646,-69.0500000000087,0.));
#1400=CARTESIAN_POINT('',(39.,-68.6957513110733,0.));
#1401=CARTESIAN_POINT('Origin',(36.,-66.0500000000087,0.));
#1402=CARTESIAN_POINT('',(39.,-68.6957513110733,0.));
#1403=CARTESIAN_POINT('',(38.6457513110646,-69.0500000000087,0.));
#1404=CARTESIAN_POINT('Origin',(39.,-69.0500000000087,0.));
#1405=CARTESIAN_POINT('',(39.,-69.0500000000087,0.));
#1406=CARTESIAN_POINT('',(39.,-69.0500000000087,0.));
#1407=CARTESIAN_POINT('',(39.,-69.0500000000087,0.));
#1408=CARTESIAN_POINT('Origin',(39.,-68.6957513110733,0.));
#1409=CARTESIAN_POINT('',(39.,-68.6957513110733,0.));
#1410=CARTESIAN_POINT('Origin',(36.,-66.0500000000087,0.));
#1411=CARTESIAN_POINT('',(38.1,-66.0500000000087,0.));
#1412=CARTESIAN_POINT('',(38.1,-66.0500000000087,0.));
#1413=CARTESIAN_POINT('Origin',(36.,-66.0500000000087,0.));
#1414=CARTESIAN_POINT('Origin',(-39.,-69.0500000000087,0.));
#1415=CARTESIAN_POINT('',(-39.,-69.0500000000087,0.));
#1416=CARTESIAN_POINT('',(-39.,-68.6957513110733,0.));
#1417=CARTESIAN_POINT('',(-39.,-69.0500000000087,0.));
#1418=CARTESIAN_POINT('',(-39.,-68.6957513110733,0.));
#1419=CARTESIAN_POINT('',(-39.,-69.0500000000087,0.));
#1420=CARTESIAN_POINT('Origin',(-38.6457513110646,-69.0500000000087,0.));
#1421=CARTESIAN_POINT('',(-38.6457513110646,-69.0500000000087,0.));
#1422=CARTESIAN_POINT('',(-38.6457513110646,-69.0500000000087,0.));
#1423=CARTESIAN_POINT('',(-38.6457513110646,-69.0500000000087,0.));
#1424=CARTESIAN_POINT('Origin',(-36.,-66.0500000000087,0.));
#1425=CARTESIAN_POINT('Origin',(-36.,-66.0500000000087,0.));
#1426=CARTESIAN_POINT('Origin',(-36.,66.0500000000088,0.));
#1427=CARTESIAN_POINT('',(-33.9,66.0500000000088,0.));
#1428=CARTESIAN_POINT('',(-33.9,66.0500000000088,0.));
#1429=CARTESIAN_POINT('Origin',(-36.,66.0500000000088,0.));
#1430=CARTESIAN_POINT('Origin',(-39.,69.0500000000087,0.));
#1431=CARTESIAN_POINT('',(-39.,69.0500000000087,0.));
#1432=CARTESIAN_POINT('',(-38.6457513110646,69.0500000000087,0.));
#1433=CARTESIAN_POINT('',(-39.,69.0500000000087,0.));
#1434=CARTESIAN_POINT('',(-38.6457513110646,69.0500000000087,0.));
#1435=CARTESIAN_POINT('',(-39.,69.0500000000087,0.));
#1436=CARTESIAN_POINT('Origin',(-39.,68.6957513110734,0.));
#1437=CARTESIAN_POINT('',(-39.,68.6957513110734,0.));
#1438=CARTESIAN_POINT('',(-39.,68.6957513110734,0.));
#1439=CARTESIAN_POINT('',(-39.,68.6957513110734,0.));
#1440=CARTESIAN_POINT('Origin',(-36.,66.0500000000088,0.));
#1441=CARTESIAN_POINT('Origin',(-36.,66.0500000000088,0.));
#1442=CARTESIAN_POINT('Origin',(-36.,66.0500000000088,0.));
#1443=CARTESIAN_POINT('',(-38.5,62.9275010008095,0.));
#1444=CARTESIAN_POINT('',(-33.3542486889354,69.0500000000087,0.));
#1445=CARTESIAN_POINT('Origin',(-36.,66.0500000000088,0.));
#1446=CARTESIAN_POINT('',(-33.3542486889354,69.0500000000087,0.));
#1447=CARTESIAN_POINT('',(-38.5,62.9275010008095,0.));
#1448=CARTESIAN_POINT('Origin',(-38.5,-62.9275010008095,0.));
#1449=CARTESIAN_POINT('',(-38.5,-62.9275010008095,0.));
#1450=CARTESIAN_POINT('',(-38.5,-66.0499999999593,0.));
#1451=CARTESIAN_POINT('',(-38.5,-62.9275010008095,0.));
#1452=CARTESIAN_POINT('Origin',(-36.,-66.0500000000087,0.));
#1453=CARTESIAN_POINT('',(-32.8775010008008,-68.5500000000087,0.));
#1454=CARTESIAN_POINT('Origin',(-36.,-66.0500000000087,0.));
#1455=CARTESIAN_POINT('',(-32.8775010008008,-68.5500000000087,0.));
#1456=CARTESIAN_POINT('Origin',(32.8775010008008,-68.5500000000087,0.));
#1457=CARTESIAN_POINT('',(32.8775010008008,-68.5500000000087,0.));
#1458=CARTESIAN_POINT('',(36.0000000000582,-68.5500000000087,0.));
#1459=CARTESIAN_POINT('',(32.8775010008008,-68.5500000000087,0.));
#1460=CARTESIAN_POINT('Origin',(36.,-66.0500000000087,0.));
#1461=CARTESIAN_POINT('',(38.5,-62.9275010008095,0.));
#1462=CARTESIAN_POINT('Origin',(36.,-66.0500000000087,0.));
#1463=CARTESIAN_POINT('',(38.5,-62.9275010008095,0.));
#1464=CARTESIAN_POINT('Origin',(38.5,62.9275010008096,0.));
#1465=CARTESIAN_POINT('',(38.5,62.9275010008096,0.));
#1466=CARTESIAN_POINT('',(38.5,86.9499999999243,0.));
#1467=CARTESIAN_POINT('',(38.5,62.9275010008096,0.));
#1468=CARTESIAN_POINT('Origin',(36.,66.0500000000087,0.));
#1469=CARTESIAN_POINT('',(33.3542486889354,69.0500000000087,0.));
#1470=CARTESIAN_POINT('Origin',(36.,66.0500000000087,0.));
#1471=CARTESIAN_POINT('',(33.3542486889354,69.0500000000087,0.));
#1472=CARTESIAN_POINT('Origin',(-33.3542486889354,69.0500000000087,0.));
#1473=CARTESIAN_POINT('',(-33.3542486889354,69.0500000000087,0.));
#1474=CARTESIAN_POINT('Origin',(41.,71.0500000000087,0.));
#1475=CARTESIAN_POINT('',(41.,71.0500000000087,0.));
#1476=CARTESIAN_POINT('',(-41.,71.0500000000087,0.));
#1477=CARTESIAN_POINT('',(41.,71.0500000000087,0.));
#1478=CARTESIAN_POINT('',(-41.,71.0500000000087,0.));
#1479=CARTESIAN_POINT('',(41.,71.0500000000087,0.));
#1480=CARTESIAN_POINT('Origin',(41.,-66.0500000000087,0.));
#1481=CARTESIAN_POINT('',(41.,-66.0500000000087,0.));
#1482=CARTESIAN_POINT('',(41.,-66.0500000000087,0.));
#1483=CARTESIAN_POINT('',(41.,-66.0500000000087,0.));
#1484=CARTESIAN_POINT('Origin',(36.,-66.0500000000087,0.));
#1485=CARTESIAN_POINT('',(36.,-71.0500000000087,0.));
#1486=CARTESIAN_POINT('Origin',(36.,-66.0500000000087,0.));
#1487=CARTESIAN_POINT('',(36.,-71.0500000000087,0.));
#1488=CARTESIAN_POINT('Origin',(-36.,-71.0500000000087,0.));
#1489=CARTESIAN_POINT('',(-36.,-71.0500000000087,0.));
#1490=CARTESIAN_POINT('',(-36.,-71.0500000000087,0.));
#1491=CARTESIAN_POINT('',(-36.,-71.0500000000087,0.));
#1492=CARTESIAN_POINT('Origin',(-36.,-66.0500000000087,0.));
#1493=CARTESIAN_POINT('',(-41.,-66.0500000000087,0.));
#1494=CARTESIAN_POINT('Origin',(-36.,-66.0500000000087,0.));
#1495=CARTESIAN_POINT('',(-41.,-66.0500000000087,0.));
#1496=CARTESIAN_POINT('Origin',(-41.,71.0500000000087,0.));
#1497=CARTESIAN_POINT('',(-41.,86.9499999999913,0.));
#1498=CARTESIAN_POINT('Origin',(0.,0.,0.));
#1499=CARTESIAN_POINT('',(0.,0.,18.));
#1500=UNCERTAINTY_MEASURE_WITH_UNIT(LENGTH_MEASURE(0.01),#1504,
'DISTANCE_ACCURACY_VALUE',
'Maximum model space distance between geometric entities at asserted c
onnectivities');
#1501=UNCERTAINTY_MEASURE_WITH_UNIT(LENGTH_MEASURE(0.01),#1504,
'DISTANCE_ACCURACY_VALUE',
'Maximum model space distance between geometric entities at asserted c
onnectivities');
#1502=(
GEOMETRIC_REPRESENTATION_CONTEXT(3)
GLOBAL_UNCERTAINTY_ASSIGNED_CONTEXT((#1500))
GLOBAL_UNIT_ASSIGNED_CONTEXT((#1504,#1506,#1507))
REPRESENTATION_CONTEXT('','3D')
);
#1503=(
GEOMETRIC_REPRESENTATION_CONTEXT(3)
GLOBAL_UNCERTAINTY_ASSIGNED_CONTEXT((#1501))
GLOBAL_UNIT_ASSIGNED_CONTEXT((#1504,#1506,#1507))
REPRESENTATION_CONTEXT('','3D')
);
#1504=(
LENGTH_UNIT()
NAMED_UNIT(*)
SI_UNIT(.MILLI.,.METRE.)
);
#1505=(
LENGTH_UNIT()
NAMED_UNIT(*)
SI_UNIT(.CENTI.,.METRE.)
);
#1506=(
NAMED_UNIT(*)
PLANE_ANGLE_UNIT()
SI_UNIT($,.RADIAN.)
);
#1507=(
NAMED_UNIT(*)
SI_UNIT($,.STERADIAN.)
SOLID_ANGLE_UNIT()
);
#1508=SHAPE_DEFINITION_REPRESENTATION(#1509,#1510);
#1509=PRODUCT_DEFINITION_SHAPE('',$,#1512);
#1510=SHAPE_REPRESENTATION('',(#907),#1502);
#1511=PRODUCT_DEFINITION_CONTEXT('part definition',#1516,'design');
#1512=PRODUCT_DEFINITION('toppcb','toppcb',#1513,#1511);
#1513=PRODUCT_DEFINITION_FORMATION('',$,#1518);
#1514=PRODUCT_RELATED_PRODUCT_CATEGORY('toppcb','toppcb',(#1518));
#1515=APPLICATION_PROTOCOL_DEFINITION('international standard',
'automotive_design',2009,#1516);
#1516=APPLICATION_CONTEXT(
'Core Data for Automotive Mechanical Design Process');
#1517=PRODUCT_CONTEXT('part definition',#1516,'mechanical');
#1518=PRODUCT('toppcb','toppcb',$,(#1517));
#1519=PRESENTATION_STYLE_ASSIGNMENT((#1521));
#1520=PRESENTATION_STYLE_ASSIGNMENT((#1522));
#1521=SURFACE_STYLE_USAGE(.BOTH.,#1525);
#1522=SURFACE_STYLE_USAGE(.BOTH.,#1526);
#1523=SURFACE_STYLE_RENDERING_WITH_PROPERTIES($,#1533,(#1524));
#1524=SURFACE_STYLE_TRANSPARENT(0.);
#1525=SURFACE_SIDE_STYLE('',(#1527,#1523));
#1526=SURFACE_SIDE_STYLE('',(#1528));
#1527=SURFACE_STYLE_FILL_AREA(#1529);
#1528=SURFACE_STYLE_FILL_AREA(#1530);
#1529=FILL_AREA_STYLE('',(#1531));
#1530=FILL_AREA_STYLE('',(#1532));
#1531=FILL_AREA_STYLE_COLOUR('',#1533);
#1532=FILL_AREA_STYLE_COLOUR('',#1534);
#1533=COLOUR_RGB('',0.749019607843137,0.749019607843137,0.749019607843137);
#1534=COLOUR_RGB('',1.,1.,0.);
ENDSEC;
END-ISO-10303-21;
